<svg width="20" height="20" viewBox="0 0 20 20" fill="none" xmlns="http://www.w3.org/2000/svg">
<path d="M13.75 2.5C16.2816 2.5 18.3333 4.58333 18.3333 7.5C18.3333 13.3333 12.0833 16.6667 9.99996 17.9167C8.35163 16.9283 4.09663 14.6358 2.39079 10.8333H6.30496L7.08329 9.53667L9.58329 13.7033L11.305 10.8333H14.1666V9.16667H10.3616L9.58329 10.4633L7.08329 6.29667L5.36163 9.16667H1.84163C1.7251 8.61877 1.66645 8.06015 1.66663 7.5C1.66663 4.58333 3.74996 2.5 6.24996 2.5C7.79996 2.5 9.16663 3.33333 9.99996 4.16667C10.8333 3.33333 12.2 2.5 13.75 2.5Z" fill="#111111"/>
</svg>
