<svg width="227" height="223" viewBox="0 0 227 223" fill="none" xmlns="http://www.w3.org/2000/svg">
<path d="M37.228 48.9296C-4.87273 91.4179 -4.55861 159.987 37.9296 202.087C80.4178 244.188 148.986 243.874 191.087 201.386C233.188 158.897 232.874 90.3287 190.386 48.228L175.14 63.6139C189.611 77.9554 198.565 96.9379 200.429 117.226C202.293 137.515 196.948 157.811 185.332 174.549C173.716 191.287 156.573 203.396 136.915 208.749C117.257 214.102 96.3416 212.356 77.8433 203.817C59.345 195.279 44.4473 180.495 35.7679 162.062C27.0885 143.63 25.1826 122.728 30.385 103.029C35.5874 83.3311 47.5654 66.0962 64.2143 54.3529C80.8633 42.6096 101.118 37.1093 121.42 38.8182L121.57 51.1315L152.017 25.3596L121.149 2.55692L121.313 17.0929C105.834 16.0539 90.3119 18.3595 75.8029 23.853C61.2939 29.3465 48.1375 37.8991 37.228 48.9296Z" fill="url(#paint0_linear_139_486)"/>
<rect x="52.2067" y="63.9229" width="124.023" height="123.592" rx="61.7962" fill="url(#paint1_linear_139_486)"/>
<path d="M114.361 72.8488C113.445 72.8533 112.707 73.5956 112.703 74.5064V80.9774C112.707 81.8928 113.445 82.6351 114.361 82.6351C115.276 82.6351 116.014 81.8928 116.018 80.9774V74.5064C116.014 73.5956 115.276 72.8533 114.361 72.8488ZM88.6106 79.7661C88.2963 79.757 87.9912 79.8344 87.7179 79.9938C87.3354 80.2123 87.0576 80.5766 86.9392 81.0002C86.8253 81.4282 86.8845 81.8836 87.1031 82.2661L90.3366 87.8628V87.8582C90.8012 88.6552 91.8167 88.9238 92.6092 88.4639C93.4062 87.9994 93.6749 86.9839 93.2149 86.187L89.995 80.5903L89.9905 80.5948C89.7036 80.0985 89.1844 79.7888 88.6106 79.7661ZM140.111 79.7661C139.537 79.7888 139.018 80.0985 138.731 80.5949L135.511 86.1916L135.506 86.187C135.046 86.9839 135.315 87.9995 136.112 88.4639C136.904 88.9239 137.92 88.6552 138.385 87.8583L141.618 82.2615V82.2661C141.837 81.8836 141.896 81.4282 141.782 81.0002C141.664 80.5767 141.386 80.2124 141.003 79.9938C140.735 79.8344 140.425 79.757 140.111 79.7661ZM114.361 90.8592C113.919 90.8592 113.495 91.0368 113.186 91.351C112.876 91.6653 112.698 92.0888 112.703 92.5305V125.232L94.0392 137.304H94.0346C93.6612 137.545 93.4016 137.923 93.3105 138.356C93.2148 138.793 93.3014 139.244 93.5428 139.617C94.0437 140.387 95.073 140.605 95.8427 140.109L115.271 127.545V127.541C115.74 127.231 116.023 126.703 116.018 126.143V92.5306C116.023 91.6107 115.281 90.8638 114.361 90.8592ZM69.5831 98.6645C69.4601 98.6645 69.3372 98.6827 69.2142 98.7146C68.7907 98.8284 68.4263 99.1062 68.2077 99.4888C67.7432 100.281 68.0164 101.301 68.8089 101.766L74.4061 104.999C74.7887 105.217 75.2441 105.277 75.6676 105.158C76.0957 105.044 76.4601 104.762 76.6787 104.38C77.1432 103.587 76.87 102.567 76.0775 102.103L70.4803 98.8831C70.2116 98.7282 69.8973 98.6463 69.5831 98.6599L69.5831 98.6645ZM159.138 98.6645C158.824 98.6508 158.51 98.7283 158.241 98.8877L152.644 102.107C151.851 102.572 151.578 103.587 152.043 104.384C152.503 105.181 153.518 105.459 154.315 104.999L159.912 101.766C160.705 101.301 160.978 100.281 160.514 99.4888C160.295 99.1063 159.931 98.8285 159.507 98.7146C159.384 98.6827 159.261 98.6691 159.138 98.6645ZM62.7369 124.472V124.467C62.2906 124.467 61.8671 124.645 61.5529 124.959C61.2386 125.273 61.061 125.697 61.0655 126.143C61.0655 126.584 61.2432 127.008 61.5529 127.318C61.8671 127.632 62.2952 127.805 62.7369 127.805H69.1904C70.1058 127.8 70.8482 127.058 70.8482 126.143C70.8482 125.701 70.6752 125.273 70.3655 124.963C70.0558 124.649 69.6322 124.471 69.1905 124.467L62.7369 124.472ZM159.533 124.472L159.529 124.467C159.087 124.472 158.664 124.649 158.354 124.963C158.044 125.273 157.871 125.701 157.871 126.143C157.871 127.058 158.613 127.8 159.529 127.805H165.982C166.424 127.805 166.852 127.632 167.166 127.318C167.476 127.008 167.654 126.584 167.654 126.143C167.658 125.697 167.481 125.273 167.166 124.959C166.852 124.645 166.429 124.467 165.982 124.467L159.533 124.472ZM75.2972 147.063C74.9829 147.05 74.6732 147.127 74.4045 147.286L68.8073 150.506C68.0148 150.97 67.7416 151.991 68.2061 152.783C68.4247 153.165 68.7891 153.448 69.2172 153.562C69.6407 153.675 70.0962 153.621 70.4787 153.398L76.0759 150.164C76.8684 149.705 77.1416 148.685 76.6771 147.888C76.4585 147.51 76.0942 147.227 75.6706 147.113C75.5476 147.086 75.4247 147.068 75.2972 147.063ZM153.422 147.063C153.294 147.063 153.171 147.082 153.048 147.113C152.625 147.227 152.26 147.505 152.042 147.888C151.577 148.68 151.851 149.7 152.643 150.164L158.24 153.398C159.037 153.853 160.053 153.58 160.513 152.783C160.977 151.986 160.704 150.966 159.912 150.506L154.314 147.286C154.046 147.127 153.736 147.05 153.422 147.059L153.422 147.063ZM91.7154 163.599C91.1461 163.622 90.6223 163.931 90.3354 164.428L87.1019 170.024V170.02C86.8833 170.402 86.8241 170.858 86.938 171.286C87.0564 171.709 87.3342 172.074 87.7167 172.292C88.0993 172.515 88.5547 172.574 88.9828 172.456C89.4063 172.342 89.7707 172.06 89.9893 171.677L93.2092 166.094L93.2137 166.099C93.6737 165.302 93.405 164.286 92.608 163.822C92.3393 163.667 92.0296 163.59 91.7154 163.599ZM137.004 163.599C136.689 163.59 136.38 163.667 136.111 163.822C135.314 164.286 135.045 165.302 135.505 166.099L138.725 171.682L138.73 171.677C138.948 172.064 139.313 172.342 139.736 172.456C140.164 172.574 140.62 172.515 141.002 172.292C141.385 172.074 141.663 171.709 141.781 171.286C141.895 170.858 141.836 170.402 141.617 170.02L138.384 164.423V164.428C138.097 163.931 137.573 163.622 137.004 163.599ZM114.359 169.651C113.444 169.651 112.706 170.393 112.702 171.308V177.766C112.697 178.208 112.875 178.631 113.184 178.945C113.494 179.26 113.918 179.433 114.359 179.437C114.801 179.433 115.225 179.26 115.534 178.945C115.844 178.631 116.022 178.208 116.017 177.766V171.308C116.013 170.393 115.275 169.651 114.359 169.651Z" fill="url(#paint2_linear_139_486)"/>
<defs>
<linearGradient id="paint0_linear_139_486" x1="190.386" y1="48.228" x2="161.137" y2="157.384" gradientUnits="userSpaceOnUse">
<stop stop-color="#1397F6"/>
<stop offset="1" stop-color="#F3F7FC"/>
</linearGradient>
<linearGradient id="paint1_linear_139_486" x1="114.218" y1="63.9229" x2="114.218" y2="187.515" gradientUnits="userSpaceOnUse">
<stop stop-color="#1397F6"/>
<stop offset="1" stop-color="#A1D7FF"/>
</linearGradient>
<linearGradient id="paint2_linear_139_486" x1="114.36" y1="72.8488" x2="114.36" y2="179.437" gradientUnits="userSpaceOnUse">
<stop stop-color="white"/>
<stop offset="1" stop-color="white" stop-opacity="0.72"/>
</linearGradient>
</defs>
</svg>
