<svg width="12" height="12" viewBox="0 0 12 12" fill="none" xmlns="http://www.w3.org/2000/svg">
<path d="M4.4254 1.50035C4.19841 1.50033 3.9741 1.54937 3.76783 1.64413C3.56156 1.73888 3.37821 1.87711 3.23035 2.04933C3.08249 2.22156 2.9736 2.42371 2.91115 2.64194C2.8487 2.86017 2.83416 3.08933 2.86853 3.3137C2.57586 3.35244 2.29996 3.47266 2.07232 3.66066C1.84469 3.84866 1.67448 4.09686 1.58112 4.37694C1.48776 4.65702 1.47501 4.9577 1.54432 5.24468C1.61363 5.53166 1.76221 5.79338 1.97311 5.99998C1.79139 6.17789 1.65546 6.39717 1.57694 6.63907C1.49842 6.88096 1.47965 7.13827 1.52223 7.38899C1.56482 7.63972 1.66749 7.8764 1.82147 8.07881C1.97545 8.28121 2.17615 8.44332 2.40642 8.55126C2.40252 8.59986 2.40057 8.64935 2.40057 8.69975C2.40055 9.06535 2.51187 9.42228 2.7197 9.72306C2.92754 10.0238 3.22205 10.2542 3.56403 10.3834C3.90601 10.5127 4.27925 10.5348 4.63407 10.4467C4.9889 10.3586 5.30849 10.1645 5.55031 9.89035V1.97281C5.40366 1.8232 5.22863 1.70435 5.03547 1.62322C4.84231 1.54209 4.63491 1.50032 4.4254 1.50035ZM6.45023 1.97281V9.89035C6.70048 10.174 7.03376 10.3717 7.40272 10.4552C7.77168 10.5387 8.15757 10.5038 8.50558 10.3555C8.85359 10.2072 9.14603 9.95301 9.34136 9.62904C9.53668 9.30508 9.62497 8.92781 9.59367 8.55081C9.82389 8.44289 10.0246 8.28083 10.1785 8.07849C10.3325 7.87614 10.4352 7.63952 10.4778 7.38886C10.5204 7.13819 10.5017 6.88094 10.4233 6.63907C10.3449 6.39721 10.209 6.17793 10.0274 5.99998C10.2383 5.79338 10.3869 5.53166 10.4562 5.24468C10.5255 4.9577 10.5128 4.65702 10.4194 4.37694C10.3261 4.09686 10.1559 3.84866 9.92822 3.66066C9.70059 3.47266 9.42469 3.35244 9.13201 3.3137C9.14401 3.23571 9.15016 3.15621 9.15046 3.07522C9.1505 2.76235 9.05736 2.45656 8.88291 2.19685C8.70845 1.93713 8.46059 1.73526 8.17094 1.61699C7.88129 1.49872 7.56297 1.4694 7.25659 1.53277C6.95021 1.59614 6.66965 1.74934 6.45068 1.97281" fill="#1397F6"/>
</svg>
