<svg width="305" height="54" viewBox="0 0 305 54" fill="none" xmlns="http://www.w3.org/2000/svg">
<path d="M20.4727 53.8593C17.6832 53.8593 15.049 53.1957 12.7178 52.0195C12.2254 52.2894 11.7151 52.5382 11.1855 52.7597C7.48421 54.3078 3.53039 54.3567 0 53.1845C2.36536 50.9565 4.31617 48.4095 5.79785 45.6699C4.17187 43.0391 3.23242 39.939 3.23242 36.6191H20.4727V53.8593Z" fill="white" fill-opacity="0.8"/>
<path d="M3.23267 12.9302C3.23267 5.78907 9.02173 0 16.1629 0H20.473V36.619H3.23267V12.9302Z" fill="white" fill-opacity="0.8"/>
<path d="M305 12.9302C305 5.78906 299.211 0 292.07 0H20.4729V54H292.07C299.211 54 305 48.2109 305 41.0698V12.9302Z" fill="white" fill-opacity="0.8"/>
<path d="M21.5116 23V13.5455H22.8919V17.0586H22.975C23.0551 16.9109 23.1705 16.7401 23.3213 16.5462C23.4721 16.3523 23.6814 16.183 23.9491 16.0384C24.2169 15.8906 24.5708 15.8168 25.0109 15.8168C25.5833 15.8168 26.0942 15.9614 26.5436 16.2507C26.9929 16.54 27.3453 16.957 27.6007 17.5018C27.8593 18.0465 27.9885 18.7021 27.9885 19.4684C27.9885 20.2347 27.8608 20.8918 27.6054 21.4396C27.3499 21.9844 26.9991 22.4045 26.5528 22.6999C26.1065 22.9923 25.5972 23.1385 25.0247 23.1385C24.5939 23.1385 24.2415 23.0662 23.9676 22.9215C23.6967 22.7769 23.4844 22.6076 23.3305 22.4137C23.1766 22.2198 23.0581 22.0475 22.975 21.8967H22.8596V23H21.5116ZM22.8642 19.4545C22.8642 19.9531 22.9366 20.3902 23.0812 20.7656C23.2259 21.1411 23.4351 21.435 23.7091 21.6474C23.983 21.8567 24.3184 21.9613 24.7154 21.9613C25.1278 21.9613 25.4725 21.852 25.7495 21.6335C26.0265 21.4119 26.2358 21.1119 26.3774 20.7333C26.522 20.3548 26.5943 19.9285 26.5943 19.4545C26.5943 18.9867 26.5236 18.5666 26.382 18.1942C26.2435 17.8219 26.0342 17.5279 25.7542 17.3125C25.4772 17.0971 25.1309 16.9893 24.7154 16.9893C24.3153 16.9893 23.9768 17.0924 23.6998 17.2987C23.4259 17.5049 23.2182 17.7926 23.0766 18.1619C22.935 18.5312 22.8642 18.9621 22.8642 19.4545ZM29.5385 23V15.9091H30.8727V17.0355H30.9465C31.0758 16.6539 31.3035 16.3538 31.6298 16.1353C31.9591 15.9137 32.3315 15.8029 32.747 15.8029C32.8331 15.8029 32.9347 15.806 33.0516 15.8121C33.1717 15.8183 33.2655 15.826 33.3333 15.8352V17.1555C33.2779 17.1402 33.1794 17.1232 33.0378 17.1048C32.8962 17.0832 32.7547 17.0724 32.6131 17.0724C32.2869 17.0724 31.996 17.1417 31.7406 17.2802C31.4882 17.4156 31.2882 17.6049 31.1404 17.848C30.9927 18.0881 30.9188 18.362 30.9188 18.6697V23H29.5385ZM37.2607 23.1431C36.5959 23.1431 36.0158 22.9908 35.5203 22.6861C35.0248 22.3814 34.6401 21.9551 34.3662 21.4073C34.0923 20.8595 33.9553 20.2193 33.9553 19.4869C33.9553 18.7513 34.0923 18.1081 34.3662 17.5572C34.6401 17.0063 35.0248 16.5785 35.5203 16.2738C36.0158 15.9691 36.5959 15.8168 37.2607 15.8168C37.9255 15.8168 38.5056 15.9691 39.0011 16.2738C39.4966 16.5785 39.8813 17.0063 40.1553 17.5572C40.4292 18.1081 40.5661 18.7513 40.5661 19.4869C40.5661 20.2193 40.4292 20.8595 40.1553 21.4073C39.8813 21.9551 39.4966 22.3814 39.0011 22.6861C38.5056 22.9908 37.9255 23.1431 37.2607 23.1431ZM37.2653 21.9844C37.6962 21.9844 38.0532 21.8705 38.3364 21.6428C38.6195 21.415 38.8288 21.1119 38.9642 20.7333C39.1027 20.3548 39.1719 19.9377 39.1719 19.4822C39.1719 19.0298 39.1027 18.6143 38.9642 18.2358C38.8288 17.8542 38.6195 17.5479 38.3364 17.3171C38.0532 17.0863 37.6962 16.9709 37.2653 16.9709C36.8314 16.9709 36.4713 17.0863 36.1851 17.3171C35.9019 17.5479 35.6911 17.8542 35.5526 18.2358C35.4172 18.6143 35.3495 19.0298 35.3495 19.4822C35.3495 19.9377 35.4172 20.3548 35.5526 20.7333C35.6911 21.1119 35.9019 21.415 36.1851 21.6428C36.4713 21.8705 36.8314 21.9844 37.2653 21.9844ZM46.4198 25.6591C46.2136 25.6591 46.0259 25.6422 45.8566 25.6083C45.6873 25.5775 45.5611 25.5437 45.478 25.5067L45.8104 24.3757C46.0628 24.4434 46.2875 24.4727 46.4844 24.4634C46.6814 24.4542 46.8553 24.3803 47.0061 24.2418C47.16 24.1033 47.2954 23.8771 47.4124 23.5632L47.5832 23.0923L44.9887 15.9091H46.466L48.2618 21.4119H48.3356L50.1315 15.9091H51.6133L48.6911 23.9464C48.5557 24.3157 48.3834 24.6281 48.1741 24.8835C47.9648 25.142 47.7155 25.3359 47.4262 25.4652C47.1369 25.5945 46.8014 25.6591 46.4198 25.6591ZM55.6562 23.1431C54.9915 23.1431 54.4113 22.9908 53.9158 22.6861C53.4203 22.3814 53.0356 21.9551 52.7617 21.4073C52.4878 20.8595 52.3508 20.2193 52.3508 19.4869C52.3508 18.7513 52.4878 18.1081 52.7617 17.5572C53.0356 17.0063 53.4203 16.5785 53.9158 16.2738C54.4113 15.9691 54.9915 15.8168 55.6562 15.8168C56.321 15.8168 56.9011 15.9691 57.3966 16.2738C57.8921 16.5785 58.2768 17.0063 58.5508 17.5572C58.8247 18.1081 58.9616 18.7513 58.9616 19.4869C58.9616 20.2193 58.8247 20.8595 58.5508 21.4073C58.2768 21.9551 57.8921 22.3814 57.3966 22.6861C56.9011 22.9908 56.321 23.1431 55.6562 23.1431ZM55.6608 21.9844C56.0917 21.9844 56.4487 21.8705 56.7319 21.6428C57.015 21.415 57.2243 21.1119 57.3597 20.7333C57.4982 20.3548 57.5674 19.9377 57.5674 19.4822C57.5674 19.0298 57.4982 18.6143 57.3597 18.2358C57.2243 17.8542 57.015 17.5479 56.7319 17.3171C56.4487 17.0863 56.0917 16.9709 55.6608 16.9709C55.2269 16.9709 54.8668 17.0863 54.5806 17.3171C54.2974 17.5479 54.0866 17.8542 53.9481 18.2358C53.8127 18.6143 53.745 19.0298 53.745 19.4822C53.745 19.9377 53.8127 20.3548 53.9481 20.7333C54.0866 21.1119 54.2974 21.415 54.5806 21.6428C54.8668 21.8705 55.2269 21.9844 55.6608 21.9844ZM64.9942 20.0593V15.9091H66.3792V23H65.0219V21.772H64.948C64.7849 22.1506 64.5233 22.466 64.1632 22.7184C63.8062 22.9677 63.3615 23.0923 62.8291 23.0923C62.3736 23.0923 61.9704 22.9923 61.6196 22.7923C61.2718 22.5891 60.9979 22.2891 60.7978 21.892C60.6009 21.495 60.5024 21.0041 60.5024 20.4194V15.9091H61.8827V20.2532C61.8827 20.7364 62.0166 21.1211 62.2843 21.4073C62.5521 21.6935 62.8999 21.8366 63.3277 21.8366C63.5862 21.8366 63.8432 21.772 64.0986 21.6428C64.3571 21.5135 64.571 21.3181 64.7403 21.0565C64.9126 20.7949 64.9973 20.4625 64.9942 20.0593ZM69.6107 13.5455V14.4318C69.6107 14.6934 69.5614 14.9689 69.463 15.2582C69.3676 15.5444 69.2321 15.8198 69.0567 16.0845C68.8813 16.3492 68.6751 16.5769 68.4381 16.7678L67.7549 16.2784C67.9364 16.0137 68.0934 15.7321 68.2257 15.4336C68.3612 15.1351 68.4289 14.8058 68.4289 14.4457V13.5455H69.6107ZM70.7348 23V15.9091H72.069V17.0355H72.1428C72.2721 16.6539 72.4998 16.3538 72.8261 16.1353C73.1554 15.9137 73.5278 15.8029 73.9432 15.8029C74.0294 15.8029 74.131 15.806 74.2479 15.8121C74.368 15.8183 74.4618 15.826 74.5295 15.8352V17.1555C74.4741 17.1402 74.3757 17.1232 74.2341 17.1048C74.0925 17.0832 73.9509 17.0724 73.8094 17.0724C73.4831 17.0724 73.1923 17.1417 72.9369 17.2802C72.6845 17.4156 72.4844 17.6049 72.3367 17.848C72.189 18.0881 72.1151 18.362 72.1151 18.6697V23H70.7348ZM78.5263 23.1431C77.8276 23.1431 77.2259 22.9938 76.7212 22.6953C76.2196 22.3937 75.8318 21.9705 75.5579 21.4258C75.287 20.878 75.1516 20.2363 75.1516 19.5007C75.1516 18.7744 75.287 18.1342 75.5579 17.5803C75.8318 17.0263 76.2134 16.5939 76.7027 16.283C77.1952 15.9722 77.7707 15.8168 78.4293 15.8168C78.8294 15.8168 79.2172 15.8829 79.5927 16.0153C79.9681 16.1476 80.3051 16.3554 80.6037 16.6385C80.9022 16.9216 81.1376 17.2894 81.31 17.7418C81.4823 18.1912 81.5685 18.7375 81.5685 19.3807V19.87H75.9318V18.8359H80.2159C80.2159 18.4728 80.142 18.1512 79.9943 17.8711C79.8466 17.5879 79.6388 17.3648 79.3711 17.2017C79.1064 17.0386 78.7956 16.957 78.4385 16.957C78.0508 16.957 77.7122 17.0524 77.4229 17.2433C77.1367 17.431 76.9151 17.6772 76.7581 17.9819C76.6043 18.2835 76.5273 18.6113 76.5273 18.9652V19.7731C76.5273 20.247 76.6104 20.6502 76.7766 20.9826C76.9459 21.315 77.1813 21.5689 77.4829 21.7443C77.7845 21.9167 78.1369 22.0028 78.5401 22.0028C78.8017 22.0028 79.0402 21.9659 79.2557 21.892C79.4711 21.8151 79.6573 21.7012 79.8143 21.5504C79.9712 21.3996 80.0912 21.2134 80.1743 20.9918L81.4808 21.2273C81.3762 21.612 81.1884 21.949 80.9176 22.2383C80.6498 22.5245 80.3128 22.7476 79.9066 22.9077C79.5034 23.0646 79.0433 23.1431 78.5263 23.1431ZM89.8135 23.1293C89.1795 23.1293 88.6133 23.02 88.1147 22.8015C87.6192 22.583 87.2268 22.2798 86.9375 21.892C86.6513 21.5012 86.4974 21.0488 86.4758 20.5348H87.9254C87.9439 20.8149 88.0377 21.058 88.207 21.2642C88.3794 21.4673 88.604 21.6243 88.881 21.7351C89.158 21.8459 89.4658 21.9013 89.8043 21.9013C90.1767 21.9013 90.506 21.8366 90.7922 21.7074C91.0815 21.5781 91.3077 21.3981 91.4709 21.1673C91.634 20.9334 91.7155 20.6641 91.7155 20.3594C91.7155 20.0424 91.634 19.7638 91.4709 19.5238C91.3108 19.2807 91.0754 19.0898 90.7645 18.9513C90.4568 18.8129 90.0844 18.7436 89.6473 18.7436H88.8487V17.5803H89.6473C89.9982 17.5803 90.306 17.5172 90.5706 17.391C90.8384 17.2648 91.0477 17.0894 91.1985 16.8647C91.3493 16.637 91.4247 16.3707 91.4247 16.0661C91.4247 15.7737 91.3585 15.5198 91.2262 15.3043C91.0969 15.0858 90.9123 14.915 90.6722 14.7919C90.4352 14.6688 90.1552 14.6072 89.832 14.6072C89.5242 14.6072 89.2365 14.6642 88.9687 14.7781C88.704 14.8888 88.4886 15.0489 88.3224 15.2582C88.1562 15.4644 88.067 15.7121 88.0547 16.0014H86.6743C86.6897 15.4905 86.8405 15.0412 87.1268 14.6534C87.4161 14.2656 87.7977 13.9625 88.2716 13.744C88.7456 13.5254 89.2719 13.4162 89.8505 13.4162C90.4568 13.4162 90.98 13.5347 91.4201 13.7717C91.8633 14.0056 92.2049 14.3179 92.4449 14.7088C92.6881 15.0997 92.8081 15.5275 92.805 15.9922C92.8081 16.5215 92.6604 16.9709 92.3618 17.3402C92.0664 17.7095 91.6724 17.9573 91.18 18.0835V18.1573C91.8079 18.2527 92.2941 18.502 92.6388 18.9052C92.9866 19.3084 93.159 19.8085 93.1559 20.4055C93.159 20.9257 93.0143 21.3919 92.7219 21.8043C92.4326 22.2167 92.0371 22.5414 91.5355 22.7784C91.0338 23.0123 90.4599 23.1293 89.8135 23.1293ZM94.9009 23V21.9659L98.1001 18.6513C98.4417 18.2912 98.7233 17.9757 98.9449 17.7049C99.1696 17.431 99.3373 17.1709 99.4481 16.9247C99.5589 16.6785 99.6143 16.4169 99.6143 16.1399C99.6143 15.826 99.5405 15.5552 99.3927 15.3274C99.245 15.0966 99.0434 14.9196 98.788 14.7965C98.5325 14.6703 98.2448 14.6072 97.9247 14.6072C97.5862 14.6072 97.2907 14.6765 97.0383 14.815C96.786 14.9535 96.5921 15.1489 96.4567 15.4013C96.3212 15.6536 96.2535 15.9491 96.2535 16.2876H94.8917C94.8917 15.7121 95.024 15.2089 95.2887 14.7781C95.5534 14.3472 95.9165 14.0133 96.3782 13.7763C96.8398 13.5362 97.3646 13.4162 97.9524 13.4162C98.5464 13.4162 99.0696 13.5347 99.522 13.7717C99.9775 14.0056 100.333 14.3256 100.588 14.7319C100.844 15.1351 100.972 15.5906 100.972 16.0984C100.972 16.4492 100.905 16.7924 100.773 17.1278C100.644 17.4633 100.418 17.8372 100.094 18.2496C99.7713 18.659 99.3219 19.156 98.7464 19.7408L96.8675 21.7074V21.7766H101.124V23H94.9009ZM104.688 21.7074L104.619 22.2106C104.572 22.5799 104.494 22.9646 104.383 23.3647C104.275 23.7679 104.163 24.1418 104.046 24.4865C103.932 24.8312 103.838 25.1051 103.765 25.3082H102.786C102.826 25.1174 102.881 24.8589 102.952 24.5327C103.023 24.2095 103.092 23.8479 103.16 23.4478C103.227 23.0477 103.278 22.6399 103.312 22.2244L103.358 21.7074H104.688ZM111.306 18.7898V23H109.925V15.9091H111.25V17.0632H111.338C111.501 16.6877 111.756 16.3861 112.104 16.1584C112.455 15.9306 112.897 15.8168 113.429 15.8168C113.912 15.8168 114.336 15.9183 114.699 16.1214C115.062 16.3215 115.343 16.62 115.543 17.017C115.744 17.4141 115.844 17.9049 115.844 18.4897V23H114.463V18.6559C114.463 18.1419 114.329 17.7403 114.062 17.451C113.794 17.1586 113.426 17.0124 112.958 17.0124C112.638 17.0124 112.353 17.0817 112.104 17.2202C111.858 17.3587 111.663 17.5618 111.518 17.8295C111.376 18.0942 111.306 18.4143 111.306 18.7898ZM120.682 23.1431C120.017 23.1431 119.437 22.9908 118.941 22.6861C118.446 22.3814 118.061 21.9551 117.787 21.4073C117.513 20.8595 117.376 20.2193 117.376 19.4869C117.376 18.7513 117.513 18.1081 117.787 17.5572C118.061 17.0063 118.446 16.5785 118.941 16.2738C119.437 15.9691 120.017 15.8168 120.682 15.8168C121.346 15.8168 121.927 15.9691 122.422 16.2738C122.918 16.5785 123.302 17.0063 123.576 17.5572C123.85 18.1081 123.987 18.7513 123.987 19.4869C123.987 20.2193 123.85 20.8595 123.576 21.4073C123.302 21.9551 122.918 22.3814 122.422 22.6861C121.927 22.9908 121.346 23.1431 120.682 23.1431ZM120.686 21.9844C121.117 21.9844 121.474 21.8705 121.757 21.6428C122.04 21.415 122.25 21.1119 122.385 20.7333C122.524 20.3548 122.593 19.9377 122.593 19.4822C122.593 19.0298 122.524 18.6143 122.385 18.2358C122.25 17.8542 122.04 17.5479 121.757 17.3171C121.474 17.0863 121.117 16.9709 120.686 16.9709C120.252 16.9709 119.892 17.0863 119.606 17.3171C119.323 17.5479 119.112 17.8542 118.974 18.2358C118.838 18.6143 118.77 19.0298 118.77 19.4822C118.77 19.9377 118.838 20.3548 118.974 20.7333C119.112 21.1119 119.323 21.415 119.606 21.6428C119.892 21.8705 120.252 21.9844 120.686 21.9844ZM128.838 15.9091V17.017H124.965V15.9091H128.838ZM126.003 14.2102H127.384V20.918C127.384 21.1857 127.424 21.3873 127.504 21.5227C127.584 21.6551 127.687 21.7459 127.813 21.7951C127.942 21.8413 128.082 21.8643 128.233 21.8643C128.344 21.8643 128.441 21.8567 128.524 21.8413C128.607 21.8259 128.672 21.8136 128.718 21.8043L128.967 22.9446C128.887 22.9754 128.773 23.0062 128.625 23.0369C128.478 23.0708 128.293 23.0893 128.071 23.0923C127.708 23.0985 127.37 23.0339 127.056 22.8984C126.742 22.763 126.488 22.5537 126.294 22.2706C126.1 21.9875 126.003 21.632 126.003 21.2042V14.2102ZM137.374 13.5455V23H135.943V14.9766H135.887L133.625 16.4538V15.0874L135.984 13.5455H137.374ZM143.075 13.4162C143.497 13.4193 143.912 13.4962 144.321 13.647C144.731 13.7978 145.1 14.044 145.429 14.3857C145.762 14.7273 146.026 15.1889 146.223 15.7706C146.423 16.3492 146.525 17.0694 146.528 17.9311C146.528 18.759 146.445 19.4961 146.279 20.1424C146.113 20.7856 145.874 21.3288 145.563 21.772C145.256 22.2152 144.882 22.5522 144.441 22.783C144.001 23.0138 143.506 23.1293 142.955 23.1293C142.392 23.1293 141.892 23.0185 141.455 22.7969C141.018 22.5753 140.662 22.2691 140.388 21.8782C140.114 21.4843 139.943 21.0318 139.876 20.521H141.284C141.376 20.9272 141.564 21.2565 141.847 21.5089C142.133 21.7582 142.503 21.8828 142.955 21.8828C143.647 21.8828 144.188 21.5812 144.575 20.978C144.963 20.3717 145.159 19.5253 145.162 18.4389H145.088C144.928 18.7036 144.728 18.9313 144.488 19.1222C144.251 19.313 143.984 19.4607 143.689 19.5653C143.394 19.67 143.078 19.7223 142.743 19.7223C142.198 19.7223 141.702 19.5884 141.256 19.3207C140.81 19.0529 140.454 18.6851 140.19 18.2173C139.925 17.7495 139.793 17.2156 139.793 16.6154C139.793 16.0183 139.928 15.4767 140.199 14.9904C140.473 14.5041 140.854 14.1194 141.344 13.8363C141.836 13.5501 142.413 13.41 143.075 13.4162ZM143.08 14.6165C142.72 14.6165 142.395 14.7057 142.106 14.8842C141.819 15.0597 141.593 15.2982 141.427 15.5998C141.261 15.8983 141.178 16.2307 141.178 16.5969C141.178 16.9632 141.258 17.2956 141.418 17.5941C141.581 17.8896 141.802 18.125 142.082 18.3004C142.366 18.4728 142.689 18.5589 143.052 18.5589C143.323 18.5589 143.575 18.5066 143.809 18.402C144.043 18.2973 144.248 18.1527 144.423 17.968C144.598 17.7803 144.735 17.5679 144.834 17.331C144.932 17.094 144.982 16.8447 144.982 16.5831C144.982 16.2353 144.899 15.9122 144.732 15.6136C144.569 15.3151 144.345 15.075 144.058 14.8935C143.772 14.7088 143.446 14.6165 143.08 14.6165ZM148.781 23.0877C148.529 23.0877 148.312 22.9985 148.13 22.82C147.948 22.6384 147.858 22.4199 147.858 22.1644C147.858 21.9121 147.948 21.6966 148.13 21.5181C148.312 21.3365 148.529 21.2457 148.781 21.2457C149.033 21.2457 149.25 21.3365 149.432 21.5181C149.613 21.6966 149.704 21.9121 149.704 22.1644C149.704 22.3337 149.661 22.4891 149.575 22.6307C149.492 22.7692 149.381 22.88 149.243 22.9631C149.104 23.0462 148.95 23.0877 148.781 23.0877ZM158.151 15.9091V17.017H154.278V15.9091H158.151ZM155.317 14.2102H156.697V20.918C156.697 21.1857 156.737 21.3873 156.817 21.5227C156.897 21.6551 157 21.7459 157.126 21.7951C157.256 21.8413 157.396 21.8643 157.546 21.8643C157.657 21.8643 157.754 21.8567 157.837 21.8413C157.92 21.8259 157.985 21.8136 158.031 21.8043L158.281 22.9446C158.2 22.9754 158.087 23.0062 157.939 23.0369C157.791 23.0708 157.607 23.0893 157.385 23.0923C157.022 23.0985 156.683 23.0339 156.369 22.8984C156.055 22.763 155.801 22.5537 155.608 22.2706C155.414 21.9875 155.317 21.632 155.317 21.2042V14.2102ZM161.211 18.7898V23H159.83V13.5455H161.192V17.0632H161.28C161.446 16.6816 161.7 16.3784 162.042 16.1538C162.383 15.9291 162.83 15.8168 163.381 15.8168C163.867 15.8168 164.292 15.9168 164.655 16.1168C165.021 16.3169 165.304 16.6154 165.504 17.0124C165.707 17.4064 165.809 17.8988 165.809 18.4897V23H164.429V18.6559C164.429 18.1358 164.295 17.7326 164.027 17.4464C163.759 17.1571 163.387 17.0124 162.91 17.0124C162.583 17.0124 162.291 17.0817 162.033 17.2202C161.777 17.3587 161.576 17.5618 161.428 17.8295C161.283 18.0942 161.211 18.4143 161.211 18.7898ZM167.651 23V15.9091H169.031V23H167.651ZM168.348 14.815C168.108 14.815 167.902 14.735 167.729 14.5749C167.56 14.4118 167.475 14.2179 167.475 13.9933C167.475 13.7655 167.56 13.5716 167.729 13.4116C167.902 13.2485 168.108 13.1669 168.348 13.1669C168.588 13.1669 168.793 13.2485 168.962 13.4116C169.134 13.5716 169.22 13.7655 169.22 13.9933C169.22 14.2179 169.134 14.4118 168.962 14.5749C168.793 14.735 168.588 14.815 168.348 14.815ZM176.202 17.6403L174.951 17.8619C174.898 17.7018 174.815 17.5495 174.701 17.4048C174.591 17.2602 174.44 17.1417 174.249 17.0494C174.058 16.957 173.82 16.9109 173.533 16.9109C173.142 16.9109 172.816 16.9986 172.555 17.174C172.293 17.3464 172.162 17.5695 172.162 17.8434C172.162 18.0804 172.25 18.2712 172.425 18.4158C172.601 18.5605 172.884 18.679 173.275 18.7713L174.401 19.0298C175.054 19.1806 175.54 19.413 175.86 19.7269C176.18 20.0408 176.34 20.4486 176.34 20.9503C176.34 21.375 176.217 21.7536 175.971 22.0859C175.728 22.4152 175.388 22.6738 174.951 22.8615C174.517 23.0492 174.013 23.1431 173.441 23.1431C172.647 23.1431 171.999 22.9738 171.497 22.6353C170.996 22.2937 170.688 21.8089 170.574 21.1811L171.908 20.978C171.991 21.3258 172.162 21.5889 172.421 21.7674C172.679 21.9428 173.016 22.0305 173.432 22.0305C173.884 22.0305 174.246 21.9367 174.517 21.7489C174.788 21.5581 174.923 21.3258 174.923 21.0518C174.923 20.8303 174.84 20.6441 174.674 20.4933C174.511 20.3424 174.26 20.2286 173.921 20.1516L172.721 19.8885C172.059 19.7377 171.57 19.4976 171.253 19.1683C170.939 18.839 170.782 18.422 170.782 17.9173C170.782 17.4987 170.899 17.1325 171.133 16.8185C171.367 16.5046 171.69 16.2599 172.102 16.0845C172.515 15.906 172.987 15.8168 173.52 15.8168C174.286 15.8168 174.889 15.983 175.329 16.3153C175.769 16.6446 176.06 17.0863 176.202 17.6403ZM181.298 23V15.9091H182.679V23H181.298ZM181.995 14.815C181.755 14.815 181.549 14.735 181.377 14.5749C181.207 14.4118 181.123 14.2179 181.123 13.9933C181.123 13.7655 181.207 13.5716 181.377 13.4116C181.549 13.2485 181.755 13.1669 181.995 13.1669C182.235 13.1669 182.44 13.2485 182.609 13.4116C182.782 13.5716 182.868 13.7655 182.868 13.9933C182.868 14.2179 182.782 14.4118 182.609 14.5749C182.44 14.735 182.235 14.815 181.995 14.815ZM189.849 17.6403L188.598 17.8619C188.546 17.7018 188.463 17.5495 188.349 17.4048C188.238 17.2602 188.087 17.1417 187.896 17.0494C187.706 16.957 187.467 16.9109 187.181 16.9109C186.79 16.9109 186.464 16.9986 186.202 17.174C185.941 17.3464 185.81 17.5695 185.81 17.8434C185.81 18.0804 185.897 18.2712 186.073 18.4158C186.248 18.5605 186.531 18.679 186.922 18.7713L188.049 19.0298C188.701 19.1806 189.187 19.413 189.508 19.7269C189.828 20.0408 189.988 20.4486 189.988 20.9503C189.988 21.375 189.865 21.7536 189.618 22.0859C189.375 22.4152 189.035 22.6738 188.598 22.8615C188.164 23.0492 187.661 23.1431 187.088 23.1431C186.294 23.1431 185.647 22.9738 185.145 22.6353C184.643 22.2937 184.336 21.8089 184.222 21.1811L185.556 20.978C185.639 21.3258 185.81 21.5889 186.068 21.7674C186.327 21.9428 186.664 22.0305 187.079 22.0305C187.532 22.0305 187.893 21.9367 188.164 21.7489C188.435 21.5581 188.57 21.3258 188.57 21.0518C188.57 20.8303 188.487 20.6441 188.321 20.4933C188.158 20.3424 187.907 20.2286 187.569 20.1516L186.368 19.8885C185.707 19.7377 185.217 19.4976 184.9 19.1683C184.586 18.839 184.429 18.422 184.429 17.9173C184.429 17.4987 184.546 17.1325 184.78 16.8185C185.014 16.5046 185.337 16.2599 185.75 16.0845C186.162 15.906 186.635 15.8168 187.167 15.8168C187.933 15.8168 188.537 15.983 188.977 16.3153C189.417 16.6446 189.708 17.0863 189.849 17.6403ZM192.886 18.7898V23H191.505V15.9091H192.83V17.0632H192.918C193.081 16.6877 193.337 16.3861 193.684 16.1584C194.035 15.9306 194.477 15.8168 195.009 15.8168C195.492 15.8168 195.916 15.9183 196.279 16.1214C196.642 16.3215 196.924 16.62 197.124 17.017C197.324 17.4141 197.424 17.9049 197.424 18.4897V23H196.043V18.6559C196.043 18.1419 195.909 17.7403 195.642 17.451C195.374 17.1586 195.006 17.0124 194.538 17.0124C194.218 17.0124 193.934 17.0817 193.684 17.2202C193.438 17.3587 193.243 17.5618 193.098 17.8295C192.956 18.0942 192.886 18.4143 192.886 18.7898ZM200.461 13.5455V14.4318C200.461 14.6934 200.412 14.9689 200.314 15.2582C200.218 15.5444 200.083 15.8198 199.907 16.0845C199.732 16.3492 199.526 16.5769 199.289 16.7678L198.605 16.2784C198.787 16.0137 198.944 15.7321 199.076 15.4336C199.212 15.1351 199.279 14.8058 199.279 14.4457V13.5455H200.461ZM205.378 15.9091V17.017H201.505V15.9091H205.378ZM202.543 14.2102H203.924V20.918C203.924 21.1857 203.964 21.3873 204.044 21.5227C204.124 21.6551 204.227 21.7459 204.353 21.7951C204.482 21.8413 204.622 21.8643 204.773 21.8643C204.884 21.8643 204.981 21.8567 205.064 21.8413C205.147 21.8259 205.212 21.8136 205.258 21.8043L205.507 22.9446C205.427 22.9754 205.313 23.0062 205.165 23.0369C205.018 23.0708 204.833 23.0893 204.611 23.0923C204.248 23.0985 203.91 23.0339 203.596 22.8984C203.282 22.763 203.028 22.5537 202.834 22.2706C202.64 21.9875 202.543 21.632 202.543 21.2042V14.2102ZM212.409 23.157C211.959 23.157 211.553 23.0739 211.19 22.9077C210.827 22.7384 210.539 22.4937 210.327 22.1737C210.117 21.8536 210.013 21.4612 210.013 20.9964C210.013 20.5964 210.09 20.267 210.244 20.0085C210.397 19.75 210.605 19.5453 210.867 19.3945C211.128 19.2437 211.421 19.1299 211.744 19.0529C212.067 18.976 212.396 18.9175 212.732 18.8775C213.157 18.8282 213.501 18.7882 213.766 18.7575C214.031 18.7236 214.223 18.6697 214.343 18.5959C214.463 18.522 214.523 18.402 214.523 18.2358V18.2035C214.523 17.8003 214.409 17.4879 214.181 17.2663C213.957 17.0447 213.621 16.9339 213.175 16.9339C212.71 16.9339 212.344 17.037 212.076 17.2433C211.812 17.4464 211.629 17.6726 211.527 17.9219L210.23 17.6264C210.384 17.1955 210.608 16.8478 210.904 16.5831C211.202 16.3153 211.545 16.1214 211.933 16.0014C212.321 15.8783 212.729 15.8168 213.157 15.8168C213.44 15.8168 213.74 15.8506 214.057 15.9183C214.377 15.983 214.675 16.103 214.952 16.2784C215.232 16.4538 215.462 16.7047 215.64 17.0309C215.819 17.354 215.908 17.7741 215.908 18.2912V23H214.56V22.0305H214.505C214.415 22.209 214.281 22.3845 214.103 22.5568C213.924 22.7292 213.695 22.8723 213.415 22.9862C213.135 23.1 212.8 23.157 212.409 23.157ZM212.709 22.049C213.09 22.049 213.417 21.9736 213.687 21.8228C213.961 21.672 214.169 21.475 214.311 21.2319C214.455 20.9857 214.528 20.7225 214.528 20.4425V19.5284C214.478 19.5777 214.383 19.6238 214.241 19.6669C214.103 19.7069 213.944 19.7423 213.766 19.7731C213.587 19.8008 213.414 19.8269 213.244 19.8516C213.075 19.8731 212.933 19.8916 212.82 19.907C212.552 19.9408 212.307 19.9978 212.086 20.0778C211.867 20.1578 211.692 20.2732 211.559 20.424C211.43 20.5717 211.365 20.7687 211.365 21.0149C211.365 21.3565 211.492 21.6151 211.744 21.7905C211.996 21.9628 212.318 22.049 212.709 22.049ZM222.567 18.7898V23H221.187V13.5455H222.549V17.0632H222.637C222.803 16.6816 223.057 16.3784 223.398 16.1538C223.74 15.9291 224.186 15.8168 224.737 15.8168C225.223 15.8168 225.648 15.9168 226.011 16.1168C226.377 16.3169 226.661 16.6154 226.861 17.0124C227.064 17.4064 227.165 17.8988 227.165 18.4897V23H225.785V18.6559C225.785 18.1358 225.651 17.7326 225.383 17.4464C225.116 17.1571 224.743 17.0124 224.266 17.0124C223.94 17.0124 223.648 17.0817 223.389 17.2202C223.134 17.3587 222.932 17.5618 222.784 17.8295C222.64 18.0942 222.567 18.4143 222.567 18.7898ZM231.071 23.157C230.621 23.157 230.215 23.0739 229.852 22.9077C229.489 22.7384 229.201 22.4937 228.989 22.1737C228.78 21.8536 228.675 21.4612 228.675 20.9964C228.675 20.5964 228.752 20.267 228.906 20.0085C229.06 19.75 229.267 19.5453 229.529 19.3945C229.791 19.2437 230.083 19.1299 230.406 19.0529C230.729 18.976 231.059 18.9175 231.394 18.8775C231.819 18.8282 232.163 18.7882 232.428 18.7575C232.693 18.7236 232.885 18.6697 233.005 18.5959C233.125 18.522 233.185 18.402 233.185 18.2358V18.2035C233.185 17.8003 233.071 17.4879 232.844 17.2663C232.619 17.0447 232.283 16.9339 231.837 16.9339C231.372 16.9339 231.006 17.037 230.738 17.2433C230.474 17.4464 230.291 17.6726 230.189 17.9219L228.892 17.6264C229.046 17.1955 229.27 16.8478 229.566 16.5831C229.864 16.3153 230.208 16.1214 230.595 16.0014C230.983 15.8783 231.391 15.8168 231.819 15.8168C232.102 15.8168 232.402 15.8506 232.719 15.9183C233.039 15.983 233.338 16.103 233.615 16.2784C233.895 16.4538 234.124 16.7047 234.302 17.0309C234.481 17.354 234.57 17.7741 234.57 18.2912V23H233.222V22.0305H233.167C233.077 22.209 232.944 22.3845 232.765 22.5568C232.587 22.7292 232.357 22.8723 232.077 22.9862C231.797 23.1 231.462 23.157 231.071 23.157ZM231.371 22.049C231.753 22.049 232.079 21.9736 232.35 21.8228C232.623 21.672 232.831 21.475 232.973 21.2319C233.117 20.9857 233.19 20.7225 233.19 20.4425V19.5284C233.141 19.5777 233.045 19.6238 232.904 19.6669C232.765 19.7069 232.607 19.7423 232.428 19.7731C232.25 19.8008 232.076 19.8269 231.906 19.8516C231.737 19.8731 231.596 19.8916 231.482 19.907C231.214 19.9408 230.969 19.9978 230.748 20.0778C230.529 20.1578 230.354 20.2732 230.221 20.424C230.092 20.5717 230.027 20.7687 230.027 21.0149C230.027 21.3565 230.154 21.6151 230.406 21.7905C230.658 21.9628 230.98 22.049 231.371 22.049ZM237.789 18.7898V23H236.409V15.9091H237.734V17.0632H237.821C237.984 16.6877 238.24 16.3861 238.588 16.1584C238.938 15.9306 239.38 15.8168 239.913 15.8168C240.396 15.8168 240.819 15.9183 241.182 16.1214C241.545 16.3215 241.827 16.62 242.027 17.017C242.227 17.4141 242.327 17.9049 242.327 18.4897V23H240.947V18.6559C240.947 18.1419 240.813 17.7403 240.545 17.451C240.277 17.1586 239.909 17.0124 239.442 17.0124C239.122 17.0124 238.837 17.0817 238.588 17.2202C238.341 17.3587 238.146 17.5618 238.001 17.8295C237.86 18.0942 237.789 18.4143 237.789 18.7898ZM247.151 25.8068C246.588 25.8068 246.103 25.733 245.697 25.5852C245.294 25.4375 244.964 25.2421 244.709 24.9989C244.454 24.7558 244.263 24.4896 244.137 24.2003L245.323 23.7109C245.406 23.8464 245.517 23.9895 245.655 24.1403C245.797 24.2942 245.988 24.425 246.228 24.5327C246.471 24.6404 246.783 24.6942 247.165 24.6942C247.688 24.6942 248.121 24.5665 248.462 24.3111C248.804 24.0587 248.975 23.6555 248.975 23.1016V21.7074H248.887C248.804 21.8582 248.684 22.0259 248.527 22.2106C248.373 22.3952 248.161 22.5553 247.89 22.6907C247.619 22.8261 247.267 22.8938 246.833 22.8938C246.272 22.8938 245.768 22.763 245.318 22.5014C244.872 22.2367 244.518 21.8474 244.257 21.3335C243.998 20.8164 243.869 20.1809 243.869 19.4268C243.869 18.6728 243.997 18.0265 244.252 17.4879C244.511 16.9493 244.864 16.5369 245.314 16.2507C245.763 15.9614 246.272 15.8168 246.842 15.8168C247.282 15.8168 247.637 15.8906 247.908 16.0384C248.179 16.183 248.39 16.3523 248.541 16.5462C248.695 16.7401 248.813 16.9109 248.896 17.0586H248.998V15.9091H250.35V23.157C250.35 23.7663 250.209 24.2665 249.926 24.6573C249.643 25.0482 249.259 25.3375 248.776 25.5252C248.296 25.7129 247.754 25.8068 247.151 25.8068ZM247.137 21.7489C247.534 21.7489 247.87 21.6566 248.144 21.4719C248.421 21.2842 248.63 21.0165 248.772 20.6687C248.916 20.3178 248.989 19.8977 248.989 19.4084C248.989 18.9313 248.918 18.5112 248.776 18.1481C248.635 17.7849 248.427 17.5018 248.153 17.2987C247.879 17.0924 247.54 16.9893 247.137 16.9893C246.722 16.9893 246.376 17.0971 246.099 17.3125C245.822 17.5249 245.612 17.8142 245.471 18.1804C245.332 18.5466 245.263 18.956 245.263 19.4084C245.263 19.8731 245.334 20.2809 245.475 20.6317C245.617 20.9826 245.826 21.2565 246.103 21.4535C246.383 21.6504 246.728 21.7489 247.137 21.7489ZM255.188 23.1431C254.524 23.1431 253.944 22.9908 253.448 22.6861C252.953 22.3814 252.568 21.9551 252.294 21.4073C252.02 20.8595 251.883 20.2193 251.883 19.4869C251.883 18.7513 252.02 18.1081 252.294 17.5572C252.568 17.0063 252.953 16.5785 253.448 16.2738C253.944 15.9691 254.524 15.8168 255.188 15.8168C255.853 15.8168 256.433 15.9691 256.929 16.2738C257.424 16.5785 257.809 17.0063 258.083 17.5572C258.357 18.1081 258.494 18.7513 258.494 19.4869C258.494 20.2193 258.357 20.8595 258.083 21.4073C257.809 21.9551 257.424 22.3814 256.929 22.6861C256.433 22.9908 255.853 23.1431 255.188 23.1431ZM255.193 21.9844C255.624 21.9844 255.981 21.8705 256.264 21.6428C256.547 21.415 256.757 21.1119 256.892 20.7333C257.03 20.3548 257.1 19.9377 257.1 19.4822C257.1 19.0298 257.03 18.6143 256.892 18.2358C256.757 17.8542 256.547 17.5479 256.264 17.3171C255.981 17.0863 255.624 16.9709 255.193 16.9709C254.759 16.9709 254.399 17.0863 254.113 17.3171C253.83 17.5479 253.619 17.8542 253.48 18.2358C253.345 18.6143 253.277 19.0298 253.277 19.4822C253.277 19.9377 253.345 20.3548 253.48 20.7333C253.619 21.1119 253.83 21.415 254.113 21.6428C254.399 21.8705 254.759 21.9844 255.193 21.9844ZM265.859 15.9091L263.288 23H261.811L259.235 15.9091H260.717L262.512 21.3658H262.586L264.378 15.9091H265.859ZM269.972 23.1431C269.273 23.1431 268.671 22.9938 268.167 22.6953C267.665 22.3937 267.277 21.9705 267.003 21.4258C266.732 20.878 266.597 20.2363 266.597 19.5007C266.597 18.7744 266.732 18.1342 267.003 17.5803C267.277 17.0263 267.659 16.5939 268.148 16.283C268.64 15.9722 269.216 15.8168 269.875 15.8168C270.275 15.8168 270.663 15.8829 271.038 16.0153C271.413 16.1476 271.75 16.3554 272.049 16.6385C272.348 16.9216 272.583 17.2894 272.755 17.7418C272.928 18.1912 273.014 18.7375 273.014 19.3807V19.87H267.377V18.8359H271.661C271.661 18.4728 271.587 18.1512 271.44 17.8711C271.292 17.5879 271.084 17.3648 270.816 17.2017C270.552 17.0386 270.241 16.957 269.884 16.957C269.496 16.957 269.158 17.0524 268.868 17.2433C268.582 17.431 268.36 17.6772 268.203 17.9819C268.05 18.2835 267.973 18.6113 267.973 18.9652V19.7731C267.973 20.247 268.056 20.6502 268.222 20.9826C268.391 21.315 268.627 21.5689 268.928 21.7443C269.23 21.9167 269.582 22.0028 269.985 22.0028C270.247 22.0028 270.486 21.9659 270.701 21.892C270.916 21.8151 271.103 21.7012 271.26 21.5504C271.417 21.3996 271.537 21.2134 271.62 20.9918L272.926 21.2273C272.821 21.612 272.634 21.949 272.363 22.2383C272.095 22.5245 271.758 22.7476 271.352 22.9077C270.949 23.0646 270.489 23.1431 269.972 23.1431ZM274.545 23V15.9091H275.88V17.0355H275.953C276.083 16.6539 276.31 16.3538 276.637 16.1353C276.966 15.9137 277.338 15.8029 277.754 15.8029C277.84 15.8029 277.942 15.806 278.058 15.8121C278.179 15.8183 278.272 15.826 278.34 15.8352V17.1555C278.285 17.1402 278.186 17.1232 278.045 17.1048C277.903 17.0832 277.761 17.0724 277.62 17.0724C277.294 17.0724 277.003 17.1417 276.747 17.2802C276.495 17.4156 276.295 17.6049 276.147 17.848C276 18.0881 275.926 18.362 275.926 18.6697V23H274.545ZM24.3877 40.1431C23.7014 40.1431 23.1104 39.9877 22.6149 39.6768C22.1225 39.3629 21.744 38.9305 21.4793 38.3796C21.2146 37.8287 21.0823 37.1978 21.0823 36.4869C21.0823 35.7667 21.2177 35.1312 21.4885 34.5803C21.7594 34.0263 22.141 33.5939 22.6334 33.283C23.1258 32.9722 23.706 32.8168 24.3738 32.8168C24.9124 32.8168 25.3925 32.9168 25.8142 33.1168C26.2358 33.3138 26.5759 33.5908 26.8344 33.9478C27.096 34.3048 27.2514 34.7218 27.3007 35.1989H25.9573C25.8834 34.8665 25.7141 34.5803 25.4495 34.3402C25.1879 34.1001 24.837 33.9801 24.3969 33.9801C24.0122 33.9801 23.6752 34.0817 23.3859 34.2848C23.0997 34.4848 22.8765 34.7711 22.7165 35.1435C22.5565 35.5128 22.4765 35.9498 22.4765 36.4545C22.4765 36.9716 22.5549 37.4179 22.7119 37.7933C22.8689 38.1688 23.0904 38.4596 23.3767 38.6658C23.666 38.872 24.006 38.9751 24.3969 38.9751C24.6585 38.9751 24.8955 38.9274 25.1078 38.832C25.3233 38.7335 25.5033 38.5935 25.648 38.4119C25.7957 38.2304 25.8988 38.0118 25.9573 37.7564H27.3007C27.2514 38.215 27.1022 38.6243 26.8529 38.9844C26.6036 39.3445 26.2697 39.6276 25.8511 39.8338C25.4356 40.04 24.9478 40.1431 24.3877 40.1431ZM33.2686 37.0593V32.9091H34.6536V40H33.2963V38.772H33.2225C33.0593 39.1506 32.7977 39.466 32.4377 39.7184C32.0806 39.9677 31.6359 40.0923 31.1035 40.0923C30.648 40.0923 30.2448 39.9923 29.894 39.7923C29.5462 39.5891 29.2723 39.2891 29.0722 38.892C28.8753 38.495 28.7768 38.0041 28.7768 37.4194V32.9091H30.1571V37.2532C30.1571 37.7364 30.291 38.1211 30.5587 38.4073C30.8265 38.6935 31.1743 38.8366 31.6021 38.8366C31.8606 38.8366 32.1176 38.772 32.373 38.6428C32.6315 38.5135 32.8454 38.3181 33.0147 38.0565C33.1871 37.7949 33.2717 37.4625 33.2686 37.0593ZM36.5082 40V32.9091H37.8424V34.0355H37.9163C38.0455 33.6539 38.2733 33.3538 38.5995 33.1353C38.9288 32.9137 39.3012 32.8029 39.7167 32.8029C39.8029 32.8029 39.9044 32.806 40.0214 32.8121C40.1414 32.8183 40.2353 32.826 40.303 32.8352V34.1555C40.2476 34.1402 40.1491 34.1232 40.0075 34.1048C39.866 34.0832 39.7244 34.0724 39.5828 34.0724C39.2566 34.0724 38.9657 34.1417 38.7103 34.2802C38.4579 34.4156 38.2579 34.6049 38.1102 34.848C37.9624 35.0881 37.8886 35.362 37.8886 35.6697V40H36.5082ZM44.2997 40.1431C43.6011 40.1431 42.9994 39.9938 42.4947 39.6953C41.993 39.3937 41.6052 38.9705 41.3313 38.4258C41.0605 37.878 40.925 37.2363 40.925 36.5007C40.925 35.7744 41.0605 35.1342 41.3313 34.5803C41.6052 34.0263 41.9868 33.5939 42.4762 33.283C42.9686 32.9722 43.5441 32.8168 44.2027 32.8168C44.6028 32.8168 44.9906 32.8829 45.3661 33.0153C45.7416 33.1476 46.0786 33.3554 46.3771 33.6385C46.6756 33.9216 46.9111 34.2894 47.0834 34.7418C47.2558 35.1912 47.342 35.7375 47.342 36.3807V36.87H41.7052V35.8359H45.9893C45.9893 35.4728 45.9155 35.1512 45.7677 34.8711C45.62 34.5879 45.4123 34.3648 45.1445 34.2017C44.8798 34.0386 44.569 33.957 44.212 33.957C43.8242 33.957 43.4857 34.0524 43.1964 34.2433C42.9101 34.431 42.6885 34.6772 42.5316 34.9819C42.3777 35.2835 42.3008 35.6113 42.3008 35.9652V36.7731C42.3008 37.247 42.3839 37.6502 42.55 37.9826C42.7193 38.315 42.9548 38.5689 43.2564 38.7443C43.558 38.9167 43.9104 39.0028 44.3135 39.0028C44.5751 39.0028 44.8137 38.9659 45.0291 38.892C45.2445 38.8151 45.4307 38.7012 45.5877 38.5504C45.7447 38.3996 45.8647 38.2134 45.9478 37.9918L47.2542 38.2273C47.1496 38.612 46.9619 38.949 46.691 39.2383C46.4233 39.5245 46.0863 39.7476 45.68 39.9077C45.2768 40.0646 44.8167 40.1431 44.2997 40.1431ZM50.6693 38.7074L50.6 39.2106C50.5539 39.5799 50.4754 39.9646 50.3646 40.3647C50.2569 40.7679 50.1445 41.1418 50.0276 41.4865C49.9137 41.8312 49.8198 42.1051 49.746 42.3082H48.7673C48.8073 42.1174 48.8627 41.8589 48.9335 41.5327C49.0043 41.2095 49.0735 40.8479 49.1412 40.4478C49.2089 40.0477 49.2597 39.6399 49.2936 39.2244L49.3397 38.7074H50.6693ZM55.9067 40V32.9091H57.287V40H55.9067ZM56.6038 31.815C56.3637 31.815 56.1575 31.735 55.9852 31.5749C55.8159 31.4118 55.7312 31.2179 55.7312 30.9933C55.7312 30.7655 55.8159 30.5716 55.9852 30.4116C56.1575 30.2485 56.3637 30.1669 56.6038 30.1669C56.8438 30.1669 57.0485 30.2485 57.2178 30.4116C57.3901 30.5716 57.4763 30.7655 57.4763 30.9933C57.4763 31.2179 57.3901 31.4118 57.2178 31.5749C57.0485 31.735 56.8438 31.815 56.6038 31.815ZM62.454 32.9091V34.017H58.5808V32.9091H62.454ZM59.6195 31.2102H60.9998V37.918C60.9998 38.1857 61.0398 38.3873 61.1198 38.5227C61.1998 38.6551 61.3029 38.7459 61.4291 38.7951C61.5584 38.8413 61.6984 38.8643 61.8492 38.8643C61.96 38.8643 62.057 38.8567 62.1401 38.8413C62.2232 38.8259 62.2878 38.8136 62.334 38.8043L62.5833 39.9446C62.5032 39.9754 62.3894 40.0062 62.2416 40.0369C62.0939 40.0708 61.9092 40.0893 61.6877 40.0923C61.3245 40.0985 60.986 40.0339 60.672 39.8984C60.3581 39.763 60.1042 39.5537 59.9103 39.2706C59.7164 38.9875 59.6195 38.632 59.6195 38.2042V31.2102ZM65.5228 30.5455V31.4318C65.5228 31.6934 65.4736 31.9689 65.3751 32.2582C65.2797 32.5444 65.1442 32.8198 64.9688 33.0845C64.7934 33.3492 64.5872 33.5769 64.3502 33.7678L63.667 33.2784C63.8486 33.0137 64.0055 32.7321 64.1379 32.4336C64.2733 32.1351 64.341 31.8058 64.341 31.4457V30.5455H65.5228ZM71.2749 34.6403L70.0239 34.8619C69.9715 34.7018 69.8884 34.5495 69.7746 34.4048C69.6638 34.2602 69.513 34.1417 69.3222 34.0494C69.1313 33.957 68.8928 33.9109 68.6066 33.9109C68.2157 33.9109 67.8895 33.9986 67.6279 34.174C67.3663 34.3464 67.2355 34.5695 67.2355 34.8434C67.2355 35.0804 67.3232 35.2712 67.4986 35.4158C67.6741 35.5605 67.9572 35.679 68.3481 35.7713L69.4745 36.0298C70.127 36.1806 70.6132 36.413 70.9333 36.7269C71.2534 37.0408 71.4134 37.4486 71.4134 37.9503C71.4134 38.375 71.2903 38.7536 71.0441 39.0859C70.801 39.4152 70.4609 39.6738 70.0239 39.8615C69.5899 40.0492 69.0867 40.1431 68.5143 40.1431C67.7202 40.1431 67.0724 39.9738 66.5707 39.6353C66.0691 39.2937 65.7613 38.8089 65.6474 38.1811L66.9816 37.978C67.0647 38.3258 67.2355 38.5889 67.494 38.7674C67.7526 38.9428 68.0896 39.0305 68.505 39.0305C68.9575 39.0305 69.3191 38.9367 69.5899 38.7489C69.8607 38.5581 69.9962 38.3258 69.9962 38.0518C69.9962 37.8303 69.9131 37.6441 69.7469 37.4933C69.5838 37.3424 69.3329 37.2286 68.9944 37.1516L67.7941 36.8885C67.1324 36.7377 66.6431 36.4976 66.3261 36.1683C66.0121 35.839 65.8552 35.422 65.8552 34.9173C65.8552 34.4987 65.9721 34.1325 66.206 33.8185C66.4399 33.5046 66.7631 33.2599 67.1755 33.0845C67.5879 32.906 68.0603 32.8168 68.5928 32.8168C69.3591 32.8168 69.9623 32.983 70.4024 33.3153C70.8425 33.6446 71.1334 34.0863 71.2749 34.6403ZM78.4351 40.157C77.9857 40.157 77.5795 40.0739 77.2163 39.9077C76.8532 39.7384 76.5654 39.4937 76.353 39.1737C76.1438 38.8536 76.0391 38.4612 76.0391 37.9964C76.0391 37.5964 76.1161 37.267 76.27 37.0085C76.4238 36.75 76.6316 36.5453 76.8932 36.3945C77.1548 36.2437 77.4472 36.1299 77.7703 36.0529C78.0935 35.976 78.4228 35.9175 78.7582 35.8775C79.183 35.8282 79.5276 35.7882 79.7923 35.7575C80.057 35.7236 80.2494 35.6697 80.3694 35.5959C80.4894 35.522 80.5494 35.402 80.5494 35.2358V35.2035C80.5494 34.8003 80.4356 34.4879 80.2078 34.2663C79.9831 34.0447 79.6477 33.9339 79.2014 33.9339C78.7367 33.9339 78.3705 34.037 78.1027 34.2433C77.838 34.4464 77.6549 34.6726 77.5533 34.9219L76.2561 34.6264C76.41 34.1955 76.6347 33.8478 76.9301 33.5831C77.2286 33.3153 77.5718 33.1214 77.9596 33.0014C78.3474 32.8783 78.7552 32.8168 79.183 32.8168C79.4661 32.8168 79.7662 32.8506 80.0832 32.9183C80.4032 32.983 80.7018 33.103 80.9788 33.2784C81.2588 33.4538 81.4881 33.7047 81.6666 34.0309C81.8451 34.354 81.9344 34.7741 81.9344 35.2912V40H80.5864V39.0305H80.531C80.4417 39.209 80.3078 39.3845 80.1293 39.5568C79.9508 39.7292 79.7215 39.8723 79.4415 39.9862C79.1614 40.1 78.8259 40.157 78.4351 40.157ZM78.7352 39.049C79.1168 39.049 79.443 38.9736 79.7138 38.8228C79.9878 38.672 80.1955 38.475 80.3371 38.2319C80.4817 37.9857 80.554 37.7225 80.554 37.4425V36.5284C80.5048 36.5777 80.4094 36.6238 80.2678 36.6669C80.1293 36.7069 79.9708 36.7423 79.7923 36.7731C79.6138 36.8008 79.4399 36.8269 79.2707 36.8516C79.1014 36.8731 78.9598 36.8916 78.8459 36.907C78.5782 36.9408 78.3335 36.9978 78.1119 37.0778C77.8934 37.1578 77.718 37.2732 77.5856 37.424C77.4564 37.5717 77.3918 37.7687 77.3918 38.0149C77.3918 38.3565 77.5179 38.6151 77.7703 38.7905C78.0227 38.9628 78.3443 39.049 78.7352 39.049ZM87.2133 40V32.9091H88.5382V34.0632H88.626C88.7737 33.6723 89.0153 33.3677 89.3507 33.1491C89.6862 32.9276 90.0878 32.8168 90.5556 32.8168C91.0296 32.8168 91.4266 32.9276 91.7467 33.1491C92.0698 33.3707 92.3084 33.6754 92.4622 34.0632H92.5361C92.7054 33.6847 92.9747 33.383 93.344 33.1584C93.7133 32.9306 94.1534 32.8168 94.6643 32.8168C95.3075 32.8168 95.8323 33.0183 96.2385 33.4215C96.6479 33.8247 96.8525 34.4325 96.8525 35.245V40H95.4722V35.3743C95.4722 34.8942 95.3414 34.5464 95.0798 34.331C94.8182 34.1155 94.5058 34.0078 94.1426 34.0078C93.6933 34.0078 93.344 34.1463 93.0947 34.4233C92.8454 34.6972 92.7208 35.0496 92.7208 35.4805V40H91.3451V35.2866C91.3451 34.9019 91.225 34.5926 90.985 34.3587C90.7449 34.1248 90.4325 34.0078 90.0478 34.0078C89.7862 34.0078 89.5446 34.0771 89.323 34.2156C89.1045 34.351 88.9276 34.5402 88.7921 34.7834C88.6598 35.0265 88.5936 35.3081 88.5936 35.6282V40H87.2133ZM98.7026 40V32.9091H100.083V40H98.7026ZM99.3997 31.815C99.1596 31.815 98.9534 31.735 98.7811 31.5749C98.6118 31.4118 98.5271 31.2179 98.5271 30.9933C98.5271 30.7655 98.6118 30.5716 98.7811 30.4116C98.9534 30.2485 99.1596 30.1669 99.3997 30.1669C99.6397 30.1669 99.8444 30.2485 100.014 30.4116C100.186 30.5716 100.272 30.7655 100.272 30.9933C100.272 31.2179 100.186 31.4118 100.014 31.5749C99.8444 31.735 99.6397 31.815 99.3997 31.815ZM104.594 40.1385C104.022 40.1385 103.511 39.9923 103.062 39.6999C102.615 39.4045 102.265 38.9844 102.009 38.4396C101.757 37.8918 101.631 37.2347 101.631 36.4684C101.631 35.7021 101.758 35.0465 102.014 34.5018C102.272 33.957 102.626 33.54 103.076 33.2507C103.525 32.9614 104.034 32.8168 104.604 32.8168C105.044 32.8168 105.398 32.8906 105.665 33.0384C105.936 33.183 106.145 33.3523 106.293 33.5462C106.444 33.7401 106.561 33.9109 106.644 34.0586H106.727V30.5455H108.107V40H106.759V38.8967H106.644C106.561 39.0475 106.441 39.2198 106.284 39.4137C106.13 39.6076 105.918 39.7769 105.647 39.9215C105.376 40.0662 105.025 40.1385 104.594 40.1385ZM104.899 38.9613C105.296 38.9613 105.632 38.8567 105.905 38.6474C106.182 38.435 106.392 38.1411 106.533 37.7656C106.678 37.3902 106.75 36.9531 106.75 36.4545C106.75 35.9621 106.679 35.5312 106.538 35.1619C106.396 34.7926 106.189 34.5049 105.915 34.2987C105.641 34.0924 105.302 33.9893 104.899 33.9893C104.484 33.9893 104.137 34.0971 103.86 34.3125C103.583 34.5279 103.374 34.8219 103.232 35.1942C103.094 35.5666 103.025 35.9867 103.025 36.4545C103.025 36.9285 103.096 37.3548 103.237 37.7333C103.379 38.1119 103.588 38.4119 103.865 38.6335C104.145 38.852 104.49 38.9613 104.899 38.9613ZM111.458 30.5455V40H110.078V30.5455H111.458ZM113.315 40V32.9091H114.695V40H113.315ZM114.012 31.815C113.772 31.815 113.566 31.735 113.393 31.5749C113.224 31.4118 113.139 31.2179 113.139 30.9933C113.139 30.7655 113.224 30.5716 113.393 30.4116C113.566 30.2485 113.772 30.1669 114.012 30.1669C114.252 30.1669 114.457 30.2485 114.626 30.4116C114.798 30.5716 114.884 30.7655 114.884 30.9933C114.884 31.2179 114.798 31.4118 114.626 31.5749C114.457 31.735 114.252 31.815 114.012 31.815ZM119.927 32.9091V34.017H115.92V32.9091H119.927ZM117.018 40V32.0874C117.018 31.6442 117.115 31.2764 117.309 30.984C117.503 30.6886 117.76 30.4685 118.08 30.3239C118.4 30.1761 118.748 30.1023 119.124 30.1023C119.401 30.1023 119.638 30.1254 119.834 30.1715C120.031 30.2146 120.178 30.2546 120.273 30.2915L119.95 31.4087C119.885 31.3903 119.802 31.3687 119.701 31.3441C119.599 31.3164 119.476 31.3026 119.331 31.3026C118.996 31.3026 118.756 31.3857 118.611 31.5518C118.47 31.718 118.399 31.9581 118.399 32.272V40H117.018ZM124.128 40.1431C123.429 40.1431 122.828 39.9938 122.323 39.6953C121.821 39.3937 121.433 38.9705 121.159 38.4258C120.889 37.878 120.753 37.2363 120.753 36.5007C120.753 35.7744 120.889 35.1342 121.159 34.5803C121.433 34.0263 121.815 33.5939 122.304 33.283C122.797 32.9722 123.372 32.8168 124.031 32.8168C124.431 32.8168 124.819 32.8829 125.194 33.0153C125.57 33.1476 125.907 33.3554 126.205 33.6385C126.504 33.9216 126.739 34.2894 126.912 34.7418C127.084 35.1912 127.17 35.7375 127.17 36.3807V36.87H121.533V35.8359H125.817C125.817 35.4728 125.744 35.1512 125.596 34.8711C125.448 34.5879 125.24 34.3648 124.973 34.2017C124.708 34.0386 124.397 33.957 124.04 33.957C123.652 33.957 123.314 34.0524 123.024 34.2433C122.738 34.431 122.517 34.6772 122.36 34.9819C122.206 35.2835 122.129 35.6113 122.129 35.9652V36.7731C122.129 37.247 122.212 37.6502 122.378 37.9826C122.547 38.315 122.783 38.5689 123.084 38.7443C123.386 38.9167 123.738 39.0028 124.142 39.0028C124.403 39.0028 124.642 38.9659 124.857 38.892C125.073 38.8151 125.259 38.7012 125.416 38.5504C125.573 38.3996 125.693 38.2134 125.776 37.9918L127.082 38.2273C126.978 38.612 126.79 38.949 126.519 39.2383C126.251 39.5245 125.914 39.7476 125.508 39.9077C125.105 40.0646 124.645 40.1431 124.128 40.1431ZM135.129 40.1431C134.443 40.1431 133.852 39.9877 133.356 39.6768C132.864 39.3629 132.485 38.9305 132.221 38.3796C131.956 37.8287 131.823 37.1978 131.823 36.4869C131.823 35.7667 131.959 35.1312 132.23 34.5803C132.501 34.0263 132.882 33.5939 133.375 33.283C133.867 32.9722 134.447 32.8168 135.115 32.8168C135.654 32.8168 136.134 32.9168 136.555 33.1168C136.977 33.3138 137.317 33.5908 137.576 33.9478C137.837 34.3048 137.993 34.7218 138.042 35.1989H136.698C136.625 34.8665 136.455 34.5803 136.191 34.3402C135.929 34.1001 135.578 33.9801 135.138 33.9801C134.753 33.9801 134.416 34.0817 134.127 34.2848C133.841 34.4848 133.618 34.7711 133.458 35.1435C133.298 35.5128 133.218 35.9498 133.218 36.4545C133.218 36.9716 133.296 37.4179 133.453 37.7933C133.61 38.1688 133.832 38.4596 134.118 38.6658C134.407 38.872 134.747 38.9751 135.138 38.9751C135.4 38.9751 135.637 38.9274 135.849 38.832C136.064 38.7335 136.245 38.5935 136.389 38.4119C136.537 38.2304 136.64 38.0118 136.698 37.7564H138.042C137.993 38.215 137.843 38.6243 137.594 38.9844C137.345 39.3445 137.011 39.6276 136.592 39.8338C136.177 40.04 135.689 40.1431 135.129 40.1431ZM139.518 40V32.9091H140.852V34.0355H140.926C141.055 33.6539 141.283 33.3538 141.609 33.1353C141.939 32.9137 142.311 32.8029 142.726 32.8029C142.813 32.8029 142.914 32.806 143.031 32.8121C143.151 32.8183 143.245 32.826 143.313 32.8352V34.1555C143.257 34.1402 143.159 34.1232 143.017 34.1048C142.876 34.0832 142.734 34.0724 142.593 34.0724C142.266 34.0724 141.976 34.1417 141.72 34.2802C141.468 34.4156 141.268 34.6049 141.12 34.848C140.972 35.0881 140.898 35.362 140.898 35.6697V40H139.518ZM144.507 40V32.9091H145.888V40H144.507ZM145.204 31.815C144.964 31.815 144.758 31.735 144.586 31.5749C144.416 31.4118 144.332 31.2179 144.332 30.9933C144.332 30.7655 144.416 30.5716 144.586 30.4116C144.758 30.2485 144.964 30.1669 145.204 30.1669C145.444 30.1669 145.649 30.2485 145.818 30.4116C145.991 30.5716 146.077 30.7655 146.077 30.9933C146.077 31.2179 145.991 31.4118 145.818 31.5749C145.649 31.735 145.444 31.815 145.204 31.815ZM153.058 34.6403L151.807 34.8619C151.755 34.7018 151.672 34.5495 151.558 34.4048C151.447 34.2602 151.296 34.1417 151.105 34.0494C150.915 33.957 150.676 33.9109 150.39 33.9109C149.999 33.9109 149.673 33.9986 149.411 34.174C149.15 34.3464 149.019 34.5695 149.019 34.8434C149.019 35.0804 149.106 35.2712 149.282 35.4158C149.457 35.5605 149.74 35.679 150.131 35.7713L151.258 36.0298C151.91 36.1806 152.396 36.413 152.717 36.7269C153.037 37.0408 153.197 37.4486 153.197 37.9503C153.197 38.375 153.074 38.7536 152.827 39.0859C152.584 39.4152 152.244 39.6738 151.807 39.8615C151.373 40.0492 150.87 40.1431 150.297 40.1431C149.503 40.1431 148.856 39.9738 148.354 39.6353C147.852 39.2937 147.545 38.8089 147.431 38.1811L148.765 37.978C148.848 38.3258 149.019 38.5889 149.277 38.7674C149.536 38.9428 149.873 39.0305 150.288 39.0305C150.741 39.0305 151.102 38.9367 151.373 38.7489C151.644 38.5581 151.779 38.3258 151.779 38.0518C151.779 37.8303 151.696 37.6441 151.53 37.4933C151.367 37.3424 151.116 37.2286 150.778 37.1516L149.577 36.8885C148.916 36.7377 148.426 36.4976 148.109 36.1683C147.795 35.839 147.638 35.422 147.638 34.9173C147.638 34.4987 147.755 34.1325 147.989 33.8185C148.223 33.5046 148.546 33.2599 148.959 33.0845C149.371 32.906 149.844 32.8168 150.376 32.8168C151.142 32.8168 151.746 32.983 152.186 33.3153C152.626 33.6446 152.917 34.0863 153.058 34.6403ZM154.714 40V32.9091H156.095V40H154.714ZM155.411 31.815C155.171 31.815 154.965 31.735 154.793 31.5749C154.623 31.4118 154.539 31.2179 154.539 30.9933C154.539 30.7655 154.623 30.5716 154.793 30.4116C154.965 30.2485 155.171 30.1669 155.411 30.1669C155.651 30.1669 155.856 30.2485 156.025 30.4116C156.198 30.5716 156.284 30.7655 156.284 30.9933C156.284 31.2179 156.198 31.4118 156.025 31.5749C155.856 31.735 155.651 31.815 155.411 31.815ZM163.265 34.6403L162.014 34.8619C161.962 34.7018 161.879 34.5495 161.765 34.4048C161.654 34.2602 161.503 34.1417 161.312 34.0494C161.122 33.957 160.883 33.9109 160.597 33.9109C160.206 33.9109 159.88 33.9986 159.618 34.174C159.357 34.3464 159.226 34.5695 159.226 34.8434C159.226 35.0804 159.313 35.2712 159.489 35.4158C159.664 35.5605 159.947 35.679 160.338 35.7713L161.465 36.0298C162.117 36.1806 162.603 36.413 162.924 36.7269C163.244 37.0408 163.404 37.4486 163.404 37.9503C163.404 38.375 163.281 38.7536 163.034 39.0859C162.791 39.4152 162.451 39.6738 162.014 39.8615C161.58 40.0492 161.077 40.1431 160.505 40.1431C159.71 40.1431 159.063 39.9738 158.561 39.6353C158.059 39.2937 157.752 38.8089 157.638 38.1811L158.972 37.978C159.055 38.3258 159.226 38.5889 159.484 38.7674C159.743 38.9428 160.08 39.0305 160.495 39.0305C160.948 39.0305 161.309 38.9367 161.58 38.7489C161.851 38.5581 161.986 38.3258 161.986 38.0518C161.986 37.8303 161.903 37.6441 161.737 37.4933C161.574 37.3424 161.323 37.2286 160.985 37.1516L159.784 36.8885C159.123 36.7377 158.633 36.4976 158.316 36.1683C158.002 35.839 157.845 35.422 157.845 34.9173C157.845 34.4987 157.962 34.1325 158.196 33.8185C158.43 33.5046 158.753 33.2599 159.166 33.0845C159.578 32.906 160.051 32.8168 160.583 32.8168C161.349 32.8168 161.953 32.983 162.393 33.3153C162.833 33.6446 163.124 34.0863 163.265 34.6403ZM173.675 34.6403L172.424 34.8619C172.372 34.7018 172.289 34.5495 172.175 34.4048C172.064 34.2602 171.913 34.1417 171.723 34.0494C171.532 33.957 171.293 33.9109 171.007 33.9109C170.616 33.9109 170.29 33.9986 170.028 34.174C169.767 34.3464 169.636 34.5695 169.636 34.8434C169.636 35.0804 169.724 35.2712 169.899 35.4158C170.074 35.5605 170.358 35.679 170.748 35.7713L171.875 36.0298C172.527 36.1806 173.014 36.413 173.334 36.7269C173.654 37.0408 173.814 37.4486 173.814 37.9503C173.814 38.375 173.691 38.7536 173.444 39.0859C173.201 39.4152 172.861 39.6738 172.424 39.8615C171.99 40.0492 171.487 40.1431 170.915 40.1431C170.121 40.1431 169.473 39.9738 168.971 39.6353C168.469 39.2937 168.162 38.8089 168.048 38.1811L169.382 37.978C169.465 38.3258 169.636 38.5889 169.894 38.7674C170.153 38.9428 170.49 39.0305 170.905 39.0305C171.358 39.0305 171.719 38.9367 171.99 38.7489C172.261 38.5581 172.397 38.3258 172.397 38.0518C172.397 37.8303 172.313 37.6441 172.147 37.4933C171.984 37.3424 171.733 37.2286 171.395 37.1516L170.194 36.8885C169.533 36.7377 169.043 36.4976 168.726 36.1683C168.413 35.839 168.256 35.422 168.256 34.9173C168.256 34.4987 168.373 34.1325 168.606 33.8185C168.84 33.5046 169.163 33.2599 169.576 33.0845C169.988 32.906 170.461 32.8168 170.993 32.8168C171.759 32.8168 172.363 32.983 172.803 33.3153C173.243 33.6446 173.534 34.0863 173.675 34.6403ZM175.331 42.6591V32.9091H176.679V34.0586H176.795C176.875 33.9109 176.99 33.7401 177.141 33.5462C177.292 33.3523 177.501 33.183 177.769 33.0384C178.037 32.8906 178.391 32.8168 178.831 32.8168C179.403 32.8168 179.914 32.9614 180.363 33.2507C180.813 33.54 181.165 33.957 181.421 34.5018C181.679 35.0465 181.808 35.7021 181.808 36.4684C181.808 37.2347 181.681 37.8918 181.425 38.4396C181.17 38.9844 180.819 39.4045 180.373 39.6999C179.926 39.9923 179.417 40.1385 178.845 40.1385C178.414 40.1385 178.061 40.0662 177.787 39.9215C177.517 39.7769 177.304 39.6076 177.15 39.4137C176.996 39.2198 176.878 39.0475 176.795 38.8967H176.712V42.6591H175.331ZM176.684 36.4545C176.684 36.9531 176.756 37.3902 176.901 37.7656C177.046 38.1411 177.255 38.435 177.529 38.6474C177.803 38.8567 178.138 38.9613 178.535 38.9613C178.948 38.9613 179.292 38.852 179.569 38.6335C179.846 38.4119 180.056 38.1119 180.197 37.7333C180.342 37.3548 180.414 36.9285 180.414 36.4545C180.414 35.9867 180.343 35.5666 180.202 35.1942C180.063 34.8219 179.854 34.5279 179.574 34.3125C179.297 34.0971 178.951 33.9893 178.535 33.9893C178.135 33.9893 177.797 34.0924 177.52 34.2987C177.246 34.5049 177.038 34.7926 176.896 35.1619C176.755 35.5312 176.684 35.9621 176.684 36.4545ZM186.411 40.1431C185.712 40.1431 185.111 39.9938 184.606 39.6953C184.104 39.3937 183.717 38.9705 183.443 38.4258C183.172 37.878 183.036 37.2363 183.036 36.5007C183.036 35.7744 183.172 35.1342 183.443 34.5803C183.717 34.0263 184.098 33.5939 184.588 33.283C185.08 32.9722 185.655 32.8168 186.314 32.8168C186.714 32.8168 187.102 32.8829 187.477 33.0153C187.853 33.1476 188.19 33.3554 188.488 33.6385C188.787 33.9216 189.022 34.2894 189.195 34.7418C189.367 35.1912 189.453 35.7375 189.453 36.3807V36.87H183.817V35.8359H188.101C188.101 35.4728 188.027 35.1512 187.879 34.8711C187.731 34.5879 187.524 34.3648 187.256 34.2017C186.991 34.0386 186.68 33.957 186.323 33.957C185.936 33.957 185.597 34.0524 185.308 34.2433C185.021 34.431 184.8 34.6772 184.643 34.9819C184.489 35.2835 184.412 35.6113 184.412 35.9652V36.7731C184.412 37.247 184.495 37.6502 184.661 37.9826C184.831 38.315 185.066 38.5689 185.368 38.7443C185.669 38.9167 186.022 39.0028 186.425 39.0028C186.686 39.0028 186.925 38.9659 187.14 38.892C187.356 38.8151 187.542 38.7012 187.699 38.5504C187.856 38.3996 187.976 38.2134 188.059 37.9918L189.366 38.2273C189.261 38.612 189.073 38.949 188.802 39.2383C188.535 39.5245 188.198 39.7476 187.791 39.9077C187.388 40.0646 186.928 40.1431 186.411 40.1431ZM194.041 40.1431C193.342 40.1431 192.741 39.9938 192.236 39.6953C191.734 39.3937 191.346 38.9705 191.073 38.4258C190.802 37.878 190.666 37.2363 190.666 36.5007C190.666 35.7744 190.802 35.1342 191.073 34.5803C191.346 34.0263 191.728 33.5939 192.217 33.283C192.71 32.9722 193.285 32.8168 193.944 32.8168C194.344 32.8168 194.732 32.8829 195.107 33.0153C195.483 33.1476 195.82 33.3554 196.118 33.6385C196.417 33.9216 196.652 34.2894 196.825 34.7418C196.997 35.1912 197.083 35.7375 197.083 36.3807V36.87H191.446V35.8359H195.731C195.731 35.4728 195.657 35.1512 195.509 34.8711C195.361 34.5879 195.153 34.3648 194.886 34.2017C194.621 34.0386 194.31 33.957 193.953 33.957C193.565 33.957 193.227 34.0524 192.938 34.2433C192.651 34.431 192.43 34.6772 192.273 34.9819C192.119 35.2835 192.042 35.6113 192.042 35.9652V36.7731C192.042 37.247 192.125 37.6502 192.291 37.9826C192.461 38.315 192.696 38.5689 192.998 38.7443C193.299 38.9167 193.652 39.0028 194.055 39.0028C194.316 39.0028 194.555 38.9659 194.77 38.892C194.986 38.8151 195.172 38.7012 195.329 38.5504C195.486 38.3996 195.606 38.2134 195.689 37.9918L196.995 38.2273C196.891 38.612 196.703 38.949 196.432 39.2383C196.164 39.5245 195.827 39.7476 195.421 39.9077C195.018 40.0646 194.558 40.1431 194.041 40.1431ZM201.269 40.1385C200.697 40.1385 200.186 39.9923 199.736 39.6999C199.29 39.4045 198.939 38.9844 198.684 38.4396C198.432 37.8918 198.305 37.2347 198.305 36.4684C198.305 35.7021 198.433 35.0465 198.689 34.5018C198.947 33.957 199.301 33.54 199.75 33.2507C200.2 32.9614 200.709 32.8168 201.278 32.8168C201.718 32.8168 202.072 32.8906 202.34 33.0384C202.611 33.183 202.82 33.3523 202.968 33.5462C203.119 33.7401 203.236 33.9109 203.319 34.0586H203.402V30.5455H204.782V40H203.434V38.8967H203.319C203.236 39.0475 203.116 39.2198 202.959 39.4137C202.805 39.6076 202.593 39.7769 202.322 39.9215C202.051 40.0662 201.7 40.1385 201.269 40.1385ZM201.574 38.9613C201.971 38.9613 202.306 38.8567 202.58 38.6474C202.857 38.435 203.067 38.1411 203.208 37.7656C203.353 37.3902 203.425 36.9531 203.425 36.4545C203.425 35.9621 203.354 35.5312 203.213 35.1619C203.071 34.7926 202.863 34.5049 202.589 34.2987C202.316 34.0924 201.977 33.9893 201.574 33.9893C201.158 33.9893 200.812 34.0971 200.535 34.3125C200.258 34.5279 200.049 34.8219 199.907 35.1942C199.769 35.5666 199.7 35.9867 199.7 36.4545C199.7 36.9285 199.77 37.3548 199.912 37.7333C200.053 38.1119 200.263 38.4119 200.54 38.6335C200.82 38.852 201.165 38.9613 201.574 38.9613ZM206.752 40V32.9091H208.087V34.0355H208.16C208.29 33.6539 208.517 33.3538 208.844 33.1353C209.173 32.9137 209.545 32.8029 209.961 32.8029C210.047 32.8029 210.149 32.806 210.266 32.8121C210.386 32.8183 210.479 32.826 210.547 32.8352V34.1555C210.492 34.1402 210.393 34.1232 210.252 34.1048C210.11 34.0832 209.969 34.0724 209.827 34.0724C209.501 34.0724 209.21 34.1417 208.954 34.2802C208.702 34.4156 208.502 34.6049 208.354 34.848C208.207 35.0881 208.133 35.362 208.133 35.6697V40H206.752ZM216.233 37.0593V32.9091H217.618V40H216.261V38.772H216.187C216.024 39.1506 215.763 39.466 215.402 39.7184C215.045 39.9677 214.601 40.0923 214.068 40.0923C213.613 40.0923 213.21 39.9923 212.859 39.7923C212.511 39.5891 212.237 39.2891 212.037 38.892C211.84 38.495 211.742 38.0041 211.742 37.4194V32.9091H213.122V37.2532C213.122 37.7364 213.256 38.1211 213.524 38.4073C213.791 38.6935 214.139 38.8366 214.567 38.8366C214.825 38.8366 215.082 38.772 215.338 38.6428C215.596 38.5135 215.81 38.3181 215.98 38.0565C216.152 37.7949 216.237 37.4625 216.233 37.0593ZM220.853 35.7898V40H219.473V32.9091H220.798V34.0632H220.886C221.049 33.6877 221.304 33.3861 221.652 33.1584C222.003 32.9306 222.445 32.8168 222.977 32.8168C223.46 32.8168 223.883 32.9183 224.247 33.1214C224.61 33.3215 224.891 33.62 225.091 34.017C225.291 34.4141 225.391 34.9049 225.391 35.4897V40H224.011V35.6559C224.011 35.1419 223.877 34.7403 223.609 34.451C223.342 34.1586 222.974 34.0124 222.506 34.0124C222.186 34.0124 221.901 34.0817 221.652 34.2202C221.406 34.3587 221.21 34.5618 221.066 34.8295C220.924 35.0942 220.853 35.4143 220.853 35.7898ZM232.063 30.5455V40H230.683V30.5455H232.063ZM236.907 40.1431C236.242 40.1431 235.662 39.9908 235.167 39.6861C234.671 39.3814 234.287 38.9551 234.013 38.4073C233.739 37.8595 233.602 37.2193 233.602 36.4869C233.602 35.7513 233.739 35.1081 234.013 34.5572C234.287 34.0063 234.671 33.5785 235.167 33.2738C235.662 32.9691 236.242 32.8168 236.907 32.8168C237.572 32.8168 238.152 32.9691 238.648 33.2738C239.143 33.5785 239.528 34.0063 239.802 34.5572C240.076 35.1081 240.213 35.7513 240.213 36.4869C240.213 37.2193 240.076 37.8595 239.802 38.4073C239.528 38.9551 239.143 39.3814 238.648 39.6861C238.152 39.9908 237.572 40.1431 236.907 40.1431ZM236.912 38.9844C237.343 38.9844 237.7 38.8705 237.983 38.6428C238.266 38.415 238.475 38.1119 238.611 37.7333C238.749 37.3548 238.818 36.9377 238.818 36.4822C238.818 36.0298 238.749 35.6143 238.611 35.2358C238.475 34.8542 238.266 34.5479 237.983 34.3171C237.7 34.0863 237.343 33.9709 236.912 33.9709C236.478 33.9709 236.118 34.0863 235.832 34.3171C235.548 34.5479 235.338 34.8542 235.199 35.2358C235.064 35.6143 234.996 36.0298 234.996 36.4822C234.996 36.9377 235.064 37.3548 235.199 37.7333C235.338 38.1119 235.548 38.415 235.832 38.6428C236.118 38.8705 236.478 38.9844 236.912 38.9844ZM243.134 30.5455V40H241.753V30.5455H243.134Z" fill="black"/>
</svg>
