<svg width="20" height="20" viewBox="0 0 20 20" fill="none" xmlns="http://www.w3.org/2000/svg">
<path d="M8.83342 11.5001L7.04175 9.70842C6.88897 9.55564 6.69453 9.47925 6.45842 9.47925C6.2223 9.47925 6.02786 9.55564 5.87508 9.70842C5.7223 9.86119 5.64592 10.0556 5.64592 10.2917C5.64592 10.5279 5.7223 10.7223 5.87508 10.8751L8.25008 13.2501C8.41675 13.4167 8.61119 13.5001 8.83342 13.5001C9.05564 13.5001 9.25008 13.4167 9.41675 13.2501L14.1251 8.54175C14.2779 8.38897 14.3542 8.19453 14.3542 7.95842C14.3542 7.7223 14.2779 7.52786 14.1251 7.37508C13.9723 7.2223 13.7779 7.14592 13.5417 7.14592C13.3056 7.14592 13.1112 7.2223 12.9584 7.37508L8.83342 11.5001ZM10.0001 18.3334C8.8473 18.3334 7.76397 18.1145 6.75008 17.6768C5.73619 17.239 4.85425 16.6454 4.10425 15.8959C3.35425 15.1465 2.76064 14.2645 2.32342 13.2501C1.88619 12.2356 1.6673 11.1523 1.66675 10.0001C1.66619 8.84786 1.88508 7.76453 2.32342 6.75008C2.76175 5.73564 3.35536 4.85369 4.10425 4.10425C4.85314 3.3548 5.73508 2.76119 6.75008 2.32341C7.76508 1.88564 8.84842 1.66675 10.0001 1.66675C11.1517 1.66675 12.2351 1.88564 13.2501 2.32341C14.2651 2.76119 15.147 3.3548 15.8959 4.10425C16.6448 4.85369 17.2387 5.73564 17.6776 6.75008C18.1165 7.76453 18.3351 8.84786 18.3334 10.0001C18.3317 11.1523 18.1129 12.2356 17.6767 13.2501C17.2406 14.2645 16.647 15.1465 15.8959 15.8959C15.1448 16.6454 14.2629 17.2392 13.2501 17.6776C12.2373 18.1159 11.154 18.3345 10.0001 18.3334Z" fill="#999999"/>
</svg>
