<svg width="95" height="34" viewBox="0 0 95 34" fill="none" xmlns="http://www.w3.org/2000/svg">
<path d="M44.2894 25.6174V22.7252H49.462C50.9823 22.7252 52.2801 22.4193 53.3554 21.8075C54.4307 21.1957 55.2464 20.3429 55.8026 19.249C56.3773 18.1552 56.6647 16.9037 56.6647 15.4947C56.6647 14.1042 56.3773 12.8806 55.8026 11.8238C55.2464 10.7671 54.4307 9.95131 53.3554 9.37657C52.2986 8.7833 51.0008 8.48666 49.462 8.48666H44.345V5.59446H49.462C51.6497 5.59446 53.5593 6.00233 55.1908 6.81808C56.8223 7.63383 58.083 8.79257 58.9729 10.2943C59.8814 11.7775 60.3356 13.5295 60.3356 15.5503C60.3356 17.5712 59.8814 19.3417 58.9729 20.862C58.0645 22.3637 56.7945 23.5317 55.163 24.366C53.55 25.2003 51.659 25.6174 49.4898 25.6174H44.2894ZM42.0924 25.6174V5.59446H45.7077V25.6174H42.0924ZM67.6773 25.8955C66.6947 25.8955 65.8419 25.6916 65.1189 25.2837C64.4143 24.8573 63.8674 24.2826 63.4781 23.5595C63.1073 22.8365 62.9219 22.0207 62.9219 21.1123V11.4345H66.4259V20.3892C66.4259 21.2606 66.6391 21.9187 67.0655 22.3637C67.5105 22.8087 68.1316 23.0311 68.9288 23.0311C69.6518 23.0311 70.2822 22.8643 70.8198 22.5306C71.376 22.1968 71.8117 21.7333 72.1269 21.1401C72.4606 20.5283 72.6275 19.8423 72.6275 19.0822L72.989 22.4749C72.5255 23.5132 71.8303 24.3475 70.9033 24.9778C69.9948 25.5896 68.9195 25.8955 67.6773 25.8955ZM72.7387 25.6174V22.2803H72.6275V11.4345H76.1593V25.6174H72.7387ZM86.2427 25.8955C84.741 25.8955 83.4154 25.5804 82.2659 24.95C81.135 24.3196 80.2544 23.4483 79.624 22.3359C78.9936 21.205 78.6785 19.9164 78.6785 18.4703C78.6785 17.0242 78.9936 15.7543 79.624 14.6604C80.2544 13.5666 81.135 12.7137 82.2659 12.1019C83.4154 11.4716 84.741 11.1564 86.2427 11.1564C87.763 11.1564 89.0886 11.4716 90.2195 12.1019C91.3504 12.7137 92.2311 13.5666 92.8614 14.6604C93.4918 15.7543 93.8069 17.0242 93.8069 18.4703C93.8069 19.9164 93.4825 21.205 92.8336 22.3359C92.2032 23.4483 91.3226 24.3196 90.1917 24.95C89.0608 25.5804 87.7444 25.8955 86.2427 25.8955ZM86.2427 23.0867C86.9843 23.0867 87.6517 22.9014 88.245 22.5306C88.8383 22.1412 89.3018 21.6036 89.6355 20.9176C89.9692 20.2131 90.1361 19.3881 90.1361 18.4425C90.1361 17.052 89.7653 15.9582 89.0237 15.161C88.3006 14.3638 87.3736 13.9652 86.2427 13.9652C85.1118 13.9652 84.1755 14.3638 83.4339 15.161C82.6923 15.9582 82.3215 17.052 82.3215 18.4425C82.3215 19.3881 82.4884 20.2131 82.8221 20.9176C83.1744 21.6036 83.6379 22.1412 84.2126 22.5306C84.8059 22.9014 85.4826 23.0867 86.2427 23.0867Z" fill="black"/>
<path d="M0.286837 14.9324C1.2534 8.95458 7.23886 5.18609 13.0417 6.72241C13.3696 6.80923 13.8738 6.95353 14.3415 7.15405C14.5756 7.25442 14.8048 7.37094 14.9988 7.50269C15.191 7.63336 15.3583 7.78575 15.4597 7.96265L15.4607 7.96362C15.5961 8.20379 15.6423 8.48281 15.5935 8.75171L15.5671 8.86597C15.3655 9.56391 14.5787 9.89297 13.9382 9.59839C11.631 8.53669 9.06891 8.46859 6.76731 9.65503L6.76633 9.65405C4.93125 10.6156 3.54738 12.2607 2.91379 14.2332C2.30647 16.1507 2.50238 18.4252 3.43723 20.2117C4.40527 22.0602 6.06671 23.4501 8.05734 24.0759H8.05637C10.0542 24.6769 12.208 24.4701 14.0554 23.5007L14.3064 23.3611C16.8736 21.8702 18.3452 19.0823 18.1814 16.1941V16.1902C18.1776 16.0601 18.1603 15.8933 18.1462 15.6951C18.1325 15.5017 18.1229 15.2861 18.1355 15.0779C18.1597 14.6766 18.2735 14.2282 18.6999 14.074C19.1641 13.9063 19.5322 13.8942 19.8181 14.0203C20.1057 14.1471 20.2784 14.3995 20.3835 14.6873C20.4882 14.9738 20.5319 15.3116 20.5515 15.6394C20.5711 15.9669 20.5672 16.3003 20.572 16.5691C20.6953 23.5198 13.6986 28.4922 7.16672 26.3044C4.75234 25.5044 2.72784 23.8371 1.47824 21.6355L1.23899 21.1882C0.801678 20.3076 0.495492 19.3789 0.303438 18.4128C0.264301 18.2159 0.24553 17.993 0.22629 17.782C0.206652 17.5666 0.186403 17.3616 0.144258 17.1843L0.140352 17.1687V15.9314L0.145235 15.9138C0.185311 15.7672 0.20745 15.6078 0.22629 15.4402C0.244717 15.2762 0.259904 15.099 0.286837 14.9324Z" fill="black" stroke="black" stroke-width="0.28"/>
<path d="M34.4201 17.303L34.4123 17.3245C34.3791 17.4236 34.3543 17.6217 34.3293 17.8479C34.3056 18.0625 34.2828 18.2987 34.2522 18.4465C34.0666 19.3419 33.7985 20.1828 33.4084 21.011L33.4074 21.012C32.2332 23.4516 30.142 25.3272 27.59 26.2317L27.591 26.2327C25.1462 27.1088 22.3047 26.9687 19.9211 25.9114C19.2622 25.619 18.9081 25.0713 18.9406 24.5481C18.974 24.0119 19.4068 23.5704 20.176 23.4895C20.274 23.4792 20.3985 23.5094 20.5148 23.5461C20.6377 23.5849 20.7767 23.6391 20.9133 23.6965C21.1954 23.8153 21.4579 23.9406 21.6086 23.9924C23.1574 24.5246 25.0742 24.5496 26.6291 24.0344C28.5989 23.3797 30.2305 21.9736 31.1691 20.1223C32.0949 18.2565 32.2536 16.1024 31.6106 14.1213C30.9456 12.156 29.5344 10.5311 27.6818 9.59692V9.59595C25.8149 8.6787 23.662 8.52984 21.6867 9.18188C18.6605 10.2041 16.5529 12.9816 16.3703 16.1633C16.3565 16.7277 16.3967 17.3302 16.4367 17.9006C16.4648 18.3022 16.3522 18.627 16.1516 18.8586C15.9521 19.0889 15.6736 19.2184 15.3869 19.2454C14.8096 19.2996 14.1915 18.9379 14.0686 18.1506C14.0055 17.746 14.0102 17.3561 13.9924 16.967C13.9024 15.0018 14.3586 13.1741 15.3469 11.4651L15.6125 11.0325C16.9927 8.9094 19.1153 7.36756 21.5744 6.71509L21.5754 6.71411C24.208 6.03585 27.0019 6.41954 29.3547 7.78149L29.7893 8.05005C31.925 9.44464 33.4711 11.616 34.0949 14.0823C34.1504 14.3024 34.2179 14.5229 34.257 14.7668C34.2859 14.9459 34.3049 15.138 34.3264 15.3176C34.3482 15.5005 34.3732 15.6753 34.4152 15.8352L34.4201 15.8528V17.303Z" fill="black" stroke="black" stroke-width="0.28"/>
</svg>
