<svg width="378" height="284" viewBox="0 0 378 284" fill="none" xmlns="http://www.w3.org/2000/svg">
<rect x="-12.5" y="0.5" width="91" height="91" rx="19.5" stroke="url(#paint0_linear_120_3141)"/>
<rect x="91.5" y="0.5" width="91" height="91" rx="19.5" stroke="url(#paint1_linear_120_3141)"/>
<rect x="195.5" y="0.5" width="91" height="91" rx="19.5" stroke="url(#paint2_linear_120_3141)"/>
<rect x="299.5" y="0.5" width="91" height="91" rx="19.5" stroke="url(#paint3_linear_120_3141)"/>
<rect x="-13" y="104" width="92" height="92" rx="20" fill="white"/>
<rect x="-13" y="104" width="92" height="92" rx="20" fill="url(#paint4_linear_120_3141)"/>
<rect x="-13" y="104" width="92" height="92" rx="20" stroke="white"/>
<path d="M59.9993 151.732C59.9993 149.837 59.8159 147.881 59.5103 146.047H33.041V156.867H48.2012C47.5899 160.351 45.5726 163.408 42.5773 165.364L51.6245 172.394C56.9428 167.442 59.9993 160.229 59.9993 151.732Z" fill="white"/>
<path d="M33.0457 179.118C40.6258 179.118 46.9833 176.612 51.6292 172.333L42.5819 165.364C40.0756 167.075 36.8357 168.054 33.0457 168.054C25.7101 168.054 19.536 163.102 17.2742 156.5L7.98242 163.652C12.7506 173.127 22.4091 179.118 33.0457 179.118Z" fill="white"/>
<path d="M17.2718 156.439C16.1104 152.955 16.1104 149.164 17.2718 145.68L7.98008 138.467C4.00664 146.414 4.00664 155.767 7.98008 163.652L17.2718 156.439Z" fill="white"/>
<path d="M33.0457 134.127C37.0191 134.066 40.9314 135.594 43.8045 138.345L51.8126 130.276C46.7388 125.507 40.0145 122.94 33.0457 123.001C22.4091 123.001 12.7506 128.992 7.98242 138.467L17.2742 145.68C19.536 139.017 25.7101 134.127 33.0457 134.127Z" fill="white"/>
<rect x="91" y="104" width="92" height="92" rx="20" fill="white"/>
<rect x="91" y="104" width="92" height="92" rx="20" fill="url(#paint5_linear_120_3141)"/>
<rect x="91" y="104" width="92" height="92" rx="20" stroke="white"/>
<path d="M136.677 120C119.737 120 106 133.734 106 150.677C106 164.232 114.79 175.731 126.979 179.787C128.512 180.071 129.075 179.122 129.075 178.311C129.075 177.58 129.047 175.163 129.034 172.6C120.499 174.455 118.698 168.98 118.698 168.98C117.303 165.434 115.292 164.492 115.292 164.492C112.509 162.588 115.502 162.627 115.502 162.627C118.582 162.843 120.204 165.788 120.204 165.788C122.94 170.478 127.381 169.122 129.131 168.338C129.407 166.355 130.202 165.002 131.079 164.236C124.265 163.46 117.102 160.83 117.102 149.075C117.102 145.726 118.301 142.989 120.263 140.841C119.945 140.068 118.895 136.948 120.56 132.723C120.56 132.723 123.137 131.898 128.999 135.867C131.446 135.187 134.07 134.847 136.677 134.835C139.284 134.847 141.911 135.187 144.362 135.867C150.218 131.898 152.79 132.723 152.79 132.723C154.46 136.948 153.41 140.068 153.091 140.841C155.058 142.989 156.248 145.726 156.248 149.075C156.248 160.858 149.072 163.452 142.241 164.212C143.341 165.164 144.321 167.031 144.321 169.893C144.321 173.997 144.286 177.301 144.286 178.311C144.286 179.128 144.838 180.084 146.393 179.783C158.575 175.722 167.354 164.227 167.354 150.677C167.354 133.734 153.619 120 136.677 120Z" fill="white"/>
<rect x="195" y="104" width="92" height="92" rx="20" fill="white"/>
<rect x="195" y="104" width="92" height="92" rx="20" fill="url(#paint6_linear_120_3141)"/>
<rect x="195" y="104" width="92" height="92" rx="20" stroke="white"/>
<path fill-rule="evenodd" clip-rule="evenodd" d="M233.299 123.15C224.5 123.83 217.018 124.425 216.678 124.468C215.7 124.68 214.808 125.318 214.383 126.211L214 126.976L214.043 145.425L214.085 163.873L214.638 165.021C214.978 165.659 217.103 168.634 219.441 171.652C224.075 177.689 224.415 177.986 226.157 178.199C226.668 178.241 230.536 178.071 234.659 177.816C238.825 177.561 245.541 177.136 249.537 176.924C266.668 175.861 265.776 175.946 266.796 175.096C268.029 174.075 267.901 175.776 267.986 153.331C268.029 134.33 267.986 133.055 267.688 132.502C267.391 131.822 266.796 131.397 258.974 125.913C253.746 122.215 253.363 122.045 251.025 122.002C250.047 121.96 242.056 122.512 233.299 123.15ZM253.065 125.573C253.831 125.913 259.229 129.654 259.994 130.377C260.207 130.589 260.292 130.802 260.164 130.887C259.952 131.099 226.498 133.097 225.52 132.927C225.095 132.885 224.457 132.629 224.075 132.374C222.544 131.312 218.761 128.209 218.761 127.996C218.761 127.401 218.633 127.401 233.511 126.296C236.36 126.126 241.078 125.786 243.926 125.531C250.09 125.063 251.918 125.063 253.065 125.573ZM263.693 135.18C263.948 135.435 264.16 135.903 264.245 136.37C264.288 136.795 264.33 144.702 264.288 153.884C264.245 169.612 264.203 170.632 263.905 171.057C263.735 171.355 263.395 171.652 263.098 171.737C262.375 172.035 227.348 174.033 226.625 173.82C226.285 173.735 225.817 173.438 225.605 173.183L225.18 172.758L225.137 155.754C225.095 143.809 225.137 138.538 225.265 138.071C225.35 137.731 225.647 137.305 225.86 137.135C226.157 136.923 228.24 136.753 235.382 136.328C240.398 136.073 248.177 135.605 252.598 135.308C263.225 134.67 263.183 134.67 263.693 135.18Z" fill="white"/>
<path fill-rule="evenodd" clip-rule="evenodd" d="M254.299 141.003C252.386 141.131 250.686 141.301 250.516 141.428C249.921 141.726 249.581 142.236 249.496 142.788C249.453 143.341 249.623 143.426 251.536 143.681L252.344 143.766V151.29C252.344 155.754 252.301 158.687 252.174 158.602C252.089 158.517 249.623 154.691 246.648 150.185C243.672 145.594 241.206 141.853 241.164 141.853C241.121 141.811 239.209 141.896 236.871 142.066C234.022 142.236 232.45 142.448 232.152 142.618C231.642 142.873 231.047 143.809 231.047 144.404C231.047 144.786 231.727 144.999 233.13 144.999H233.895V166.593L232.662 166.976C231.77 167.231 231.429 167.401 231.259 167.784C231.004 168.379 231.004 168.889 231.302 168.889C231.387 168.889 233.385 168.804 235.68 168.634C240.186 168.379 240.696 168.251 241.164 167.316C241.334 167.061 241.462 166.763 241.462 166.636C241.462 166.593 240.824 166.381 240.101 166.211C239.336 166.041 238.571 165.828 238.401 165.828C238.103 165.743 238.103 165.191 238.103 157.624V149.505L243.459 157.879C249.071 166.678 249.751 167.699 250.643 168.124C251.706 168.676 254.427 168.294 255.787 167.401L256.212 167.146L256.255 155.158L256.297 143.129L257.232 142.958C258.337 142.746 258.848 142.236 258.848 141.343C258.848 140.791 258.805 140.748 258.295 140.791C257.997 140.791 256.17 140.918 254.299 141.003Z" fill="white"/>
<rect x="299" y="104" width="92" height="92" rx="20" fill="white"/>
<rect x="299" y="104" width="92" height="92" rx="20" fill="url(#paint7_linear_120_3141)"/>
<rect x="299" y="104" width="92" height="92" rx="20" stroke="white"/>
<path fill-rule="evenodd" clip-rule="evenodd" d="M329.967 156.846C329.967 159.868 327.528 162.308 324.505 162.308C321.482 162.308 319.043 159.86 319.043 156.846C319.043 153.831 321.482 151.384 324.505 151.384H329.967V156.846ZM332.694 156.846C332.694 153.823 335.134 151.384 338.156 151.384C341.179 151.384 343.618 153.823 343.618 156.846V170.497C343.618 173.52 341.179 175.959 338.156 175.959C335.134 175.959 332.694 173.52 332.694 170.497V156.846Z" fill="white"/>
<path fill-rule="evenodd" clip-rule="evenodd" d="M338.154 134.924C335.132 134.924 332.692 132.485 332.692 129.462C332.692 126.439 335.132 124 338.154 124C341.177 124 343.616 126.439 343.616 129.462V134.924H338.154ZM338.154 137.692C341.177 137.692 343.616 140.132 343.616 143.154C343.616 146.177 341.177 148.616 338.154 148.616H324.462C321.439 148.616 319 146.169 319 143.154C319 140.14 321.439 137.692 324.462 137.692H338.154Z" fill="white"/>
<path fill-rule="evenodd" clip-rule="evenodd" d="M360.034 143.154C360.034 140.132 362.473 137.692 365.496 137.692C368.519 137.692 370.958 140.132 370.958 143.154C370.958 146.177 368.519 148.616 365.496 148.616H360.034V143.154ZM357.307 143.154C357.307 146.177 354.868 148.616 351.845 148.616C348.822 148.616 346.383 146.177 346.383 143.154V129.462C346.383 126.439 348.822 124 351.845 124C354.868 124 357.307 126.439 357.307 129.462V143.154Z" fill="white"/>
<path fill-rule="evenodd" clip-rule="evenodd" d="M351.845 165.035C354.868 165.035 357.307 167.474 357.307 170.497C357.307 173.52 354.868 175.959 351.845 175.959C348.822 175.959 346.383 173.52 346.383 170.497V165.035H351.845ZM351.845 162.308C348.822 162.308 346.383 159.868 346.383 156.846C346.383 153.823 348.822 151.384 351.845 151.384H365.537C368.56 151.384 370.999 153.823 370.999 156.846C370.999 159.868 368.56 162.308 365.537 162.308H351.845Z" fill="white"/>
<rect x="0.5" y="-0.5" width="91" height="91" rx="19.5" transform="matrix(1 0 0 -1 -13 299)" stroke="url(#paint8_linear_120_3141)"/>
<rect x="0.5" y="-0.5" width="91" height="91" rx="19.5" transform="matrix(1 0 0 -1 91 299)" stroke="url(#paint9_linear_120_3141)"/>
<rect x="0.5" y="-0.5" width="91" height="91" rx="19.5" transform="matrix(1 0 0 -1 195 299)" stroke="url(#paint10_linear_120_3141)"/>
<rect x="0.5" y="-0.5" width="91" height="91" rx="19.5" transform="matrix(1 0 0 -1 299 299)" stroke="url(#paint11_linear_120_3141)"/>
<defs>
<linearGradient id="paint0_linear_120_3141" x1="33" y1="0" x2="33" y2="92" gradientUnits="userSpaceOnUse">
<stop offset="0.340929" stop-color="#D3E6FF" stop-opacity="0"/>
<stop offset="1" stop-color="#D3E6FF"/>
</linearGradient>
<linearGradient id="paint1_linear_120_3141" x1="137" y1="0" x2="137" y2="92" gradientUnits="userSpaceOnUse">
<stop offset="0.340929" stop-color="#D3E6FF" stop-opacity="0"/>
<stop offset="1" stop-color="#D3E6FF"/>
</linearGradient>
<linearGradient id="paint2_linear_120_3141" x1="241" y1="0" x2="241" y2="92" gradientUnits="userSpaceOnUse">
<stop offset="0.340929" stop-color="#D3E6FF" stop-opacity="0"/>
<stop offset="1" stop-color="#D3E6FF"/>
</linearGradient>
<linearGradient id="paint3_linear_120_3141" x1="345" y1="0" x2="345" y2="92" gradientUnits="userSpaceOnUse">
<stop offset="0.340929" stop-color="#D3E6FF" stop-opacity="0"/>
<stop offset="1" stop-color="#D3E6FF"/>
</linearGradient>
<linearGradient id="paint4_linear_120_3141" x1="33" y1="104" x2="33" y2="196" gradientUnits="userSpaceOnUse">
<stop stop-color="#1397F6"/>
<stop offset="1" stop-color="#A1D7FF"/>
</linearGradient>
<linearGradient id="paint5_linear_120_3141" x1="137" y1="104" x2="137" y2="196" gradientUnits="userSpaceOnUse">
<stop stop-color="#1397F6"/>
<stop offset="1" stop-color="#A1D7FF"/>
</linearGradient>
<linearGradient id="paint6_linear_120_3141" x1="241" y1="104" x2="241" y2="196" gradientUnits="userSpaceOnUse">
<stop stop-color="#1397F6"/>
<stop offset="1" stop-color="#A1D7FF"/>
</linearGradient>
<linearGradient id="paint7_linear_120_3141" x1="345" y1="104" x2="345" y2="196" gradientUnits="userSpaceOnUse">
<stop stop-color="#1397F6"/>
<stop offset="1" stop-color="#A1D7FF"/>
</linearGradient>
<linearGradient id="paint8_linear_120_3141" x1="46" y1="0" x2="46" y2="92" gradientUnits="userSpaceOnUse">
<stop offset="0.340929" stop-color="#D3E6FF" stop-opacity="0"/>
<stop offset="1" stop-color="#D3E6FF"/>
</linearGradient>
<linearGradient id="paint9_linear_120_3141" x1="46" y1="0" x2="46" y2="92" gradientUnits="userSpaceOnUse">
<stop offset="0.340929" stop-color="#D3E6FF" stop-opacity="0"/>
<stop offset="1" stop-color="#D3E6FF"/>
</linearGradient>
<linearGradient id="paint10_linear_120_3141" x1="46" y1="0" x2="46" y2="92" gradientUnits="userSpaceOnUse">
<stop offset="0.340929" stop-color="#D3E6FF" stop-opacity="0"/>
<stop offset="1" stop-color="#D3E6FF"/>
</linearGradient>
<linearGradient id="paint11_linear_120_3141" x1="46" y1="0" x2="46" y2="92" gradientUnits="userSpaceOnUse">
<stop offset="0.340929" stop-color="#D3E6FF" stop-opacity="0"/>
<stop offset="1" stop-color="#D3E6FF"/>
</linearGradient>
</defs>
</svg>
