<svg width="20" height="20" viewBox="0 0 20 20" fill="none" xmlns="http://www.w3.org/2000/svg">
<g clip-path="url(#clip0_201_769)">
<path fill-rule="evenodd" clip-rule="evenodd" d="M11.7925 1.28039C10.75 0.377891 9.24997 0.377891 8.20747 1.28039C7.37831 1.99831 6.18747 3.08456 4.63622 4.63622C3.08456 6.18747 1.99872 7.37789 1.28039 8.20706C0.377891 9.24956 0.377891 10.75 1.28039 11.7925C1.99831 12.6216 3.08456 13.8121 4.63622 15.3633C6.18747 16.915 7.37789 18.0012 8.20706 18.7196C9.24956 19.6221 10.75 19.6221 11.7925 18.7196C12.6216 18.0012 13.8125 16.9154 15.3637 15.3637C16.9154 13.8121 18.0012 12.6221 18.7196 11.7925C19.6221 10.75 19.6221 9.24956 18.7196 8.20706C18.0016 7.37789 16.9154 6.18747 15.3637 4.63622C13.8125 3.08456 12.6216 1.99872 11.7925 1.28039ZM8.39164 6.30706C8.35331 5.76664 8.59581 5.23539 9.12081 5.10372C9.40857 5.03276 9.70402 4.99777 10.0004 4.99956C10.3479 4.99956 10.6412 5.04372 10.8796 5.10372C11.405 5.23539 11.6475 5.76664 11.6087 6.30706C11.5296 7.43039 11.3779 9.38122 11.2137 10.475C11.1596 10.8354 10.9429 11.1454 10.5837 11.2058C10.43 11.2316 10.2379 11.25 10.0004 11.25C9.76289 11.25 9.57081 11.2316 9.41706 11.2058C9.05789 11.1454 8.84081 10.835 8.78706 10.475C8.62289 9.38122 8.47122 7.43039 8.39164 6.30706ZM9.99997 15.4166C10.3867 15.4166 10.7577 15.263 11.0312 14.9895C11.3047 14.716 11.4583 14.3451 11.4583 13.9583C11.4583 13.5715 11.3047 13.2006 11.0312 12.9271C10.7577 12.6536 10.3867 12.5 9.99997 12.5C9.6132 12.5 9.24227 12.6536 8.96878 12.9271C8.69529 13.2006 8.54164 13.5715 8.54164 13.9583C8.54164 14.3451 8.69529 14.716 8.96878 14.9895C9.24227 15.263 9.6132 15.4166 9.99997 15.4166Z" fill="#FF9900"/>
</g>
<defs>
<clipPath id="clip0_201_769">
<rect width="20" height="20" fill="white"/>
</clipPath>
</defs>
</svg>
