<svg width="305" height="53" viewBox="0 0 305 53" fill="none" xmlns="http://www.w3.org/2000/svg">
<path d="M284.527 52.0996C287.317 52.0996 289.951 51.436 292.282 50.2598C292.775 50.5297 293.285 50.7785 293.814 51C297.516 52.5481 301.47 52.597 305 51.4248C302.635 49.1968 300.684 46.6498 299.202 43.9102C300.828 41.2794 301.768 38.1793 301.768 34.8594H284.527V52.0996Z" fill="#1397F6"/>
<path d="M301.767 12.9302C301.767 5.78906 295.978 0 288.837 0H284.527V35.9369H301.767V12.9302Z" fill="#1397F6"/>
<path d="M21.6743 12.9302C21.6743 5.78905 27.4634 0 34.6045 0H285.605V52.2403H34.6045C27.4634 52.2403 21.6743 46.4512 21.6743 39.3101V12.9302Z" fill="#1397F6"/>
<path d="M35.4861 12.1656H37.1064L39.5763 16.4636H39.6778L42.1476 12.1656H43.768L40.338 17.9085V21.6202H38.9161V17.9085L35.4861 12.1656ZM46.823 21.7633C46.1582 21.7633 45.5781 21.6109 45.0826 21.3063C44.5871 21.0016 44.2024 20.5753 43.9284 20.0275C43.6545 19.4797 43.5176 18.8395 43.5176 18.107C43.5176 17.3715 43.6545 16.7283 43.9284 16.1774C44.2024 15.6265 44.5871 15.1987 45.0826 14.894C45.5781 14.5893 46.1582 14.4369 46.823 14.4369C47.4877 14.4369 48.0679 14.5893 48.5634 14.894C49.0589 15.1987 49.4436 15.6265 49.7175 16.1774C49.9914 16.7283 50.1284 17.3715 50.1284 18.107C50.1284 18.8395 49.9914 19.4797 49.7175 20.0275C49.4436 20.5753 49.0589 21.0016 48.5634 21.3063C48.0679 21.6109 47.4877 21.7633 46.823 21.7633ZM46.8276 20.6046C47.2585 20.6046 47.6155 20.4907 47.8986 20.2629C48.1818 20.0352 48.391 19.732 48.5265 19.3535C48.665 18.9749 48.7342 18.5579 48.7342 18.1024C48.7342 17.65 48.665 17.2345 48.5265 16.856C48.391 16.4743 48.1818 16.1681 47.8986 15.9373C47.6155 15.7065 47.2585 15.5911 46.8276 15.5911C46.3936 15.5911 46.0336 15.7065 45.7473 15.9373C45.4642 16.1681 45.2534 16.4743 45.1149 16.856C44.9795 17.2345 44.9118 17.65 44.9118 18.1024C44.9118 18.5579 44.9795 18.9749 45.1149 19.3535C45.2534 19.732 45.4642 20.0352 45.7473 20.2629C46.0336 20.4907 46.3936 20.6046 46.8276 20.6046ZM56.6468 12.1656V21.6202H55.2203V12.1656H56.6468ZM63.4342 17.41V21.6202H62.0539V12.1656H63.4157V15.6834H63.5035C63.6697 15.3018 63.9236 14.9986 64.2652 14.7739C64.6068 14.5493 65.0531 14.4369 65.604 14.4369C66.0902 14.4369 66.5149 14.537 66.8781 14.737C67.2443 14.9371 67.5275 15.2356 67.7275 15.6326C67.9307 16.0265 68.0322 16.519 68.0322 17.1099V21.6202H66.6519V17.2761C66.6519 16.7559 66.518 16.3528 66.2503 16.0666C65.9825 15.7773 65.6101 15.6326 65.1331 15.6326C64.8068 15.6326 64.5145 15.7019 64.2559 15.8403C64.0005 15.9788 63.7989 16.182 63.6512 16.4497C63.5065 16.7144 63.4342 17.0345 63.4342 17.41ZM71.9378 21.7771C71.4884 21.7771 71.0822 21.694 70.719 21.5278C70.3559 21.3586 70.0681 21.1139 69.8557 20.7938C69.6465 20.4738 69.5418 20.0814 69.5418 19.6166C69.5418 19.2165 69.6188 18.8872 69.7726 18.6287C69.9265 18.3702 70.1343 18.1655 70.3959 18.0147C70.6575 17.8639 70.9498 17.75 71.273 17.6731C71.5961 17.5961 71.9255 17.5377 72.2609 17.4977C72.6856 17.4484 73.0303 17.4084 73.295 17.3776C73.5597 17.3438 73.752 17.2899 73.8721 17.2161C73.9921 17.1422 74.0521 17.0222 74.0521 16.856V16.8237C74.0521 16.4205 73.9382 16.1081 73.7105 15.8865C73.4858 15.6649 73.1504 15.5541 72.7041 15.5541C72.2394 15.5541 71.8731 15.6572 71.6054 15.8634C71.3407 16.0666 71.1576 16.2928 71.056 16.5421L69.7588 16.2466C69.9127 15.8157 70.1373 15.468 70.4328 15.2033C70.7313 14.9355 71.0745 14.7416 71.4623 14.6216C71.8501 14.4985 72.2578 14.4369 72.6856 14.4369C72.9688 14.4369 73.2689 14.4708 73.5858 14.5385C73.9059 14.6031 74.2045 14.7232 74.4814 14.8986C74.7615 15.074 74.9908 15.3248 75.1693 15.6511C75.3478 15.9742 75.4371 16.3943 75.4371 16.9114V21.6202H74.089V20.6507H74.0336C73.9444 20.8292 73.8105 21.0046 73.632 21.177C73.4535 21.3493 73.2242 21.4925 72.9442 21.6063C72.6641 21.7202 72.3286 21.7771 71.9378 21.7771ZM72.2378 20.6692C72.6195 20.6692 72.9457 20.5938 73.2165 20.443C73.4904 20.2922 73.6982 20.0952 73.8398 19.8521C73.9844 19.6059 74.0567 19.3427 74.0567 19.0626V18.1486C74.0075 18.1978 73.9121 18.244 73.7705 18.2871C73.632 18.3271 73.4735 18.3625 73.295 18.3933C73.1165 18.421 72.9426 18.4471 72.7733 18.4717C72.6041 18.4933 72.4625 18.5118 72.3486 18.5271C72.0809 18.561 71.8362 18.6179 71.6146 18.6979C71.3961 18.778 71.2207 18.8934 71.0883 19.0442C70.9591 19.1919 70.8944 19.3889 70.8944 19.6351C70.8944 19.9767 71.0206 20.2352 71.273 20.4107C71.5254 20.583 71.847 20.6692 72.2378 20.6692ZM83.0877 14.5293L80.5163 21.6202H79.0391L76.4631 14.5293H77.945L79.7408 19.9859H79.8146L81.6058 14.5293H83.0877ZM87.1998 21.7633C86.5012 21.7633 85.8995 21.614 85.3948 21.3155C84.8931 21.0139 84.5054 20.5907 84.2314 20.046C83.9606 19.4981 83.8252 18.8564 83.8252 18.1209C83.8252 17.3946 83.9606 16.7544 84.2314 16.2004C84.5054 15.6465 84.887 15.214 85.3763 14.9032C85.8688 14.5924 86.4443 14.4369 87.1029 14.4369C87.503 14.4369 87.8908 14.5031 88.2662 14.6354C88.6417 14.7678 88.9787 14.9755 89.2773 15.2587C89.5758 15.5418 89.8112 15.9096 89.9836 16.362C90.1559 16.8113 90.2421 17.3576 90.2421 18.0009V18.4902H84.6054V17.4561H88.8895C88.8895 17.093 88.8156 16.7713 88.6679 16.4913C88.5202 16.2081 88.3124 15.985 88.0447 15.8219C87.78 15.6588 87.4691 15.5772 87.1121 15.5772C86.7243 15.5772 86.3858 15.6726 86.0965 15.8634C85.8103 16.0512 85.5887 16.2974 85.4317 16.6021C85.2778 16.9037 85.2009 17.2314 85.2009 17.5854V18.3933C85.2009 18.8672 85.284 19.2704 85.4502 19.6028C85.6195 19.9352 85.8549 20.1891 86.1565 20.3645C86.4581 20.5368 86.8105 20.623 87.2137 20.623C87.4753 20.623 87.7138 20.5861 87.9292 20.5122C88.1447 20.4353 88.3309 20.3214 88.4878 20.1706C88.6448 20.0198 88.7648 19.8336 88.8479 19.612L90.1544 19.8475C90.0497 20.2322 89.862 20.5692 89.5912 20.8585C89.3234 21.1447 88.9864 21.3678 88.5802 21.5278C88.177 21.6848 87.7169 21.7633 87.1998 21.7633ZM97.2776 21.7771C96.8283 21.7771 96.422 21.694 96.0589 21.5278C95.6957 21.3586 95.4079 21.1139 95.1956 20.7938C94.9863 20.4738 94.8817 20.0814 94.8817 19.6166C94.8817 19.2165 94.9586 18.8872 95.1125 18.6287C95.2664 18.3702 95.4741 18.1655 95.7357 18.0147C95.9973 17.8639 96.2897 17.75 96.6128 17.6731C96.936 17.5961 97.2653 17.5377 97.6008 17.4977C98.0255 17.4484 98.3702 17.4084 98.6349 17.3776C98.8995 17.3438 99.0919 17.2899 99.2119 17.2161C99.3319 17.1422 99.392 17.0222 99.392 16.856V16.8237C99.392 16.4205 99.2781 16.1081 99.0503 15.8865C98.8257 15.6649 98.4902 15.5541 98.0439 15.5541C97.5792 15.5541 97.213 15.6572 96.9452 15.8634C96.6805 16.0666 96.4974 16.2928 96.3959 16.5421L95.0986 16.2466C95.2525 15.8157 95.4772 15.468 95.7726 15.2033C96.0712 14.9355 96.4143 14.7416 96.8021 14.6216C97.1899 14.4985 97.5977 14.4369 98.0255 14.4369C98.3086 14.4369 98.6087 14.4708 98.9257 14.5385C99.2458 14.6031 99.5443 14.7232 99.8213 14.8986C100.101 15.074 100.331 15.3248 100.509 15.6511C100.688 15.9742 100.777 16.3943 100.777 16.9114V21.6202H99.4289V20.6507H99.3735C99.2842 20.8292 99.1504 21.0046 98.9719 21.177C98.7934 21.3493 98.5641 21.4925 98.284 21.6063C98.0039 21.7202 97.6685 21.7771 97.2776 21.7771ZM97.5777 20.6692C97.9593 20.6692 98.2855 20.5938 98.5564 20.443C98.8303 20.2922 99.038 20.0952 99.1796 19.8521C99.3242 19.6059 99.3966 19.3427 99.3966 19.0626V18.1486C99.3473 18.1978 99.2519 18.244 99.1104 18.2871C98.9719 18.3271 98.8134 18.3625 98.6349 18.3933C98.4564 18.421 98.2825 18.4471 98.1132 18.4717C97.9439 18.4933 97.8023 18.5118 97.6885 18.5271C97.4207 18.561 97.176 18.6179 96.9545 18.6979C96.7359 18.778 96.5605 18.8934 96.4282 19.0442C96.2989 19.1919 96.2343 19.3889 96.2343 19.6351C96.2343 19.9767 96.3605 20.2352 96.6128 20.4107C96.8652 20.583 97.1868 20.6692 97.5777 20.6692ZM106.056 21.6202V14.5293H107.381V15.6834H107.468C107.616 15.2925 107.858 14.9878 108.193 14.7693C108.529 14.5477 108.93 14.4369 109.398 14.4369C109.872 14.4369 110.269 14.5477 110.589 14.7693C110.912 14.9909 111.151 15.2956 111.305 15.6834H111.379C111.548 15.3048 111.817 15.0032 112.187 14.7786C112.556 14.5508 112.996 14.4369 113.507 14.4369C114.15 14.4369 114.675 14.6385 115.081 15.0417C115.49 15.4449 115.695 16.0527 115.695 16.8652V21.6202H114.315V16.9945C114.315 16.5144 114.184 16.1666 113.922 15.9511C113.661 15.7357 113.348 15.628 112.985 15.628C112.536 15.628 112.187 15.7665 111.937 16.0435C111.688 16.3174 111.563 16.6698 111.563 17.1006V21.6202H110.188V16.9068C110.188 16.522 110.068 16.2127 109.828 15.9788C109.587 15.7449 109.275 15.628 108.89 15.628C108.629 15.628 108.387 15.6972 108.166 15.8357C107.947 15.9711 107.77 16.1604 107.635 16.4036C107.502 16.6467 107.436 16.9283 107.436 17.2484V21.6202H106.056ZM119.609 21.7771C119.159 21.7771 118.753 21.694 118.39 21.5278C118.027 21.3586 117.739 21.1139 117.527 20.7938C117.317 20.4738 117.213 20.0814 117.213 19.6166C117.213 19.2165 117.29 18.8872 117.444 18.6287C117.597 18.3702 117.805 18.1655 118.067 18.0147C118.328 17.8639 118.621 17.75 118.944 17.6731C119.267 17.5961 119.596 17.5377 119.932 17.4977C120.357 17.4484 120.701 17.4084 120.966 17.3776C121.231 17.3438 121.423 17.2899 121.543 17.2161C121.663 17.1422 121.723 17.0222 121.723 16.856V16.8237C121.723 16.4205 121.609 16.1081 121.381 15.8865C121.157 15.6649 120.821 15.5541 120.375 15.5541C119.91 15.5541 119.544 15.6572 119.276 15.8634C119.012 16.0666 118.828 16.2928 118.727 16.5421L117.43 16.2466C117.584 15.8157 117.808 15.468 118.104 15.2033C118.402 14.9355 118.745 14.7416 119.133 14.6216C119.521 14.4985 119.929 14.4369 120.357 14.4369C120.64 14.4369 120.94 14.4708 121.257 14.5385C121.577 14.6031 121.875 14.7232 122.152 14.8986C122.432 15.074 122.662 15.3248 122.84 15.6511C123.019 15.9742 123.108 16.3943 123.108 16.9114V21.6202H121.76V20.6507H121.705C121.615 20.8292 121.481 21.0046 121.303 21.177C121.124 21.3493 120.895 21.4925 120.615 21.6063C120.335 21.7202 120 21.7771 119.609 21.7771ZM119.909 20.6692C120.29 20.6692 120.617 20.5938 120.887 20.443C121.161 20.2922 121.369 20.0952 121.511 19.8521C121.655 19.6059 121.728 19.3427 121.728 19.0626V18.1486C121.678 18.1978 121.583 18.244 121.441 18.2871C121.303 18.3271 121.144 18.3625 120.966 18.3933C120.787 18.421 120.614 18.4471 120.444 18.4717C120.275 18.4933 120.133 18.5118 120.02 18.5271C119.752 18.561 119.507 18.6179 119.286 18.6979C119.067 18.778 118.892 18.8934 118.759 19.0442C118.63 19.1919 118.565 19.3889 118.565 19.6351C118.565 19.9767 118.692 20.2352 118.944 20.4107C119.196 20.583 119.518 20.6692 119.909 20.6692ZM127.601 21.7587C127.028 21.7587 126.518 21.6125 126.068 21.3201C125.622 21.0247 125.271 20.6046 125.016 20.0598C124.763 19.512 124.637 18.8549 124.637 18.0886C124.637 17.3222 124.765 16.6667 125.02 16.122C125.279 15.5772 125.633 15.1602 126.082 14.8709C126.531 14.5816 127.041 14.4369 127.61 14.4369C128.05 14.4369 128.404 14.5108 128.672 14.6585C128.943 14.8032 129.152 14.9725 129.3 15.1663C129.451 15.3602 129.568 15.531 129.651 15.6788H129.734V12.1656H131.114V21.6202H129.766V20.5168H129.651C129.568 20.6676 129.448 20.84 129.291 21.0339C129.137 21.2278 128.924 21.397 128.653 21.5417C128.383 21.6863 128.032 21.7587 127.601 21.7587ZM127.906 20.5815C128.303 20.5815 128.638 20.4768 128.912 20.2676C129.189 20.0552 129.398 19.7613 129.54 19.3858C129.685 19.0103 129.757 18.5733 129.757 18.0747C129.757 17.5823 129.686 17.1514 129.544 16.7821C129.403 16.4128 129.195 16.125 128.921 15.9188C128.647 15.7126 128.309 15.6095 127.906 15.6095C127.49 15.6095 127.144 15.7172 126.867 15.9327C126.59 16.1481 126.381 16.442 126.239 16.8144C126.101 17.1868 126.031 17.6069 126.031 18.0747C126.031 18.5487 126.102 18.9749 126.244 19.3535C126.385 19.732 126.595 20.0321 126.872 20.2537C127.152 20.4722 127.496 20.5815 127.906 20.5815ZM137.905 17.41V21.6202H136.525V12.1656H137.886V15.6834H137.974C138.14 15.3018 138.394 14.9986 138.736 14.7739C139.078 14.5493 139.524 14.4369 140.075 14.4369C140.561 14.4369 140.986 14.537 141.349 14.737C141.715 14.9371 141.998 15.2356 142.198 15.6326C142.401 16.0265 142.503 16.519 142.503 17.1099V21.6202H141.123V17.2761C141.123 16.7559 140.989 16.3528 140.721 16.0666C140.453 15.7773 140.081 15.6326 139.604 15.6326C139.278 15.6326 138.985 15.7019 138.727 15.8403C138.471 15.9788 138.27 16.182 138.122 16.4497C137.977 16.7144 137.905 17.0345 137.905 17.41ZM146.408 21.7771C145.959 21.7771 145.553 21.694 145.19 21.5278C144.827 21.3586 144.539 21.1139 144.326 20.7938C144.117 20.4738 144.013 20.0814 144.013 19.6166C144.013 19.2165 144.089 18.8872 144.243 18.6287C144.397 18.3702 144.605 18.1655 144.867 18.0147C145.128 17.8639 145.421 17.75 145.744 17.6731C146.067 17.5961 146.396 17.5377 146.732 17.4977C147.156 17.4484 147.501 17.4084 147.766 17.3776C148.03 17.3438 148.223 17.2899 148.343 17.2161C148.463 17.1422 148.523 17.0222 148.523 16.856V16.8237C148.523 16.4205 148.409 16.1081 148.181 15.8865C147.957 15.6649 147.621 15.5541 147.175 15.5541C146.71 15.5541 146.344 15.6572 146.076 15.8634C145.811 16.0666 145.628 16.2928 145.527 16.5421L144.229 16.2466C144.383 15.8157 144.608 15.468 144.903 15.2033C145.202 14.9355 145.545 14.7416 145.933 14.6216C146.321 14.4985 146.729 14.4369 147.156 14.4369C147.439 14.4369 147.74 14.4708 148.057 14.5385C148.377 14.6031 148.675 14.7232 148.952 14.8986C149.232 15.074 149.461 15.3248 149.64 15.6511C149.819 15.9742 149.908 16.3943 149.908 16.9114V21.6202H148.56V20.6507H148.504C148.415 20.8292 148.281 21.0046 148.103 21.177C147.924 21.3493 147.695 21.4925 147.415 21.6063C147.135 21.7202 146.799 21.7771 146.408 21.7771ZM146.709 20.6692C147.09 20.6692 147.416 20.5938 147.687 20.443C147.961 20.2922 148.169 20.0952 148.31 19.8521C148.455 19.6059 148.527 19.3427 148.527 19.0626V18.1486C148.478 18.1978 148.383 18.244 148.241 18.2871C148.103 18.3271 147.944 18.3625 147.766 18.3933C147.587 18.421 147.413 18.4471 147.244 18.4717C147.075 18.4933 146.933 18.5118 146.819 18.5271C146.552 18.561 146.307 18.6179 146.085 18.6979C145.867 18.778 145.691 18.8934 145.559 19.0442C145.43 19.1919 145.365 19.3889 145.365 19.6351C145.365 19.9767 145.491 20.2352 145.744 20.4107C145.996 20.583 146.318 20.6692 146.709 20.6692ZM153.127 17.41V21.6202H151.746V14.5293H153.071V15.6834H153.159C153.322 15.3079 153.577 15.0063 153.925 14.7786C154.276 14.5508 154.718 14.4369 155.25 14.4369C155.733 14.4369 156.157 14.5385 156.52 14.7416C156.883 14.9417 157.164 15.2402 157.365 15.6372C157.565 16.0342 157.665 16.5251 157.665 17.1099V21.6202H156.284V17.2761C156.284 16.7621 156.15 16.3605 155.883 16.0712C155.615 15.7788 155.247 15.6326 154.779 15.6326C154.459 15.6326 154.175 15.7019 153.925 15.8403C153.679 15.9788 153.484 16.182 153.339 16.4497C153.197 16.7144 153.127 17.0345 153.127 17.41ZM162.489 24.427C161.926 24.427 161.441 24.3531 161.035 24.2054C160.631 24.0577 160.302 23.8622 160.047 23.6191C159.791 23.376 159.6 23.1098 159.474 22.8205L160.661 22.3311C160.744 22.4665 160.855 22.6096 160.993 22.7604C161.135 22.9143 161.325 23.0451 161.566 23.1528C161.809 23.2606 162.121 23.3144 162.503 23.3144C163.026 23.3144 163.458 23.1867 163.8 22.9313C164.142 22.6789 164.312 22.2757 164.312 21.7217V20.3276H164.225C164.142 20.4784 164.021 20.6461 163.865 20.8308C163.711 21.0154 163.498 21.1755 163.227 21.3109C162.957 21.4463 162.604 21.514 162.17 21.514C161.61 21.514 161.105 21.3832 160.656 21.1216C160.21 20.8569 159.856 20.4676 159.594 19.9536C159.336 19.4366 159.206 18.801 159.206 18.047C159.206 17.293 159.334 16.6467 159.59 16.1081C159.848 15.5695 160.202 15.1571 160.651 14.8709C161.101 14.5816 161.61 14.4369 162.18 14.4369C162.62 14.4369 162.975 14.5108 163.246 14.6585C163.517 14.8032 163.728 14.9725 163.878 15.1663C164.032 15.3602 164.151 15.531 164.234 15.6788H164.335V14.5293H165.688V21.7771C165.688 22.3865 165.546 22.8866 165.263 23.2775C164.98 23.6684 164.597 23.9577 164.114 24.1454C163.634 24.3331 163.092 24.427 162.489 24.427ZM162.475 20.3691C162.872 20.3691 163.207 20.2768 163.481 20.0921C163.758 19.9044 163.968 19.6366 164.109 19.2889C164.254 18.938 164.326 18.5179 164.326 18.0286C164.326 17.5515 164.255 17.1314 164.114 16.7683C163.972 16.4051 163.765 16.122 163.491 15.9188C163.217 15.7126 162.878 15.6095 162.475 15.6095C162.059 15.6095 161.713 15.7172 161.436 15.9327C161.159 16.145 160.95 16.4343 160.808 16.8006C160.67 17.1668 160.601 17.5761 160.601 18.0286C160.601 18.4933 160.671 18.9011 160.813 19.2519C160.955 19.6028 161.164 19.8767 161.441 20.0737C161.721 20.2706 162.066 20.3691 162.475 20.3691ZM170.526 21.7633C169.861 21.7633 169.281 21.6109 168.786 21.3063C168.29 21.0016 167.905 20.5753 167.632 20.0275C167.358 19.4797 167.221 18.8395 167.221 18.107C167.221 17.3715 167.358 16.7283 167.632 16.1774C167.905 15.6265 168.29 15.1987 168.786 14.894C169.281 14.5893 169.861 14.4369 170.526 14.4369C171.191 14.4369 171.771 14.5893 172.267 14.894C172.762 15.1987 173.147 15.6265 173.421 16.1774C173.695 16.7283 173.831 17.3715 173.831 18.107C173.831 18.8395 173.695 19.4797 173.421 20.0275C173.147 20.5753 172.762 21.0016 172.267 21.3063C171.771 21.6109 171.191 21.7633 170.526 21.7633ZM170.531 20.6046C170.962 20.6046 171.319 20.4907 171.602 20.2629C171.885 20.0352 172.094 19.732 172.23 19.3535C172.368 18.9749 172.437 18.5579 172.437 18.1024C172.437 17.65 172.368 17.2345 172.23 16.856C172.094 16.4743 171.885 16.1681 171.602 15.9373C171.319 15.7065 170.962 15.5911 170.531 15.5911C170.097 15.5911 169.737 15.7065 169.45 15.9373C169.167 16.1681 168.956 16.4743 168.818 16.856C168.683 17.2345 168.615 17.65 168.615 18.1024C168.615 18.5579 168.683 18.9749 168.818 19.3535C168.956 19.732 169.167 20.0352 169.45 20.2629C169.737 20.4907 170.097 20.6046 170.531 20.6046ZM181.197 14.5293L178.626 21.6202H177.148L174.572 14.5293H176.054L177.85 19.9859H177.924L179.715 14.5293H181.197ZM185.309 21.7633C184.611 21.7633 184.009 21.614 183.504 21.3155C183.003 21.0139 182.615 20.5907 182.341 20.046C182.07 19.4981 181.935 18.8564 181.935 18.1209C181.935 17.3946 182.07 16.7544 182.341 16.2004C182.615 15.6465 182.996 15.214 183.486 14.9032C183.978 14.5924 184.554 14.4369 185.212 14.4369C185.612 14.4369 186 14.5031 186.376 14.6354C186.751 14.7678 187.088 14.9755 187.387 15.2587C187.685 15.5418 187.921 15.9096 188.093 16.362C188.265 16.8113 188.351 17.3576 188.351 18.0009V18.4902H182.715V17.4561H186.999C186.999 17.093 186.925 16.7713 186.777 16.4913C186.63 16.2081 186.422 15.985 186.154 15.8219C185.889 15.6588 185.579 15.5772 185.222 15.5772C184.834 15.5772 184.495 15.6726 184.206 15.8634C183.92 16.0512 183.698 16.2974 183.541 16.6021C183.387 16.9037 183.31 17.2314 183.31 17.5854V18.3933C183.31 18.8672 183.393 19.2704 183.56 19.6028C183.729 19.9352 183.964 20.1891 184.266 20.3645C184.568 20.5368 184.92 20.623 185.323 20.623C185.585 20.623 185.823 20.5861 186.039 20.5122C186.254 20.4353 186.44 20.3214 186.597 20.1706C186.754 20.0198 186.874 19.8336 186.957 19.612L188.264 19.8475C188.159 20.2322 187.971 20.5692 187.701 20.8585C187.433 21.1447 187.096 21.3678 186.69 21.5278C186.286 21.6848 185.826 21.7633 185.309 21.7633ZM189.883 21.6202V14.5293H191.217V15.6557H191.291C191.42 15.2741 191.648 14.974 191.974 14.7555C192.304 14.5339 192.676 14.4231 193.091 14.4231C193.178 14.4231 193.279 14.4262 193.396 14.4323C193.516 14.4385 193.61 14.4462 193.678 14.4554V15.7757C193.622 15.7603 193.524 15.7434 193.382 15.7249C193.241 15.7034 193.099 15.6926 192.958 15.6926C192.631 15.6926 192.34 15.7619 192.085 15.9004C191.833 16.0358 191.633 16.2251 191.485 16.4682C191.337 16.7082 191.263 16.9822 191.263 17.2899V21.6202H189.883ZM195.856 20.3276L195.786 20.8308C195.74 21.2001 195.662 21.5848 195.551 21.9849C195.443 22.3881 195.331 22.762 195.214 23.1067C195.1 23.4514 195.006 23.7253 194.932 23.9284H193.954C193.994 23.7376 194.049 23.4791 194.12 23.1528C194.191 22.8297 194.26 22.4681 194.328 22.068C194.395 21.6679 194.446 21.2601 194.48 20.8446L194.526 20.3276H195.856ZM204.08 21.7633C203.393 21.7633 202.803 21.6079 202.307 21.297C201.815 20.9831 201.436 20.5507 201.171 19.9998C200.907 19.4489 200.774 18.818 200.774 18.107C200.774 17.3869 200.91 16.7513 201.181 16.2004C201.451 15.6465 201.833 15.214 202.326 14.9032C202.818 14.5924 203.398 14.4369 204.066 14.4369C204.605 14.4369 205.085 14.537 205.506 14.737C205.928 14.934 206.268 15.211 206.527 15.568C206.788 15.925 206.944 16.342 206.993 16.819H205.649C205.576 16.4867 205.406 16.2004 205.142 15.9604C204.88 15.7203 204.529 15.6003 204.089 15.6003C203.704 15.6003 203.367 15.7019 203.078 15.905C202.792 16.105 202.569 16.3912 202.409 16.7636C202.249 17.133 202.169 17.57 202.169 18.0747C202.169 18.5918 202.247 19.038 202.404 19.4135C202.561 19.789 202.783 20.0798 203.069 20.286C203.358 20.4922 203.698 20.5953 204.089 20.5953C204.351 20.5953 204.588 20.5476 204.8 20.4522C205.015 20.3537 205.195 20.2137 205.34 20.0321C205.488 19.8505 205.591 19.632 205.649 19.3766H206.993C206.944 19.8351 206.794 20.2445 206.545 20.6046C206.296 20.9646 205.962 21.2478 205.543 21.454C205.128 21.6602 204.64 21.7633 204.08 21.7633ZM210.532 21.7771C210.083 21.7771 209.677 21.694 209.314 21.5278C208.951 21.3586 208.663 21.1139 208.45 20.7938C208.241 20.4738 208.137 20.0814 208.137 19.6166C208.137 19.2165 208.213 18.8872 208.367 18.6287C208.521 18.3702 208.729 18.1655 208.991 18.0147C209.252 17.8639 209.545 17.75 209.868 17.6731C210.191 17.5961 210.52 17.5377 210.856 17.4977C211.28 17.4484 211.625 17.4084 211.89 17.3776C212.154 17.3438 212.347 17.2899 212.467 17.2161C212.587 17.1422 212.647 17.0222 212.647 16.856V16.8237C212.647 16.4205 212.533 16.1081 212.305 15.8865C212.081 15.6649 211.745 15.5541 211.299 15.5541C210.834 15.5541 210.468 15.6572 210.2 15.8634C209.935 16.0666 209.752 16.2928 209.651 16.5421L208.354 16.2466C208.507 15.8157 208.732 15.468 209.028 15.2033C209.326 14.9355 209.669 14.7416 210.057 14.6216C210.445 14.4985 210.853 14.4369 211.28 14.4369C211.564 14.4369 211.864 14.4708 212.181 14.5385C212.501 14.6031 212.799 14.7232 213.076 14.8986C213.356 15.074 213.586 15.3248 213.764 15.6511C213.943 15.9742 214.032 16.3943 214.032 16.9114V21.6202H212.684V20.6507H212.628C212.539 20.8292 212.405 21.0046 212.227 21.177C212.048 21.3493 211.819 21.4925 211.539 21.6063C211.259 21.7202 210.923 21.7771 210.532 21.7771ZM210.833 20.6692C211.214 20.6692 211.54 20.5938 211.811 20.443C212.085 20.2922 212.293 20.0952 212.434 19.8521C212.579 19.6059 212.651 19.3427 212.651 19.0626V18.1486C212.602 18.1978 212.507 18.244 212.365 18.2871C212.227 18.3271 212.068 18.3625 211.89 18.3933C211.711 18.421 211.537 18.4471 211.368 18.4717C211.199 18.4933 211.057 18.5118 210.943 18.5271C210.676 18.561 210.431 18.6179 210.209 18.6979C209.991 18.778 209.815 18.8934 209.683 19.0442C209.554 19.1919 209.489 19.3889 209.489 19.6351C209.489 19.9767 209.615 20.2352 209.868 20.4107C210.12 20.583 210.442 20.6692 210.833 20.6692ZM217.251 17.41V21.6202H215.87V14.5293H217.195V15.6834H217.283C217.446 15.3079 217.701 15.0063 218.049 14.7786C218.4 14.5508 218.842 14.4369 219.374 14.4369C219.857 14.4369 220.281 14.5385 220.644 14.7416C221.007 14.9417 221.289 15.2402 221.489 15.6372C221.689 16.0342 221.789 16.5251 221.789 17.1099V21.6202H220.408V17.2761C220.408 16.7621 220.274 16.3605 220.007 16.0712C219.739 15.7788 219.371 15.6326 218.903 15.6326C218.583 15.6326 218.299 15.7019 218.049 15.8403C217.803 15.9788 217.608 16.182 217.463 16.4497C217.321 16.7144 217.251 17.0345 217.251 17.41ZM227.953 24.2793C227.747 24.2793 227.559 24.2623 227.39 24.2285C227.22 24.1977 227.094 24.1639 227.011 24.1269L227.343 22.9959C227.596 23.0636 227.82 23.0928 228.017 23.0836C228.214 23.0744 228.388 23.0005 228.539 22.862C228.693 22.7235 228.828 22.4973 228.945 22.1834L229.116 21.7125L226.522 14.5293H227.999L229.795 20.0321H229.869L231.664 14.5293H233.146L230.224 22.5666C230.089 22.9359 229.916 23.2483 229.707 23.5037C229.498 23.7622 229.248 23.9561 228.959 24.0854C228.67 24.2146 228.334 24.2793 227.953 24.2793ZM237.189 21.7633C236.524 21.7633 235.944 21.6109 235.449 21.3063C234.953 21.0016 234.569 20.5753 234.295 20.0275C234.021 19.4797 233.884 18.8395 233.884 18.107C233.884 17.3715 234.021 16.7283 234.295 16.1774C234.569 15.6265 234.953 15.1987 235.449 14.894C235.944 14.5893 236.524 14.4369 237.189 14.4369C237.854 14.4369 238.434 14.5893 238.93 14.894C239.425 15.1987 239.81 15.6265 240.084 16.1774C240.358 16.7283 240.495 17.3715 240.495 18.107C240.495 18.8395 240.358 19.4797 240.084 20.0275C239.81 20.5753 239.425 21.0016 238.93 21.3063C238.434 21.6109 237.854 21.7633 237.189 21.7633ZM237.194 20.6046C237.625 20.6046 237.982 20.4907 238.265 20.2629C238.548 20.0352 238.757 19.732 238.893 19.3535C239.031 18.9749 239.1 18.5579 239.1 18.1024C239.1 17.65 239.031 17.2345 238.893 16.856C238.757 16.4743 238.548 16.1681 238.265 15.9373C237.982 15.7065 237.625 15.5911 237.194 15.5911C236.76 15.5911 236.4 15.7065 236.114 15.9373C235.83 16.1681 235.62 16.4743 235.481 16.856C235.346 17.2345 235.278 17.65 235.278 18.1024C235.278 18.5579 235.346 18.9749 235.481 19.3535C235.62 19.732 235.83 20.0352 236.114 20.2629C236.4 20.4907 236.76 20.6046 237.194 20.6046ZM246.527 18.6795V14.5293H247.912V21.6202H246.555V20.3922H246.481C246.318 20.7707 246.056 21.0862 245.696 21.3386C245.339 21.5879 244.894 21.7125 244.362 21.7125C243.907 21.7125 243.503 21.6125 243.153 21.4124C242.805 21.2093 242.531 20.9092 242.331 20.5122C242.134 20.1152 242.035 19.6243 242.035 19.0396V14.5293H243.416V18.8734C243.416 19.3566 243.55 19.7413 243.817 20.0275C244.085 20.3137 244.433 20.4568 244.861 20.4568C245.119 20.4568 245.376 20.3922 245.632 20.2629C245.89 20.1337 246.104 19.9382 246.273 19.6766C246.446 19.415 246.53 19.0827 246.527 18.6795ZM256.194 21.7633C255.529 21.7633 254.949 21.6109 254.454 21.3063C253.958 21.0016 253.573 20.5753 253.3 20.0275C253.026 19.4797 252.889 18.8395 252.889 18.107C252.889 17.3715 253.026 16.7283 253.3 16.1774C253.573 15.6265 253.958 15.1987 254.454 14.894C254.949 14.5893 255.529 14.4369 256.194 14.4369C256.859 14.4369 257.439 14.5893 257.934 14.894C258.43 15.1987 258.815 15.6265 259.089 16.1774C259.363 16.7283 259.499 17.3715 259.499 18.107C259.499 18.8395 259.363 19.4797 259.089 20.0275C258.815 20.5753 258.43 21.0016 257.934 21.3063C257.439 21.6109 256.859 21.7633 256.194 21.7633ZM256.199 20.6046C256.63 20.6046 256.987 20.4907 257.27 20.2629C257.553 20.0352 257.762 19.732 257.898 19.3535C258.036 18.9749 258.105 18.5579 258.105 18.1024C258.105 17.65 258.036 17.2345 257.898 16.856C257.762 16.4743 257.553 16.1681 257.27 15.9373C256.987 15.7065 256.63 15.5911 256.199 15.5911C255.765 15.5911 255.405 15.7065 255.118 15.9373C254.835 16.1681 254.624 16.4743 254.486 16.856C254.351 17.2345 254.283 17.65 254.283 18.1024C254.283 18.5579 254.351 18.9749 254.486 19.3535C254.624 19.732 254.835 20.0352 255.118 20.2629C255.405 20.4907 255.765 20.6046 256.199 20.6046ZM261.04 21.6202V14.5293H262.374V15.6557H262.448C262.578 15.2741 262.805 14.974 263.131 14.7555C263.461 14.5339 263.833 14.4231 264.249 14.4231C264.335 14.4231 264.436 14.4262 264.553 14.4323C264.673 14.4385 264.767 14.4462 264.835 14.4554V15.7757C264.78 15.7603 264.681 15.7434 264.54 15.7249C264.398 15.7034 264.256 15.6926 264.115 15.6926C263.789 15.6926 263.498 15.7619 263.242 15.9004C262.99 16.0358 262.79 16.2251 262.642 16.4682C262.494 16.7082 262.421 16.9822 262.421 17.2899V21.6202H261.04ZM268.43 21.7587C267.858 21.7587 267.347 21.6125 266.897 21.3201C266.451 21.0247 266.1 20.6046 265.845 20.0598C265.592 19.512 265.466 18.8549 265.466 18.0886C265.466 17.3222 265.594 16.6667 265.849 16.122C266.108 15.5772 266.462 15.1602 266.911 14.8709C267.361 14.5816 267.87 14.4369 268.439 14.4369C268.879 14.4369 269.233 14.5108 269.501 14.6585C269.772 14.8032 269.981 14.9725 270.129 15.1663C270.28 15.3602 270.397 15.531 270.48 15.6788H270.563V12.1656H271.943V21.6202H270.595V20.5168H270.48C270.397 20.6676 270.277 20.84 270.12 21.0339C269.966 21.2278 269.753 21.397 269.483 21.5417C269.212 21.6863 268.861 21.7587 268.43 21.7587ZM268.735 20.5815C269.132 20.5815 269.467 20.4768 269.741 20.2676C270.018 20.0552 270.227 19.7613 270.369 19.3858C270.514 19.0103 270.586 18.5733 270.586 18.0747C270.586 17.5823 270.515 17.1514 270.374 16.7821C270.232 16.4128 270.024 16.125 269.75 15.9188C269.476 15.7126 269.138 15.6095 268.735 15.6095C268.319 15.6095 267.973 15.7172 267.696 15.9327C267.419 16.1481 267.21 16.442 267.068 16.8144C266.93 17.1868 266.86 17.6069 266.86 18.0747C266.86 18.5487 266.931 18.9749 267.073 19.3535C267.214 19.732 267.424 20.0321 267.701 20.2537C267.981 20.4722 268.325 20.5815 268.735 20.5815ZM276.969 21.7633C276.271 21.7633 275.669 21.614 275.164 21.3155C274.663 21.0139 274.275 20.5907 274.001 20.046C273.73 19.4981 273.595 18.8564 273.595 18.1209C273.595 17.3946 273.73 16.7544 274.001 16.2004C274.275 15.6465 274.657 15.214 275.146 14.9032C275.638 14.5924 276.214 14.4369 276.872 14.4369C277.273 14.4369 277.66 14.5031 278.036 14.6354C278.411 14.7678 278.748 14.9755 279.047 15.2587C279.345 15.5418 279.581 15.9096 279.753 16.362C279.925 16.8113 280.012 17.3576 280.012 18.0009V18.4902H274.375V17.4561H278.659C278.659 17.093 278.585 16.7713 278.437 16.4913C278.29 16.2081 278.082 15.985 277.814 15.8219C277.55 15.6588 277.239 15.5772 276.882 15.5772C276.494 15.5772 276.155 15.6726 275.866 15.8634C275.58 16.0512 275.358 16.2974 275.201 16.6021C275.047 16.9037 274.97 17.2314 274.97 17.5854V18.3933C274.97 18.8672 275.054 19.2704 275.22 19.6028C275.389 19.9352 275.624 20.1891 275.926 20.3645C276.228 20.5368 276.58 20.623 276.983 20.623C277.245 20.623 277.483 20.5861 277.699 20.5122C277.914 20.4353 278.1 20.3214 278.257 20.1706C278.414 20.0198 278.534 19.8336 278.617 19.612L279.924 19.8475C279.819 20.2322 279.632 20.5692 279.361 20.8585C279.093 21.1447 278.756 21.3678 278.35 21.5278C277.947 21.6848 277.486 21.7633 276.969 21.7633ZM281.543 21.6202V14.5293H282.877V15.6557H282.951C283.08 15.2741 283.308 14.974 283.634 14.7555C283.964 14.5339 284.336 14.4231 284.752 14.4231C284.838 14.4231 284.939 14.4262 285.056 14.4323C285.176 14.4385 285.27 14.4462 285.338 14.4554V15.7757C285.282 15.7603 285.184 15.7434 285.042 15.7249C284.901 15.7034 284.759 15.6926 284.618 15.6926C284.291 15.6926 284.001 15.7619 283.745 15.9004C283.493 16.0358 283.293 16.2251 283.145 16.4682C282.997 16.7082 282.923 16.9822 282.923 17.2899V21.6202H281.543ZM54.7102 34.2604L53.4592 34.482C53.4068 34.322 53.3237 34.1697 53.2099 34.025C53.0991 33.8804 52.9483 33.7619 52.7575 33.6695C52.5666 33.5772 52.3281 33.531 52.0419 33.531C51.651 33.531 51.3248 33.6188 51.0632 33.7942C50.8016 33.9665 50.6708 34.1897 50.6708 34.4636C50.6708 34.7006 50.7585 34.8914 50.9339 35.036C51.1094 35.1807 51.3925 35.2992 51.7834 35.3915L52.9098 35.65C53.5623 35.8008 54.0485 36.0332 54.3686 36.3471C54.6887 36.661 54.8487 37.0688 54.8487 37.5705C54.8487 37.9952 54.7256 38.3737 54.4794 38.7061C54.2363 39.0354 53.8962 39.2939 53.4592 39.4817C53.0252 39.6694 52.522 39.7633 51.9496 39.7633C51.1555 39.7633 50.5077 39.594 50.006 39.2555C49.5044 38.9139 49.1966 38.4291 49.0827 37.8013L50.4169 37.5982C50.5 37.9459 50.6708 38.2091 50.9293 38.3876C51.1879 38.563 51.5249 38.6507 51.9403 38.6507C52.3928 38.6507 52.7544 38.5568 53.0252 38.3691C53.296 38.1783 53.4315 37.9459 53.4315 37.672C53.4315 37.4504 53.3484 37.2642 53.1822 37.1134C53.0191 36.9626 52.7682 36.8488 52.4297 36.7718L51.2294 36.5087C50.5677 36.3579 50.0784 36.1178 49.7614 35.7885C49.4474 35.4592 49.2905 35.0422 49.2905 34.5374C49.2905 34.1189 49.4074 33.7526 49.6413 33.4387C49.8752 33.1248 50.1984 32.8801 50.6108 32.7047C51.0232 32.5262 51.4956 32.4369 52.0281 32.4369C52.7944 32.4369 53.3976 32.6031 53.8377 32.9355C54.2778 33.2648 54.5687 33.7065 54.7102 34.2604ZM59.3532 39.7633C58.6885 39.7633 58.1083 39.6109 57.6128 39.3063C57.1173 39.0016 56.7326 38.5753 56.4587 38.0275C56.1848 37.4797 56.0479 36.8395 56.0479 36.107C56.0479 35.3715 56.1848 34.7283 56.4587 34.1774C56.7326 33.6265 57.1173 33.1987 57.6128 32.894C58.1083 32.5893 58.6885 32.4369 59.3532 32.4369C60.018 32.4369 60.5982 32.5893 61.0937 32.894C61.5892 33.1987 61.9739 33.6265 62.2478 34.1774C62.5217 34.7283 62.6586 35.3715 62.6586 36.107C62.6586 36.8395 62.5217 37.4797 62.2478 38.0275C61.9739 38.5753 61.5892 39.0016 61.0937 39.3063C60.5982 39.6109 60.018 39.7633 59.3532 39.7633ZM59.3579 38.6046C59.7887 38.6046 60.1457 38.4907 60.4289 38.2629C60.712 38.0352 60.9213 37.732 61.0567 37.3535C61.1952 36.9749 61.2645 36.5579 61.2645 36.1024C61.2645 35.65 61.1952 35.2345 61.0567 34.856C60.9213 34.4743 60.712 34.1681 60.4289 33.9373C60.1457 33.7065 59.7887 33.5911 59.3579 33.5911C58.9239 33.5911 58.5638 33.7065 58.2776 33.9373C57.9945 34.1681 57.7836 34.4743 57.6452 34.856C57.5097 35.2345 57.442 35.65 57.442 36.1024C57.442 36.5579 57.5097 36.9749 57.6452 37.3535C57.7836 37.732 57.9945 38.0352 58.2776 38.2629C58.5638 38.4907 58.9239 38.6046 59.3579 38.6046ZM64.1994 39.6202V32.5293H65.5243V33.6834H65.612C65.7598 33.2925 66.0014 32.9878 66.3368 32.7693C66.6723 32.5477 67.0739 32.4369 67.5417 32.4369C68.0157 32.4369 68.4127 32.5477 68.7328 32.7693C69.0559 32.9909 69.2944 33.2956 69.4483 33.6834H69.5222C69.6915 33.3048 69.9608 33.0032 70.3301 32.7786C70.6994 32.5508 71.1395 32.4369 71.6504 32.4369C72.2936 32.4369 72.8184 32.6385 73.2246 33.0417C73.6339 33.4449 73.8386 34.0527 73.8386 34.8652V39.6202H72.4583V34.9945C72.4583 34.5144 72.3275 34.1666 72.0659 33.9511C71.8043 33.7357 71.4919 33.628 71.1287 33.628C70.6794 33.628 70.3301 33.7665 70.0808 34.0435C69.8315 34.3174 69.7069 34.6698 69.7069 35.1006V39.6202H68.3311V34.9068C68.3311 34.522 68.2111 34.2127 67.9711 33.9788C67.731 33.7449 67.4186 33.628 67.0339 33.628C66.7723 33.628 66.5307 33.6972 66.3091 33.8357C66.0906 33.9711 65.9136 34.1604 65.7782 34.4036C65.6459 34.6467 65.5797 34.9283 65.5797 35.2484V39.6202H64.1994ZM78.7448 39.7633C78.0461 39.7633 77.4445 39.614 76.9397 39.3155C76.4381 39.0139 76.0503 38.5907 75.7764 38.046C75.5055 37.4981 75.3701 36.8564 75.3701 36.1209C75.3701 35.3946 75.5055 34.7544 75.7764 34.2004C76.0503 33.6465 76.4319 33.214 76.9213 32.9032C77.4137 32.5924 77.9892 32.4369 78.6478 32.4369C79.0479 32.4369 79.4357 32.5031 79.8112 32.6354C80.1866 32.7678 80.5236 32.9755 80.8222 33.2587C81.1207 33.5418 81.3561 33.9096 81.5285 34.362C81.7008 34.8113 81.787 35.3576 81.787 36.0009V36.4902H76.1503V35.4561H80.4344C80.4344 35.093 80.3605 34.7713 80.2128 34.4913C80.0651 34.2081 79.8573 33.985 79.5896 33.8219C79.3249 33.6588 79.0141 33.5772 78.657 33.5772C78.2693 33.5772 77.9307 33.6726 77.6414 33.8634C77.3552 34.0512 77.1336 34.2974 76.9767 34.6021C76.8228 34.9037 76.7458 35.2314 76.7458 35.5854V36.3933C76.7458 36.8672 76.8289 37.2704 76.9951 37.6028C77.1644 37.9352 77.3998 38.1891 77.7014 38.3645C78.003 38.5368 78.3554 38.623 78.7586 38.623C79.0202 38.623 79.2587 38.5861 79.4742 38.5122C79.6896 38.4353 79.8758 38.3214 80.0328 38.1706C80.1897 38.0198 80.3097 37.8336 80.3928 37.612L81.6993 37.8475C81.5947 38.2322 81.4069 38.5692 81.1361 38.8585C80.8683 39.1447 80.5313 39.3678 80.1251 39.5278C79.7219 39.6848 79.2618 39.7633 78.7448 39.7633ZM88.8225 39.7771C88.3732 39.7771 87.9669 39.694 87.6038 39.5278C87.2406 39.3586 86.9529 39.1139 86.7405 38.7938C86.5312 38.4738 86.4266 38.0814 86.4266 37.6166C86.4266 37.2165 86.5035 36.8872 86.6574 36.6287C86.8113 36.3702 87.019 36.1655 87.2806 36.0147C87.5422 35.8639 87.8346 35.75 88.1578 35.6731C88.4809 35.5961 88.8102 35.5377 89.1457 35.4977C89.5704 35.4484 89.9151 35.4084 90.1798 35.3776C90.4445 35.3438 90.6368 35.2899 90.7568 35.2161C90.8769 35.1422 90.9369 35.0222 90.9369 34.856V34.8237C90.9369 34.4205 90.823 34.1081 90.5953 33.8865C90.3706 33.6649 90.0351 33.5541 89.5889 33.5541C89.1241 33.5541 88.7579 33.6572 88.4901 33.8634C88.2255 34.0666 88.0423 34.2928 87.9408 34.5421L86.6436 34.2466C86.7974 33.8157 87.0221 33.468 87.3176 33.2033C87.6161 32.9355 87.9593 32.7416 88.347 32.6216C88.7348 32.4985 89.1426 32.4369 89.5704 32.4369C89.8535 32.4369 90.1536 32.4708 90.4706 32.5385C90.7907 32.6031 91.0892 32.7232 91.3662 32.8986C91.6463 33.074 91.8756 33.3248 92.0541 33.6511C92.2326 33.9742 92.3218 34.3943 92.3218 34.9114V39.6202H90.9738V38.6507H90.9184C90.8292 38.8292 90.6953 39.0046 90.5168 39.177C90.3383 39.3493 90.109 39.4925 89.8289 39.6063C89.5489 39.7202 89.2134 39.7771 88.8225 39.7771ZM89.1226 38.6692C89.5042 38.6692 89.8305 38.5938 90.1013 38.443C90.3752 38.2922 90.5829 38.0952 90.7245 37.8521C90.8692 37.6059 90.9415 37.3427 90.9415 37.0626V36.1486C90.8923 36.1978 90.7968 36.244 90.6553 36.2871C90.5168 36.3271 90.3583 36.3625 90.1798 36.3933C90.0013 36.421 89.8274 36.4471 89.6581 36.4717C89.4888 36.4933 89.3473 36.5118 89.2334 36.5271C88.9656 36.561 88.721 36.6179 88.4994 36.6979C88.2809 36.778 88.1054 36.8934 87.9731 37.0442C87.8438 37.1919 87.7792 37.3889 87.7792 37.6351C87.7792 37.9767 87.9054 38.2352 88.1578 38.4107C88.4101 38.583 88.7317 38.6692 89.1226 38.6692ZM96.8148 39.7587C96.2424 39.7587 95.7315 39.6125 95.2821 39.3201C94.8359 39.0247 94.485 38.6046 94.2296 38.0598C93.9772 37.512 93.851 36.8549 93.851 36.0886C93.851 35.3222 93.9788 34.6667 94.2342 34.122C94.4927 33.5772 94.8467 33.1602 95.296 32.8709C95.7453 32.5816 96.2547 32.4369 96.824 32.4369C97.2641 32.4369 97.6181 32.5108 97.8858 32.6585C98.1567 32.8032 98.3659 32.9725 98.5137 33.1663C98.6645 33.3602 98.7814 33.531 98.8645 33.6788H98.9476V30.1656H100.328V39.6202H98.9799V38.5168H98.8645C98.7814 38.6676 98.6614 38.84 98.5044 39.0339C98.3506 39.2278 98.1382 39.397 97.8674 39.5417C97.5965 39.6863 97.2457 39.7587 96.8148 39.7587ZM97.1195 38.5815C97.5165 38.5815 97.852 38.4768 98.1259 38.2676C98.4029 38.0552 98.6122 37.7613 98.7537 37.3858C98.8984 37.0103 98.9707 36.5733 98.9707 36.0747C98.9707 35.5823 98.8999 35.1514 98.7583 34.7821C98.6168 34.4128 98.409 34.125 98.1351 33.9188C97.8612 33.7126 97.5227 33.6095 97.1195 33.6095C96.704 33.6095 96.3578 33.7172 96.0808 33.9327C95.8038 34.1481 95.5945 34.442 95.4529 34.8144C95.3145 35.1868 95.2452 35.6069 95.2452 36.0747C95.2452 36.5487 95.316 36.9749 95.4576 37.3535C95.5991 37.732 95.8084 38.0321 96.0854 38.2537C96.3655 38.4722 96.7102 38.5815 97.1195 38.5815ZM108.364 32.5293L105.793 39.6202H104.315L101.739 32.5293H103.221L105.017 37.9859H105.091L106.882 32.5293H108.364ZM109.661 39.6202V32.5293H111.042V39.6202H109.661ZM110.358 31.4352C110.118 31.4352 109.912 31.3551 109.74 31.1951C109.571 31.032 109.486 30.8381 109.486 30.6134C109.486 30.3857 109.571 30.1918 109.74 30.0318C109.912 29.8686 110.118 29.7871 110.358 29.7871C110.598 29.7871 110.803 29.8686 110.972 30.0318C111.145 30.1918 111.231 30.3857 111.231 30.6134C111.231 30.8381 111.145 31.032 110.972 31.1951C110.803 31.3551 110.598 31.4352 110.358 31.4352ZM114.279 30.1656V39.6202H112.899V30.1656H114.279ZM121.64 39.7771C121.191 39.7771 120.784 39.694 120.421 39.5278C120.058 39.3586 119.77 39.1139 119.558 38.7938C119.349 38.4738 119.244 38.0814 119.244 37.6166C119.244 37.2165 119.321 36.8872 119.475 36.6287C119.629 36.3702 119.836 36.1655 120.098 36.0147C120.36 35.8639 120.652 35.75 120.975 35.6731C121.298 35.5961 121.628 35.5377 121.963 35.4977C122.388 35.4484 122.732 35.4084 122.997 35.3776C123.262 35.3438 123.454 35.2899 123.574 35.2161C123.694 35.1422 123.754 35.0222 123.754 34.856V34.8237C123.754 34.4205 123.64 34.1081 123.413 33.8865C123.188 33.6649 122.853 33.5541 122.406 33.5541C121.942 33.5541 121.575 33.6572 121.308 33.8634C121.043 34.0666 120.86 34.2928 120.758 34.5421L119.461 34.2466C119.615 33.8157 119.839 33.468 120.135 33.2033C120.433 32.9355 120.777 32.7416 121.164 32.6216C121.552 32.4985 121.96 32.4369 122.388 32.4369C122.671 32.4369 122.971 32.4708 123.288 32.5385C123.608 32.6031 123.907 32.7232 124.184 32.8986C124.464 33.074 124.693 33.3248 124.871 33.6511C125.05 33.9742 125.139 34.3943 125.139 34.9114V39.6202H123.791V38.6507H123.736C123.647 38.8292 123.513 39.0046 123.334 39.177C123.156 39.3493 122.926 39.4925 122.646 39.6063C122.366 39.7202 122.031 39.7771 121.64 39.7771ZM121.94 38.6692C122.322 38.6692 122.648 38.5938 122.919 38.443C123.193 38.2922 123.4 38.0952 123.542 37.8521C123.687 37.6059 123.759 37.3427 123.759 37.0626V36.1486C123.71 36.1978 123.614 36.244 123.473 36.2871C123.334 36.3271 123.176 36.3625 122.997 36.3933C122.819 36.421 122.645 36.4471 122.475 36.4717C122.306 36.4933 122.165 36.5118 122.051 36.5271C121.783 36.561 121.538 36.6179 121.317 36.6979C121.098 36.778 120.923 36.8934 120.79 37.0442C120.661 37.1919 120.597 37.3889 120.597 37.6351C120.597 37.9767 120.723 38.2352 120.975 38.4107C121.228 38.583 121.549 38.6692 121.94 38.6692ZM128.358 35.41V39.6202H126.978V32.5293H128.303V33.6834H128.39C128.553 33.3079 128.809 33.0063 129.157 32.7786C129.508 32.5508 129.949 32.4369 130.482 32.4369C130.965 32.4369 131.388 32.5385 131.751 32.7416C132.114 32.9417 132.396 33.2402 132.596 33.6372C132.796 34.0342 132.896 34.5251 132.896 35.1099V39.6202H131.516V35.2761C131.516 34.7621 131.382 34.3605 131.114 34.0712C130.846 33.7788 130.479 33.6326 130.011 33.6326C129.691 33.6326 129.406 33.7019 129.157 33.8403C128.91 33.9788 128.715 34.182 128.57 34.4497C128.429 34.7144 128.358 35.0345 128.358 35.41ZM137.402 39.7587C136.829 39.7587 136.318 39.6125 135.869 39.3201C135.423 39.0247 135.072 38.6046 134.816 38.0598C134.564 37.512 134.438 36.8549 134.438 36.0886C134.438 35.3222 134.566 34.6667 134.821 34.122C135.08 33.5772 135.434 33.1602 135.883 32.8709C136.332 32.5816 136.842 32.4369 137.411 32.4369C137.851 32.4369 138.205 32.5108 138.473 32.6585C138.744 32.8032 138.953 32.9725 139.101 33.1663C139.251 33.3602 139.368 33.531 139.451 33.6788H139.535V30.1656H140.915V39.6202H139.567V38.5168H139.451C139.368 38.6676 139.248 38.84 139.091 39.0339C138.937 39.2278 138.725 39.397 138.454 39.5417C138.183 39.6863 137.833 39.7587 137.402 39.7587ZM137.706 38.5815C138.103 38.5815 138.439 38.4768 138.713 38.2676C138.99 38.0552 139.199 37.7613 139.341 37.3858C139.485 37.0103 139.558 36.5733 139.558 36.0747C139.558 35.5823 139.487 35.1514 139.345 34.7821C139.204 34.4128 138.996 34.125 138.722 33.9188C138.448 33.7126 138.11 33.6095 137.706 33.6095C137.291 33.6095 136.945 33.7172 136.668 33.9327C136.391 34.1481 136.181 34.442 136.04 34.8144C135.901 35.1868 135.832 35.6069 135.832 36.0747C135.832 36.5487 135.903 36.9749 136.044 37.3535C136.186 37.732 136.395 38.0321 136.672 38.2537C136.952 38.4722 137.297 38.5815 137.706 38.5815ZM149.298 42.427C148.735 42.427 148.25 42.3531 147.844 42.2054C147.441 42.0577 147.112 41.8622 146.856 41.6191C146.601 41.376 146.41 41.1098 146.284 40.8205L147.47 40.3311C147.553 40.4665 147.664 40.6096 147.803 40.7604C147.944 40.9143 148.135 41.0451 148.375 41.1528C148.618 41.2606 148.931 41.3144 149.312 41.3144C149.835 41.3144 150.268 41.1867 150.609 40.9313C150.951 40.6789 151.122 40.2757 151.122 39.7217V38.3276H151.034C150.951 38.4784 150.831 38.6461 150.674 38.8308C150.52 39.0154 150.308 39.1755 150.037 39.3109C149.766 39.4463 149.414 39.514 148.98 39.514C148.42 39.514 147.915 39.3832 147.466 39.1216C147.019 38.8569 146.665 38.4676 146.404 37.9536C146.145 37.4366 146.016 36.801 146.016 36.047C146.016 35.293 146.144 34.6467 146.399 34.1081C146.658 33.5695 147.012 33.1571 147.461 32.8709C147.91 32.5816 148.42 32.4369 148.989 32.4369C149.429 32.4369 149.785 32.5108 150.055 32.6585C150.326 32.8032 150.537 32.9725 150.688 33.1663C150.842 33.3602 150.96 33.531 151.043 33.6788H151.145V32.5293H152.498V39.7771C152.498 40.3865 152.356 40.8866 152.073 41.2775C151.79 41.6684 151.407 41.9577 150.923 42.1454C150.443 42.3331 149.902 42.427 149.298 42.427ZM149.285 38.3691C149.682 38.3691 150.017 38.2768 150.291 38.0921C150.568 37.9044 150.777 37.6366 150.919 37.2889C151.063 36.938 151.136 36.5179 151.136 36.0286C151.136 35.5515 151.065 35.1314 150.923 34.7683C150.782 34.4051 150.574 34.122 150.3 33.9188C150.026 33.7126 149.688 33.6095 149.285 33.6095C148.869 33.6095 148.523 33.7172 148.246 33.9327C147.969 34.145 147.76 34.4343 147.618 34.8006C147.479 35.1668 147.41 35.5761 147.41 36.0286C147.41 36.4933 147.481 36.9011 147.623 37.2519C147.764 37.6028 147.973 37.8767 148.25 38.0737C148.531 38.2706 148.875 38.3691 149.285 38.3691ZM156.412 39.7771C155.963 39.7771 155.557 39.694 155.194 39.5278C154.83 39.3586 154.543 39.1139 154.33 38.7938C154.121 38.4738 154.016 38.0814 154.016 37.6166C154.016 37.2165 154.093 36.8872 154.247 36.6287C154.401 36.3702 154.609 36.1655 154.87 36.0147C155.132 35.8639 155.424 35.75 155.748 35.6731C156.071 35.5961 156.4 35.5377 156.736 35.4977C157.16 35.4484 157.505 35.4084 157.77 35.3776C158.034 35.3438 158.227 35.2899 158.347 35.2161C158.467 35.1422 158.527 35.0222 158.527 34.856V34.8237C158.527 34.4205 158.413 34.1081 158.185 33.8865C157.96 33.6649 157.625 33.5541 157.179 33.5541C156.714 33.5541 156.348 33.6572 156.08 33.8634C155.815 34.0666 155.632 34.2928 155.531 34.5421L154.233 34.2466C154.387 33.8157 154.612 33.468 154.907 33.2033C155.206 32.9355 155.549 32.7416 155.937 32.6216C156.325 32.4985 156.732 32.4369 157.16 32.4369C157.443 32.4369 157.743 32.4708 158.06 32.5385C158.381 32.6031 158.679 32.7232 158.956 32.8986C159.236 33.074 159.465 33.3248 159.644 33.6511C159.822 33.9742 159.912 34.3943 159.912 34.9114V39.6202H158.564V38.6507H158.508C158.419 38.8292 158.285 39.0046 158.107 39.177C157.928 39.3493 157.699 39.4925 157.419 39.6063C157.139 39.7202 156.803 39.7771 156.412 39.7771ZM156.712 38.6692C157.094 38.6692 157.42 38.5938 157.691 38.443C157.965 38.2922 158.173 38.0952 158.314 37.8521C158.459 37.6059 158.531 37.3427 158.531 37.0626V36.1486C158.482 36.1978 158.387 36.244 158.245 36.2871C158.107 36.3271 157.948 36.3625 157.77 36.3933C157.591 36.421 157.417 36.4471 157.248 36.4717C157.079 36.4933 156.937 36.5118 156.823 36.5271C156.555 36.561 156.311 36.6179 156.089 36.6979C155.871 36.778 155.695 36.8934 155.563 37.0442C155.434 37.1919 155.369 37.3889 155.369 37.6351C155.369 37.9767 155.495 38.2352 155.748 38.4107C156 38.583 156.322 38.6692 156.712 38.6692ZM165.06 32.5293V33.6372H161.187V32.5293H165.06ZM162.226 30.8304H163.606V37.5381C163.606 37.8059 163.646 38.0075 163.726 38.1429C163.806 38.2752 163.909 38.366 164.035 38.4153C164.165 38.4614 164.305 38.4845 164.455 38.4845C164.566 38.4845 164.663 38.4768 164.746 38.4614C164.829 38.4461 164.894 38.4337 164.94 38.4245L165.189 39.5648C165.109 39.5956 164.996 39.6263 164.848 39.6571C164.7 39.691 164.515 39.7094 164.294 39.7125C163.931 39.7187 163.592 39.654 163.278 39.5186C162.964 39.3832 162.71 39.1739 162.517 38.8908C162.323 38.6076 162.226 38.2522 162.226 37.8244V30.8304ZM169.498 39.7633C168.833 39.7633 168.253 39.6109 167.757 39.3063C167.262 39.0016 166.877 38.5753 166.603 38.0275C166.329 37.4797 166.192 36.8395 166.192 36.107C166.192 35.3715 166.329 34.7283 166.603 34.1774C166.877 33.6265 167.262 33.1987 167.757 32.894C168.253 32.5893 168.833 32.4369 169.498 32.4369C170.163 32.4369 170.743 32.5893 171.238 32.894C171.734 33.1987 172.118 33.6265 172.392 34.1774C172.666 34.7283 172.803 35.3715 172.803 36.107C172.803 36.8395 172.666 37.4797 172.392 38.0275C172.118 38.5753 171.734 39.0016 171.238 39.3063C170.743 39.6109 170.163 39.7633 169.498 39.7633ZM169.502 38.6046C169.933 38.6046 170.29 38.4907 170.573 38.2629C170.857 38.0352 171.066 37.732 171.201 37.3535C171.34 36.9749 171.409 36.5579 171.409 36.1024C171.409 35.65 171.34 35.2345 171.201 34.856C171.066 34.4743 170.857 34.1681 170.573 33.9373C170.29 33.7065 169.933 33.5911 169.502 33.5911C169.068 33.5911 168.708 33.7065 168.422 33.9373C168.139 34.1681 167.928 34.4743 167.79 34.856C167.654 35.2345 167.587 35.65 167.587 36.1024C167.587 36.5579 167.654 36.9749 167.79 37.3535C167.928 37.732 168.139 38.0352 168.422 38.2629C168.708 38.4907 169.068 38.6046 169.502 38.6046ZM174.344 39.6202V32.5293H175.678V33.6557H175.752C175.881 33.2741 176.109 32.974 176.435 32.7555C176.765 32.5339 177.137 32.4231 177.552 32.4231C177.639 32.4231 177.74 32.4262 177.857 32.4323C177.977 32.4385 178.071 32.4462 178.139 32.4554V33.7757C178.083 33.7603 177.985 33.7434 177.843 33.7249C177.702 33.7034 177.56 33.6926 177.419 33.6926C177.092 33.6926 176.801 33.7619 176.546 33.9004C176.294 34.0358 176.094 34.2251 175.946 34.4682C175.798 34.7082 175.724 34.9822 175.724 35.2899V39.6202H174.344ZM181.333 39.7771C180.884 39.7771 180.478 39.694 180.115 39.5278C179.751 39.3586 179.464 39.1139 179.251 38.7938C179.042 38.4738 178.937 38.0814 178.937 37.6166C178.937 37.2165 179.014 36.8872 179.168 36.6287C179.322 36.3702 179.53 36.1655 179.791 36.0147C180.053 35.8639 180.345 35.75 180.669 35.6731C180.992 35.5961 181.321 35.5377 181.656 35.4977C182.081 35.4484 182.426 35.4084 182.691 35.3776C182.955 35.3438 183.148 35.2899 183.268 35.2161C183.388 35.1422 183.448 35.0222 183.448 34.856V34.8237C183.448 34.4205 183.334 34.1081 183.106 33.8865C182.881 33.6649 182.546 33.5541 182.1 33.5541C181.635 33.5541 181.269 33.6572 181.001 33.8634C180.736 34.0666 180.553 34.2928 180.452 34.5421L179.154 34.2466C179.308 33.8157 179.533 33.468 179.828 33.2033C180.127 32.9355 180.47 32.7416 180.858 32.6216C181.246 32.4985 181.653 32.4369 182.081 32.4369C182.364 32.4369 182.664 32.4708 182.981 32.5385C183.301 32.6031 183.6 32.7232 183.877 32.8986C184.157 33.074 184.386 33.3248 184.565 33.6511C184.743 33.9742 184.833 34.3943 184.833 34.9114V39.6202H183.485V38.6507H183.429C183.34 38.8292 183.206 39.0046 183.028 39.177C182.849 39.3493 182.62 39.4925 182.34 39.6063C182.06 39.7202 181.724 39.7771 181.333 39.7771ZM181.633 38.6692C182.015 38.6692 182.341 38.5938 182.612 38.443C182.886 38.2922 183.094 38.0952 183.235 37.8521C183.38 37.6059 183.452 37.3427 183.452 37.0626V36.1486C183.403 36.1978 183.308 36.244 183.166 36.2871C183.028 36.3271 182.869 36.3625 182.691 36.3933C182.512 36.421 182.338 36.4471 182.169 36.4717C182 36.4933 181.858 36.5118 181.744 36.5271C181.476 36.561 181.232 36.6179 181.01 36.6979C180.792 36.778 180.616 36.8934 180.484 37.0442C180.355 37.1919 180.29 37.3889 180.29 37.6351C180.29 37.9767 180.416 38.2352 180.669 38.4107C180.921 38.583 181.242 38.6692 181.633 38.6692ZM189.326 39.7587C188.753 39.7587 188.242 39.6125 187.793 39.3201C187.347 39.0247 186.996 38.6046 186.74 38.0598C186.488 37.512 186.362 36.8549 186.362 36.0886C186.362 35.3222 186.489 34.6667 186.745 34.122C187.003 33.5772 187.357 33.1602 187.807 32.8709C188.256 32.5816 188.765 32.4369 189.335 32.4369C189.775 32.4369 190.129 32.5108 190.397 32.6585C190.667 32.8032 190.877 32.9725 191.024 33.1663C191.175 33.3602 191.292 33.531 191.375 33.6788H191.458V30.1656H192.839V39.6202H191.491V38.5168H191.375C191.292 38.6676 191.172 38.84 191.015 39.0339C190.861 39.2278 190.649 39.397 190.378 39.5417C190.107 39.6863 189.756 39.7587 189.326 39.7587ZM189.63 38.5815C190.027 38.5815 190.363 38.4768 190.637 38.2676C190.914 38.0552 191.123 37.7613 191.264 37.3858C191.409 37.0103 191.481 36.5733 191.481 36.0747C191.481 35.5823 191.411 35.1514 191.269 34.7821C191.128 34.4128 190.92 34.125 190.646 33.9188C190.372 33.7126 190.033 33.6095 189.63 33.6095C189.215 33.6095 188.869 33.7172 188.592 33.9327C188.315 34.1481 188.105 34.442 187.964 34.8144C187.825 35.1868 187.756 35.6069 187.756 36.0747C187.756 36.5487 187.827 36.9749 187.968 37.3535C188.11 37.732 188.319 38.0321 188.596 38.2537C188.876 38.4722 189.221 38.5815 189.63 38.5815ZM197.865 39.7633C197.166 39.7633 196.565 39.614 196.06 39.3155C195.558 39.0139 195.17 38.5907 194.896 38.046C194.626 37.4981 194.49 36.8564 194.49 36.1209C194.49 35.3946 194.626 34.7544 194.896 34.2004C195.17 33.6465 195.552 33.214 196.041 32.9032C196.534 32.5924 197.109 32.4369 197.768 32.4369C198.168 32.4369 198.556 32.5031 198.931 32.6354C199.307 32.7678 199.644 32.9755 199.942 33.2587C200.241 33.5418 200.476 33.9096 200.649 34.362C200.821 34.8113 200.907 35.3576 200.907 36.0009V36.4902H195.27V35.4561H199.555C199.555 35.093 199.481 34.7713 199.333 34.4913C199.185 34.2081 198.977 33.985 198.71 33.8219C198.445 33.6588 198.134 33.5772 197.777 33.5772C197.389 33.5772 197.051 33.6726 196.762 33.8634C196.475 34.0512 196.254 34.2974 196.097 34.6021C195.943 34.9037 195.866 35.2314 195.866 35.5854V36.3933C195.866 36.8672 195.949 37.2704 196.115 37.6028C196.285 37.9352 196.52 38.1891 196.822 38.3645C197.123 38.5368 197.476 38.623 197.879 38.623C198.14 38.623 198.379 38.5861 198.594 38.5122C198.81 38.4353 198.996 38.3214 199.153 38.1706C199.31 38.0198 199.43 37.8336 199.513 37.612L200.819 37.8475C200.715 38.2322 200.527 38.5692 200.256 38.8585C199.988 39.1447 199.651 39.3678 199.245 39.5278C198.842 39.6848 198.382 39.7633 197.865 39.7633ZM208.866 39.7633C208.201 39.7633 207.621 39.6109 207.126 39.3063C206.63 39.0016 206.245 38.5753 205.971 38.0275C205.698 37.4797 205.561 36.8395 205.561 36.107C205.561 35.3715 205.698 34.7283 205.971 34.1774C206.245 33.6265 206.63 33.1987 207.126 32.894C207.621 32.5893 208.201 32.4369 208.866 32.4369C209.531 32.4369 210.111 32.5893 210.606 32.894C211.102 33.1987 211.487 33.6265 211.76 34.1774C212.034 34.7283 212.171 35.3715 212.171 36.107C212.171 36.8395 212.034 37.4797 211.76 38.0275C211.487 38.5753 211.102 39.0016 210.606 39.3063C210.111 39.6109 209.531 39.7633 208.866 39.7633ZM208.871 38.6046C209.301 38.6046 209.658 38.4907 209.942 38.2629C210.225 38.0352 210.434 37.732 210.569 37.3535C210.708 36.9749 210.777 36.5579 210.777 36.1024C210.777 35.65 210.708 35.2345 210.569 34.856C210.434 34.4743 210.225 34.1681 209.942 33.9373C209.658 33.7065 209.301 33.5911 208.871 33.5911C208.437 33.5911 208.077 33.7065 207.79 33.9373C207.507 34.1681 207.296 34.4743 207.158 34.856C207.022 35.2345 206.955 35.65 206.955 36.1024C206.955 36.5579 207.022 36.9749 207.158 37.3535C207.296 37.732 207.507 38.0352 207.79 38.2629C208.077 38.4907 208.437 38.6046 208.871 38.6046ZM215.092 35.41V39.6202H213.712V32.5293H215.037V33.6834H215.125C215.288 33.3079 215.543 33.0063 215.891 32.7786C216.242 32.5508 216.684 32.4369 217.216 32.4369C217.699 32.4369 218.122 32.5385 218.486 32.7416C218.849 32.9417 219.13 33.2402 219.33 33.6372C219.53 34.0342 219.63 34.5251 219.63 35.1099V39.6202H218.25V35.2761C218.25 34.7621 218.116 34.3605 217.848 34.0712C217.581 33.7788 217.213 33.6326 216.745 33.6326C216.425 33.6326 216.14 33.7019 215.891 33.8403C215.645 33.9788 215.449 34.182 215.305 34.4497C215.163 34.7144 215.092 35.0345 215.092 35.41ZM228.094 39.6202H225.033V30.1656H228.191C229.117 30.1656 229.912 30.3549 230.577 30.7335C231.242 31.1089 231.751 31.6491 232.105 32.3538C232.462 33.0555 232.641 33.8973 232.641 34.8791C232.641 35.8639 232.461 36.7103 232.101 37.4181C231.744 38.126 231.227 38.6707 230.55 39.0524C229.872 39.4309 229.054 39.6202 228.094 39.6202ZM226.459 38.3737H228.015C228.735 38.3737 229.334 38.2383 229.811 37.9675C230.288 37.6936 230.645 37.2981 230.882 36.781C231.119 36.2609 231.237 35.6269 231.237 34.8791C231.237 34.1373 231.119 33.508 230.882 32.9909C230.648 32.4739 230.299 32.0815 229.834 31.8137C229.369 31.546 228.792 31.4121 228.103 31.4121H226.459V38.3737ZM237.291 39.7633C236.626 39.7633 236.046 39.6109 235.55 39.3063C235.055 39.0016 234.67 38.5753 234.396 38.0275C234.122 37.4797 233.985 36.8395 233.985 36.107C233.985 35.3715 234.122 34.7283 234.396 34.1774C234.67 33.6265 235.055 33.1987 235.55 32.894C236.046 32.5893 236.626 32.4369 237.291 32.4369C237.956 32.4369 238.536 32.5893 239.031 32.894C239.527 33.1987 239.911 33.6265 240.185 34.1774C240.459 34.7283 240.596 35.3715 240.596 36.107C240.596 36.8395 240.459 37.4797 240.185 38.0275C239.911 38.5753 239.527 39.0016 239.031 39.3063C238.536 39.6109 237.956 39.7633 237.291 39.7633ZM237.295 38.6046C237.726 38.6046 238.083 38.4907 238.366 38.2629C238.65 38.0352 238.859 37.732 238.994 37.3535C239.133 36.9749 239.202 36.5579 239.202 36.1024C239.202 35.65 239.133 35.2345 238.994 34.856C238.859 34.4743 238.65 34.1681 238.366 33.9373C238.083 33.7065 237.726 33.5911 237.295 33.5911C236.861 33.5911 236.501 33.7065 236.215 33.9373C235.932 34.1681 235.721 34.4743 235.583 34.856C235.447 35.2345 235.38 35.65 235.38 36.1024C235.38 36.5579 235.447 36.9749 235.583 37.3535C235.721 37.732 235.932 38.0352 236.215 38.2629C236.501 38.4907 236.861 38.6046 237.295 38.6046ZM245.124 39.7633C244.459 39.7633 243.879 39.6109 243.383 39.3063C242.888 39.0016 242.503 38.5753 242.229 38.0275C241.955 37.4797 241.818 36.8395 241.818 36.107C241.818 35.3715 241.955 34.7283 242.229 34.1774C242.503 33.6265 242.888 33.1987 243.383 32.894C243.879 32.5893 244.459 32.4369 245.124 32.4369C245.789 32.4369 246.369 32.5893 246.864 32.894C247.36 33.1987 247.744 33.6265 248.018 34.1774C248.292 34.7283 248.429 35.3715 248.429 36.107C248.429 36.8395 248.292 37.4797 248.018 38.0275C247.744 38.5753 247.36 39.0016 246.864 39.3063C246.369 39.6109 245.789 39.7633 245.124 39.7633ZM245.128 38.6046C245.559 38.6046 245.916 38.4907 246.199 38.2629C246.483 38.0352 246.692 37.732 246.827 37.3535C246.966 36.9749 247.035 36.5579 247.035 36.1024C247.035 35.65 246.966 35.2345 246.827 34.856C246.692 34.4743 246.483 34.1681 246.199 33.9373C245.916 33.7065 245.559 33.5911 245.128 33.5911C244.694 33.5911 244.334 33.7065 244.048 33.9373C243.765 34.1681 243.554 34.4743 243.416 34.856C243.28 35.2345 243.213 35.65 243.213 36.1024C243.213 36.5579 243.28 36.9749 243.416 37.3535C243.554 37.732 243.765 38.0352 244.048 38.2629C244.334 38.4907 244.694 38.6046 245.128 38.6046ZM249.97 39.6202V32.5293H251.304V33.6557H251.378C251.507 33.2741 251.735 32.974 252.061 32.7555C252.39 32.5339 252.763 32.4231 253.178 32.4231C253.265 32.4231 253.366 32.4262 253.483 32.4323C253.603 32.4385 253.697 32.4462 253.765 32.4554V33.7757C253.709 33.7603 253.611 33.7434 253.469 33.7249C253.328 33.7034 253.186 33.6926 253.044 33.6926C252.718 33.6926 252.427 33.7619 252.172 33.9004C251.92 34.0358 251.72 34.2251 251.572 34.4682C251.424 34.7082 251.35 34.9822 251.35 35.2899V39.6202H249.97ZM258.131 39.6202H255.07V30.1656H258.228C259.154 30.1656 259.95 30.3549 260.614 30.7335C261.279 31.1089 261.788 31.6491 262.142 32.3538C262.499 33.0555 262.678 33.8973 262.678 34.8791C262.678 35.8639 262.498 36.7103 262.138 37.4181C261.781 38.126 261.264 38.6707 260.587 39.0524C259.91 39.4309 259.091 39.6202 258.131 39.6202ZM256.496 38.3737H258.052C258.772 38.3737 259.371 38.2383 259.848 37.9675C260.325 37.6936 260.682 37.2981 260.919 36.781C261.156 36.2609 261.275 35.6269 261.275 34.8791C261.275 34.1373 261.156 33.508 260.919 32.9909C260.685 32.4739 260.336 32.0815 259.871 31.8137C259.406 31.546 258.829 31.4121 258.14 31.4121H256.496V38.3737ZM266.405 39.7771C265.955 39.7771 265.549 39.694 265.186 39.5278C264.823 39.3586 264.535 39.1139 264.323 38.7938C264.113 38.4738 264.009 38.0814 264.009 37.6166C264.009 37.2165 264.086 36.8872 264.239 36.6287C264.393 36.3702 264.601 36.1655 264.863 36.0147C265.124 35.8639 265.417 35.75 265.74 35.6731C266.063 35.5961 266.392 35.5377 266.728 35.4977C267.152 35.4484 267.497 35.4084 267.762 35.3776C268.026 35.3438 268.219 35.2899 268.339 35.2161C268.459 35.1422 268.519 35.0222 268.519 34.856V34.8237C268.519 34.4205 268.405 34.1081 268.177 33.8865C267.953 33.6649 267.617 33.5541 267.171 33.5541C266.706 33.5541 266.34 33.6572 266.072 33.8634C265.807 34.0666 265.624 34.2928 265.523 34.5421L264.226 34.2466C264.379 33.8157 264.604 33.468 264.9 33.2033C265.198 32.9355 265.541 32.7416 265.929 32.6216C266.317 32.4985 266.725 32.4369 267.152 32.4369C267.436 32.4369 267.736 32.4708 268.053 32.5385C268.373 32.6031 268.671 32.7232 268.948 32.8986C269.228 33.074 269.458 33.3248 269.636 33.6511C269.815 33.9742 269.904 34.3943 269.904 34.9114V39.6202H268.556V38.6507H268.5C268.411 38.8292 268.277 39.0046 268.099 39.177C267.92 39.3493 267.691 39.4925 267.411 39.6063C267.131 39.7202 266.795 39.7771 266.405 39.7771ZM266.705 38.6692C267.086 38.6692 267.412 38.5938 267.683 38.443C267.957 38.2922 268.165 38.0952 268.307 37.8521C268.451 37.6059 268.524 37.3427 268.524 37.0626V36.1486C268.474 36.1978 268.379 36.244 268.237 36.2871C268.099 36.3271 267.94 36.3625 267.762 36.3933C267.583 36.421 267.409 36.4471 267.24 36.4717C267.071 36.4933 266.929 36.5118 266.815 36.5271C266.548 36.561 266.303 36.6179 266.081 36.6979C265.863 36.778 265.687 36.8934 265.555 37.0442C265.426 37.1919 265.361 37.3889 265.361 37.6351C265.361 37.9767 265.487 38.2352 265.74 38.4107C265.992 38.583 266.314 38.6692 266.705 38.6692ZM277.056 34.2604L275.805 34.482C275.753 34.322 275.669 34.1697 275.556 34.025C275.445 33.8804 275.294 33.7619 275.103 33.6695C274.912 33.5772 274.674 33.531 274.388 33.531C273.997 33.531 273.671 33.6188 273.409 33.7942C273.147 33.9665 273.017 34.1897 273.017 34.4636C273.017 34.7006 273.104 34.8914 273.28 35.036C273.455 35.1807 273.738 35.2992 274.129 35.3915L275.256 35.65C275.908 35.8008 276.394 36.0332 276.714 36.3471C277.034 36.661 277.194 37.0688 277.194 37.5705C277.194 37.9952 277.071 38.3737 276.825 38.7061C276.582 39.0354 276.242 39.2939 275.805 39.4817C275.371 39.6694 274.868 39.7633 274.295 39.7633C273.501 39.7633 272.853 39.594 272.352 39.2555C271.85 38.9139 271.542 38.4291 271.428 37.8013L272.763 37.5982C272.846 37.9459 273.017 38.2091 273.275 38.3876C273.534 38.563 273.871 38.6507 274.286 38.6507C274.738 38.6507 275.1 38.5568 275.371 38.3691C275.642 38.1783 275.777 37.9459 275.777 37.672C275.777 37.4504 275.694 37.2642 275.528 37.1134C275.365 36.9626 275.114 36.8488 274.775 36.7718L273.575 36.5087C272.913 36.3579 272.424 36.1178 272.107 35.7885C271.793 35.4592 271.636 35.0422 271.636 34.5374C271.636 34.1189 271.753 33.7526 271.987 33.4387C272.221 33.1248 272.544 32.8801 272.956 32.7047C273.369 32.5262 273.841 32.4369 274.374 32.4369C275.14 32.4369 275.743 32.6031 276.183 32.9355C276.624 33.2648 276.914 33.7065 277.056 34.2604ZM280.092 35.41V39.6202H278.712V30.1656H280.074V33.6834H280.162C280.328 33.3018 280.582 32.9986 280.923 32.7739C281.265 32.5493 281.711 32.4369 282.262 32.4369C282.748 32.4369 283.173 32.537 283.536 32.737C283.903 32.9371 284.186 33.2356 284.386 33.6326C284.589 34.0265 284.69 34.519 284.69 35.1099V39.6202H283.31V35.2761C283.31 34.7559 283.176 34.3528 282.908 34.0666C282.641 33.7773 282.268 33.6326 281.791 33.6326C281.465 33.6326 281.173 33.7019 280.914 33.8403C280.659 33.9788 280.457 34.182 280.309 34.4497C280.165 34.7144 280.092 35.0345 280.092 35.41Z" fill="#FEFEFE"/>
</svg>
