<svg width="103" height="21" viewBox="0 0 103 21" fill="none" xmlns="http://www.w3.org/2000/svg">
<g clip-path="url(#clip0_201_687)">
<path d="M59.8467 3.41794C60.4813 3.38894 61.1826 3.43182 61.8238 3.45403C61.8373 5.01145 61.7812 6.64348 61.7557 8.20831C61.7272 10.9316 61.6832 13.6546 61.6232 16.3774C61.029 16.6232 59.8827 17.1697 59.288 17.0588C58.7858 16.7505 56.3576 11.7651 55.7354 10.8376C55.921 12.6793 56.028 15.0321 55.9325 16.8874C55.3118 17.0585 54.4955 17.1474 53.8543 17.2006C53.6933 17.2167 53.5317 17.2304 53.3702 17.2417C53.1751 17.2544 53.0501 17.2544 52.8986 17.1213C52.6435 16.6249 52.5535 5.28567 52.586 3.75299C53.1911 3.65311 54.5075 3.29333 54.9992 3.70672C55.6824 4.2809 58.1967 10.1213 58.6188 10.1603C58.6628 9.72824 58.5778 8.90363 58.5718 8.41539C58.5523 6.7945 58.4292 5.14894 58.4422 3.52902C58.9109 3.49707 59.379 3.46004 59.8467 3.41794Z" fill="black"/>
<path d="M85.4944 3.37681C86.3642 3.27619 86.5642 3.358 86.7603 4.24093C87.0654 5.6135 87.289 7.00333 87.5535 8.38492C88.0752 11.081 88.5784 13.7805 89.0635 16.4833C88.7329 16.6354 85.8275 17.3338 85.7515 17.2072C85.4114 16.6396 85.2914 15.1639 85.1378 14.4423C84.6001 14.3918 83.3378 14.5794 82.7216 14.6402C82.6726 14.9464 82.5025 17.0135 82.1774 17.0188C81.5362 17.0292 79.7822 17.018 79.204 16.8599C78.9594 16.4203 79.4961 14.1896 79.6136 13.6128L80.4639 9.44633C80.6685 8.45891 80.9235 7.22769 81.0581 6.23438C81.1311 5.69783 80.8975 4.47243 80.88 3.73872C82.3565 3.57751 83.9429 3.54799 85.4944 3.37681ZM84.0455 11.7978L84.7892 11.7795C84.6452 10.994 84.097 7.19597 83.8489 6.78462C83.6739 7.86671 83.4933 8.94785 83.3068 10.028C83.2067 10.6158 83.1322 11.2196 82.9962 11.7994L84.0455 11.7978Z" fill="#EE1620"/>
<path d="M35.3835 3.41736C35.9834 3.35088 37.7097 3.41266 38.3472 3.44282C39.4519 3.49508 41.2883 3.53112 42.3467 3.74584C43.5529 4.8579 43.8774 10.0479 43.061 11.5573C42.698 12.2285 40.6567 12.9618 39.8894 13.1006C39.5673 13.1588 39.1511 13.1813 38.8275 13.2546C38.7881 13.9165 38.9918 16.351 38.8084 16.7667C38.4991 16.9854 35.8959 17.1639 35.3689 17.1747C35.2801 14.339 35.4365 11.3665 35.3268 8.51476C35.2533 7.8715 35.4214 6.85745 35.2773 6.25531C35.0636 5.36206 34.7544 4.421 34.5378 3.51903L35.3835 3.41736ZM40.1508 9.93386C40.3084 9.87786 40.3228 9.90184 40.4047 9.78549C40.4479 9.20758 40.4984 7.02541 40.1582 6.55476C39.8836 6.17488 38.9337 6.17832 38.4611 6.14165C38.4744 6.65802 38.5186 10.0657 38.6838 10.2563C39.0047 10.3512 39.7962 10.0444 40.1508 9.93386Z" fill="black"/>
<path d="M46.729 3.41836C47.825 3.34577 50.4938 3.3522 51.5046 3.51844C51.5056 3.54561 51.5061 3.57279 51.5066 3.59997C51.5136 3.99938 51.335 6.22307 51.121 6.37459C50.8099 6.59466 48.2477 6.39542 47.7208 6.39053C47.7311 7.24231 47.7911 8.19891 47.8313 9.05404C48.5399 9.00253 50.4173 8.90581 51.0219 8.78581C51.0209 9.36553 51.1865 11.188 50.8224 11.5666C50.4873 11.9152 48.4046 11.8051 47.8152 11.8205C47.8411 12.5718 47.8226 13.431 47.8244 14.1908C48.3314 14.0737 50.5983 13.7822 51.042 13.7756C51.087 13.7822 51.3325 13.821 51.3616 13.8346C52.0643 14.1641 51.6396 16.2434 51.6121 16.9071C51.0815 16.9443 50.4043 16.9429 49.8465 16.9706C48.0057 17.0632 46.1638 17.1345 44.3213 17.1845C44.2581 14.4243 44.4734 11.4728 44.5213 8.69904C44.5379 7.7376 44.6337 6.76766 44.6109 5.80192C44.3293 5.36749 43.4241 4.25645 43.3716 3.82626C43.5961 3.50154 46.1989 3.44642 46.729 3.41836Z" fill="black"/>
<path d="M68.8095 3.41712C69.1576 3.39853 69.8448 3.30909 70.1039 3.52791C70.33 4.16738 70.453 6.92126 70.4895 7.67452C69.6563 7.51051 67.161 6.55047 66.4668 6.95088C66.1777 7.44716 66.3053 12.5689 66.3268 13.4311C67.4396 14.1243 70.1549 12.9726 70.8306 13.1601C71.0522 13.5244 70.5205 16.3206 70.2445 16.6878C69.9294 16.8274 69.5913 16.8779 69.2512 16.9159C68.1063 17.0441 64.2451 17.2137 63.3739 16.5032C63.0383 16.2297 63.0063 15.4358 62.9653 15.031C62.8132 13.5254 62.6252 5.1444 63.3329 4.31189C63.761 3.80825 67.9098 3.50027 68.8095 3.41712Z" fill="#EE1620"/>
<path d="M74.6997 3.41514C74.9453 3.38064 75.3309 3.39409 75.591 3.3961C75.6405 4.51453 75.4845 5.19838 75.461 6.58112C75.443 7.67415 74.8923 13.0728 75.5385 13.7416C75.754 13.9647 78.0052 13.4719 78.7905 13.4259C78.7905 13.975 78.7615 14.4496 78.6959 14.99C78.4569 16.9687 78.5474 16.9241 76.6608 16.9628C75.6425 16.9939 74.6172 17.07 73.5984 17.1025C73.0482 17.1201 72.4851 17.1735 71.9379 17.1258C71.8774 16.7898 71.8574 16.0869 71.8449 15.7225C71.7993 14.4037 71.8209 13.0726 71.8059 11.752L71.7543 6.57023C71.7538 5.81621 71.7328 4.56795 71.8124 3.8357C72.7101 3.63353 73.7749 3.52681 74.6997 3.41514Z" fill="#EE1620"/>
<path d="M9.00012 0H9.42976H9.78961C9.54539 0.753411 9.22609 1.38398 8.95366 2.27732C8.71569 3.78785 8.51553 4.12833 8.56164 5.72588C9.61566 5.90508 10.3455 6.03822 11.3405 6.45942C12.2666 6.83305 12.9523 7.43889 13.5437 8.22313C14.8132 6.27038 17.7958 3.69267 19.9106 2.66563C21.4577 1.91426 24.3463 0.976304 26 1.54183C26.3354 1.67747 26.582 1.78827 26.7341 2.14773C26.9431 2.64146 26.7764 3.40976 26.4872 3.84398C27.9098 3.54387 32.0083 3.14629 33.3513 3.53713C34.1452 5.40525 34.5616 13.863 34.0223 16.2048C33.9593 16.3999 33.6247 16.6181 33.4444 16.6664C31.1315 17.2861 28.4409 17.3847 26.1296 16.7196C25.0305 16.4034 25.7594 13.6445 25.3604 13.2413C24.8198 13.8829 22.4139 14.7833 21.5654 14.9578C19.6259 15.3019 18.3136 15.3993 16.3667 14.8161C15.9512 14.9535 15.5844 15.1668 15.1545 15.2597C14.6557 15.3675 14.1484 15.3866 13.651 15.4852C13.6047 15.5466 13.5646 15.5996 13.5309 15.6442L13.4741 15.6044L13.5399 15.515L13.456 15.5856C13.692 15.9037 15.0957 15.7439 15.5998 16.4062C16.581 16.7379 18.9673 18.1945 17.298 19.1856C17.5591 19.7133 17.7471 20.1144 17.25 20.5827H16.4581C16.2371 20.4601 15.8557 20.2962 15.6173 20.1875C15.4695 20.132 15.2921 20.071 15.1549 19.9986C14.679 20.2454 14.3051 20.4159 13.7854 20.5827H12.3386H11.7219H10.1217C9.50003 20.3444 8.74355 20.09 8.18593 19.74C7.59395 20.0607 7.48287 20.1386 6.95851 20.5827H5.42949H3.1183C2.7408 20.3913 2.36719 20.3554 1.86944 20.0518C0.674619 19.323 0.348122 18.4657 0 17.2049V16.1421C0.040295 15.9865 0.0831137 15.8315 0.128439 15.6772C0.37019 14.8669 0.729801 14.5194 1.44414 14.1329C1.83384 13.335 2.03737 13.0812 2.74602 12.5724C1.35593 11.1323 1.67122 9.06188 2.96735 7.67994C3.44556 7.17007 3.85899 6.88556 4.45837 6.53945C3.95542 5.32212 3.89419 4.67923 3.91346 3.3738C3.89858 2.82172 4.40471 1.11552 5.09469 1.26212C5.33847 1.5567 5.06798 2.29506 5.12145 2.90925C5.23739 4.24114 5.38328 4.81101 5.90309 6.00565C6.18802 5.90853 6.64911 5.83174 6.95711 5.77155C6.95821 5.59944 6.96106 5.42733 6.96551 5.25528C7.01883 3.40491 7.62446 1.29799 9.00012 0ZM24.1911 6.04911C24.1706 6.84914 23.2975 7.79869 22.6308 8.16303C22.253 8.31146 21.8802 8.3237 21.8019 8.71927L21.8539 8.74415C21.9838 8.66941 22.1144 8.59607 22.2459 8.52408C23.0568 8.17123 23.5234 8.06786 24.3889 8.17712C24.8481 7.84016 25.1175 7.6721 25.6425 7.45648C25.6821 7.40132 25.9768 4.92313 26.008 4.59485L25.9142 4.60273C25.4756 5.19703 24.9169 5.42039 24.3043 5.79198C24.2686 5.81361 24.203 6.005 24.1911 6.04911ZM29.7525 13.6415C30.2148 13.5621 30.6766 13.4803 31.1381 13.3961L31.0099 10.0104C30.9837 9.22434 30.9982 8.41098 30.8576 7.63578C30.8051 7.34597 30.7118 6.93357 30.4866 6.72764C30.4032 6.65141 30.2289 6.60494 30.1167 6.61144C30.1133 6.61164 30.1099 6.61204 30.1065 6.61234C29.788 6.65395 29.2911 6.67559 29.0753 6.8979C28.7837 7.46807 28.5054 12.1563 28.7562 13.0886C28.7758 13.1617 28.871 13.3609 28.9134 13.441C29.2122 13.5967 29.4092 13.6504 29.7525 13.6415Z" fill="black"/>
<path d="M26 1.54175C26.3354 1.67739 26.582 1.78819 26.7341 2.14765C26.943 2.64138 26.7763 3.40968 26.4871 3.8439C27.9097 3.54379 32.0082 3.14621 33.3513 3.53705C34.1451 5.40517 34.5616 13.863 34.0222 16.2047C33.9593 16.3998 33.6246 16.618 33.4443 16.6663C31.1314 17.286 28.4408 17.3846 26.1295 16.7196C25.0305 16.4033 25.7593 13.6444 25.3604 13.2412C25.236 13.2158 25.2657 13.2163 25.1643 13.1199C26.1301 12.3696 26.8519 11.6503 27.4374 10.5094C27.8302 9.74422 28.4833 8.13448 27.4254 7.53753C26.9375 7.26221 26.2141 7.49676 25.7121 7.66382L25.6424 7.4564C25.682 7.40124 25.9767 4.92305 26.008 4.59477L25.9141 4.60265C25.7799 4.52734 25.814 4.57009 25.7657 4.43678C26.4625 3.62826 27.2638 2.09637 25.6976 1.6994C25.8975 1.64312 25.8647 1.68059 26 1.54175ZM29.7524 13.6414C30.2147 13.562 30.6766 13.4802 31.138 13.396L31.0099 10.0103C30.9837 9.22426 30.9982 8.41089 30.8576 7.6357C30.8051 7.34589 30.7117 6.93349 30.4865 6.72756C30.4031 6.65133 30.2288 6.60486 30.1167 6.61136C30.1133 6.61156 30.1099 6.61196 30.1065 6.61226C29.7879 6.65387 29.291 6.67551 29.0752 6.89782C28.7837 7.46799 28.5053 12.1562 28.7561 13.0886C28.7757 13.1616 28.8709 13.3608 28.9133 13.441C29.2122 13.5966 29.4091 13.6503 29.7524 13.6414Z" fill="black"/>
<path d="M3.91347 3.37378L3.91982 3.38861C4.04535 3.68566 3.987 4.11428 4.05334 4.2088C4.0662 4.07294 4.06178 3.84864 4.1355 3.76223C4.17873 4.86365 4.33003 5.61735 4.7597 6.65053C4.23407 6.96267 3.77654 7.2262 3.34169 7.66938C1.87949 9.15942 1.51601 11.1424 3.18546 12.6246C2.32141 13.116 2.1065 13.3984 1.65872 14.2847C1.2754 14.5044 0.905019 14.7022 0.669213 15.0861C-0.336409 16.7232 0.557109 19.3107 2.33735 20.0166C2.61081 20.125 2.86132 20.2424 3.15042 20.3073C3.87023 20.4909 4.68209 20.5563 5.41594 20.439L5.42949 20.5827H3.1183C2.7408 20.3913 2.36719 20.3554 1.86944 20.0518C0.674619 19.323 0.348122 18.4657 0 17.2049V16.1421C0.040295 15.9864 0.0831137 15.8315 0.128439 15.6772C0.37019 14.8669 0.729801 14.5194 1.44414 14.1328C1.83384 13.335 2.03737 13.0812 2.74602 12.5724C1.35593 11.1323 1.67122 9.06185 2.96735 7.67992C3.44556 7.17005 3.85899 6.88554 4.45837 6.53943C3.95542 5.3221 3.89419 4.67921 3.91347 3.37378Z" fill="#F8F1F3"/>
<path d="M13.5437 8.22327C14.8131 6.27051 17.7958 3.69281 19.9105 2.66577C21.4577 1.9144 24.3462 0.976442 26 1.54197C25.8647 1.6808 25.8975 1.64334 25.6976 1.69962C23.1002 1.32078 20.0397 2.6253 17.9755 4.16202C16.2586 5.42932 14.7492 6.95529 13.5013 8.68533C13.0026 7.81621 12.5367 7.39162 11.6502 6.89909C11.5908 6.86606 11.3793 6.75606 11.3378 6.71734C11.3264 6.66178 11.2775 6.62082 11.2368 6.57701L11.3404 6.45955C12.2665 6.83319 12.9523 7.43903 13.5437 8.22327Z" fill="#F8F1F3"/>
<path d="M9.00007 0H9.4297L9.45601 0.0536489C7.76194 0.769548 7.19107 4.3393 7.21037 5.99271C6.83246 6.05686 6.12039 6.15957 5.77334 6.25194C4.93754 4.77061 4.74271 3.11196 4.98044 1.45193C4.36101 2.16442 4.1581 2.80653 4.13544 3.76226C4.06172 3.84866 4.06614 4.07296 4.05328 4.20882C3.98694 4.1143 4.04529 3.68568 3.91976 3.38863L3.91341 3.3738C3.89852 2.82172 4.40465 1.11552 5.09463 1.26212C5.33841 1.5567 5.06793 2.29506 5.12139 2.90925C5.23733 4.24114 5.38322 4.81101 5.90303 6.00565C6.18797 5.90853 6.64906 5.83174 6.95705 5.77154C6.95815 5.59944 6.961 5.42733 6.96545 5.25528C7.01877 3.40491 7.6244 1.29799 9.00007 0Z" fill="#FEFEFE"/>
<path d="M12.9021 15.4274C14.2167 15.0769 15.1198 15.1627 16.2984 14.5278C18.0358 15.0473 19.0277 15.076 20.7943 14.8632C21.0492 14.8975 21.3097 14.9361 21.5655 14.9577C19.626 15.3018 18.3137 15.3992 16.3667 14.816C15.9513 14.9534 15.5845 15.1667 15.1546 15.2596C14.6558 15.3674 14.1485 15.3865 13.6511 15.4851C13.6048 15.5465 13.5647 15.5995 13.531 15.6441L13.4742 15.6043L13.54 15.5149L13.4561 15.5855C13.6921 15.9036 15.0958 15.7438 15.5999 16.4061L15.4816 16.4678C15.5181 16.5379 15.5542 16.6083 15.5897 16.679C14.8696 16.1383 14.7033 16.1526 13.791 16.0114C13.3333 15.9406 13.1524 15.7977 12.9021 15.4274Z" fill="#F8F1F3"/>
<path d="M15.5895 16.6789C15.554 16.6082 15.518 16.5378 15.4814 16.4678L15.5998 16.406C16.581 16.7377 18.9673 18.1943 17.2979 19.1854C17.559 19.7131 17.747 20.1142 17.25 20.5825H16.458C16.2371 20.4599 15.8557 20.296 15.6173 20.1873L15.969 20.0928C17.263 20.6829 17.6615 20.2365 16.9243 19.0373C17.1792 18.9456 17.4408 18.8659 17.5844 18.618C17.7138 18.4075 17.6281 18.1677 17.4806 17.9859C17.1196 17.5414 16.6623 17.1667 16.1527 16.9031C15.9744 16.8108 15.7716 16.7829 15.5975 16.6835L15.5895 16.6789Z" fill="#FEFEFE"/>
<path d="M8.74708 2.16635C8.8033 2.09769 8.86962 2.0212 8.91699 1.94739C8.90663 2.08102 8.88893 2.159 8.95375 2.27722C8.71577 3.78775 8.51561 4.12823 8.56173 5.72578C9.61575 5.90498 10.3456 6.03812 11.3406 6.45931L11.2369 6.57676C11.2776 6.62058 11.3266 6.66154 11.3379 6.7171C10.0933 6.22776 9.67972 6.14692 8.35812 5.99235C8.26199 4.88796 8.37817 3.21531 8.74708 2.16635Z" fill="#FEFEFE"/>
<path d="M25.1644 13.1199C25.2657 13.2162 25.236 13.2157 25.3604 13.2412C24.8198 13.8828 22.4139 14.7832 21.5654 14.9577C21.3096 14.9361 21.0491 14.8974 20.7942 14.8632C22.2883 14.6561 23.9172 13.9492 25.1644 13.1199Z" fill="#FEFEFE"/>
<path d="M5.41602 20.4389C6.28838 20.1689 5.55436 19.8443 6.07802 19.4719C6.16794 19.516 6.16929 20.0659 6.26007 20.1939C6.85435 21.0317 7.51635 19.2418 8.41087 19.5779C8.3211 19.6292 8.22537 19.6616 8.186 19.7399C7.59403 20.0606 7.48294 20.1385 6.95858 20.5826H5.42957L5.41602 20.4389Z" fill="#FEFEFE"/>
<path d="M24.3888 8.17719C24.848 7.84022 25.1175 7.67216 25.6424 7.45654L25.7122 7.66397C25.2506 7.91141 24.8606 8.12698 24.4307 8.43517C23.8082 8.36138 23.1997 8.37287 22.6113 8.63036C22.5384 8.61722 22.3277 8.54852 22.2458 8.52414C23.0567 8.17129 23.5233 8.06793 24.3888 8.17719Z" fill="#F8F1F3"/>
<path d="M22.4182 7.98647C24.0279 7.13878 23.7937 5.83428 24.2361 5.48328L24.3179 5.59788C24.1981 5.77108 24.0973 5.83443 24.1912 6.04905C24.1706 6.84908 23.2975 7.79863 22.6309 8.16297C22.53 8.10932 22.4729 8.08888 22.4182 7.98647Z" fill="#F8F1F3"/>
<path d="M15.1309 19.7554C15.4357 19.8639 15.6734 19.9612 15.9691 20.0929L15.6174 20.1874C15.4696 20.1319 15.2921 20.0709 15.1549 19.9986C14.6791 20.2453 14.3052 20.4158 13.7854 20.5826H12.3386C13.724 20.3104 13.7658 20.4115 15.1309 19.7554Z" fill="#FEFEFE"/>
<path d="M8.4109 19.578C9.0574 20.0093 10.0753 20.3322 10.8339 20.4449C11.0557 20.4779 11.5484 20.537 11.722 20.5827H10.1218C9.50013 20.3444 8.74365 20.09 8.18604 19.74C8.2254 19.6617 8.32113 19.6293 8.4109 19.578Z" fill="#F8F1F3"/>
<path d="M21.7205 8.16332C22.046 8.12231 22.1156 8.10183 22.4181 7.98657C22.4728 8.08899 22.5299 8.10942 22.6308 8.16307C22.253 8.3115 21.8802 8.32374 21.8019 8.71931L21.8539 8.74418C21.9838 8.66945 22.1144 8.59611 22.2459 8.52412C22.3277 8.5485 22.5384 8.61719 22.6113 8.63033C22.3314 8.73769 21.6209 9.21839 21.4561 9.2008C21.3635 8.99892 21.6338 8.39952 21.7205 8.16332Z" fill="#FEFEFE"/>
<path d="M9.42983 0H9.78969C9.54546 0.753411 9.22617 1.38398 8.95373 2.27732C8.88891 2.1591 8.90662 2.08112 8.91697 1.94749C8.86961 2.0213 8.80329 2.0978 8.74707 2.16646C8.83445 1.75117 9.45193 0.229662 9.45614 0.0536489L9.42983 0Z" fill="#F8F1F3"/>
<path d="M25.7656 4.43689C25.814 4.57019 25.7799 4.52744 25.9141 4.60276C25.4755 5.19706 24.9168 5.42042 24.3042 5.792C24.2685 5.81364 24.2029 6.00503 24.191 6.04914C24.0971 5.83452 24.1979 5.77117 24.3177 5.59797L24.2359 5.48336C24.5964 5.55455 25.516 4.68355 25.7656 4.43689Z" fill="#FEFEFE"/>
<path d="M22.1993 2.5287C23.0608 2.23709 25.2933 1.64073 25.9743 2.33625C26.0146 3.45359 24.0936 4.97707 23.073 5.15461C22.9472 5.17645 22.3883 5.31108 22.305 5.36948C22.5159 5.40001 22.974 5.47819 23.1675 5.48344L23.34 5.51566C23.3649 5.63856 23.3415 5.61033 23.2999 5.71994C22.7543 7.15873 21.2322 7.69987 19.8063 7.75808C19.6234 7.76552 19.1645 7.79015 18.9981 7.83726C19.4254 7.96065 19.782 8.01416 20.2183 8.085C20.3422 8.09599 20.6076 8.10129 20.6923 8.17128C20.6463 8.45304 20.2643 8.98619 20.0554 9.19861C19.0983 10.1717 17.7226 10.4612 16.407 10.4105C19.3363 11.4565 19.7756 9.22514 21.5935 9.90187C21.7474 9.76304 22.1629 9.40844 22.3487 9.32905C23.0376 8.93124 23.7245 8.70378 24.4948 9.01642C24.6732 8.99374 24.9286 8.67111 25.2025 8.52173C25.695 8.18537 27.1379 7.3673 27.4522 8.26405C27.4087 8.42811 27.3844 8.60431 27.3287 8.76673C25.6361 13.7073 18.4835 15.8738 14.5582 12.2233C14.0281 11.7303 13.5958 10.9849 13.5959 10.2479C13.596 10.0325 13.6686 9.51745 13.8289 9.35528C13.8226 9.52189 13.8267 9.6888 13.8413 9.85491C13.901 10.5532 14.2375 11.1986 14.776 11.6479C14.1593 10.6098 14.0645 9.44251 14.7087 8.39539C16.1957 5.97807 19.48 3.33023 22.1993 2.5287Z" fill="#EE1620"/>
<path d="M19.5278 8.45556C19.3231 8.33721 18.8852 8.09587 18.7721 7.90018L18.8038 7.82849L18.9983 7.83703C19.4256 7.96043 19.7822 8.01394 20.2185 8.08478C19.6762 9.15503 18.9018 9.71081 17.7969 10.1069C18.6529 9.50523 18.9241 9.32588 19.5278 8.45556Z" fill="#FEFEFE"/>
<path d="M22.5601 5.75673C22.3824 5.64527 22.298 5.59627 22.1494 5.44185L22.1663 5.37685L22.3051 5.36951C22.516 5.40003 22.9741 5.47822 23.1676 5.48346C22.4755 6.41243 22.2044 6.59697 21.2188 7.1643C21.4816 6.80005 22.0387 6.50195 22.5601 5.75673Z" fill="#FEFEFE"/>
<path d="M22.1992 2.5287C23.0607 2.23709 25.2932 1.64073 25.9743 2.33625C25.2066 2.26048 24.8791 2.20244 24.0932 2.27646C23.7424 2.3095 22.4294 2.54614 22.1992 2.5287Z" fill="#F8F1F3"/>
<path d="M25.2026 8.52173C25.6951 8.18536 27.138 7.3673 27.4524 8.26404C26.6977 8.12166 26.4727 8.24201 25.7223 8.42171C25.5632 8.45978 25.363 8.52742 25.2026 8.52173Z" fill="#FEF2F3"/>
<path d="M22.3489 9.329C23.0377 8.93119 23.7246 8.70373 24.4949 9.01637C24.3297 9.11808 24.1721 9.20351 23.9686 9.19327L23.7207 9.19552C22.9973 9.14281 22.6893 9.33855 22.3489 9.329Z" fill="#F8F1F3"/>
<path d="M23.7206 9.19561L23.9685 9.19336C23.6506 9.41397 22.168 10.0007 21.7307 10.18C22.4182 9.57988 22.8367 9.41957 23.7206 9.19561Z" fill="black"/>
<path d="M23.1913 2.65622C23.2752 2.64857 23.2869 2.64752 23.3646 2.67927C21.8164 3.32146 20.6509 3.95953 19.5454 5.25815C19.0345 5.85824 18.3859 6.84836 17.6001 7.04115C17.4063 6.93394 17.349 6.88453 17.2869 6.68929C17.3185 6.36282 17.5343 6.10124 17.7519 5.87018C19.2776 4.25018 21.0486 3.20792 23.1913 2.65622Z" fill="black"/>
<path d="M24.7147 2.40298C24.8234 2.38924 24.8424 2.38745 24.9454 2.42216L24.9192 2.5357C24.6325 2.8912 24.1573 3.13589 23.7189 3.2503C23.5369 3.24248 23.5356 3.27278 23.4194 3.17494L23.432 3.07511C23.6972 2.72603 24.3114 2.52015 24.7147 2.40298Z" fill="#FEFEFE"/>
<path d="M26.3351 8.34143C26.3971 8.35292 26.409 8.35217 26.4522 8.40203C25.8318 8.68699 25.1837 9.03085 24.6416 9.44745C24.6142 9.46903 24.5863 9.46559 24.552 9.46903C24.5636 9.43721 24.5781 9.40653 24.5952 9.37731C24.9389 8.79765 25.7187 8.49605 26.3351 8.34143Z" fill="black"/>
<path d="M26.8394 8.38293C26.868 8.43379 26.8731 8.45882 26.8617 8.51722C26.7815 8.92838 26.3584 9.41232 26.0212 9.64003C26.0075 9.62949 26.0015 9.58512 25.9966 9.56709C26.2224 9.14609 26.5518 8.76391 26.8394 8.38293Z" fill="#F8F1F3"/>
<path d="M22.9528 3.24139C23.0788 3.23921 23.1092 3.2448 23.2306 3.27293L23.2799 3.35976C23.2313 3.50478 23.0975 3.58264 22.9731 3.67359C22.8372 3.67334 22.8085 3.66736 22.6798 3.63143L22.6355 3.53993C22.6935 3.39555 22.8229 3.32858 22.9528 3.24139Z" fill="#FEFEFE"/>
<path d="M7.26315 6.52414C7.34152 6.88689 7.4507 7.60963 7.9279 7.56926C7.98081 7.45221 7.74489 6.51475 7.71994 6.29428C7.49862 4.3431 7.85058 2.03599 9.04069 0.453979C8.31862 2.04887 7.86773 3.66509 7.91319 5.43246C7.9233 5.82533 8.05554 7.11964 8.29136 7.42868L8.36988 7.43517C8.47121 7.26247 8.48377 6.95378 8.50672 6.74581L8.53063 6.59818C8.72069 6.48298 9.09105 6.52104 9.30647 6.55946C10.3877 6.7525 11.6424 7.34016 12.2292 8.2998C12.2638 8.3565 12.2955 8.41495 12.3241 8.47495C12.6364 9.37739 12.4577 10.157 11.8986 10.9239C10.7729 12.4679 8.78191 13.1991 6.95565 13.5046C8.32507 13.6147 8.91895 13.5586 10.1705 12.9963C10.1657 13.8183 10.1995 14.1885 10.6458 14.8579C9.06945 15.896 6.32146 16.755 5.02997 14.8257C4.68195 14.3057 4.54945 13.7537 4.42425 13.1525C5.28765 13.4305 5.6137 13.468 6.50192 13.462C6.07664 13.2637 5.53232 13.0996 5.08379 12.9023C2.03715 11.5616 2.22672 8.75082 5.06993 7.26717C5.26699 7.5288 5.61685 8.01189 5.96275 8.02403L6.01597 7.945C5.85842 7.67652 5.66566 7.42758 5.51792 7.15696C4.64023 5.54866 4.02167 3.58739 4.74655 1.81701C4.54916 2.88827 4.60109 3.68887 4.87658 4.75196C5.02847 5.33804 5.71488 7.56277 6.39053 7.63311C6.40639 7.41804 6.16942 7.02237 6.05998 6.80536C6.45805 6.68241 6.85572 6.60742 7.26315 6.52414Z" fill="#EE1620"/>
<path d="M8.50659 6.74583L8.5305 6.59821C8.72056 6.483 9.09092 6.52107 9.30633 6.55949C10.3876 6.75253 11.6423 7.34018 12.229 8.29983C12.2637 8.35653 12.2954 8.41498 12.324 8.47498L12.311 9.31612C11.8108 7.18716 10.2712 7.16113 8.50659 6.74583Z" fill="#F8F1F3"/>
<path d="M3.8817 8.85541C5.0088 8.75644 5.54371 9.42803 6.27988 9.43887C6.29339 9.43907 6.30534 9.43972 6.31885 9.43877C6.43763 9.43028 6.58132 9.25008 6.66105 9.16505C6.74307 9.22845 6.74547 9.24903 6.77818 9.34909C6.77138 9.3973 6.75848 9.44392 6.73162 9.48498C6.57672 9.72168 6.40462 9.83204 6.13139 9.88964L6.31814 10.3592C5.6776 10.3178 5.17245 10.3497 4.55512 10.5384C4.09222 10.0654 4.11348 9.71853 4.07389 9.10155C4.01464 9.03856 3.95375 9.00613 3.87622 8.96906L3.8817 8.85541Z" fill="black"/>
<path d="M9.19096 9.93688C9.05477 9.75823 8.9805 9.57183 8.87767 9.3807C8.83085 9.29372 8.48065 9.36016 8.28489 9.22677C8.20987 9.09773 8.22212 9.15249 8.23302 9.00536C8.37031 9.03439 8.59878 9.08689 8.73783 9.0212C9.15455 8.82411 10.3316 7.4734 10.8481 8.03133C10.7767 8.08733 10.6829 8.12575 10.5997 8.16437C10.5446 8.36765 10.8866 8.72834 10.8792 9.29517C11.052 9.33988 11.147 9.37045 11.3126 9.43715L11.3184 9.50029C11.3143 9.50194 9.69632 9.67979 9.6493 9.67745C9.51946 9.7303 9.31785 9.86024 9.19096 9.93688Z" fill="black"/>
<path d="M10.8791 9.29517C11.0519 9.33988 11.1469 9.37045 11.3124 9.43715L11.3182 9.50029C11.3142 9.50194 9.69618 9.67979 9.64917 9.67744C10.0448 9.47861 10.4345 9.32129 10.8791 9.29517Z" fill="#F8F1F3"/>
<path d="M10.0353 8.46265C10.1567 8.45206 10.264 8.54113 10.2757 8.66228C10.2875 8.78343 10.1993 8.89144 10.0781 8.90427C9.95531 8.91731 9.84542 8.82779 9.83357 8.70504C9.82167 8.58225 9.91229 8.47339 10.0353 8.46265Z" fill="#F8F1F3"/>
<path d="M9.80607 10.0586C9.99123 10.0376 10.1852 10.0112 10.3686 10.0554C10.4956 10.086 10.6487 10.1508 10.7202 10.2651L10.6642 10.3246C10.4894 10.3537 10.3334 10.2891 10.1707 10.2338C9.97027 10.4834 9.78242 10.6819 9.51263 10.8565C8.44886 11.5451 6.95091 11.8156 5.71513 11.5539C5.51522 11.5157 5.31881 11.5412 5.12 11.4751L5.1145 11.4061C5.14861 11.361 5.18477 11.3168 5.22569 11.2776C5.32822 11.1797 5.47471 11.1071 5.6178 11.112C5.64706 11.1891 5.68768 11.2473 5.75405 11.2965C6.01332 11.489 6.51993 11.3989 6.81857 11.3558C7.53558 11.2523 9.29057 10.8669 9.71199 10.3027L9.67953 10.1455L9.80607 10.0586Z" fill="black"/>
<path d="M5.40928 19.9436C4.01761 20.3339 2.63751 19.8396 1.63861 18.8331C0.734156 17.9558 0.322264 16.1053 1.3143 15.1439C2.10255 14.3798 2.87647 14.7292 3.5148 15.4101C3.31686 15.4704 3.04092 15.5393 2.92209 15.7084C4.04872 15.5363 5.06938 16.1387 4.99826 17.3882C5.01046 17.5227 5.00886 17.5474 4.97804 17.6788L4.91317 17.7023C4.25674 17.3946 3.44235 16.9428 2.91483 16.4473C3.04101 16.7614 3.24765 17.0188 3.36024 17.2745C3.9759 18.6728 4.26834 18.9916 5.40928 19.9436Z" fill="#EE1620"/>
<path d="M2.92236 15.7084C4.04899 15.5363 5.06965 16.1387 4.99853 17.3882C4.45063 16.2529 4.25063 16.0191 2.95465 15.7594L2.92236 15.7084Z" fill="#F8F1F3"/>
<path d="M2.58301 17.5034C3.19111 17.6538 3.55393 18.5497 3.92643 19.0143C4.12126 19.2573 4.34822 19.4499 4.58995 19.6447C4.53414 19.6345 4.48218 19.6125 4.43038 19.5901C3.57617 19.2192 2.91433 18.3489 2.58301 17.5034Z" fill="#FEFEFE"/>
<path d="M2.33187 15.078C2.39881 15.0783 2.47023 15.0786 2.53591 15.092C2.66956 15.1196 2.74617 15.1973 2.819 15.3034C2.78555 15.425 2.75039 15.436 2.65268 15.5088C2.5581 15.5066 2.46042 15.5055 2.36644 15.4936C2.24811 15.4787 2.18311 15.4354 2.11304 15.3441C2.16259 15.1969 2.21314 15.1736 2.33187 15.078Z" fill="#FEFEFE"/>
<path d="M7.87859 16.2474C8.81697 16.106 9.68014 15.8502 10.5214 15.4128C10.708 15.3157 10.943 15.1666 11.1393 15.212C11.3382 15.4605 11.503 16.1215 11.696 16.4947C9.78497 17.8477 6.89999 18.5557 5.73169 15.9287C6.55699 16.2846 6.96521 16.2971 7.87859 16.2474Z" fill="#EE1620"/>
<path d="M7.87842 16.2474C8.8168 16.106 9.67996 15.8502 10.5212 15.4128C10.7079 15.3157 10.9428 15.1666 11.1391 15.212C10.6474 15.9874 8.70982 16.5401 7.87842 16.2474Z" fill="#FEFEFE"/>
<path d="M9.33443 17.901C9.79187 17.7657 10.2403 17.6017 10.6769 17.4097C10.9038 17.3077 11.7725 16.8209 11.8921 16.804L12.0482 16.9286C12.3099 17.3333 12.5226 17.4922 12.9032 17.7947C11.1892 19.0608 8.98838 19.8296 7.39404 17.9521C8.17678 18.0934 8.53939 18.0356 9.33443 17.901Z" fill="#EE1620"/>
<path d="M9.33447 17.901C9.79191 17.7657 10.2403 17.6017 10.677 17.4097C10.9038 17.3077 11.7725 16.8209 11.8921 16.804L12.0482 16.9286C11.5256 17.4625 10.2509 17.9106 9.52743 17.924C9.46236 17.9248 9.39749 17.9171 9.33447 17.901Z" fill="#FEFEFE"/>
<path d="M13.1019 17.9358C13.3459 18.0126 13.66 18.2513 13.8064 18.4593C13.8848 18.5706 13.9202 18.7061 13.894 18.841C13.8381 19.1294 13.5626 19.3727 13.3259 19.5274C12.4974 20.0689 11.3777 19.9932 10.4546 19.7984C10.0794 19.6742 9.72863 19.5356 9.36987 19.3701C10.8557 19.25 11.9212 18.8478 13.1019 17.9358Z" fill="#EE1620"/>
<path d="M13.0904 10.5388C13.1228 10.5733 13.1308 11.6633 13.1605 11.8178C13.2921 12.5021 13.6488 13.0721 14.0484 13.6275C13.9538 13.6362 13.8591 13.6439 13.7643 13.6506C13.0814 13.6977 12.762 13.4448 12.2704 13.018C12.3982 13.2513 12.5382 13.494 12.7085 13.699C13.1089 14.181 13.575 14.3475 14.1848 14.4042C14.5224 14.3526 14.8526 14.2822 15.1852 14.2053C14.6888 14.4452 14.2317 14.6441 13.6655 14.5688C13.1914 14.5058 12.7745 14.2415 12.4865 13.8643C12.1202 13.3847 11.9642 12.7367 12.0471 12.1417C12.1456 11.4351 12.5357 10.9558 13.0904 10.5388Z" fill="#EE1620"/>
<path d="M14.5955 17.2604C15.5703 16.8846 16.9669 17.3658 17.1947 18.4224C17.0591 18.6305 16.5337 18.7335 16.2958 18.7264C15.4318 18.7004 14.6374 18.3807 14.0261 17.7785C14.2016 17.5309 14.3205 17.3892 14.5955 17.2604Z" fill="#EE1620"/>
<path d="M14.5955 17.2604C15.5703 16.8846 16.9669 17.3658 17.1946 18.4224C17.086 18.3385 16.8659 18.112 16.7366 18.0062C15.9737 17.3827 15.5233 17.2995 14.5955 17.2604Z" fill="#F8F1F3"/>
<path d="M3.16655 13.191C3.23628 13.1905 3.30823 13.1919 3.37669 13.2062C3.55247 13.2419 3.70609 13.3477 3.80213 13.499C4.10036 13.9607 3.93983 14.7171 3.83008 15.2149L3.36711 14.7719C3.04029 14.4402 2.63201 14.3283 2.19458 14.214C2.45697 13.754 2.69073 13.4484 3.16655 13.191Z" fill="#EE1620"/>
<path d="M11.5486 12.0829C11.3569 12.7839 11.5188 13.3383 11.8632 13.977C11.9608 14.1578 12.0965 14.2836 12.1986 14.4897C12.0415 14.7065 11.6508 14.4153 11.4182 14.4864L11.228 14.5971C10.2978 13.6452 10.7459 12.8593 11.5486 12.0829Z" fill="#EE1620"/>
<path d="M13.5421 16.5147C13.9329 16.3998 14.7258 16.3914 15.02 16.6947L15.0163 16.7721L14.914 16.8063C14.2913 16.9737 14.1356 17.1568 13.7094 17.6167C13.1401 17.282 12.7221 16.8667 13.5421 16.5147Z" fill="#EE1620"/>
<path d="M13.542 16.5147C13.9328 16.3998 14.7258 16.3914 15.0199 16.6947L15.0162 16.7721L14.914 16.8063C14.2592 16.5745 14.1256 16.6555 13.542 16.5147Z" fill="#F8F1F3"/>
<path d="M6.28453 18.0201C6.51325 18.0665 6.65704 18.2213 6.81089 18.3818C6.44243 18.6635 6.06622 18.9384 5.73281 19.2617C5.64794 19.3368 5.58657 19.3883 5.47239 19.4133C5.45498 19.4172 5.40682 19.3788 5.38966 19.3677C5.34805 19.2372 5.37055 19.1197 5.41517 18.993C5.57422 18.541 5.8555 18.2296 6.28453 18.0201Z" fill="#EE1620"/>
<path d="M14.8638 18.8882C15.3189 18.8851 16.2453 18.9565 16.5734 19.2713C16.7821 19.4715 16.7815 19.7475 16.7842 20.0151C16.4925 20.0545 15.1871 19.1046 14.8638 18.8882Z" fill="#EE1620"/>
<path d="M13.7495 11.8201C14.158 11.9397 14.8482 12.9209 15.2042 13.249C15.5074 13.5285 15.8358 13.7612 16.1761 13.9924C15.9803 13.9848 15.7662 13.8909 15.5881 13.8136C14.7175 13.4356 14.0923 12.6908 13.7495 11.8201Z" fill="#EE1620"/>
<path d="M6.9886 18.7674C7.01206 18.7657 7.03561 18.7647 7.05912 18.7644C7.32585 18.7618 7.4909 18.9801 7.66745 19.1531C7.42188 19.3346 7.19701 19.523 6.9772 19.735C6.90662 19.8132 6.8339 19.9134 6.72692 19.938C6.67886 19.9491 6.64364 19.9119 6.60363 19.8866C6.54812 19.7608 6.54687 19.6535 6.56277 19.5181C6.60273 19.1776 6.72112 18.9783 6.9886 18.7674Z" fill="#EE1620"/>
<path d="M5.43613 17.3889C5.67465 17.4702 5.88667 17.6032 6.10303 17.7299C5.48674 18.0993 5.39947 18.3846 4.98208 18.8984L4.90188 18.8541C4.73378 18.6422 4.45109 18.3064 4.43042 18.0294C4.63437 17.9748 4.946 18.2583 5.19181 18.271C5.38791 18.0911 5.39772 17.6449 5.43613 17.3889Z" fill="#FEFEFE"/>
<path d="M4.97656 16.1731C5.37955 16.4074 5.90436 17.0182 6.29538 17.3507C6.25662 17.3429 6.21825 17.3332 6.18039 17.3219C5.5619 17.1362 5.26662 16.7138 4.97656 16.1731Z" fill="#EE1620"/>
<path d="M12.9534 16.2004C13.0358 16.2118 13.0912 16.2357 13.1627 16.2778C13.1159 16.4488 12.8731 16.6175 12.7401 16.7492C12.6831 16.7027 12.6207 16.6547 12.5741 16.5975C12.4968 16.5026 12.483 16.4803 12.4966 16.3572C12.6026 16.2327 12.8003 16.2251 12.9534 16.2004Z" fill="#EE1620"/>
<path d="M11.4182 14.4863C11.5338 14.6023 11.9148 14.9009 11.9504 14.9622C11.6706 14.9308 11.4254 14.794 11.228 14.5971L11.4182 14.4863Z" fill="#EE1620"/>
<path d="M98.5364 3.35703C99.5002 3.3385 101.485 3.44894 102.431 3.56124V4.48266C102.357 4.72557 102.201 6.35808 102.142 6.77873C101.85 8.94091 101.53 11.099 101.18 13.2526C101.029 14.1787 100.761 15.9277 100.445 16.7586C99.8273 16.9855 97.8352 17.1043 97.1275 17.1164C96.6263 16.2183 96.1927 14.5091 95.8181 13.5086C95.6916 13.1696 95.4925 12.4452 95.2874 12.17C95.1329 12.1962 94.0911 16.0965 93.7745 16.5584C93.3408 17.1907 90.9526 17.1551 90.2704 17.1303C89.7963 13.9086 89.0425 10.6056 88.5734 7.37088C88.4729 6.67796 88.0867 4.67397 88.1513 4.05289C88.4123 3.79348 91.2677 3.47324 91.7874 3.4195C92.0735 6.0958 92.5471 9.33932 92.6416 11.9823C92.8502 11.1441 94.3922 4.84581 94.6627 4.57057C94.8448 4.38602 95.2194 4.43264 95.456 4.43215C95.485 4.50371 95.506 4.57228 95.5305 4.64482C96.3463 7.03766 97.1175 9.47176 97.9922 11.8421C98.1098 10.3249 98.2133 8.80672 98.3033 7.28765C98.3709 6.00428 98.4139 4.63148 98.5364 3.35703Z" fill="#EE1620"/>
</g>
<defs>
<clipPath id="clip0_201_687">
<rect width="102.431" height="20.5827" fill="white"/>
</clipPath>
</defs>
</svg>
