<svg width="378" height="223" viewBox="0 0 378 223" fill="none" xmlns="http://www.w3.org/2000/svg">
<g opacity="0.2">
<path d="M53.333 3.97699C60.8977 3.97701 68.1529 6.98245 73.502 12.3315L98.8955 37.726C104.244 43.075 107.25 50.3294 107.25 57.894V151.136C107.25 162.107 98.3337 171.023 87.3633 171.023H-8.09082C-19.0613 171.023 -27.9775 162.107 -27.9775 151.136V23.8637C-27.9775 12.8933 -19.0613 3.97699 -8.09082 3.97699H53.333ZM7.81836 43.7504C5.62186 43.7504 3.84097 45.5305 3.84082 47.727V63.6362C3.84082 65.8328 5.62177 67.6137 7.81836 67.6137C10.0149 67.6136 11.7959 65.8327 11.7959 63.6362V47.727C11.7958 45.5306 10.0148 43.7505 7.81836 43.7504ZM31.6816 43.7504C29.4852 43.7505 27.7042 45.5306 27.7041 47.727V63.6362C27.7041 65.8327 29.4851 67.6136 31.6816 67.6137C33.8782 67.6137 35.6592 65.8328 35.6592 63.6362V47.727C35.659 45.5305 33.8781 43.7504 31.6816 43.7504ZM55.5459 43.7504C53.3494 43.7504 51.5685 45.5305 51.5684 47.727V63.6362C51.5684 65.8328 53.3493 67.6137 55.5459 67.6137C57.7423 67.6135 59.5225 65.8326 59.5225 63.6362V47.727C59.5223 45.5307 57.7422 43.7507 55.5459 43.7504Z" fill="black"/>
<path d="M53.333 3.97699C60.8977 3.97701 68.1529 6.98245 73.502 12.3315L98.8955 37.726C104.244 43.075 107.25 50.3294 107.25 57.894V151.136C107.25 162.107 98.3337 171.023 87.3633 171.023H-8.09082C-19.0613 171.023 -27.9775 162.107 -27.9775 151.136V23.8637C-27.9775 12.8933 -19.0613 3.97699 -8.09082 3.97699H53.333ZM7.81836 43.7504C5.62186 43.7504 3.84097 45.5305 3.84082 47.727V63.6362C3.84082 65.8328 5.62177 67.6137 7.81836 67.6137C10.0149 67.6136 11.7959 65.8327 11.7959 63.6362V47.727C11.7958 45.5306 10.0148 43.7505 7.81836 43.7504ZM31.6816 43.7504C29.4852 43.7505 27.7042 45.5306 27.7041 47.727V63.6362C27.7041 65.8327 29.4851 67.6136 31.6816 67.6137C33.8782 67.6137 35.6592 65.8328 35.6592 63.6362V47.727C35.659 45.5305 33.8781 43.7504 31.6816 43.7504ZM55.5459 43.7504C53.3494 43.7504 51.5685 45.5305 51.5684 47.727V63.6362C51.5684 65.8328 53.3493 67.6137 55.5459 67.6137C57.7423 67.6135 59.5225 65.8326 59.5225 63.6362V47.727C59.5223 45.5307 57.7422 43.7507 55.5459 43.7504Z" fill="url(#paint0_linear_188_234)"/>
<path d="M53.333 3.97699C60.8977 3.97701 68.1529 6.98245 73.502 12.3315L98.8955 37.726C104.244 43.075 107.25 50.3294 107.25 57.894V151.136C107.25 162.107 98.3337 171.023 87.3633 171.023H-8.09082C-19.0613 171.023 -27.9775 162.107 -27.9775 151.136V23.8637C-27.9775 12.8933 -19.0613 3.97699 -8.09082 3.97699H53.333ZM7.81836 43.7504C5.62186 43.7504 3.84097 45.5305 3.84082 47.727V63.6362C3.84082 65.8328 5.62177 67.6137 7.81836 67.6137C10.0149 67.6136 11.7959 65.8327 11.7959 63.6362V47.727C11.7958 45.5306 10.0148 43.7505 7.81836 43.7504ZM31.6816 43.7504C29.4852 43.7505 27.7042 45.5306 27.7041 47.727V63.6362C27.7041 65.8327 29.4851 67.6136 31.6816 67.6137C33.8782 67.6137 35.6592 65.8328 35.6592 63.6362V47.727C35.659 45.5305 33.8781 43.7504 31.6816 43.7504ZM55.5459 43.7504C53.3494 43.7504 51.5685 45.5305 51.5684 47.727V63.6362C51.5684 65.8328 53.3493 67.6137 55.5459 67.6137C57.7423 67.6135 59.5225 65.8326 59.5225 63.6362V47.727C59.5223 45.5307 57.7422 43.7507 55.5459 43.7504Z" stroke="white" stroke-width="7.95455"/>
</g>
<path d="M209.697 19.9771C217.261 19.9771 224.517 22.9825 229.866 28.3315L255.259 53.7261C260.608 59.075 263.614 66.3295 263.614 73.894V167.136C263.614 178.107 254.697 187.023 243.727 187.023H148.273C137.302 187.023 128.386 178.107 128.386 167.136V39.8638C128.386 28.8933 137.302 19.9771 148.273 19.9771H209.697ZM164.182 59.7505C161.986 59.7505 160.205 61.5306 160.204 63.7271V79.6362C160.204 81.8328 161.985 83.6138 164.182 83.6138C166.379 83.6137 168.16 81.8328 168.16 79.6362V63.7271C168.159 61.5306 166.378 59.7506 164.182 59.7505ZM188.045 59.7505C185.849 59.7506 184.068 61.5306 184.068 63.7271V79.6362C184.068 81.8328 185.849 83.6137 188.045 83.6138C190.242 83.6138 192.023 81.8328 192.023 79.6362V63.7271C192.023 61.5306 190.242 59.7505 188.045 59.7505ZM211.91 59.7505C209.713 59.7505 207.932 61.5306 207.932 63.7271V79.6362C207.932 81.8328 209.713 83.6138 211.91 83.6138C214.106 83.6135 215.886 81.8327 215.886 79.6362V63.7271C215.886 61.5307 214.106 59.7507 211.91 59.7505Z" fill="black"/>
<path d="M209.697 19.9771C217.261 19.9771 224.517 22.9825 229.866 28.3315L255.259 53.7261C260.608 59.075 263.614 66.3295 263.614 73.894V167.136C263.614 178.107 254.697 187.023 243.727 187.023H148.273C137.302 187.023 128.386 178.107 128.386 167.136V39.8638C128.386 28.8933 137.302 19.9771 148.273 19.9771H209.697ZM164.182 59.7505C161.986 59.7505 160.205 61.5306 160.204 63.7271V79.6362C160.204 81.8328 161.985 83.6138 164.182 83.6138C166.379 83.6137 168.16 81.8328 168.16 79.6362V63.7271C168.159 61.5306 166.378 59.7506 164.182 59.7505ZM188.045 59.7505C185.849 59.7506 184.068 61.5306 184.068 63.7271V79.6362C184.068 81.8328 185.849 83.6137 188.045 83.6138C190.242 83.6138 192.023 81.8328 192.023 79.6362V63.7271C192.023 61.5306 190.242 59.7505 188.045 59.7505ZM211.91 59.7505C209.713 59.7505 207.932 61.5306 207.932 63.7271V79.6362C207.932 81.8328 209.713 83.6138 211.91 83.6138C214.106 83.6135 215.886 81.8327 215.886 79.6362V63.7271C215.886 61.5307 214.106 59.7507 211.91 59.7505Z" fill="url(#paint1_linear_188_234)"/>
<path d="M209.697 19.9771C217.261 19.9771 224.517 22.9825 229.866 28.3315L255.259 53.7261C260.608 59.075 263.614 66.3295 263.614 73.894V167.136C263.614 178.107 254.697 187.023 243.727 187.023H148.273C137.302 187.023 128.386 178.107 128.386 167.136V39.8638C128.386 28.8933 137.302 19.9771 148.273 19.9771H209.697ZM164.182 59.7505C161.986 59.7505 160.205 61.5306 160.204 63.7271V79.6362C160.204 81.8328 161.985 83.6138 164.182 83.6138C166.379 83.6137 168.16 81.8328 168.16 79.6362V63.7271C168.159 61.5306 166.378 59.7506 164.182 59.7505ZM188.045 59.7505C185.849 59.7506 184.068 61.5306 184.068 63.7271V79.6362C184.068 81.8328 185.849 83.6137 188.045 83.6138C190.242 83.6138 192.023 81.8328 192.023 79.6362V63.7271C192.023 61.5306 190.242 59.7505 188.045 59.7505ZM211.91 59.7505C209.713 59.7505 207.932 61.5306 207.932 63.7271V79.6362C207.932 81.8328 209.713 83.6138 211.91 83.6138C214.106 83.6135 215.886 81.8327 215.886 79.6362V63.7271C215.886 61.5307 214.106 59.7507 211.91 59.7505Z" stroke="white" stroke-width="7.95455"/>
<g opacity="0.2">
<path d="M366.06 51.977C373.625 51.977 380.88 54.9824 386.229 60.3315L411.623 85.726C416.972 91.075 419.977 98.3294 419.977 105.894V199.136C419.977 210.107 411.061 219.023 400.091 219.023H304.636C293.666 219.023 284.75 210.107 284.75 199.136V71.8637C284.75 60.8933 293.666 51.977 304.636 51.977H366.06ZM320.546 91.7504C318.349 91.7504 316.568 93.5305 316.568 95.727V111.636C316.568 113.833 318.349 115.614 320.546 115.614C322.742 115.614 324.523 113.833 324.523 111.636V95.727C324.523 93.5306 322.742 91.7505 320.546 91.7504ZM344.409 91.7504C342.213 91.7505 340.432 93.5306 340.431 95.727V111.636C340.431 113.833 342.212 115.614 344.409 115.614C346.606 115.614 348.386 113.833 348.386 111.636V95.727C348.386 93.5305 346.605 91.7504 344.409 91.7504ZM368.273 91.7504C366.077 91.7504 364.296 93.5305 364.296 95.727V111.636C364.296 113.833 366.077 115.614 368.273 115.614C370.47 115.613 372.25 113.833 372.25 111.636V95.727C372.25 93.5307 370.469 91.7507 368.273 91.7504Z" fill="black"/>
<path d="M366.06 51.977C373.625 51.977 380.88 54.9824 386.229 60.3315L411.623 85.726C416.972 91.075 419.977 98.3294 419.977 105.894V199.136C419.977 210.107 411.061 219.023 400.091 219.023H304.636C293.666 219.023 284.75 210.107 284.75 199.136V71.8637C284.75 60.8933 293.666 51.977 304.636 51.977H366.06ZM320.546 91.7504C318.349 91.7504 316.568 93.5305 316.568 95.727V111.636C316.568 113.833 318.349 115.614 320.546 115.614C322.742 115.614 324.523 113.833 324.523 111.636V95.727C324.523 93.5306 322.742 91.7505 320.546 91.7504ZM344.409 91.7504C342.213 91.7505 340.432 93.5306 340.431 95.727V111.636C340.431 113.833 342.212 115.614 344.409 115.614C346.606 115.614 348.386 113.833 348.386 111.636V95.727C348.386 93.5305 346.605 91.7504 344.409 91.7504ZM368.273 91.7504C366.077 91.7504 364.296 93.5305 364.296 95.727V111.636C364.296 113.833 366.077 115.614 368.273 115.614C370.47 115.613 372.25 113.833 372.25 111.636V95.727C372.25 93.5307 370.469 91.7507 368.273 91.7504Z" fill="url(#paint2_linear_188_234)"/>
<path d="M366.06 51.977C373.625 51.977 380.88 54.9824 386.229 60.3315L411.623 85.726C416.972 91.075 419.977 98.3294 419.977 105.894V199.136C419.977 210.107 411.061 219.023 400.091 219.023H304.636C293.666 219.023 284.75 210.107 284.75 199.136V71.8637C284.75 60.8933 293.666 51.977 304.636 51.977H366.06ZM320.546 91.7504C318.349 91.7504 316.568 93.5305 316.568 95.727V111.636C316.568 113.833 318.349 115.614 320.546 115.614C322.742 115.614 324.523 113.833 324.523 111.636V95.727C324.523 93.5306 322.742 91.7505 320.546 91.7504ZM344.409 91.7504C342.213 91.7505 340.432 93.5306 340.431 95.727V111.636C340.431 113.833 342.212 115.614 344.409 115.614C346.606 115.614 348.386 113.833 348.386 111.636V95.727C348.386 93.5305 346.605 91.7504 344.409 91.7504ZM368.273 91.7504C366.077 91.7504 364.296 93.5305 364.296 95.727V111.636C364.296 113.833 366.077 115.614 368.273 115.614C370.47 115.613 372.25 113.833 372.25 111.636V95.727C372.25 93.5307 370.469 91.7507 368.273 91.7504Z" stroke="white" stroke-width="7.95455"/>
</g>
<defs>
<linearGradient id="paint0_linear_188_234" x1="39.6364" y1="7.95453" x2="39.6364" y2="167.045" gradientUnits="userSpaceOnUse">
<stop stop-color="#1397F6"/>
<stop offset="1" stop-color="#A1D7FF"/>
</linearGradient>
<linearGradient id="paint1_linear_188_234" x1="196" y1="23.9546" x2="196" y2="183.046" gradientUnits="userSpaceOnUse">
<stop stop-color="#1397F6"/>
<stop offset="1" stop-color="#A1D7FF"/>
</linearGradient>
<linearGradient id="paint2_linear_188_234" x1="352.364" y1="55.9545" x2="352.364" y2="215.045" gradientUnits="userSpaceOnUse">
<stop stop-color="#1397F6"/>
<stop offset="1" stop-color="#A1D7FF"/>
</linearGradient>
</defs>
</svg>
