<svg width="278" height="221" viewBox="0 0 278 221" fill="none" xmlns="http://www.w3.org/2000/svg">
<rect x="63.7959" y="35.7958" width="149.408" height="149.408" rx="74.7042" stroke="#FF7A3C" stroke-opacity="0.32" stroke-width="1.03756"/>
<rect x="83.5095" y="55.5094" width="109.981" height="109.981" rx="54.9906" stroke="#FF7A3C" stroke-opacity="0.44" stroke-width="1.03756"/>
<rect x="46.1572" y="18.1573" width="184.685" height="184.685" rx="92.3427" stroke="#FF7A3C" stroke-opacity="0.2" stroke-width="1.03756"/>
<rect x="28.5188" y="0.518779" width="219.962" height="219.962" rx="109.981" stroke="#FF7A3C" stroke-opacity="0.08" stroke-width="1.03756"/>
<path d="M20.4727 75.8981C17.6832 75.898 15.049 75.2345 12.7178 74.0582C12.2254 74.3282 11.7151 74.577 11.1855 74.7985C7.48421 76.3466 3.53039 76.3955 0 75.2233C2.36536 72.9952 4.31617 70.4483 5.79785 67.7086C4.17187 65.0778 3.23242 61.9777 3.23242 58.6578H20.4727V75.8981Z" fill="#3F474D"/>
<path d="M3.23267 36.7287C3.23267 29.5875 9.02173 23.7985 16.1629 23.7985H20.473V59.7353H3.23267V36.7287Z" fill="#3F474D"/>
<path d="M278 36.7287C278 29.5875 272.211 23.7985 265.07 23.7985H19.3954V76.0388H265.07C272.211 76.0388 278 70.2497 278 63.1085V36.7287Z" fill="#3F474D"/>
<path d="M19.9677 37.192V35.9641H27.2848V37.192H24.3349V45.4186H22.913V37.192H19.9677ZM28.0546 45.4186V38.3277H29.3888V39.4541H29.4626C29.5919 39.0725 29.8197 38.7724 30.1459 38.5539C30.4752 38.3323 30.8476 38.2215 31.2631 38.2215C31.3492 38.2215 31.4508 38.2246 31.5678 38.2308C31.6878 38.2369 31.7817 38.2446 31.8494 38.2538V39.5741C31.794 39.5588 31.6955 39.5418 31.5539 39.5234C31.4123 39.5018 31.2708 39.4911 31.1292 39.4911C30.803 39.4911 30.5121 39.5603 30.2567 39.6988C30.0043 39.8342 29.8043 40.0235 29.6565 40.2666C29.5088 40.5067 29.4349 40.7806 29.4349 41.0884V45.4186H28.0546ZM35.044 45.5756C34.5946 45.5756 34.1884 45.4925 33.8252 45.3263C33.4621 45.157 33.1743 44.9123 32.9619 44.5923C32.7527 44.2722 32.648 43.8798 32.648 43.4151C32.648 43.015 32.725 42.6857 32.8788 42.4271C33.0327 42.1686 33.2405 41.9639 33.5021 41.8131C33.7637 41.6623 34.056 41.5485 34.3792 41.4715C34.7023 41.3946 35.0317 41.3361 35.3671 41.2961C35.7918 41.2469 36.1365 41.2068 36.4012 41.1761C36.6659 41.1422 36.8582 41.0884 36.9783 41.0145C37.0983 40.9406 37.1583 40.8206 37.1583 40.6544V40.6221C37.1583 40.2189 37.0444 39.9065 36.8167 39.6849C36.592 39.4634 36.2566 39.3526 35.8103 39.3526C35.3456 39.3526 34.9793 39.4557 34.7116 39.6619C34.4469 39.865 34.2638 40.0912 34.1622 40.3405L32.865 40.045C33.0189 39.6142 33.2435 39.2664 33.539 39.0017C33.8375 38.734 34.1807 38.5401 34.5685 38.42C34.9563 38.2969 35.364 38.2354 35.7918 38.2354C36.075 38.2354 36.3751 38.2692 36.6921 38.3369C37.0121 38.4016 37.3107 38.5216 37.5876 38.697C37.8677 38.8724 38.097 39.1233 38.2755 39.4495C38.454 39.7727 38.5433 40.1928 38.5433 40.7098V45.4186H37.1952V44.4491H37.1398C37.0506 44.6277 36.9167 44.8031 36.7382 44.9754C36.5597 45.1478 36.3304 45.2909 36.0504 45.4048C35.7703 45.5186 35.4348 45.5756 35.044 45.5756ZM35.344 44.4676C35.7257 44.4676 36.0519 44.3922 36.3227 44.2414C36.5966 44.0906 36.8044 43.8936 36.946 43.6505C37.0906 43.4043 37.1629 43.1411 37.1629 42.8611V41.947C37.1137 41.9963 37.0183 42.0424 36.8767 42.0855C36.7382 42.1255 36.5797 42.1609 36.4012 42.1917C36.2227 42.2194 36.0488 42.2456 35.8796 42.2702C35.7103 42.2917 35.5687 42.3102 35.4548 42.3256C35.1871 42.3594 34.9424 42.4164 34.7208 42.4964C34.5023 42.5764 34.3269 42.6918 34.1945 42.8426C34.0653 42.9903 34.0006 43.1873 34.0006 43.4335C34.0006 43.7751 34.1268 44.0337 34.3792 44.2091C34.6316 44.3814 34.9532 44.4676 35.344 44.4676ZM43.7564 38.3277V39.4357H39.7493V38.3277H43.7564ZM40.848 45.4186V37.506C40.848 37.0628 40.945 36.695 41.1389 36.4026C41.3328 36.1072 41.5897 35.8871 41.9098 35.7425C42.2299 35.5947 42.5777 35.5209 42.9531 35.5209C43.2301 35.5209 43.4671 35.544 43.6641 35.5901C43.8611 35.6332 44.0072 35.6732 44.1027 35.7102L43.7795 36.8273C43.7149 36.8089 43.6318 36.7873 43.5302 36.7627C43.4286 36.735 43.3055 36.7212 43.1609 36.7212C42.8254 36.7212 42.5854 36.8043 42.4407 36.9705C42.2991 37.1366 42.2284 37.3767 42.2284 37.6906V45.4186H40.848ZM48.5552 38.3277V39.4357H44.5481V38.3277H48.5552ZM45.6469 45.4186V37.506C45.6469 37.0628 45.7438 36.695 45.9377 36.4026C46.1316 36.1072 46.3886 35.8871 46.7087 35.7425C47.0287 35.5947 47.3765 35.5209 47.752 35.5209C48.029 35.5209 48.2659 35.544 48.4629 35.5901C48.6599 35.6332 48.8061 35.6732 48.9015 35.7102L48.5783 36.8273C48.5137 36.8089 48.4306 36.7873 48.329 36.7627C48.2275 36.735 48.1044 36.7212 47.9597 36.7212C47.6243 36.7212 47.3842 36.8043 47.2395 36.9705C47.098 37.1366 47.0272 37.3767 47.0272 37.6906V45.4186H45.6469ZM49.9794 45.4186V38.3277H51.3598V45.4186H49.9794ZM50.6765 37.2336C50.4365 37.2336 50.2303 37.1536 50.0579 36.9935C49.8886 36.8304 49.804 36.6365 49.804 36.4119C49.804 36.1841 49.8886 35.9902 50.0579 35.8302C50.2303 35.6671 50.4365 35.5855 50.6765 35.5855C50.9166 35.5855 51.1212 35.6671 51.2905 35.8302C51.4629 35.9902 51.549 36.1841 51.549 36.4119C51.549 36.6365 51.4629 36.8304 51.2905 36.9935C51.1212 37.1536 50.9166 37.2336 50.6765 37.2336ZM56.2036 45.5617C55.5173 45.5617 54.9264 45.4063 54.4309 45.0955C53.9384 44.7815 53.5599 44.3491 53.2952 43.7982C53.0305 43.2473 52.8982 42.6164 52.8982 41.9055C52.8982 41.1853 53.0336 40.5498 53.3044 39.9989C53.5753 39.4449 53.9569 39.0125 54.4493 38.7016C54.9418 38.3908 55.5219 38.2354 56.1897 38.2354C56.7283 38.2354 57.2084 38.3354 57.6301 38.5354C58.0517 38.7324 58.3918 39.0094 58.6503 39.3664C58.9119 39.7234 59.0673 40.1404 59.1166 40.6175H57.7732C57.6993 40.2851 57.5301 39.9989 57.2654 39.7588C57.0038 39.5188 56.6529 39.3987 56.2128 39.3987C55.8281 39.3987 55.4911 39.5003 55.2018 39.7034C54.9156 39.9035 54.6925 40.1897 54.5324 40.5621C54.3724 40.9314 54.2924 41.3684 54.2924 41.8732C54.2924 42.3902 54.3708 42.8365 54.5278 43.2119C54.6848 43.5874 54.9064 43.8782 55.1926 44.0844C55.4819 44.2907 55.822 44.3938 56.2128 44.3938C56.4744 44.3938 56.7114 44.346 56.9238 44.2506C57.1392 44.1522 57.3192 44.0121 57.4639 43.8305C57.6116 43.649 57.7147 43.4304 57.7732 43.175H59.1166C59.0673 43.6336 58.9181 44.0429 58.6688 44.403C58.4195 44.7631 58.0856 45.0462 57.667 45.2524C57.2515 45.4586 56.7637 45.5617 56.2036 45.5617ZM64.0331 45.4186V38.3277H65.4135V45.4186H64.0331ZM64.7302 37.2336C64.4902 37.2336 64.284 37.1536 64.1116 36.9935C63.9423 36.8304 63.8577 36.6365 63.8577 36.4119C63.8577 36.1841 63.9423 35.9902 64.1116 35.8302C64.284 35.6671 64.4902 35.5855 64.7302 35.5855C64.9703 35.5855 65.1749 35.6671 65.3442 35.8302C65.5166 35.9902 65.6027 36.1841 65.6027 36.4119C65.6027 36.6365 65.5166 36.8304 65.3442 36.9935C65.1749 37.1536 64.9703 37.2336 64.7302 37.2336ZM72.584 40.0589L71.3329 40.2805C71.2806 40.1204 71.1975 39.9681 71.0837 39.8234C70.9729 39.6788 70.8221 39.5603 70.6312 39.468C70.4404 39.3756 70.2019 39.3295 69.9157 39.3295C69.5248 39.3295 69.1986 39.4172 68.937 39.5926C68.6754 39.765 68.5446 39.9881 68.5446 40.262C68.5446 40.499 68.6323 40.6898 68.8077 40.8344C68.9832 40.9791 69.2663 41.0976 69.6572 41.1899L70.7836 41.4484C71.436 41.5992 71.9223 41.8316 72.2424 42.1455C72.5625 42.4594 72.7225 42.8672 72.7225 43.3689C72.7225 43.7936 72.5994 44.1722 72.3532 44.5045C72.11 44.8339 71.77 45.0924 71.3329 45.2801C70.899 45.4679 70.3958 45.5617 69.8234 45.5617C69.0293 45.5617 68.3815 45.3924 67.8798 45.0539C67.3782 44.7123 67.0704 44.2276 66.9565 43.5997L68.2907 43.3966C68.3738 43.7444 68.5446 44.0075 68.8031 44.186C69.0616 44.3614 69.3986 44.4491 69.8141 44.4491C70.2665 44.4491 70.6282 44.3553 70.899 44.1675C71.1698 43.9767 71.3052 43.7444 71.3052 43.4705C71.3052 43.2489 71.2221 43.0627 71.056 42.9119C70.8928 42.7611 70.642 42.6472 70.3035 42.5702L69.1032 42.3071C68.4415 42.1563 67.9521 41.9162 67.6351 41.5869C67.3212 41.2576 67.1643 40.8406 67.1643 40.3359C67.1643 39.9173 67.2812 39.5511 67.5151 39.2371C67.749 38.9232 68.0722 38.6786 68.4846 38.5031C68.897 38.3246 69.3694 38.2354 69.9018 38.2354C70.6682 38.2354 71.2714 38.4016 71.7115 38.734C72.1516 39.0633 72.4424 39.5049 72.584 40.0589ZM79.0609 41.2084V45.4186H77.6806V35.9641H79.0425V39.4818H79.1302C79.2964 39.1002 79.5503 38.797 79.8919 38.5724C80.2335 38.3477 80.6798 38.2354 81.2307 38.2354C81.7169 38.2354 82.1417 38.3354 82.5048 38.5354C82.8711 38.7355 83.1542 39.034 83.3542 39.431C83.5574 39.825 83.6589 40.3174 83.6589 40.9083V45.4186H82.2786V41.0745C82.2786 40.5544 82.1447 40.1512 81.877 39.865C81.6092 39.5757 81.2368 39.431 80.7598 39.431C80.4336 39.431 80.1412 39.5003 79.8827 39.6388C79.6272 39.7773 79.4256 39.9804 79.2779 40.2482C79.1332 40.5128 79.0609 40.8329 79.0609 41.2084ZM88.557 45.5617C87.8584 45.5617 87.2567 45.4125 86.752 45.1139C86.2503 44.8123 85.8625 44.3891 85.5886 43.8444C85.3178 43.2966 85.1824 42.6549 85.1824 41.9193C85.1824 41.193 85.3178 40.5528 85.5886 39.9989C85.8625 39.4449 86.2442 39.0125 86.7335 38.7016C87.2259 38.3908 87.8015 38.2354 88.4601 38.2354C88.8602 38.2354 89.248 38.3015 89.6234 38.4339C89.9989 38.5662 90.3359 38.774 90.6344 39.0571C90.933 39.3402 91.1684 39.708 91.3408 40.1604C91.5131 40.6098 91.5993 41.1561 91.5993 41.7993V42.2886H85.9626V41.2545H90.2466C90.2466 40.8914 90.1728 40.5698 90.0251 40.2897C89.8773 40.0066 89.6696 39.7834 89.4018 39.6203C89.1372 39.4572 88.8263 39.3756 88.4693 39.3756C88.0815 39.3756 87.743 39.471 87.4537 39.6619C87.1675 39.8496 86.9459 40.0958 86.7889 40.4005C86.635 40.7021 86.5581 41.0299 86.5581 41.3838V42.1917C86.5581 42.6657 86.6412 43.0688 86.8074 43.4012C86.9766 43.7336 87.2121 43.9875 87.5137 44.1629C87.8153 44.3353 88.1677 44.4215 88.5709 44.4215C88.8325 44.4215 89.071 44.3845 89.2864 44.3107C89.5019 44.2337 89.6881 44.1198 89.845 43.969C90.002 43.8182 90.122 43.632 90.2051 43.4104L91.5116 43.6459C91.4069 44.0306 91.2192 44.3676 90.9484 44.6569C90.6806 44.9431 90.3436 45.1662 89.9373 45.3263C89.5342 45.4832 89.0741 45.5617 88.557 45.5617ZM95.1944 45.5756C94.745 45.5756 94.3388 45.4925 93.9756 45.3263C93.6124 45.157 93.3247 44.9123 93.1123 44.5923C92.903 44.2722 92.7984 43.8798 92.7984 43.4151C92.7984 43.015 92.8753 42.6857 93.0292 42.4271C93.1831 42.1686 93.3909 41.9639 93.6525 41.8131C93.9141 41.6623 94.2064 41.5485 94.5296 41.4715C94.8527 41.3946 95.182 41.3361 95.5175 41.2961C95.9422 41.2469 96.2869 41.2068 96.5516 41.1761C96.8163 41.1422 97.0086 41.0884 97.1287 41.0145C97.2487 40.9406 97.3087 40.8206 97.3087 40.6544V40.6221C97.3087 40.2189 97.1948 39.9065 96.9671 39.6849C96.7424 39.4634 96.407 39.3526 95.9607 39.3526C95.496 39.3526 95.1297 39.4557 94.862 39.6619C94.5973 39.865 94.4142 40.0912 94.3126 40.3405L93.0154 40.045C93.1693 39.6142 93.3939 39.2664 93.6894 39.0017C93.9879 38.734 94.3311 38.5401 94.7189 38.42C95.1066 38.2969 95.5144 38.2354 95.9422 38.2354C96.2254 38.2354 96.5254 38.2692 96.8424 38.3369C97.1625 38.4016 97.461 38.5216 97.738 38.697C98.0181 38.8724 98.2474 39.1233 98.4259 39.4495C98.6044 39.7727 98.6936 40.1928 98.6936 40.7098V45.4186H97.3456V44.4491H97.2902C97.201 44.6277 97.0671 44.8031 96.8886 44.9754C96.7101 45.1478 96.4808 45.2909 96.2008 45.4048C95.9207 45.5186 95.5852 45.5756 95.1944 45.5756ZM95.4944 44.4676C95.8761 44.4676 96.2023 44.3922 96.4731 44.2414C96.747 44.0906 96.9548 43.8936 97.0963 43.6505C97.241 43.4043 97.3133 43.1411 97.3133 42.8611V41.947C97.2641 41.9963 97.1687 42.0424 97.0271 42.0855C96.8886 42.1255 96.7301 42.1609 96.5516 42.1917C96.3731 42.2194 96.1992 42.2456 96.0299 42.2702C95.8607 42.2917 95.7191 42.3102 95.6052 42.3256C95.3375 42.3594 95.0928 42.4164 94.8712 42.4964C94.6527 42.5764 94.4773 42.6918 94.3449 42.8426C94.2157 42.9903 94.151 43.1873 94.151 43.4335C94.151 43.7751 94.2772 44.0337 94.5296 44.2091C94.782 44.3814 95.1036 44.4676 95.4944 44.4676ZM106.344 38.3277L103.773 45.4186H102.296L99.7197 38.3277H101.202L102.997 43.7844H103.071L104.862 38.3277H106.344ZM108.514 48.0777C108.308 48.0777 108.12 48.0608 107.951 48.0269C107.782 47.9961 107.655 47.9623 107.572 47.9254L107.905 46.7943C108.157 46.862 108.382 46.8913 108.579 46.882C108.776 46.8728 108.95 46.7989 109.1 46.6604C109.254 46.5219 109.39 46.2957 109.507 45.9818L109.677 45.5109L107.083 38.3277H108.56L110.356 43.8305H110.43L112.226 38.3277H113.708L110.785 46.365C110.65 46.7343 110.478 47.0467 110.268 47.3021C110.059 47.5607 109.81 47.7545 109.52 47.8838C109.231 48.0131 108.896 48.0777 108.514 48.0777ZM118.445 45.4186V38.3277H119.826V45.4186H118.445ZM119.142 37.2336C118.902 37.2336 118.696 37.1536 118.524 36.9935C118.354 36.8304 118.27 36.6365 118.27 36.4119C118.27 36.1841 118.354 35.9902 118.524 35.8302C118.696 35.6671 118.902 35.5855 119.142 35.5855C119.382 35.5855 119.587 35.6671 119.756 35.8302C119.929 35.9902 120.015 36.1841 120.015 36.4119C120.015 36.6365 119.929 36.8304 119.756 36.9935C119.587 37.1536 119.382 37.2336 119.142 37.2336ZM123.063 41.2084V45.4186H121.683V38.3277H123.007V39.4818H123.095C123.258 39.1063 123.514 38.8047 123.862 38.577C124.212 38.3492 124.654 38.2354 125.186 38.2354C125.67 38.2354 126.093 38.3369 126.456 38.5401C126.819 38.7401 127.101 39.0386 127.301 39.4357C127.501 39.8327 127.601 40.3236 127.601 40.9083V45.4186H126.221V41.0745C126.221 40.5605 126.087 40.1589 125.819 39.8696C125.551 39.5772 125.183 39.431 124.716 39.431C124.396 39.431 124.111 39.5003 123.862 39.6388C123.615 39.7773 123.42 39.9804 123.275 40.2482C123.134 40.5128 123.063 40.8329 123.063 41.2084ZM133.765 48.0777C133.559 48.0777 133.371 48.0608 133.202 48.0269C133.033 47.9961 132.906 47.9623 132.823 47.9254L133.156 46.7943C133.408 46.862 133.633 46.8913 133.83 46.882C134.027 46.8728 134.201 46.7989 134.351 46.6604C134.505 46.5219 134.641 46.2957 134.758 45.9818L134.928 45.5109L132.334 38.3277H133.811L135.607 43.8305H135.681L137.477 38.3277H138.959L136.036 46.365C135.901 46.7343 135.729 47.0467 135.519 47.3021C135.31 47.5607 135.061 47.7545 134.771 47.8838C134.482 48.0131 134.147 48.0777 133.765 48.0777ZM143.001 45.5617C142.337 45.5617 141.757 45.4094 141.261 45.1047C140.766 44.8 140.381 44.3737 140.107 43.8259C139.833 43.2781 139.696 42.638 139.696 41.9055C139.696 41.1699 139.833 40.5267 140.107 39.9758C140.381 39.4249 140.766 38.9971 141.261 38.6924C141.757 38.3877 142.337 38.2354 143.001 38.2354C143.666 38.2354 144.246 38.3877 144.742 38.6924C145.237 38.9971 145.622 39.4249 145.896 39.9758C146.17 40.5267 146.307 41.1699 146.307 41.9055C146.307 42.638 146.17 43.2781 145.896 43.8259C145.622 44.3737 145.237 44.8 144.742 45.1047C144.246 45.4094 143.666 45.5617 143.001 45.5617ZM143.006 44.403C143.437 44.403 143.794 44.2891 144.077 44.0614C144.36 43.8336 144.57 43.5305 144.705 43.1519C144.843 42.7734 144.913 42.3563 144.913 41.9009C144.913 41.4484 144.843 41.033 144.705 40.6544C144.57 40.2728 144.36 39.9665 144.077 39.7357C143.794 39.5049 143.437 39.3895 143.006 39.3895C142.572 39.3895 142.212 39.5049 141.926 39.7357C141.643 39.9665 141.432 40.2728 141.293 40.6544C141.158 41.033 141.09 41.4484 141.09 41.9009C141.09 42.3563 141.158 42.7734 141.293 43.1519C141.432 43.5305 141.643 43.8336 141.926 44.0614C142.212 44.2891 142.572 44.403 143.006 44.403ZM152.339 42.4779V38.3277H153.724V45.4186H152.367V44.1906H152.293C152.13 44.5692 151.869 44.8846 151.508 45.137C151.151 45.3863 150.707 45.5109 150.174 45.5109C149.719 45.5109 149.316 45.4109 148.965 45.2109C148.617 45.0077 148.343 44.7077 148.143 44.3107C147.946 43.9136 147.848 43.4228 147.848 42.838V38.3277H149.228V42.6718C149.228 43.155 149.362 43.5397 149.63 43.8259C149.897 44.1121 150.245 44.2553 150.673 44.2553C150.931 44.2553 151.188 44.1906 151.444 44.0614C151.702 43.9321 151.916 43.7367 152.086 43.4751C152.258 43.2135 152.342 42.8811 152.339 42.4779ZM155.579 45.4186V38.3277H156.913V39.4541H156.987C157.116 39.0725 157.344 38.7724 157.67 38.5539C158 38.3323 158.372 38.2215 158.787 38.2215C158.874 38.2215 158.975 38.2246 159.092 38.2308C159.212 38.2369 159.306 38.2446 159.374 38.2538V39.5741C159.318 39.5588 159.22 39.5418 159.078 39.5234C158.937 39.5018 158.795 39.4911 158.654 39.4911C158.327 39.4911 158.037 39.5603 157.781 39.6988C157.529 39.8342 157.329 40.0235 157.181 40.2666C157.033 40.5067 156.959 40.7806 156.959 41.0884V45.4186H155.579ZM166.072 45.5756C165.623 45.5756 165.217 45.4925 164.854 45.3263C164.49 45.157 164.203 44.9123 163.99 44.5923C163.781 44.2722 163.676 43.8798 163.676 43.4151C163.676 43.015 163.753 42.6857 163.907 42.4271C164.061 42.1686 164.269 41.9639 164.53 41.8131C164.792 41.6623 165.084 41.5485 165.408 41.4715C165.731 41.3946 166.06 41.3361 166.395 41.2961C166.82 41.2469 167.165 41.2068 167.43 41.1761C167.694 41.1422 167.887 41.0884 168.007 41.0145C168.127 40.9406 168.187 40.8206 168.187 40.6544V40.6221C168.187 40.2189 168.073 39.9065 167.845 39.6849C167.62 39.4634 167.285 39.3526 166.839 39.3526C166.374 39.3526 166.008 39.4557 165.74 39.6619C165.475 39.865 165.292 40.0912 165.191 40.3405L163.893 40.045C164.047 39.6142 164.272 39.2664 164.567 39.0017C164.866 38.734 165.209 38.5401 165.597 38.42C165.985 38.2969 166.392 38.2354 166.82 38.2354C167.103 38.2354 167.403 38.2692 167.72 38.3369C168.04 38.4016 168.339 38.5216 168.616 38.697C168.896 38.8724 169.125 39.1233 169.304 39.4495C169.482 39.7727 169.572 40.1928 169.572 40.7098V45.4186H168.224V44.4491H168.168C168.079 44.6277 167.945 44.8031 167.767 44.9754C167.588 45.1478 167.359 45.2909 167.079 45.4048C166.799 45.5186 166.463 45.5756 166.072 45.5756ZM166.372 44.4676C166.754 44.4676 167.08 44.3922 167.351 44.2414C167.625 44.0906 167.833 43.8936 167.974 43.6505C168.119 43.4043 168.191 43.1411 168.191 42.8611V41.947C168.142 41.9963 168.047 42.0424 167.905 42.0855C167.767 42.1255 167.608 42.1609 167.43 42.1917C167.251 42.2194 167.077 42.2456 166.908 42.2702C166.739 42.2917 166.597 42.3102 166.483 42.3256C166.215 42.3594 165.971 42.4164 165.749 42.4964C165.531 42.5764 165.355 42.6918 165.223 42.8426C165.094 42.9903 165.029 43.1873 165.029 43.4335C165.029 43.7751 165.155 44.0337 165.408 44.2091C165.66 44.3814 165.981 44.4676 166.372 44.4676ZM171.41 45.4186V38.3277H172.744V39.4541H172.818C172.947 39.0725 173.175 38.7724 173.501 38.5539C173.831 38.3323 174.203 38.2215 174.619 38.2215C174.705 38.2215 174.806 38.2246 174.923 38.2308C175.043 38.2369 175.137 38.2446 175.205 38.2538V39.5741C175.149 39.5588 175.051 39.5418 174.909 39.5234C174.768 39.5018 174.626 39.4911 174.485 39.4911C174.158 39.4911 173.868 39.5603 173.612 39.6988C173.36 39.8342 173.16 40.0235 173.012 40.2666C172.864 40.5067 172.79 40.7806 172.79 41.0884V45.4186H171.41ZM179.202 45.5617C178.503 45.5617 177.901 45.4125 177.397 45.1139C176.895 44.8123 176.507 44.3891 176.233 43.8444C175.962 43.2966 175.827 42.6549 175.827 41.9193C175.827 41.193 175.962 40.5528 176.233 39.9989C176.507 39.4449 176.889 39.0125 177.378 38.7016C177.87 38.3908 178.446 38.2354 179.105 38.2354C179.505 38.2354 179.892 38.3015 180.268 38.4339C180.643 38.5662 180.98 38.774 181.279 39.0571C181.577 39.3402 181.813 39.708 181.985 40.1604C182.158 40.6098 182.244 41.1561 182.244 41.7993V42.2886H176.607V41.2545H180.891C180.891 40.8914 180.817 40.5698 180.67 40.2897C180.522 40.0066 180.314 39.7834 180.046 39.6203C179.782 39.4572 179.471 39.3756 179.114 39.3756C178.726 39.3756 178.388 39.471 178.098 39.6619C177.812 39.8496 177.59 40.0958 177.433 40.4005C177.28 40.7021 177.203 41.0299 177.203 41.3838V42.1917C177.203 42.6657 177.286 43.0688 177.452 43.4012C177.621 43.7336 177.857 43.9875 178.158 44.1629C178.46 44.3353 178.812 44.4215 179.215 44.4215C179.477 44.4215 179.716 44.3845 179.931 44.3107C180.146 44.2337 180.333 44.1198 180.49 43.969C180.647 43.8182 180.767 43.632 180.85 43.4104L182.156 43.6459C182.051 44.0306 181.864 44.3676 181.593 44.6569C181.325 44.9431 180.988 45.1662 180.582 45.3263C180.179 45.4832 179.719 45.5617 179.202 45.5617ZM185.839 45.5756C185.39 45.5756 184.983 45.4925 184.62 45.3263C184.257 45.157 183.969 44.9123 183.757 44.5923C183.548 44.2722 183.443 43.8798 183.443 43.4151C183.443 43.015 183.52 42.6857 183.674 42.4271C183.828 42.1686 184.035 41.9639 184.297 41.8131C184.559 41.6623 184.851 41.5485 185.174 41.4715C185.497 41.3946 185.827 41.3361 186.162 41.2961C186.587 41.2469 186.931 41.2068 187.196 41.1761C187.461 41.1422 187.653 41.0884 187.773 41.0145C187.893 40.9406 187.953 40.8206 187.953 40.6544V40.6221C187.953 40.2189 187.839 39.9065 187.612 39.6849C187.387 39.4634 187.051 39.3526 186.605 39.3526C186.14 39.3526 185.774 39.4557 185.507 39.6619C185.242 39.865 185.059 40.0912 184.957 40.3405L183.66 40.045C183.814 39.6142 184.038 39.2664 184.334 39.0017C184.632 38.734 184.976 38.5401 185.363 38.42C185.751 38.2969 186.159 38.2354 186.587 38.2354C186.87 38.2354 187.17 38.2692 187.487 38.3369C187.807 38.4016 188.106 38.5216 188.383 38.697C188.663 38.8724 188.892 39.1233 189.07 39.4495C189.249 39.7727 189.338 40.1928 189.338 40.7098V45.4186H187.99V44.4491H187.935C187.846 44.6277 187.712 44.8031 187.533 44.9754C187.355 45.1478 187.125 45.2909 186.845 45.4048C186.565 45.5186 186.23 45.5756 185.839 45.5756ZM186.139 44.4676C186.521 44.4676 186.847 44.3922 187.118 44.2414C187.392 44.0906 187.599 43.8936 187.741 43.6505C187.886 43.4043 187.958 43.1411 187.958 42.8611V41.947C187.909 41.9963 187.813 42.0424 187.672 42.0855C187.533 42.1255 187.375 42.1609 187.196 42.1917C187.018 42.2194 186.844 42.2456 186.674 42.2702C186.505 42.2917 186.364 42.3102 186.25 42.3256C185.982 42.3594 185.737 42.4164 185.516 42.4964C185.297 42.5764 185.122 42.6918 184.989 42.8426C184.86 42.9903 184.796 43.1873 184.796 43.4335C184.796 43.7751 184.922 44.0337 185.174 44.2091C185.426 44.3814 185.748 44.4676 186.139 44.4676ZM192.086 45.5063C191.834 45.5063 191.617 45.4171 191.435 45.2386C191.254 45.057 191.163 44.8385 191.163 44.583C191.163 44.3307 191.254 44.1152 191.435 43.9367C191.617 43.7551 191.834 43.6643 192.086 43.6643C192.339 43.6643 192.555 43.7551 192.737 43.9367C192.919 44.1152 193.009 44.3307 193.009 44.583C193.009 44.7523 192.966 44.9077 192.88 45.0493C192.797 45.1878 192.686 45.2986 192.548 45.3817C192.409 45.4648 192.255 45.5063 192.086 45.5063ZM198.257 45.4186V35.9641H199.684V44.1906H203.968V45.4186H198.257ZM208.54 45.5617C207.842 45.5617 207.24 45.4125 206.735 45.1139C206.234 44.8123 205.846 44.3891 205.572 43.8444C205.301 43.2966 205.166 42.6549 205.166 41.9193C205.166 41.193 205.301 40.5528 205.572 39.9989C205.846 39.4449 206.228 39.0125 206.717 38.7016C207.209 38.3908 207.785 38.2354 208.443 38.2354C208.844 38.2354 209.231 38.3015 209.607 38.4339C209.982 38.5662 210.319 38.774 210.618 39.0571C210.916 39.3402 211.152 39.708 211.324 40.1604C211.497 40.6098 211.583 41.1561 211.583 41.7993V42.2886H205.946V41.2545H210.23C210.23 40.8914 210.156 40.5698 210.008 40.2897C209.861 40.0066 209.653 39.7834 209.385 39.6203C209.121 39.4572 208.81 39.3756 208.453 39.3756C208.065 39.3756 207.726 39.471 207.437 39.6619C207.151 39.8496 206.929 40.0958 206.772 40.4005C206.618 40.7021 206.541 41.0299 206.541 41.3838V42.1917C206.541 42.6657 206.625 43.0688 206.791 43.4012C206.96 43.7336 207.195 43.9875 207.497 44.1629C207.799 44.3353 208.151 44.4215 208.554 44.4215C208.816 44.4215 209.054 44.3845 209.27 44.3107C209.485 44.2337 209.671 44.1198 209.828 43.969C209.985 43.8182 210.105 43.632 210.188 43.4104L211.495 43.6459C211.39 44.0306 211.203 44.3676 210.932 44.6569C210.664 44.9431 210.327 45.1662 209.921 45.3263C209.518 45.4832 209.057 45.5617 208.54 45.5617ZM215.178 45.5756C214.728 45.5756 214.322 45.4925 213.959 45.3263C213.596 45.157 213.308 44.9123 213.096 44.5923C212.886 44.2722 212.782 43.8798 212.782 43.4151C212.782 43.015 212.859 42.6857 213.013 42.4271C213.167 42.1686 213.374 41.9639 213.636 41.8131C213.897 41.6623 214.19 41.5485 214.513 41.4715C214.836 41.3946 215.165 41.3361 215.501 41.2961C215.926 41.2469 216.27 41.2068 216.535 41.1761C216.8 41.1422 216.992 41.0884 217.112 41.0145C217.232 40.9406 217.292 40.8206 217.292 40.6544V40.6221C217.292 40.2189 217.178 39.9065 216.95 39.6849C216.726 39.4634 216.39 39.3526 215.944 39.3526C215.479 39.3526 215.113 39.4557 214.845 39.6619C214.581 39.865 214.398 40.0912 214.296 40.3405L212.999 40.045C213.153 39.6142 213.377 39.2664 213.673 39.0017C213.971 38.734 214.314 38.5401 214.702 38.42C215.09 38.2969 215.498 38.2354 215.926 38.2354C216.209 38.2354 216.509 38.2692 216.826 38.3369C217.146 38.4016 217.444 38.5216 217.721 38.697C218.002 38.8724 218.231 39.1233 218.409 39.4495C218.588 39.7727 218.677 40.1928 218.677 40.7098V45.4186H217.329V44.4491H217.274C217.184 44.6277 217.051 44.8031 216.872 44.9754C216.693 45.1478 216.464 45.2909 216.184 45.4048C215.904 45.5186 215.569 45.5756 215.178 45.5756ZM215.478 44.4676C215.859 44.4676 216.186 44.3922 216.457 44.2414C216.73 44.0906 216.938 43.8936 217.08 43.6505C217.224 43.4043 217.297 43.1411 217.297 42.8611V41.947C217.247 41.9963 217.152 42.0424 217.01 42.0855C216.872 42.1255 216.714 42.1609 216.535 42.1917C216.356 42.2194 216.183 42.2456 216.013 42.2702C215.844 42.2917 215.702 42.3102 215.589 42.3256C215.321 42.3594 215.076 42.4164 214.855 42.4964C214.636 42.5764 214.461 42.6918 214.328 42.8426C214.199 42.9903 214.134 43.1873 214.134 43.4335C214.134 43.7751 214.261 44.0337 214.513 44.2091C214.765 44.3814 215.087 44.4676 215.478 44.4676ZM226.328 38.3277L223.756 45.4186H222.279L219.703 38.3277H221.185L222.981 43.7844H223.055L224.846 38.3277H226.328ZM230.44 45.5617C229.741 45.5617 229.14 45.4125 228.635 45.1139C228.133 44.8123 227.745 44.3891 227.471 43.8444C227.201 43.2966 227.065 42.6549 227.065 41.9193C227.065 41.193 227.201 40.5528 227.471 39.9989C227.745 39.4449 228.127 39.0125 228.616 38.7016C229.109 38.3908 229.684 38.2354 230.343 38.2354C230.743 38.2354 231.131 38.3015 231.506 38.4339C231.882 38.5662 232.219 38.774 232.517 39.0571C232.816 39.3402 233.051 39.708 233.224 40.1604C233.396 40.6098 233.482 41.1561 233.482 41.7993V42.2886H227.845V41.2545H232.129C232.129 40.8914 232.056 40.5698 231.908 40.2897C231.76 40.0066 231.552 39.7834 231.285 39.6203C231.02 39.4572 230.709 39.3756 230.352 39.3756C229.964 39.3756 229.626 39.471 229.336 39.6619C229.05 39.8496 228.829 40.0958 228.672 40.4005C228.518 40.7021 228.441 41.0299 228.441 41.3838V42.1917C228.441 42.6657 228.524 43.0688 228.69 43.4012C228.859 43.7336 229.095 43.9875 229.397 44.1629C229.698 44.3353 230.051 44.4215 230.454 44.4215C230.715 44.4215 230.954 44.3845 231.169 44.3107C231.385 44.2337 231.571 44.1198 231.728 43.969C231.885 43.8182 232.005 43.632 232.088 43.4104L233.394 43.6459C233.29 44.0306 233.102 44.3676 232.831 44.6569C232.563 44.9431 232.226 45.1662 231.82 45.3263C231.417 45.4832 230.957 45.5617 230.44 45.5617ZM239.834 41.2084V45.4186H238.454V38.3277H239.779V39.4818H239.867C240.03 39.1063 240.285 38.8047 240.633 38.577C240.984 38.3492 241.426 38.2354 241.958 38.2354C242.441 38.2354 242.864 38.3369 243.227 38.5401C243.591 38.7401 243.872 39.0386 244.072 39.4357C244.272 39.8327 244.372 40.3236 244.372 40.9083V45.4186H242.992V41.0745C242.992 40.5605 242.858 40.1589 242.59 39.8696C242.323 39.5772 241.955 39.431 241.487 39.431C241.167 39.431 240.882 39.5003 240.633 39.6388C240.387 39.7773 240.191 39.9804 240.047 40.2482C239.905 40.5128 239.834 40.8329 239.834 41.2084ZM249.21 45.5617C248.546 45.5617 247.966 45.4094 247.47 45.1047C246.975 44.8 246.59 44.3737 246.316 43.8259C246.042 43.2781 245.905 42.638 245.905 41.9055C245.905 41.1699 246.042 40.5267 246.316 39.9758C246.59 39.4249 246.975 38.9971 247.47 38.6924C247.966 38.3877 248.546 38.2354 249.21 38.2354C249.875 38.2354 250.455 38.3877 250.951 38.6924C251.446 38.9971 251.831 39.4249 252.105 39.9758C252.379 40.5267 252.516 41.1699 252.516 41.9055C252.516 42.638 252.379 43.2781 252.105 43.8259C251.831 44.3737 251.446 44.8 250.951 45.1047C250.455 45.4094 249.875 45.5617 249.21 45.5617ZM249.215 44.403C249.646 44.403 250.003 44.2891 250.286 44.0614C250.569 43.8336 250.778 43.5305 250.914 43.1519C251.052 42.7734 251.122 42.3563 251.122 41.9009C251.122 41.4484 251.052 41.033 250.914 40.6544C250.778 40.2728 250.569 39.9665 250.286 39.7357C250.003 39.5049 249.646 39.3895 249.215 39.3895C248.781 39.3895 248.421 39.5049 248.135 39.7357C247.852 39.9665 247.641 40.2728 247.502 40.6544C247.367 41.033 247.299 41.4484 247.299 41.9009C247.299 42.3563 247.367 42.7734 247.502 43.1519C247.641 43.5305 247.852 43.8336 248.135 44.0614C248.421 44.2891 248.781 44.403 249.215 44.403ZM255.378 45.4186L253.291 38.3277H254.718L256.107 43.5351H256.177L257.571 38.3277H258.997L260.382 43.512H260.452L261.832 38.3277H263.258L261.176 45.4186H259.768L258.328 40.2989H258.222L256.781 45.4186H255.378ZM23.6332 56.3277V57.4357H19.76V56.3277H23.6332ZM20.7987 54.6288H22.179V61.3366C22.179 61.6043 22.219 61.8059 22.299 61.9413C22.379 62.0737 22.4821 62.1645 22.6083 62.2137C22.7376 62.2599 22.8776 62.283 23.0284 62.283C23.1392 62.283 23.2362 62.2753 23.3193 62.2599C23.4024 62.2445 23.467 62.2322 23.5132 62.2229L23.7625 63.3632C23.6824 63.394 23.5686 63.4248 23.4208 63.4555C23.2731 63.4894 23.0884 63.5079 22.8669 63.5109C22.5037 63.5171 22.1652 63.4525 21.8512 63.317C21.5373 63.1816 21.2834 62.9724 21.0895 62.6892C20.8956 62.4061 20.7987 62.0506 20.7987 61.6228V54.6288ZM28.0708 63.5617C27.406 63.5617 26.8259 63.4094 26.3304 63.1047C25.8349 62.8 25.4502 62.3737 25.1762 61.8259C24.9023 61.2781 24.7654 60.638 24.7654 59.9055C24.7654 59.1699 24.9023 58.5267 25.1762 57.9758C25.4502 57.4249 25.8349 56.9971 26.3304 56.6924C26.8259 56.3877 27.406 56.2354 28.0708 56.2354C28.7356 56.2354 29.3157 56.3877 29.8112 56.6924C30.3067 56.9971 30.6914 57.4249 30.9653 57.9758C31.2392 58.5267 31.3762 59.1699 31.3762 59.9055C31.3762 60.638 31.2392 61.2781 30.9653 61.8259C30.6914 62.3737 30.3067 62.8 29.8112 63.1047C29.3157 63.4094 28.7356 63.5617 28.0708 63.5617ZM28.0754 62.403C28.5063 62.403 28.8633 62.2891 29.1464 62.0614C29.4296 61.8336 29.6388 61.5305 29.7743 61.1519C29.9128 60.7734 29.982 60.3563 29.982 59.9009C29.982 59.4484 29.9128 59.033 29.7743 58.6544C29.6388 58.2728 29.4296 57.9665 29.1464 57.7357C28.8633 57.5049 28.5063 57.3895 28.0754 57.3895C27.6414 57.3895 27.2814 57.5049 26.9951 57.7357C26.712 57.9665 26.5012 58.2728 26.3627 58.6544C26.2273 59.033 26.1596 59.4484 26.1596 59.9009C26.1596 60.3563 26.2273 60.7734 26.3627 61.1519C26.5012 61.5305 26.712 61.8336 26.9951 62.0614C27.2814 62.2891 27.6414 62.403 28.0754 62.403ZM36.3574 63.4186V56.3277H37.6823V57.4818H37.77C37.9177 57.091 38.1593 56.7863 38.4948 56.5678C38.8302 56.3462 39.2319 56.2354 39.6997 56.2354C40.1736 56.2354 40.5707 56.3462 40.8907 56.5678C41.2139 56.7893 41.4524 57.094 41.6063 57.4818H41.6802C41.8494 57.1033 42.1187 56.8017 42.488 56.577C42.8574 56.3492 43.2975 56.2354 43.8083 56.2354C44.4516 56.2354 44.9763 56.437 45.3826 56.8401C45.7919 57.2433 45.9966 57.8511 45.9966 58.6636V63.4186H44.6162V58.7929C44.6162 58.3128 44.4854 57.965 44.2238 57.7496C43.9622 57.5341 43.6499 57.4264 43.2867 57.4264C42.8374 57.4264 42.488 57.5649 42.2387 57.8419C41.9895 58.1158 41.8648 58.4682 41.8648 58.8991V63.4186H40.4891V58.7052C40.4891 58.3205 40.3691 58.0112 40.129 57.7773C39.889 57.5434 39.5766 57.4264 39.1919 57.4264C38.9303 57.4264 38.6887 57.4957 38.4671 57.6342C38.2486 57.7696 38.0716 57.9589 37.9362 58.202C37.8039 58.4451 37.7377 58.7267 37.7377 59.0468V63.4186H36.3574ZM49.9102 63.5756C49.4608 63.5756 49.0546 63.4925 48.6914 63.3263C48.3283 63.157 48.0405 62.9123 47.8281 62.5923C47.6189 62.2722 47.5142 61.8798 47.5142 61.4151C47.5142 61.015 47.5912 60.6857 47.7451 60.4271C47.8989 60.1686 48.1067 59.9639 48.3683 59.8131C48.6299 59.6623 48.9223 59.5485 49.2454 59.4715C49.5686 59.3946 49.8979 59.3361 50.2333 59.2961C50.658 59.2469 51.0027 59.2068 51.2674 59.1761C51.5321 59.1422 51.7245 59.0884 51.8445 59.0145C51.9645 58.9406 52.0245 58.8206 52.0245 58.6544V58.6221C52.0245 58.2189 51.9107 57.9065 51.6829 57.6849C51.4582 57.4634 51.1228 57.3526 50.6765 57.3526C50.2118 57.3526 49.8455 57.4557 49.5778 57.6619C49.3131 57.865 49.13 58.0912 49.0284 58.3405L47.7312 58.045C47.8851 57.6142 48.1098 57.2664 48.4052 57.0017C48.7037 56.734 49.0469 56.5401 49.4347 56.42C49.8225 56.2969 50.2303 56.2354 50.658 56.2354C50.9412 56.2354 51.2413 56.2692 51.5583 56.3369C51.8783 56.4016 52.1769 56.5216 52.4539 56.697C52.7339 56.8724 52.9632 57.1233 53.1417 57.4495C53.3202 57.7727 53.4095 58.1928 53.4095 58.7098V63.4186H52.0615V62.4491H52.0061C51.9168 62.6277 51.7829 62.8031 51.6044 62.9754C51.4259 63.1478 51.1966 63.2909 50.9166 63.4048C50.6365 63.5186 50.301 63.5756 49.9102 63.5756ZM50.2102 62.4676C50.5919 62.4676 50.9181 62.3922 51.1889 62.2414C51.4629 62.0906 51.6706 61.8936 51.8122 61.6505C51.9568 61.4043 52.0291 61.1411 52.0291 60.8611V59.947C51.9799 59.9963 51.8845 60.0424 51.7429 60.0855C51.6044 60.1255 51.4459 60.1609 51.2674 60.1917C51.0889 60.2194 50.915 60.2456 50.7458 60.2702C50.5765 60.2917 50.4349 60.3102 50.321 60.3256C50.0533 60.3594 49.8086 60.4164 49.587 60.4964C49.3685 60.5764 49.1931 60.6918 49.0607 60.8426C48.9315 60.9903 48.8669 61.1873 48.8669 61.4335C48.8669 61.7751 48.993 62.0337 49.2454 62.2091C49.4978 62.3814 49.8194 62.4676 50.2102 62.4676ZM56.5175 61.0134L56.5083 59.3284H56.7483L59.5736 56.3277H61.2263L58.004 59.7439H57.787L56.5175 61.0134ZM55.248 63.4186V53.9641H56.6283V63.4186H55.248ZM59.726 63.4186L57.1869 60.0486L58.1379 59.0837L61.4202 63.4186H59.726ZM65.2484 63.5617C64.5498 63.5617 63.9481 63.4125 63.4434 63.1139C62.9417 62.8123 62.5539 62.3891 62.28 61.8444C62.0092 61.2966 61.8738 60.6549 61.8738 59.9193C61.8738 59.193 62.0092 58.5528 62.28 57.9989C62.5539 57.4449 62.9356 57.0125 63.4249 56.7016C63.9173 56.3908 64.4929 56.2354 65.1515 56.2354C65.5516 56.2354 65.9394 56.3015 66.3148 56.4339C66.6903 56.5662 67.0273 56.774 67.3258 57.0571C67.6244 57.3402 67.8598 57.708 68.0322 58.1604C68.2045 58.6098 68.2907 59.1561 68.2907 59.7993V60.2886H62.654V59.2545H66.9381C66.9381 58.8914 66.8642 58.5698 66.7165 58.2897C66.5687 58.0066 66.361 57.7834 66.0932 57.6203C65.8286 57.4572 65.5177 57.3756 65.1607 57.3756C64.7729 57.3756 64.4344 57.471 64.1451 57.6619C63.8589 57.8496 63.6373 58.0958 63.4803 58.4005C63.3264 58.7021 63.2495 59.0299 63.2495 59.3838V60.1917C63.2495 60.6657 63.3326 61.0688 63.4988 61.4012C63.6681 61.7336 63.9035 61.9875 64.2051 62.1629C64.5067 62.3353 64.8591 62.4215 65.2623 62.4215C65.5239 62.4215 65.7624 62.3845 65.9778 62.3107C66.1933 62.2337 66.3795 62.1198 66.5364 61.969C66.6934 61.8182 66.8134 61.632 66.8965 61.4104L68.203 61.6459C68.0983 62.0306 67.9106 62.3676 67.6398 62.6569C67.372 62.9431 67.035 63.1662 66.6288 63.3263C66.2256 63.4832 65.7655 63.5617 65.2484 63.5617ZM74.1351 66.0777C73.9289 66.0777 73.7412 66.0608 73.5719 66.0269C73.4027 65.9961 73.2765 65.9623 73.1934 65.9254L73.5258 64.7943C73.7781 64.862 74.0028 64.8913 74.1998 64.882C74.3967 64.8728 74.5706 64.7989 74.7214 64.6604C74.8753 64.5219 75.0107 64.2957 75.1277 63.9818L75.2985 63.5109L72.704 56.3277H74.1813L75.9771 61.8305H76.051L77.8468 56.3277H79.3287L76.4065 64.365C76.271 64.7343 76.0987 65.0467 75.8894 65.3021C75.6801 65.5607 75.4308 65.7545 75.1415 65.8838C74.8522 66.0131 74.5168 66.0777 74.1351 66.0777ZM83.3716 63.5617C82.7068 63.5617 82.1266 63.4094 81.6311 63.1047C81.1356 62.8 80.7509 62.3737 80.477 61.8259C80.2031 61.2781 80.0662 60.638 80.0662 59.9055C80.0662 59.1699 80.2031 58.5267 80.477 57.9758C80.7509 57.4249 81.1356 56.9971 81.6311 56.6924C82.1266 56.3877 82.7068 56.2354 83.3716 56.2354C84.0363 56.2354 84.6165 56.3877 85.112 56.6924C85.6075 56.9971 85.9922 57.4249 86.2661 57.9758C86.54 58.5267 86.677 59.1699 86.677 59.9055C86.677 60.638 86.54 61.2781 86.2661 61.8259C85.9922 62.3737 85.6075 62.8 85.112 63.1047C84.6165 63.4094 84.0363 63.5617 83.3716 63.5617ZM83.3762 62.403C83.807 62.403 84.1641 62.2891 84.4472 62.0614C84.7303 61.8336 84.9396 61.5305 85.075 61.1519C85.2135 60.7734 85.2828 60.3563 85.2828 59.9009C85.2828 59.4484 85.2135 59.033 85.075 58.6544C84.9396 58.2728 84.7303 57.9665 84.4472 57.7357C84.1641 57.5049 83.807 57.3895 83.3762 57.3895C82.9422 57.3895 82.5821 57.5049 82.2959 57.7357C82.0128 57.9665 81.802 58.2728 81.6635 58.6544C81.528 59.033 81.4603 59.4484 81.4603 59.9009C81.4603 60.3563 81.528 60.7734 81.6635 61.1519C81.802 61.5305 82.0128 61.8336 82.2959 62.0614C82.5821 62.2891 82.9422 62.403 83.3762 62.403ZM92.7095 60.4779V56.3277H94.0945V63.4186H92.7372V62.1906H92.6634C92.5003 62.5692 92.2387 62.8846 91.8786 63.137C91.5216 63.3863 91.0768 63.5109 90.5444 63.5109C90.0889 63.5109 89.6857 63.4109 89.3349 63.2109C88.9871 63.0077 88.7132 62.7077 88.5132 62.3107C88.3162 61.9136 88.2177 61.4228 88.2177 60.838V56.3277H89.598V60.6718C89.598 61.155 89.7319 61.5397 89.9997 61.8259C90.2674 62.1121 90.6152 62.2553 91.043 62.2553C91.3015 62.2553 91.5585 62.1906 91.8139 62.0614C92.0725 61.9321 92.2864 61.7367 92.4556 61.4751C92.628 61.2135 92.7126 60.8811 92.7095 60.4779ZM95.9492 63.4186V56.3277H97.2833V57.4541H97.3572C97.4864 57.0725 97.7142 56.7724 98.0404 56.5539C98.3697 56.3323 98.7421 56.2215 99.1576 56.2215C99.2438 56.2215 99.3453 56.2246 99.4623 56.2308C99.5823 56.2369 99.6762 56.2446 99.7439 56.2538V57.5741C99.6885 57.5588 99.59 57.5418 99.4484 57.5234C99.3069 57.5018 99.1653 57.4911 99.0237 57.4911C98.6975 57.4911 98.4067 57.5603 98.1512 57.6988C97.8988 57.8342 97.6988 58.0235 97.5511 58.2666C97.4033 58.5067 97.3295 58.7806 97.3295 59.0884V63.4186H95.9492ZM104.36 63.4186V62.3845L107.56 59.0699C107.901 58.7098 108.183 58.3943 108.404 58.1235C108.629 57.8496 108.797 57.5895 108.908 57.3433C109.018 57.0971 109.074 56.8355 109.074 56.5585C109.074 56.2446 109 55.9738 108.852 55.746C108.704 55.5152 108.503 55.3382 108.247 55.2151C107.992 55.0889 107.704 55.0259 107.384 55.0259C107.046 55.0259 106.75 55.0951 106.498 55.2336C106.245 55.3721 106.052 55.5675 105.916 55.8199C105.781 56.0723 105.713 56.3677 105.713 56.7063H104.351C104.351 56.1307 104.483 55.6275 104.748 55.1967C105.013 54.7658 105.376 54.4319 105.838 54.1949C106.299 53.9548 106.824 53.8348 107.412 53.8348C108.006 53.8348 108.529 53.9533 108.981 54.1903C109.437 54.4242 109.792 54.7442 110.048 55.1505C110.303 55.5537 110.431 56.0092 110.431 56.517C110.431 56.8678 110.365 57.211 110.233 57.5465C110.103 57.8819 109.877 58.2558 109.554 58.6683C109.231 59.0776 108.781 59.5746 108.206 60.1594L106.327 62.126V62.1952H110.583V63.4186H104.36ZM115.903 63.4186V53.9641H119.273C120.008 53.9641 120.618 54.0979 121.101 54.3657C121.584 54.6335 121.946 54.9997 122.186 55.4644C122.426 55.9261 122.546 56.4462 122.546 57.0248C122.546 57.6065 122.424 58.1297 122.181 58.5944C121.941 59.056 121.578 59.4223 121.092 59.6931C120.608 59.9609 120.001 60.0947 119.268 60.0947H116.951V58.8852H119.139C119.604 58.8852 119.981 58.8052 120.27 58.6452C120.559 58.4821 120.772 58.2605 120.907 57.9804C121.042 57.7003 121.11 57.3818 121.11 57.0248C121.11 56.6678 121.042 56.3508 120.907 56.0738C120.772 55.7968 120.558 55.5798 120.265 55.4229C119.976 55.2659 119.594 55.1874 119.12 55.1874H117.329V63.4186H115.903ZM124.218 53.9641H125.949L128.959 61.3135H129.07L132.08 53.9641H133.811V63.4186H132.454V56.577H132.366L129.578 63.4048H128.451L125.663 56.5724H125.575V63.4186H124.218V53.9641ZM139.326 63.4186V53.9641H140.706V57.4772H140.789C140.869 57.3295 140.984 57.1587 141.135 56.9648C141.286 56.7709 141.495 56.6016 141.763 56.457C142.031 56.3092 142.385 56.2354 142.825 56.2354C143.397 56.2354 143.908 56.38 144.358 56.6693C144.807 56.9586 145.159 57.3756 145.415 57.9204C145.673 58.4651 145.802 59.1207 145.802 59.887C145.802 60.6533 145.675 61.3104 145.419 61.8582C145.164 62.403 144.813 62.8231 144.367 63.1185C143.921 63.4109 143.411 63.5571 142.839 63.5571C142.408 63.5571 142.055 63.4848 141.782 63.3401C141.511 63.1955 141.298 63.0262 141.144 62.8323C140.991 62.6384 140.872 62.4661 140.789 62.3153H140.674V63.4186H139.326ZM140.678 59.8732C140.678 60.3717 140.751 60.8088 140.895 61.1842C141.04 61.5597 141.249 61.8536 141.523 62.066C141.797 62.2753 142.132 62.3799 142.529 62.3799C142.942 62.3799 143.287 62.2706 143.563 62.0521C143.84 61.8305 144.05 61.5305 144.191 61.1519C144.336 60.7734 144.408 60.3471 144.408 59.8732C144.408 59.4054 144.338 58.9853 144.196 58.6129C144.057 58.2405 143.848 57.9465 143.568 57.7311C143.291 57.5157 142.945 57.408 142.529 57.408C142.129 57.408 141.791 57.5111 141.514 57.7173C141.24 57.9235 141.032 58.2112 140.891 58.5805C140.749 58.9499 140.678 59.3807 140.678 59.8732ZM151.844 60.4779V56.3277H153.229V63.4186H151.872V62.1906H151.798C151.635 62.5692 151.373 62.8846 151.013 63.137C150.656 63.3863 150.212 63.5109 149.679 63.5109C149.224 63.5109 148.821 63.4109 148.47 63.2109C148.122 63.0077 147.848 62.7077 147.648 62.3107C147.451 61.9136 147.352 61.4228 147.352 60.838V56.3277H148.733V60.6718C148.733 61.155 148.867 61.5397 149.134 61.8259C149.402 62.1121 149.75 62.2553 150.178 62.2553C150.436 62.2553 150.693 62.1906 150.949 62.0614C151.207 61.9321 151.421 61.7367 151.59 61.4751C151.763 61.2135 151.847 60.8811 151.844 60.4779ZM160.397 58.0589L159.146 58.2805C159.094 58.1204 159.011 57.9681 158.897 57.8234C158.786 57.6788 158.636 57.5603 158.445 57.468C158.254 57.3756 158.015 57.3295 157.729 57.3295C157.338 57.3295 157.012 57.4172 156.75 57.5926C156.489 57.765 156.358 57.9881 156.358 58.262C156.358 58.499 156.446 58.6898 156.621 58.8344C156.797 58.9791 157.08 59.0976 157.471 59.1899L158.597 59.4484C159.25 59.5992 159.736 59.8316 160.056 60.1455C160.376 60.4594 160.536 60.8672 160.536 61.3689C160.536 61.7936 160.413 62.1722 160.167 62.5045C159.924 62.8339 159.583 63.0924 159.146 63.2801C158.712 63.4679 158.209 63.5617 157.637 63.5617C156.843 63.5617 156.195 63.3924 155.693 63.0539C155.192 62.7123 154.884 62.2276 154.77 61.5997L156.104 61.3966C156.187 61.7444 156.358 62.0075 156.617 62.186C156.875 62.3614 157.212 62.4491 157.628 62.4491C158.08 62.4491 158.442 62.3553 158.712 62.1675C158.983 61.9767 159.119 61.7444 159.119 61.4705C159.119 61.2489 159.036 61.0627 158.869 60.9119C158.706 60.7611 158.455 60.6472 158.117 60.5702L156.917 60.3071C156.255 60.1563 155.766 59.9162 155.449 59.5869C155.135 59.2576 154.978 58.8406 154.978 58.3359C154.978 57.9173 155.095 57.5511 155.329 57.2371C155.562 56.9232 155.886 56.6786 156.298 56.5031C156.71 56.3246 157.183 56.2354 157.715 56.2354C158.482 56.2354 159.085 56.4016 159.525 56.734C159.965 57.0633 160.256 57.5049 160.397 58.0589ZM162.054 63.4186V56.3277H163.434V63.4186H162.054ZM162.751 55.2336C162.511 55.2336 162.304 55.1536 162.132 54.9935C161.963 54.8304 161.878 54.6365 161.878 54.4119C161.878 54.1841 161.963 53.9902 162.132 53.8302C162.304 53.6671 162.511 53.5855 162.751 53.5855C162.991 53.5855 163.195 53.6671 163.365 53.8302C163.537 53.9902 163.623 54.1841 163.623 54.4119C163.623 54.6365 163.537 54.8304 163.365 54.9935C163.195 55.1536 162.991 55.2336 162.751 55.2336ZM166.671 59.2084V63.4186H165.291V56.3277H166.616V57.4818H166.704C166.867 57.1063 167.122 56.8047 167.47 56.577C167.821 56.3492 168.262 56.2354 168.795 56.2354C169.278 56.2354 169.701 56.3369 170.064 56.5401C170.428 56.7401 170.709 57.0386 170.909 57.4357C171.109 57.8327 171.209 58.3236 171.209 58.9083V63.4186H169.829V59.0745C169.829 58.5605 169.695 58.1589 169.427 57.8696C169.16 57.5772 168.792 57.431 168.324 57.431C168.004 57.431 167.719 57.5003 167.47 57.6388C167.224 57.7773 167.028 57.9804 166.884 58.2482C166.742 58.5128 166.671 58.8329 166.671 59.2084ZM176.117 63.5617C175.418 63.5617 174.816 63.4125 174.312 63.1139C173.81 62.8123 173.422 62.3891 173.148 61.8444C172.877 61.2966 172.742 60.6549 172.742 59.9193C172.742 59.193 172.877 58.5528 173.148 57.9989C173.422 57.4449 173.804 57.0125 174.293 56.7016C174.786 56.3908 175.361 56.2354 176.02 56.2354C176.42 56.2354 176.808 56.3015 177.183 56.4339C177.558 56.5662 177.895 56.774 178.194 57.0571C178.493 57.3402 178.728 57.708 178.9 58.1604C179.073 58.6098 179.159 59.1561 179.159 59.7993V60.2886H173.522V59.2545H177.806C177.806 58.8914 177.732 58.5698 177.585 58.2897C177.437 58.0066 177.229 57.7834 176.961 57.6203C176.697 57.4572 176.386 57.3756 176.029 57.3756C175.641 57.3756 175.303 57.471 175.013 57.6619C174.727 57.8496 174.505 58.0958 174.348 58.4005C174.195 58.7021 174.118 59.0299 174.118 59.3838V60.1917C174.118 60.6657 174.201 61.0688 174.367 61.4012C174.536 61.7336 174.772 61.9875 175.073 62.1629C175.375 62.3353 175.727 62.4215 176.13 62.4215C176.392 62.4215 176.631 62.3845 176.846 62.3107C177.061 62.2337 177.248 62.1198 177.405 61.969C177.562 61.8182 177.682 61.632 177.765 61.4104L179.071 61.6459C178.966 62.0306 178.779 62.3676 178.508 62.6569C178.24 62.9431 177.903 63.1662 177.497 63.3263C177.094 63.4832 176.634 63.5617 176.117 63.5617ZM186.004 58.0589L184.753 58.2805C184.701 58.1204 184.617 57.9681 184.504 57.8234C184.393 57.6788 184.242 57.5603 184.051 57.468C183.86 57.3756 183.622 57.3295 183.336 57.3295C182.945 57.3295 182.619 57.4172 182.357 57.5926C182.095 57.765 181.965 57.9881 181.965 58.262C181.965 58.499 182.052 58.6898 182.228 58.8344C182.403 58.9791 182.686 59.0976 183.077 59.1899L184.204 59.4484C184.856 59.5992 185.342 59.8316 185.662 60.1455C185.982 60.4594 186.142 60.8672 186.142 61.3689C186.142 61.7936 186.019 62.1722 185.773 62.5045C185.53 62.8339 185.19 63.0924 184.753 63.2801C184.319 63.4679 183.816 63.5617 183.243 63.5617C182.449 63.5617 181.801 63.3924 181.3 63.0539C180.798 62.7123 180.49 62.2276 180.376 61.5997L181.711 61.3966C181.794 61.7444 181.965 62.0075 182.223 62.186C182.482 62.3614 182.819 62.4491 183.234 62.4491C183.686 62.4491 184.048 62.3553 184.319 62.1675C184.59 61.9767 184.725 61.7444 184.725 61.4705C184.725 61.2489 184.642 61.0627 184.476 60.9119C184.313 60.7611 184.062 60.6472 183.723 60.5702L182.523 60.3071C181.861 60.1563 181.372 59.9162 181.055 59.5869C180.741 59.2576 180.584 58.8406 180.584 58.3359C180.584 57.9173 180.701 57.5511 180.935 57.2371C181.169 56.9232 181.492 56.6786 181.904 56.5031C182.317 56.3246 182.789 56.2354 183.322 56.2354C184.088 56.2354 184.691 56.4016 185.131 56.734C185.572 57.0633 185.862 57.5049 186.004 58.0589ZM192.974 58.0589L191.723 58.2805C191.67 58.1204 191.587 57.9681 191.473 57.8234C191.363 57.6788 191.212 57.5603 191.021 57.468C190.83 57.3756 190.592 57.3295 190.305 57.3295C189.914 57.3295 189.588 57.4172 189.327 57.5926C189.065 57.765 188.934 57.9881 188.934 58.262C188.934 58.499 189.022 58.6898 189.197 58.8344C189.373 58.9791 189.656 59.0976 190.047 59.1899L191.173 59.4484C191.826 59.5992 192.312 59.8316 192.632 60.1455C192.952 60.4594 193.112 60.8672 193.112 61.3689C193.112 61.7936 192.989 62.1722 192.743 62.5045C192.5 62.8339 192.16 63.0924 191.723 63.2801C191.289 63.4679 190.785 63.5617 190.213 63.5617C189.419 63.5617 188.771 63.3924 188.269 63.0539C187.768 62.7123 187.46 62.2276 187.346 61.5997L188.68 61.3966C188.763 61.7444 188.934 62.0075 189.193 62.186C189.451 62.3614 189.788 62.4491 190.204 62.4491C190.656 62.4491 191.018 62.3553 191.289 62.1675C191.559 61.9767 191.695 61.7444 191.695 61.4705C191.695 61.2489 191.612 61.0627 191.446 60.9119C191.282 60.7611 191.032 60.6472 190.693 60.5702L189.493 60.3071C188.831 60.1563 188.342 59.9162 188.025 59.5869C187.711 59.2576 187.554 58.8406 187.554 58.3359C187.554 57.9173 187.671 57.5511 187.905 57.2371C188.139 56.9232 188.462 56.6786 188.874 56.5031C189.287 56.3246 189.759 56.2354 190.291 56.2354C191.058 56.2354 191.661 56.4016 192.101 56.734C192.541 57.0633 192.832 57.5049 192.974 58.0589ZM198.07 63.4186V56.3277H199.395V57.4818H199.483C199.631 57.091 199.872 56.7863 200.208 56.5678C200.543 56.3462 200.945 56.2354 201.413 56.2354C201.887 56.2354 202.284 56.3462 202.604 56.5678C202.927 56.7893 203.165 57.094 203.319 57.4818H203.393C203.562 57.1033 203.832 56.8017 204.201 56.577C204.57 56.3492 205.01 56.2354 205.521 56.2354C206.164 56.2354 206.689 56.437 207.095 56.8401C207.505 57.2433 207.709 57.8511 207.709 58.6636V63.4186H206.329V58.7929C206.329 58.3128 206.198 57.965 205.937 57.7496C205.675 57.5341 205.363 57.4264 205 57.4264C204.55 57.4264 204.201 57.5649 203.952 57.8419C203.702 58.1158 203.578 58.4682 203.578 58.8991V63.4186H202.202V58.7052C202.202 58.3205 202.082 58.0112 201.842 57.7773C201.602 57.5434 201.289 57.4264 200.905 57.4264C200.643 57.4264 200.402 57.4957 200.18 57.6342C199.961 57.7696 199.784 57.9589 199.649 58.202C199.517 58.4451 199.451 58.7267 199.451 59.0468V63.4186H198.07ZM212.616 63.5617C211.917 63.5617 211.315 63.4125 210.811 63.1139C210.309 62.8123 209.921 62.3891 209.647 61.8444C209.376 61.2966 209.241 60.6549 209.241 59.9193C209.241 59.193 209.376 58.5528 209.647 57.9989C209.921 57.4449 210.303 57.0125 210.792 56.7016C211.285 56.3908 211.86 56.2354 212.519 56.2354C212.919 56.2354 213.307 56.3015 213.682 56.4339C214.057 56.5662 214.394 56.774 214.693 57.0571C214.992 57.3402 215.227 57.708 215.399 58.1604C215.572 58.6098 215.658 59.1561 215.658 59.7993V60.2886H210.021V59.2545H214.305C214.305 58.8914 214.231 58.5698 214.084 58.2897C213.936 58.0066 213.728 57.7834 213.46 57.6203C213.196 57.4572 212.885 57.3756 212.528 57.3756C212.14 57.3756 211.802 57.471 211.512 57.6619C211.226 57.8496 211.004 58.0958 210.848 58.4005C210.694 58.7021 210.617 59.0299 210.617 59.3838V60.1917C210.617 60.6657 210.7 61.0688 210.866 61.4012C211.035 61.7336 211.271 61.9875 211.572 62.1629C211.874 62.3353 212.226 62.4215 212.629 62.4215C212.891 62.4215 213.13 62.3845 213.345 62.3107C213.56 62.2337 213.747 62.1198 213.904 61.969C214.061 61.8182 214.181 61.632 214.264 61.4104L215.57 61.6459C215.466 62.0306 215.278 62.3676 215.007 62.6569C214.739 62.9431 214.402 63.1662 213.996 63.3263C213.593 63.4832 213.133 63.5617 212.616 63.5617ZM220.245 63.5617C219.547 63.5617 218.945 63.4125 218.44 63.1139C217.939 62.8123 217.551 62.3891 217.277 61.8444C217.006 61.2966 216.871 60.6549 216.871 59.9193C216.871 59.193 217.006 58.5528 217.277 57.9989C217.551 57.4449 217.933 57.0125 218.422 56.7016C218.914 56.3908 219.49 56.2354 220.149 56.2354C220.549 56.2354 220.936 56.3015 221.312 56.4339C221.687 56.5662 222.024 56.774 222.323 57.0571C222.621 57.3402 222.857 57.708 223.029 58.1604C223.202 58.6098 223.288 59.1561 223.288 59.7993V60.2886H217.651V59.2545H221.935C221.935 58.8914 221.861 58.5698 221.714 58.2897C221.566 58.0066 221.358 57.7834 221.09 57.6203C220.826 57.4572 220.515 57.3756 220.158 57.3756C219.77 57.3756 219.431 57.471 219.142 57.6619C218.856 57.8496 218.634 58.0958 218.477 58.4005C218.324 58.7021 218.247 59.0299 218.247 59.3838V60.1917C218.247 60.6657 218.33 61.0688 218.496 61.4012C218.665 61.7336 218.901 61.9875 219.202 62.1629C219.504 62.3353 219.856 62.4215 220.259 62.4215C220.521 62.4215 220.759 62.3845 220.975 62.3107C221.19 62.2337 221.377 62.1198 221.533 61.969C221.69 61.8182 221.81 61.632 221.894 61.4104L223.2 61.6459C223.095 62.0306 222.908 62.3676 222.637 62.6569C222.369 62.9431 222.032 63.1662 221.626 63.3263C221.223 63.4832 220.763 63.5617 220.245 63.5617ZM228.129 56.3277V57.4357H224.256V56.3277H228.129ZM225.295 54.6288H226.675V61.3366C226.675 61.6043 226.715 61.8059 226.795 61.9413C226.875 62.0737 226.978 62.1645 227.104 62.2137C227.234 62.2599 227.374 62.283 227.525 62.283C227.635 62.283 227.732 62.2753 227.815 62.2599C227.898 62.2445 227.963 62.2322 228.009 62.2229L228.259 63.3632C228.179 63.394 228.065 63.4248 227.917 63.4555C227.769 63.4894 227.585 63.5079 227.363 63.5109C227 63.5171 226.661 63.4525 226.347 63.317C226.033 63.1816 225.779 62.9724 225.586 62.6892C225.392 62.4061 225.295 62.0506 225.295 61.6228V54.6288ZM229.656 63.4186V56.3277H231.037V63.4186H229.656ZM230.353 55.2336C230.113 55.2336 229.907 55.1536 229.735 54.9935C229.565 54.8304 229.481 54.6365 229.481 54.4119C229.481 54.1841 229.565 53.9902 229.735 53.8302C229.907 53.6671 230.113 53.5855 230.353 53.5855C230.593 53.5855 230.798 53.6671 230.967 53.8302C231.14 53.9902 231.226 54.1841 231.226 54.4119C231.226 54.6365 231.14 54.8304 230.967 54.9935C230.798 55.1536 230.593 55.2336 230.353 55.2336ZM234.274 59.2084V63.4186H232.893V56.3277H234.218V57.4818H234.306C234.469 57.1063 234.725 56.8047 235.072 56.577C235.423 56.3492 235.865 56.2354 236.397 56.2354C236.881 56.2354 237.304 56.3369 237.667 56.5401C238.03 56.7401 238.312 57.0386 238.512 57.4357C238.712 57.8327 238.812 58.3236 238.812 58.9083V63.4186H237.431V59.0745C237.431 58.5605 237.298 58.1589 237.03 57.8696C236.762 57.5772 236.394 57.431 235.927 57.431C235.606 57.431 235.322 57.5003 235.072 57.6388C234.826 57.7773 234.631 57.9804 234.486 58.2482C234.345 58.5128 234.274 58.8329 234.274 59.2084ZM243.636 66.2254C243.073 66.2254 242.588 66.1516 242.182 66.0038C241.779 65.8561 241.449 65.6607 241.194 65.4175C240.938 65.1744 240.748 64.9082 240.621 64.6189L241.808 64.1295C241.891 64.265 242.002 64.4081 242.14 64.5589C242.282 64.7128 242.473 64.8436 242.713 64.9513C242.956 65.059 243.268 65.1129 243.65 65.1129C244.173 65.1129 244.605 64.9851 244.947 64.7297C245.289 64.4773 245.46 64.0741 245.46 63.5202V62.126H245.372C245.289 62.2768 245.169 62.4445 245.012 62.6292C244.858 62.8139 244.646 62.9739 244.375 63.1093C244.104 63.2447 243.751 63.3124 243.317 63.3124C242.757 63.3124 242.253 63.1816 241.803 62.92C241.357 62.6554 241.003 62.266 240.741 61.7521C240.483 61.235 240.354 60.5995 240.354 59.8455C240.354 59.0914 240.481 58.4451 240.737 57.9065C240.995 57.3679 241.349 56.9555 241.799 56.6693C242.248 56.38 242.757 56.2354 243.327 56.2354C243.767 56.2354 244.122 56.3092 244.393 56.457C244.664 56.6016 244.875 56.7709 245.026 56.9648C245.179 57.1587 245.298 57.3295 245.381 57.4772H245.483V56.3277H246.835V63.5756C246.835 64.1849 246.694 64.6851 246.411 65.0759C246.127 65.4668 245.744 65.7561 245.261 65.9438C244.781 66.1316 244.239 66.2254 243.636 66.2254ZM243.622 62.1675C244.019 62.1675 244.355 62.0752 244.629 61.8906C244.906 61.7028 245.115 61.4351 245.256 61.0873C245.401 60.7364 245.473 60.3163 245.473 59.827C245.473 59.35 245.403 58.9299 245.261 58.5667C245.119 58.2035 244.912 57.9204 244.638 57.7173C244.364 57.5111 244.025 57.408 243.622 57.408C243.207 57.408 242.86 57.5157 242.583 57.7311C242.306 57.9435 242.097 58.2328 241.956 58.599C241.817 58.9652 241.748 59.3746 241.748 59.827C241.748 60.2917 241.819 60.6995 241.96 61.0504C242.102 61.4012 242.311 61.6751 242.588 61.8721C242.868 62.0691 243.213 62.1675 243.622 62.1675ZM249.596 63.5063C249.344 63.5063 249.127 63.4171 248.945 63.2386C248.763 63.057 248.673 62.8385 248.673 62.583C248.673 62.3307 248.763 62.1152 248.945 61.9367C249.127 61.7551 249.344 61.6643 249.596 61.6643C249.848 61.6643 250.065 61.7551 250.247 61.9367C250.428 62.1152 250.519 62.3307 250.519 62.583C250.519 62.7523 250.476 62.9077 250.39 63.0493C250.307 63.1878 250.196 63.2986 250.058 63.3817C249.919 63.4648 249.765 63.5063 249.596 63.5063Z" fill="#FEFEFE"/>
<path d="M257.527 135.999C260.317 135.999 262.951 135.335 265.282 134.159C265.775 134.429 266.285 134.678 266.814 134.899C270.516 136.447 274.47 136.496 278 135.324C275.635 133.096 273.684 130.549 272.202 127.809C273.828 125.179 274.768 122.078 274.768 118.759H257.527V135.999Z" fill="#FF7A3C"/>
<path d="M274.767 114.829C274.767 107.688 268.978 101.899 261.837 101.899H257.527V119.836H274.767V114.829Z" fill="#FF7A3C"/>
<path d="M70.6743 114.829C70.6743 107.688 76.4634 101.899 83.6046 101.899H258.605V136.14H83.6046C76.4634 136.14 70.6743 130.35 70.6743 123.209V114.829Z" fill="#FF7A3C"/>
<path d="M91.4303 117.052C91.3411 116.772 91.221 116.521 91.0702 116.299C90.9225 116.075 90.7455 115.884 90.5393 115.727C90.3331 115.567 90.0977 115.445 89.833 115.362C89.5714 115.279 89.2836 115.237 88.9697 115.237C88.4373 115.237 87.9572 115.374 87.5294 115.648C87.1016 115.922 86.7631 116.324 86.5138 116.853C86.2675 117.379 86.1444 118.024 86.1444 118.787C86.1444 119.554 86.2691 120.202 86.5184 120.731C86.7677 121.26 87.1093 121.662 87.5432 121.936C87.9772 122.21 88.4711 122.347 89.0251 122.347C89.5391 122.347 89.9869 122.242 90.3685 122.033C90.7532 121.824 91.0502 121.528 91.2595 121.147C91.4719 120.762 91.578 120.309 91.578 119.789L91.9474 119.859H89.2421V118.681H92.9584V119.757C92.9584 120.551 92.7891 121.24 92.4506 121.825C92.1151 122.407 91.6504 122.856 91.0564 123.173C90.4655 123.49 89.7884 123.649 89.0251 123.649C88.1695 123.649 87.4186 123.452 86.7723 123.058C86.1291 122.664 85.6274 122.105 85.2673 121.382C84.9072 120.656 84.7272 119.794 84.7272 118.797C84.7272 118.043 84.8318 117.366 85.0411 116.765C85.2504 116.165 85.5443 115.656 85.9229 115.237C86.3045 114.816 86.7523 114.494 87.2662 114.273C87.7833 114.048 88.348 113.936 88.9605 113.936C89.4714 113.936 89.9469 114.011 90.387 114.162C90.8302 114.313 91.2241 114.526 91.5688 114.803C91.9166 115.08 92.2043 115.41 92.4321 115.791C92.6598 116.17 92.8137 116.59 92.8937 117.052H91.4303ZM97.6452 123.662C96.9805 123.662 96.4003 123.51 95.9048 123.205C95.4093 122.901 95.0246 122.475 94.7507 121.927C94.4768 121.379 94.3398 120.739 94.3398 120.006C94.3398 119.271 94.4768 118.627 94.7507 118.077C95.0246 117.526 95.4093 117.098 95.9048 116.793C96.4003 116.488 96.9805 116.336 97.6452 116.336C98.31 116.336 98.8902 116.488 99.3857 116.793C99.8812 117.098 100.266 117.526 100.54 118.077C100.814 118.627 100.951 119.271 100.951 120.006C100.951 120.739 100.814 121.379 100.54 121.927C100.266 122.475 99.8812 122.901 99.3857 123.205C98.8902 123.51 98.31 123.662 97.6452 123.662ZM97.6499 122.504C98.0807 122.504 98.4377 122.39 98.7209 122.162C99.004 121.934 99.2133 121.631 99.3487 121.253C99.4872 120.874 99.5565 120.457 99.5565 120.002C99.5565 119.549 99.4872 119.134 99.3487 118.755C99.2133 118.374 99.004 118.067 98.7209 117.836C98.4377 117.606 98.0807 117.49 97.6499 117.49C97.2159 117.49 96.8558 117.606 96.5696 117.836C96.2865 118.067 96.0756 118.374 95.9371 118.755C95.8017 119.134 95.734 119.549 95.734 120.002C95.734 120.457 95.8017 120.874 95.9371 121.253C96.0756 121.631 96.2865 121.934 96.5696 122.162C96.8558 122.39 97.2159 122.504 97.6499 122.504ZM105.478 123.662C104.813 123.662 104.233 123.51 103.738 123.205C103.242 122.901 102.858 122.475 102.584 121.927C102.31 121.379 102.173 120.739 102.173 120.006C102.173 119.271 102.31 118.627 102.584 118.077C102.858 117.526 103.242 117.098 103.738 116.793C104.233 116.488 104.813 116.336 105.478 116.336C106.143 116.336 106.723 116.488 107.219 116.793C107.714 117.098 108.099 117.526 108.373 118.077C108.647 118.627 108.784 119.271 108.784 120.006C108.784 120.739 108.647 121.379 108.373 121.927C108.099 122.475 107.714 122.901 107.219 123.205C106.723 123.51 106.143 123.662 105.478 123.662ZM105.483 122.504C105.914 122.504 106.271 122.39 106.554 122.162C106.837 121.934 107.046 121.631 107.182 121.253C107.32 120.874 107.389 120.457 107.389 120.002C107.389 119.549 107.32 119.134 107.182 118.755C107.046 118.374 106.837 118.067 106.554 117.836C106.271 117.606 105.914 117.49 105.483 117.49C105.049 117.49 104.689 117.606 104.403 117.836C104.119 118.067 103.909 118.374 103.77 118.755C103.635 119.134 103.567 119.549 103.567 120.002C103.567 120.457 103.635 120.874 103.77 121.253C103.909 121.631 104.119 121.934 104.403 122.162C104.689 122.39 105.049 122.504 105.483 122.504ZM112.979 123.658C112.406 123.658 111.896 123.512 111.446 123.219C111 122.924 110.649 122.504 110.394 121.959C110.141 121.411 110.015 120.754 110.015 119.988C110.015 119.221 110.143 118.566 110.398 118.021C110.657 117.476 111.011 117.059 111.46 116.77C111.909 116.481 112.419 116.336 112.988 116.336C113.428 116.336 113.782 116.41 114.05 116.558C114.321 116.702 114.53 116.872 114.678 117.066C114.829 117.259 114.945 117.43 115.029 117.578H115.112V114.065H116.492V123.519H115.144V122.416H115.029C114.945 122.567 114.825 122.739 114.669 122.933C114.515 123.127 114.302 123.296 114.031 123.441C113.761 123.586 113.41 123.658 112.979 123.658ZM113.284 122.481C113.681 122.481 114.016 122.376 114.29 122.167C114.567 121.954 114.776 121.66 114.918 121.285C115.062 120.91 115.135 120.473 115.135 119.974C115.135 119.481 115.064 119.051 114.922 118.681C114.781 118.312 114.573 118.024 114.299 117.818C114.025 117.612 113.687 117.509 113.284 117.509C112.868 117.509 112.522 117.616 112.245 117.832C111.968 118.047 111.759 118.341 111.617 118.714C111.479 119.086 111.409 119.506 111.409 119.974C111.409 120.448 111.48 120.874 111.622 121.253C111.763 121.631 111.972 121.931 112.249 122.153C112.53 122.371 112.874 122.481 113.284 122.481ZM124.889 123.662C124.203 123.662 123.612 123.507 123.117 123.196C122.624 122.882 122.246 122.45 121.981 121.899C121.716 121.348 121.584 120.717 121.584 120.006C121.584 119.286 121.719 118.651 121.99 118.1C122.261 117.546 122.643 117.113 123.135 116.802C123.628 116.492 124.208 116.336 124.876 116.336C125.414 116.336 125.894 116.436 126.316 116.636C126.738 116.833 127.078 117.11 127.336 117.467C127.598 117.824 127.753 118.241 127.802 118.718H126.459C126.385 118.386 126.216 118.1 125.951 117.86C125.69 117.62 125.339 117.499 124.899 117.499C124.514 117.499 124.177 117.601 123.888 117.804C123.601 118.004 123.378 118.29 123.218 118.663C123.058 119.032 122.978 119.469 122.978 119.974C122.978 120.491 123.057 120.937 123.214 121.313C123.371 121.688 123.592 121.979 123.878 122.185C124.168 122.391 124.508 122.495 124.899 122.495C125.16 122.495 125.397 122.447 125.61 122.351C125.825 122.253 126.005 122.113 126.15 121.931C126.297 121.75 126.401 121.531 126.459 121.276H127.802C127.753 121.734 127.604 122.144 127.355 122.504C127.105 122.864 126.771 123.147 126.353 123.353C125.937 123.559 125.45 123.662 124.889 123.662ZM131.342 123.676C130.893 123.676 130.486 123.593 130.123 123.427C129.76 123.258 129.472 123.013 129.26 122.693C129.051 122.373 128.946 121.981 128.946 121.516C128.946 121.116 129.023 120.786 129.177 120.528C129.331 120.269 129.539 120.065 129.8 119.914C130.062 119.763 130.354 119.649 130.677 119.572C131 119.495 131.33 119.437 131.665 119.397C132.09 119.348 132.435 119.308 132.699 119.277C132.964 119.243 133.156 119.189 133.276 119.115C133.396 119.041 133.456 118.921 133.456 118.755V118.723C133.456 118.32 133.343 118.007 133.115 117.786C132.89 117.564 132.555 117.453 132.108 117.453C131.644 117.453 131.277 117.556 131.01 117.763C130.745 117.966 130.562 118.192 130.46 118.441L129.163 118.146C129.317 117.715 129.542 117.367 129.837 117.102C130.136 116.835 130.479 116.641 130.867 116.521C131.254 116.398 131.662 116.336 132.09 116.336C132.373 116.336 132.673 116.37 132.99 116.438C133.31 116.502 133.609 116.622 133.886 116.798C134.166 116.973 134.395 117.224 134.574 117.55C134.752 117.873 134.841 118.294 134.841 118.811V123.519H133.493V122.55H133.438C133.349 122.728 133.215 122.904 133.036 123.076C132.858 123.249 132.629 123.392 132.348 123.506C132.068 123.619 131.733 123.676 131.342 123.676ZM131.642 122.568C132.024 122.568 132.35 122.493 132.621 122.342C132.895 122.191 133.102 121.994 133.244 121.751C133.389 121.505 133.461 121.242 133.461 120.962V120.048C133.412 120.097 133.316 120.143 133.175 120.186C133.036 120.226 132.878 120.262 132.699 120.292C132.521 120.32 132.347 120.346 132.178 120.371C132.008 120.392 131.867 120.411 131.753 120.426C131.485 120.46 131.241 120.517 131.019 120.597C130.8 120.677 130.625 120.793 130.493 120.943C130.363 121.091 130.299 121.288 130.299 121.534C130.299 121.876 130.425 122.134 130.677 122.31C130.93 122.482 131.251 122.568 131.642 122.568ZM139.99 116.428V117.536H136.117V116.428H139.99ZM137.155 114.73H138.536V121.437C138.536 121.705 138.576 121.907 138.656 122.042C138.736 122.174 138.839 122.265 138.965 122.314C139.094 122.361 139.234 122.384 139.385 122.384C139.496 122.384 139.593 122.376 139.676 122.361C139.759 122.345 139.824 122.333 139.87 122.324L140.119 123.464C140.039 123.495 139.925 123.526 139.778 123.556C139.63 123.59 139.445 123.609 139.224 123.612C138.86 123.618 138.522 123.553 138.208 123.418C137.894 123.282 137.64 123.073 137.446 122.79C137.252 122.507 137.155 122.151 137.155 121.724V114.73ZM144.427 123.662C143.741 123.662 143.15 123.507 142.655 123.196C142.162 122.882 141.784 122.45 141.519 121.899C141.254 121.348 141.122 120.717 141.122 120.006C141.122 119.286 141.257 118.651 141.528 118.1C141.799 117.546 142.181 117.113 142.673 116.802C143.166 116.492 143.746 116.336 144.414 116.336C144.952 116.336 145.432 116.436 145.854 116.636C146.276 116.833 146.616 117.11 146.874 117.467C147.136 117.824 147.291 118.241 147.34 118.718H145.997C145.923 118.386 145.754 118.1 145.489 117.86C145.228 117.62 144.877 117.499 144.437 117.499C144.052 117.499 143.715 117.601 143.426 117.804C143.139 118.004 142.916 118.29 142.756 118.663C142.596 119.032 142.516 119.469 142.516 119.974C142.516 120.491 142.595 120.937 142.752 121.313C142.909 121.688 143.13 121.979 143.416 122.185C143.706 122.391 144.046 122.495 144.437 122.495C144.698 122.495 144.935 122.447 145.148 122.351C145.363 122.253 145.543 122.113 145.688 121.931C145.835 121.75 145.939 121.531 145.997 121.276H147.34C147.291 121.734 147.142 122.144 146.893 122.504C146.643 122.864 146.309 123.147 145.891 123.353C145.475 123.559 144.988 123.662 144.427 123.662ZM150.197 119.309V123.519H148.817V114.065H150.178V117.583H150.266C150.432 117.201 150.686 116.898 151.028 116.673C151.369 116.448 151.816 116.336 152.367 116.336C152.853 116.336 153.278 116.436 153.641 116.636C154.007 116.836 154.29 117.135 154.49 117.532C154.693 117.926 154.795 118.418 154.795 119.009V123.519H153.415V119.175C153.415 118.655 153.281 118.252 153.013 117.966C152.745 117.676 152.373 117.532 151.896 117.532C151.57 117.532 151.277 117.601 151.019 117.74C150.763 117.878 150.562 118.081 150.414 118.349C150.269 118.614 150.197 118.934 150.197 119.309ZM157.546 123.607C157.294 123.607 157.077 123.518 156.895 123.339C156.714 123.158 156.623 122.939 156.623 122.684C156.623 122.431 156.714 122.216 156.895 122.037C157.077 121.856 157.294 121.765 157.546 121.765C157.799 121.765 158.016 121.856 158.197 122.037C158.379 122.216 158.47 122.431 158.47 122.684C158.47 122.853 158.427 123.008 158.34 123.15C158.257 123.289 158.146 123.399 158.008 123.482C157.869 123.566 157.716 123.607 157.546 123.607ZM163.717 123.519V114.065H167.18C167.851 114.065 168.406 114.176 168.846 114.397C169.286 114.616 169.616 114.913 169.834 115.288C170.053 115.661 170.162 116.081 170.162 116.548C170.162 116.942 170.09 117.275 169.945 117.546C169.8 117.813 169.607 118.029 169.363 118.192C169.123 118.352 168.859 118.469 168.569 118.543V118.635C168.883 118.651 169.189 118.752 169.488 118.94C169.79 119.124 170.039 119.388 170.236 119.729C170.433 120.071 170.531 120.486 170.531 120.976C170.531 121.459 170.417 121.893 170.19 122.278C169.965 122.659 169.617 122.962 169.146 123.187C168.676 123.409 168.074 123.519 167.341 123.519H163.717ZM165.144 122.296H167.203C167.886 122.296 168.375 122.164 168.671 121.899C168.966 121.634 169.114 121.303 169.114 120.906C169.114 120.608 169.039 120.334 168.888 120.085C168.737 119.835 168.522 119.637 168.242 119.489C167.965 119.341 167.635 119.268 167.254 119.268H165.144V122.296ZM165.144 118.155H167.055C167.375 118.155 167.663 118.093 167.918 117.97C168.177 117.847 168.382 117.675 168.532 117.453C168.686 117.229 168.763 116.964 168.763 116.659C168.763 116.268 168.626 115.941 168.352 115.676C168.078 115.411 167.658 115.279 167.092 115.279H165.144V118.155ZM175.099 123.662C174.435 123.662 173.854 123.51 173.359 123.205C172.863 122.901 172.479 122.475 172.205 121.927C171.931 121.379 171.794 120.739 171.794 120.006C171.794 119.271 171.931 118.627 172.205 118.077C172.479 117.526 172.863 117.098 173.359 116.793C173.854 116.488 174.435 116.336 175.099 116.336C175.764 116.336 176.344 116.488 176.84 116.793C177.335 117.098 177.72 117.526 177.994 118.077C178.268 118.627 178.405 119.271 178.405 120.006C178.405 120.739 178.268 121.379 177.994 121.927C177.72 122.475 177.335 122.901 176.84 123.205C176.344 123.51 175.764 123.662 175.099 123.662ZM175.104 122.504C175.535 122.504 175.892 122.39 176.175 122.162C176.458 121.934 176.667 121.631 176.803 121.253C176.941 120.874 177.011 120.457 177.011 120.002C177.011 119.549 176.941 119.134 176.803 118.755C176.667 118.374 176.458 118.067 176.175 117.836C175.892 117.606 175.535 117.49 175.104 117.49C174.67 117.49 174.31 117.606 174.024 117.836C173.741 118.067 173.53 118.374 173.391 118.755C173.256 119.134 173.188 119.549 173.188 120.002C173.188 120.457 173.256 120.874 173.391 121.253C173.53 121.631 173.741 121.934 174.024 122.162C174.31 122.39 174.67 122.504 175.104 122.504ZM182.932 123.662C182.268 123.662 181.687 123.51 181.192 123.205C180.696 122.901 180.312 122.475 180.038 121.927C179.764 121.379 179.627 120.739 179.627 120.006C179.627 119.271 179.764 118.627 180.038 118.077C180.312 117.526 180.696 117.098 181.192 116.793C181.687 116.488 182.268 116.336 182.932 116.336C183.597 116.336 184.177 116.488 184.673 116.793C185.168 117.098 185.553 117.526 185.827 118.077C186.101 118.627 186.238 119.271 186.238 120.006C186.238 120.739 186.101 121.379 185.827 121.927C185.553 122.475 185.168 122.901 184.673 123.205C184.177 123.51 183.597 123.662 182.932 123.662ZM182.937 122.504C183.368 122.504 183.725 122.39 184.008 122.162C184.291 121.934 184.5 121.631 184.636 121.253C184.774 120.874 184.844 120.457 184.844 120.002C184.844 119.549 184.774 119.134 184.636 118.755C184.5 118.374 184.291 118.067 184.008 117.836C183.725 117.606 183.368 117.49 182.937 117.49C182.503 117.49 182.143 117.606 181.857 117.836C181.574 118.067 181.363 118.374 181.224 118.755C181.089 119.134 181.021 119.549 181.021 120.002C181.021 120.457 181.089 120.874 181.224 121.253C181.363 121.631 181.574 121.934 181.857 122.162C182.143 122.39 182.503 122.504 182.937 122.504ZM189.048 121.114L189.039 119.429H189.279L192.104 116.428H193.757L190.535 119.845H190.318L189.048 121.114ZM187.778 123.519V114.065H189.159V123.519H187.778ZM192.256 123.519L189.717 120.149L190.668 119.185L193.951 123.519H192.256ZM198.455 123.519V116.428H199.78V117.583H199.868C200.016 117.192 200.257 116.887 200.593 116.669C200.928 116.447 201.33 116.336 201.798 116.336C202.272 116.336 202.669 116.447 202.989 116.669C203.312 116.89 203.55 117.195 203.704 117.583H203.778C203.947 117.204 204.217 116.902 204.586 116.678C204.955 116.45 205.395 116.336 205.906 116.336C206.549 116.336 207.074 116.538 207.48 116.941C207.89 117.344 208.094 117.952 208.094 118.764V123.519H206.714V118.894C206.714 118.414 206.583 118.066 206.322 117.85C206.06 117.635 205.748 117.527 205.385 117.527C204.935 117.527 204.586 117.666 204.337 117.943C204.087 118.217 203.963 118.569 203.963 119V123.519H202.587V118.806C202.587 118.421 202.467 118.112 202.227 117.878C201.987 117.644 201.674 117.527 201.29 117.527C201.028 117.527 200.787 117.596 200.565 117.735C200.346 117.87 200.17 118.06 200.034 118.303C199.902 118.546 199.836 118.827 199.836 119.148V123.519H198.455ZM213.001 123.662C212.302 123.662 211.7 123.513 211.196 123.215C210.694 122.913 210.306 122.49 210.032 121.945C209.761 121.397 209.626 120.756 209.626 120.02C209.626 119.294 209.761 118.654 210.032 118.1C210.306 117.546 210.688 117.113 211.177 116.802C211.67 116.492 212.245 116.336 212.904 116.336C213.304 116.336 213.692 116.402 214.067 116.535C214.443 116.667 214.78 116.875 215.078 117.158C215.377 117.441 215.612 117.809 215.784 118.261C215.957 118.711 216.043 119.257 216.043 119.9V120.389H210.406V119.355H214.69C214.69 118.992 214.616 118.671 214.469 118.39C214.321 118.107 214.113 117.884 213.845 117.721C213.581 117.558 213.27 117.476 212.913 117.476C212.525 117.476 212.187 117.572 211.897 117.763C211.611 117.95 211.389 118.197 211.233 118.501C211.079 118.803 211.002 119.131 211.002 119.485V120.292C211.002 120.766 211.085 121.17 211.251 121.502C211.42 121.834 211.656 122.088 211.957 122.264C212.259 122.436 212.611 122.522 213.014 122.522C213.276 122.522 213.515 122.485 213.73 122.411C213.945 122.334 214.132 122.221 214.289 122.07C214.446 121.919 214.566 121.733 214.649 121.511L215.955 121.747C215.851 122.131 215.663 122.468 215.392 122.758C215.124 123.044 214.787 123.267 214.381 123.427C213.978 123.584 213.518 123.662 213.001 123.662ZM223.078 123.676C222.629 123.676 222.223 123.593 221.86 123.427C221.496 123.258 221.209 123.013 220.996 122.693C220.787 122.373 220.682 121.981 220.682 121.516C220.682 121.116 220.759 120.786 220.913 120.528C221.067 120.269 221.275 120.065 221.536 119.914C221.798 119.763 222.09 119.649 222.414 119.572C222.737 119.495 223.066 119.437 223.402 119.397C223.826 119.348 224.171 119.308 224.436 119.277C224.7 119.243 224.893 119.189 225.013 119.115C225.133 119.041 225.193 118.921 225.193 118.755V118.723C225.193 118.32 225.079 118.007 224.851 117.786C224.626 117.564 224.291 117.453 223.845 117.453C223.38 117.453 223.014 117.556 222.746 117.763C222.481 117.966 222.298 118.192 222.197 118.441L220.899 118.146C221.053 117.715 221.278 117.367 221.573 117.102C221.872 116.835 222.215 116.641 222.603 116.521C222.991 116.398 223.398 116.336 223.826 116.336C224.109 116.336 224.409 116.37 224.726 116.438C225.047 116.502 225.345 116.622 225.622 116.798C225.902 116.973 226.131 117.224 226.31 117.55C226.488 117.873 226.578 118.294 226.578 118.811V123.519H225.23V122.55H225.174C225.085 122.728 224.951 122.904 224.773 123.076C224.594 123.249 224.365 123.392 224.085 123.506C223.805 123.619 223.469 123.676 223.078 123.676ZM223.378 122.568C223.76 122.568 224.086 122.493 224.357 122.342C224.631 122.191 224.839 121.994 224.98 121.751C225.125 121.505 225.197 121.242 225.197 120.962V120.048C225.148 120.097 225.053 120.143 224.911 120.186C224.773 120.226 224.614 120.262 224.436 120.292C224.257 120.32 224.083 120.346 223.914 120.371C223.745 120.392 223.603 120.411 223.489 120.426C223.222 120.46 222.977 120.517 222.755 120.597C222.537 120.677 222.361 120.793 222.229 120.943C222.1 121.091 222.035 121.288 222.035 121.534C222.035 121.876 222.161 122.134 222.414 122.31C222.666 122.482 222.988 122.568 223.378 122.568ZM231.857 123.519V116.428H233.191V117.555H233.265C233.394 117.173 233.622 116.873 233.948 116.655C234.277 116.433 234.65 116.322 235.065 116.322C235.151 116.322 235.253 116.325 235.37 116.332C235.49 116.338 235.584 116.345 235.651 116.355V117.675C235.596 117.66 235.497 117.643 235.356 117.624C235.214 117.603 235.073 117.592 234.931 117.592C234.605 117.592 234.314 117.661 234.059 117.8C233.806 117.935 233.606 118.124 233.459 118.367C233.311 118.607 233.237 118.881 233.237 119.189V123.519H231.857ZM236.846 123.519V116.428H238.226V123.519H236.846ZM237.543 115.334C237.303 115.334 237.097 115.254 236.924 115.094C236.755 114.931 236.67 114.737 236.67 114.513C236.67 114.285 236.755 114.091 236.924 113.931C237.097 113.768 237.303 113.686 237.543 113.686C237.783 113.686 237.988 113.768 238.157 113.931C238.329 114.091 238.415 114.285 238.415 114.513C238.415 114.737 238.329 114.931 238.157 115.094C237.988 115.254 237.783 115.334 237.543 115.334ZM242.738 123.658C242.165 123.658 241.654 123.512 241.205 123.219C240.759 122.924 240.408 122.504 240.152 121.959C239.9 121.411 239.774 120.754 239.774 119.988C239.774 119.221 239.902 118.566 240.157 118.021C240.416 117.476 240.77 117.059 241.219 116.77C241.668 116.481 242.178 116.336 242.747 116.336C243.187 116.336 243.541 116.41 243.809 116.558C244.08 116.702 244.289 116.872 244.437 117.066C244.587 117.259 244.704 117.43 244.787 117.578H244.87V114.065H246.251V123.519H244.903V122.416H244.787C244.704 122.567 244.584 122.739 244.427 122.933C244.273 123.127 244.061 123.296 243.79 123.441C243.519 123.586 243.169 123.658 242.738 123.658ZM243.042 122.481C243.439 122.481 243.775 122.376 244.049 122.167C244.326 121.954 244.535 121.66 244.677 121.285C244.821 120.91 244.894 120.473 244.894 119.974C244.894 119.481 244.823 119.051 244.681 118.681C244.54 118.312 244.332 118.024 244.058 117.818C243.784 117.612 243.446 117.509 243.042 117.509C242.627 117.509 242.281 117.616 242.004 117.832C241.727 118.047 241.517 118.341 241.376 118.714C241.237 119.086 241.168 119.506 241.168 119.974C241.168 120.448 241.239 120.874 241.38 121.253C241.522 121.631 241.731 121.931 242.008 122.153C242.288 122.371 242.633 122.481 243.042 122.481ZM251.277 123.662C250.578 123.662 249.977 123.513 249.472 123.215C248.97 122.913 248.583 122.49 248.309 121.945C248.038 121.397 247.902 120.756 247.902 120.02C247.902 119.294 248.038 118.654 248.309 118.1C248.583 117.546 248.964 117.113 249.453 116.802C249.946 116.492 250.521 116.336 251.18 116.336C251.58 116.336 251.968 116.402 252.343 116.535C252.719 116.667 253.056 116.875 253.354 117.158C253.653 117.441 253.888 117.809 254.061 118.261C254.233 118.711 254.319 119.257 254.319 119.9V120.389H248.683V119.355H252.967C252.967 118.992 252.893 118.671 252.745 118.39C252.597 118.107 252.39 117.884 252.122 117.721C251.857 117.558 251.546 117.476 251.189 117.476C250.801 117.476 250.463 117.572 250.174 117.763C249.887 117.95 249.666 118.197 249.509 118.501C249.355 118.803 249.278 119.131 249.278 119.485V120.292C249.278 120.766 249.361 121.17 249.527 121.502C249.697 121.834 249.932 122.088 250.234 122.264C250.535 122.436 250.888 122.522 251.291 122.522C251.552 122.522 251.791 122.485 252.006 122.411C252.222 122.334 252.408 122.221 252.565 122.07C252.722 121.919 252.842 121.733 252.925 121.511L254.232 121.747C254.127 122.131 253.939 122.468 253.668 122.758C253.401 123.044 253.064 123.267 252.657 123.427C252.254 123.584 251.794 123.662 251.277 123.662ZM256.76 123.607C256.508 123.607 256.291 123.518 256.109 123.339C255.928 123.158 255.837 122.939 255.837 122.684C255.837 122.431 255.928 122.216 256.109 122.037C256.291 121.856 256.508 121.765 256.76 121.765C257.013 121.765 257.23 121.856 257.411 122.037C257.593 122.216 257.684 122.431 257.684 122.684C257.684 122.853 257.64 123.008 257.554 123.15C257.471 123.289 257.36 123.399 257.222 123.482C257.083 123.566 256.929 123.607 256.76 123.607Z" fill="#FEFEFE"/>
<path d="M20.4727 197.1C17.6832 197.1 15.049 196.436 12.7178 195.26C12.2254 195.53 11.7151 195.778 11.1855 196C7.48421 197.548 3.53039 197.597 0 196.425C2.36536 194.197 4.31617 191.65 5.79785 188.91C4.17187 186.279 3.23242 183.179 3.23242 179.859H20.4727V197.1Z" fill="#3F474D"/>
<path d="M3.23267 174.93C3.23267 167.789 9.02173 162 16.1629 162H20.473V180.937H3.23267V174.93Z" fill="#3F474D"/>
<path d="M156.24 174.93C156.24 167.789 150.451 162 143.31 162H19.3953V197.24H143.31C150.451 197.24 156.24 191.451 156.24 184.31V174.93Z" fill="#3F474D"/>
<path d="M26.5139 174.166H27.945V180.384C27.945 181.046 27.7896 181.632 27.4787 182.143C27.1679 182.651 26.7308 183.051 26.1676 183.343C25.6044 183.632 24.9443 183.777 24.1872 183.777C23.4331 183.777 22.7745 183.632 22.2113 183.343C21.6481 183.051 21.2111 182.651 20.9002 182.143C20.5894 181.632 20.434 181.046 20.434 180.384V174.166H21.8605V180.269C21.8605 180.696 21.9543 181.076 22.1421 181.409C22.3329 181.741 22.6022 182.003 22.95 182.194C23.2977 182.381 23.7101 182.475 24.1872 182.475C24.6673 182.475 25.0812 182.381 25.429 182.194C25.7799 182.003 26.0476 181.741 26.2323 181.409C26.42 181.076 26.5139 180.696 26.5139 180.269V174.166ZM30.0189 183.62V174.166H31.3993V177.679H31.4824C31.5624 177.531 31.6778 177.36 31.8286 177.166C31.9794 176.972 32.1887 176.803 32.4564 176.658C32.7242 176.511 33.0781 176.437 33.5182 176.437C34.0907 176.437 34.6016 176.582 35.0509 176.871C35.5002 177.16 35.8526 177.577 36.1081 178.122C36.3666 178.667 36.4958 179.322 36.4958 180.089C36.4958 180.855 36.3681 181.512 36.1127 182.06C35.8572 182.605 35.5064 183.025 35.0601 183.32C34.6139 183.612 34.1045 183.759 33.5321 183.759C33.1012 183.759 32.7488 183.686 32.4749 183.542C32.2041 183.397 31.9917 183.228 31.8378 183.034C31.6839 182.84 31.5655 182.668 31.4824 182.517H31.3669V183.62H30.0189ZM31.3716 180.075C31.3716 180.573 31.4439 181.01 31.5885 181.386C31.7332 181.761 31.9425 182.055 32.2164 182.268C32.4903 182.477 32.8258 182.581 33.2228 182.581C33.6352 182.581 33.9799 182.472 34.2569 182.254C34.5338 182.032 34.7431 181.732 34.8847 181.353C35.0293 180.975 35.1017 180.549 35.1017 180.075C35.1017 179.607 35.0309 179.187 34.8893 178.814C34.7508 178.442 34.5415 178.148 34.2615 177.933C33.9845 177.717 33.6383 177.609 33.2228 177.609C32.8227 177.609 32.4841 177.713 32.2071 177.919C31.9332 178.125 31.7255 178.413 31.5839 178.782C31.4423 179.151 31.3716 179.582 31.3716 180.075ZM41.1019 183.763C40.4033 183.763 39.8016 183.614 39.2969 183.315C38.7952 183.014 38.4075 182.591 38.1335 182.046C37.8627 181.498 37.7273 180.856 37.7273 180.121C37.7273 179.395 37.8627 178.754 38.1335 178.2C38.4075 177.646 38.7891 177.214 39.2784 176.903C39.7709 176.592 40.3464 176.437 41.005 176.437C41.4051 176.437 41.7929 176.503 42.1683 176.635C42.5438 176.768 42.8808 176.975 43.1794 177.259C43.4779 177.542 43.7133 177.91 43.8857 178.362C44.058 178.811 44.1442 179.358 44.1442 180.001V180.49H38.5075V179.456H42.7916C42.7916 179.093 42.7177 178.771 42.57 178.491C42.4223 178.208 42.2145 177.985 41.9468 177.822C41.6821 177.659 41.3712 177.577 41.0142 177.577C40.6264 177.577 40.2879 177.673 39.9986 177.863C39.7124 178.051 39.4908 178.297 39.3338 178.602C39.1799 178.904 39.103 179.231 39.103 179.585V180.393C39.103 180.867 39.1861 181.27 39.3523 181.603C39.5216 181.935 39.757 182.189 40.0586 182.364C40.3602 182.537 40.7126 182.623 41.1158 182.623C41.3774 182.623 41.6159 182.586 41.8313 182.512C42.0468 182.435 42.233 182.321 42.3899 182.171C42.5469 182.02 42.6669 181.834 42.75 181.612L44.0565 181.847C43.9518 182.232 43.7641 182.569 43.4933 182.858C43.2255 183.145 42.8885 183.368 42.4823 183.528C42.0791 183.685 41.619 183.763 41.1019 183.763ZM45.6757 183.62V176.529H47.0099V177.656H47.0837C47.213 177.274 47.4407 176.974 47.767 176.755C48.0963 176.534 48.4687 176.423 48.8842 176.423C48.9703 176.423 49.0719 176.426 49.1889 176.432C49.3089 176.438 49.4028 176.446 49.4705 176.455V177.776C49.4151 177.76 49.3166 177.743 49.175 177.725C49.0334 177.703 48.8919 177.693 48.7503 177.693C48.4241 177.693 48.1332 177.762 47.8778 177.9C47.6254 178.036 47.4254 178.225 47.2776 178.468C47.1299 178.708 47.056 178.982 47.056 179.29V183.62H45.6757ZM54.1054 183.62V176.529H55.4857V183.62H54.1054ZM54.8025 175.435C54.5624 175.435 54.3562 175.355 54.1839 175.195C54.0146 175.032 53.93 174.838 53.93 174.613C53.93 174.386 54.0146 174.192 54.1839 174.032C54.3562 173.869 54.5624 173.787 54.8025 173.787C55.0425 173.787 55.2472 173.869 55.4165 174.032C55.5888 174.192 55.675 174.386 55.675 174.613C55.675 174.838 55.5888 175.032 55.4165 175.195C55.2472 175.355 55.0425 175.435 54.8025 175.435ZM62.6563 178.26L61.4052 178.482C61.3529 178.322 61.2698 178.17 61.1559 178.025C61.0451 177.88 60.8943 177.762 60.7035 177.67C60.5127 177.577 60.2742 177.531 59.9879 177.531C59.5971 177.531 59.2709 177.619 59.0093 177.794C58.7477 177.967 58.6169 178.19 58.6169 178.464C58.6169 178.701 58.7046 178.891 58.88 179.036C59.0554 179.181 59.3386 179.299 59.7294 179.391L60.8558 179.65C61.5083 179.801 61.9946 180.033 62.3147 180.347C62.6347 180.661 62.7948 181.069 62.7948 181.57C62.7948 181.995 62.6717 182.374 62.4254 182.706C62.1823 183.035 61.8422 183.294 61.4052 183.482C60.9713 183.669 60.4681 183.763 59.8956 183.763C59.1016 183.763 58.4537 183.594 57.9521 183.255C57.4504 182.914 57.1427 182.429 57.0288 181.801L58.3629 181.598C58.446 181.946 58.6169 182.209 58.8754 182.388C59.1339 182.563 59.4709 182.651 59.8864 182.651C60.3388 182.651 60.7004 182.557 60.9713 182.369C61.2421 182.178 61.3775 181.946 61.3775 181.672C61.3775 181.45 61.2944 181.264 61.1282 181.113C60.9651 180.963 60.7143 180.849 60.3757 180.772L59.1754 180.509C58.5138 180.358 58.0244 180.118 57.7074 179.788C57.3935 179.459 57.2365 179.042 57.2365 178.537C57.2365 178.119 57.3535 177.753 57.5874 177.439C57.8213 177.125 58.1444 176.88 58.5568 176.705C58.9692 176.526 59.4417 176.437 59.9741 176.437C60.7404 176.437 61.3437 176.603 61.7838 176.935C62.2239 177.265 62.5147 177.706 62.6563 178.26ZM71.0259 183.749C70.3919 183.749 69.8257 183.64 69.3271 183.422C68.8316 183.203 68.4392 182.9 68.1499 182.512C67.8637 182.121 67.7098 181.669 67.6882 181.155H69.1378C69.1563 181.435 69.2501 181.678 69.4194 181.884C69.5918 182.087 69.8164 182.244 70.0934 182.355C70.3704 182.466 70.6782 182.521 71.0167 182.521C71.3891 182.521 71.7184 182.457 72.0046 182.328C72.2939 182.198 72.5201 182.018 72.6833 181.787C72.8464 181.554 72.9279 181.284 72.9279 180.98C72.9279 180.663 72.8464 180.384 72.6833 180.144C72.5232 179.901 72.2878 179.71 71.9769 179.571C71.6692 179.433 71.2968 179.364 70.8598 179.364H70.0611V178.2H70.8598C71.2106 178.2 71.5184 178.137 71.783 178.011C72.0508 177.885 72.2601 177.71 72.4109 177.485C72.5617 177.257 72.6371 176.991 72.6371 176.686C72.6371 176.394 72.5709 176.14 72.4386 175.924C72.3093 175.706 72.1247 175.535 71.8846 175.412C71.6476 175.289 71.3676 175.227 71.0444 175.227C70.7366 175.227 70.4489 175.284 70.1811 175.398C69.9165 175.509 69.701 175.669 69.5348 175.878C69.3686 176.085 69.2794 176.332 69.2671 176.622H67.8867C67.9021 176.111 68.0529 175.661 68.3392 175.274C68.6285 174.886 69.0101 174.583 69.484 174.364C69.958 174.146 70.4843 174.036 71.0629 174.036C71.6692 174.036 72.1924 174.155 72.6325 174.392C73.0757 174.626 73.4173 174.938 73.6573 175.329C73.9005 175.72 74.0205 176.148 74.0174 176.612C74.0205 177.142 73.8728 177.591 73.5742 177.96C73.2788 178.33 72.8848 178.577 72.3924 178.704V178.777C73.0203 178.873 73.5065 179.122 73.8512 179.525C74.199 179.929 74.3714 180.429 74.3683 181.026C74.3714 181.546 74.2267 182.012 73.9343 182.424C73.645 182.837 73.2495 183.162 72.7479 183.399C72.2462 183.632 71.6723 183.749 71.0259 183.749ZM79.5722 183.62V176.529H80.8971V177.683H80.9848C81.1326 177.292 81.3742 176.988 81.7096 176.769C82.0451 176.548 82.4467 176.437 82.9145 176.437C83.3885 176.437 83.7855 176.548 84.1056 176.769C84.4287 176.991 84.6673 177.296 84.8211 177.683H84.895C85.0643 177.305 85.3336 177.003 85.7029 176.779C86.0722 176.551 86.5123 176.437 87.0232 176.437C87.6664 176.437 88.1912 176.638 88.5974 177.042C89.0067 177.445 89.2114 178.053 89.2114 178.865V183.62H87.8311V178.994C87.8311 178.514 87.7003 178.167 87.4387 177.951C87.1771 177.736 86.8647 177.628 86.5015 177.628C86.0522 177.628 85.7029 177.766 85.4536 178.043C85.2043 178.317 85.0797 178.67 85.0797 179.101V183.62H83.7039V178.907C83.7039 178.522 83.5839 178.213 83.3439 177.979C83.1038 177.745 82.7914 177.628 82.4067 177.628C82.1451 177.628 81.9035 177.697 81.6819 177.836C81.4634 177.971 81.2865 178.16 81.151 178.404C81.0187 178.647 80.9525 178.928 80.9525 179.248V183.62H79.5722ZM91.0615 183.62V176.529H92.4418V183.62H91.0615ZM91.7585 175.435C91.5185 175.435 91.3123 175.355 91.1399 175.195C90.9707 175.032 90.886 174.838 90.886 174.613C90.886 174.386 90.9707 174.192 91.1399 174.032C91.3123 173.869 91.5185 173.787 91.7585 173.787C91.9986 173.787 92.2033 173.869 92.3725 174.032C92.5449 174.192 92.6311 174.386 92.6311 174.613C92.6311 174.838 92.5449 175.032 92.3725 175.195C92.2033 175.355 91.9986 175.435 91.7585 175.435ZM95.6791 179.41V183.62H94.2988V176.529H95.6237V177.683H95.7114C95.8745 177.308 96.13 177.006 96.4777 176.779C96.8286 176.551 97.2702 176.437 97.8027 176.437C98.2859 176.437 98.709 176.538 99.0722 176.742C99.4354 176.942 99.717 177.24 99.917 177.637C100.117 178.034 100.217 178.525 100.217 179.11V183.62H98.8368V179.276C98.8368 178.762 98.7029 178.36 98.4351 178.071C98.1674 177.779 97.7996 177.633 97.3318 177.633C97.0117 177.633 96.727 177.702 96.4777 177.84C96.2315 177.979 96.0361 178.182 95.8914 178.45C95.7499 178.714 95.6791 179.034 95.6791 179.41ZM107.382 178.26L106.131 178.482C106.078 178.322 105.995 178.17 105.882 178.025C105.771 177.88 105.62 177.762 105.429 177.67C105.238 177.577 105 177.531 104.714 177.531C104.323 177.531 103.996 177.619 103.735 177.794C103.473 177.967 103.342 178.19 103.342 178.464C103.342 178.701 103.43 178.891 103.606 179.036C103.781 179.181 104.064 179.299 104.455 179.391L105.581 179.65C106.234 179.801 106.72 180.033 107.04 180.347C107.36 180.661 107.52 181.069 107.52 181.57C107.52 181.995 107.397 182.374 107.151 182.706C106.908 183.035 106.568 183.294 106.131 183.482C105.697 183.669 105.194 183.763 104.621 183.763C103.827 183.763 103.179 183.594 102.678 183.255C102.176 182.914 101.868 182.429 101.754 181.801L103.089 181.598C103.172 181.946 103.342 182.209 103.601 182.388C103.859 182.563 104.196 182.651 104.612 182.651C105.064 182.651 105.426 182.557 105.697 182.369C105.968 182.178 106.103 181.946 106.103 181.672C106.103 181.45 106.02 181.264 105.854 181.113C105.691 180.963 105.44 180.849 105.101 180.772L103.901 180.509C103.239 180.358 102.75 180.118 102.433 179.788C102.119 179.459 101.962 179.042 101.962 178.537C101.962 178.119 102.079 177.753 102.313 177.439C102.547 177.125 102.87 176.88 103.282 176.705C103.695 176.526 104.167 176.437 104.7 176.437C105.466 176.437 106.069 176.603 106.509 176.935C106.949 177.265 107.24 177.706 107.382 178.26ZM114.542 183.777C114.093 183.777 113.686 183.694 113.323 183.528C112.96 183.359 112.672 183.114 112.46 182.794C112.251 182.474 112.146 182.081 112.146 181.617C112.146 181.217 112.223 180.887 112.377 180.629C112.531 180.37 112.739 180.165 113 180.015C113.262 179.864 113.554 179.75 113.877 179.673C114.2 179.596 114.53 179.538 114.865 179.498C115.29 179.448 115.635 179.408 115.899 179.378C116.164 179.344 116.356 179.29 116.476 179.216C116.596 179.142 116.656 179.022 116.656 178.856V178.824C116.656 178.42 116.542 178.108 116.315 177.886C116.09 177.665 115.755 177.554 115.308 177.554C114.844 177.554 114.477 177.657 114.21 177.863C113.945 178.067 113.762 178.293 113.66 178.542L112.363 178.247C112.517 177.816 112.742 177.468 113.037 177.203C113.336 176.935 113.679 176.742 114.067 176.622C114.454 176.498 114.862 176.437 115.29 176.437C115.573 176.437 115.873 176.471 116.19 176.538C116.51 176.603 116.809 176.723 117.086 176.899C117.366 177.074 117.595 177.325 117.774 177.651C117.952 177.974 118.041 178.394 118.041 178.911V183.62H116.693V182.651H116.638C116.549 182.829 116.415 183.005 116.236 183.177C116.058 183.349 115.828 183.492 115.548 183.606C115.268 183.72 114.933 183.777 114.542 183.777ZM114.842 182.669C115.224 182.669 115.55 182.594 115.821 182.443C116.095 182.292 116.302 182.095 116.444 181.852C116.589 181.606 116.661 181.343 116.661 181.063V180.149C116.612 180.198 116.516 180.244 116.375 180.287C116.236 180.327 116.078 180.362 115.899 180.393C115.721 180.421 115.547 180.447 115.378 180.472C115.208 180.493 115.067 180.512 114.953 180.527C114.685 180.561 114.44 180.618 114.219 180.698C114 180.778 113.825 180.893 113.693 181.044C113.563 181.192 113.499 181.389 113.499 181.635C113.499 181.977 113.625 182.235 113.877 182.411C114.13 182.583 114.451 182.669 114.842 182.669ZM121.417 183.62L119.33 176.529H120.757L122.147 181.737H122.216L123.61 176.529H125.036L126.421 181.714H126.491L127.871 176.529H129.297L127.215 183.62H125.807L124.367 178.5H124.261L122.821 183.62H121.417ZM132.671 183.777C132.222 183.777 131.815 183.694 131.452 183.528C131.089 183.359 130.801 183.114 130.589 182.794C130.38 182.474 130.275 182.081 130.275 181.617C130.275 181.217 130.352 180.887 130.506 180.629C130.66 180.37 130.867 180.165 131.129 180.015C131.391 179.864 131.683 179.75 132.006 179.673C132.329 179.596 132.659 179.538 132.994 179.498C133.419 179.448 133.763 179.408 134.028 179.378C134.293 179.344 134.485 179.29 134.605 179.216C134.725 179.142 134.785 179.022 134.785 178.856V178.824C134.785 178.42 134.671 178.108 134.444 177.886C134.219 177.665 133.884 177.554 133.437 177.554C132.973 177.554 132.606 177.657 132.339 177.863C132.074 178.067 131.891 178.293 131.789 178.542L130.492 178.247C130.646 177.816 130.87 177.468 131.166 177.203C131.464 176.935 131.808 176.742 132.195 176.622C132.583 176.498 132.991 176.437 133.419 176.437C133.702 176.437 134.002 176.471 134.319 176.538C134.639 176.603 134.938 176.723 135.215 176.899C135.495 177.074 135.724 177.325 135.902 177.651C136.081 177.974 136.17 178.394 136.17 178.911V183.62H134.822V182.651H134.767C134.678 182.829 134.544 183.005 134.365 183.177C134.187 183.349 133.957 183.492 133.677 183.606C133.397 183.72 133.062 183.777 132.671 183.777ZM132.971 182.669C133.353 182.669 133.679 182.594 133.95 182.443C134.224 182.292 134.431 182.095 134.573 181.852C134.718 181.606 134.79 181.343 134.79 181.063V180.149C134.741 180.198 134.645 180.244 134.504 180.287C134.365 180.327 134.207 180.362 134.028 180.393C133.85 180.421 133.676 180.447 133.507 180.472C133.337 180.493 133.196 180.512 133.082 180.527C132.814 180.561 132.569 180.618 132.348 180.698C132.129 180.778 131.954 180.893 131.821 181.044C131.692 181.192 131.628 181.389 131.628 181.635C131.628 181.977 131.754 182.235 132.006 182.411C132.259 182.583 132.58 182.669 132.971 182.669ZM138.627 186.279C138.421 186.279 138.233 186.262 138.064 186.228C137.895 186.198 137.769 186.164 137.686 186.127L138.018 184.996C138.27 185.064 138.495 185.093 138.692 185.084C138.889 185.074 139.063 185 139.214 184.862C139.368 184.723 139.503 184.497 139.62 184.183L139.791 183.712L137.196 176.529H138.673L140.469 182.032H140.543L142.339 176.529H143.821L140.899 184.567C140.763 184.936 140.591 185.248 140.382 185.504C140.172 185.762 139.923 185.956 139.634 186.085C139.344 186.215 139.009 186.279 138.627 186.279ZM145.583 183.708C145.331 183.708 145.114 183.619 144.932 183.44C144.751 183.259 144.66 183.04 144.66 182.785C144.66 182.532 144.751 182.317 144.932 182.138C145.114 181.957 145.331 181.866 145.583 181.866C145.836 181.866 146.053 181.957 146.234 182.138C146.416 182.317 146.507 182.532 146.507 182.785C146.507 182.954 146.463 183.109 146.377 183.251C146.294 183.389 146.183 183.5 146.045 183.583C145.906 183.666 145.752 183.708 145.583 183.708Z" fill="#FEFEFE"/>
</svg>
