<svg width="266" height="73" viewBox="0 0 266 73" fill="none" xmlns="http://www.w3.org/2000/svg">
<path d="M243.59 72.7178C246.643 72.7178 249.526 71.9914 252.078 70.7041C252.617 70.9996 253.176 71.2712 253.756 71.5137C257.807 73.2083 262.136 73.2626 266 71.9795C263.411 69.5406 261.276 66.7518 259.654 63.7529C261.434 60.8733 262.462 57.4796 262.462 53.8457H243.59V72.7178Z" fill="#FF5895"/>
<path d="M262.461 14.1538C262.461 6.33688 256.125 0 248.308 0H243.59V55.0252H262.461V14.1538Z" fill="#FF5895"/>
<path d="M0 14.1538C0 6.33689 6.33689 0 14.1538 0H244.769V72.8718H14.1538C6.33689 72.8718 0 66.5349 0 58.7179V14.1538Z" fill="#FF5895"/>
<path d="M21.82 13.254H23.3612V19.9507C23.3612 20.6633 23.1938 21.2947 22.8591 21.8449C22.5243 22.3918 22.0537 22.8226 21.4471 23.1375C20.8406 23.449 20.1297 23.6048 19.3143 23.6048C18.5023 23.6048 17.793 23.449 17.1865 23.1375C16.5799 22.8226 16.1093 22.3918 15.7745 21.8449C15.4398 21.2947 15.2724 20.6633 15.2724 19.9507V13.254H16.8086V19.8264C16.8086 20.2871 16.9097 20.6964 17.1119 21.0544C17.3174 21.4124 17.6074 21.6941 17.9819 21.8996C18.3565 22.1017 18.8006 22.2028 19.3143 22.2028C19.8314 22.2028 20.2772 22.1017 20.6517 21.8996C21.0295 21.6941 21.3179 21.4124 21.5167 21.0544C21.7189 20.6964 21.82 20.2871 21.82 19.8264V13.254ZM28.6771 26.4585C28.0705 26.4585 27.5485 26.379 27.111 26.2199C26.6768 26.0608 26.3222 25.8503 26.0471 25.5885C25.772 25.3267 25.5665 25.04 25.4306 24.7284L26.7083 24.2014C26.7978 24.3472 26.9171 24.5014 27.0663 24.6638C27.2187 24.8295 27.4242 24.9704 27.6828 25.0864C27.9446 25.2024 28.281 25.2604 28.692 25.2604C29.2554 25.2604 29.7211 25.1228 30.089 24.8477C30.4569 24.5759 30.6408 24.1418 30.6408 23.5452V22.0437H30.5464C30.4569 22.2062 30.3276 22.3868 30.1586 22.5856C29.9929 22.7845 29.7642 22.9569 29.4725 23.1027C29.1809 23.2485 28.8014 23.3214 28.334 23.3214C27.7308 23.3214 27.1872 23.1806 26.7033 22.8989C26.2228 22.6138 25.8416 22.1946 25.5599 21.641C25.2815 21.0842 25.1423 20.3998 25.1423 19.5878C25.1423 18.7758 25.2798 18.0797 25.5549 17.4997C25.8333 16.9197 26.2145 16.4756 26.6984 16.1673C27.1823 15.8558 27.7308 15.7 28.344 15.7C28.8179 15.7 29.2007 15.7795 29.4924 15.9386C29.7841 16.0944 30.0111 16.2767 30.1735 16.4855C30.3392 16.6943 30.4668 16.8783 30.5563 17.0374H30.6657V15.7994H32.1224V23.6048C32.1224 24.2611 31.9699 24.7997 31.665 25.2206C31.3601 25.6415 30.9474 25.9531 30.4271 26.1553C29.91 26.3574 29.3267 26.4585 28.6771 26.4585ZM28.6622 22.0885C29.0897 22.0885 29.451 21.9891 29.746 21.7902C30.0443 21.588 30.2696 21.2997 30.4221 20.9251C30.5779 20.5473 30.6558 20.0949 30.6558 19.5679C30.6558 19.0542 30.5795 18.6017 30.4271 18.2106C30.2746 17.8196 30.0509 17.5146 29.7559 17.2959C29.4609 17.0738 29.0963 16.9628 28.6622 16.9628C28.2147 16.9628 27.8418 17.0788 27.5435 17.3108C27.2453 17.5395 27.0199 17.851 26.8674 18.2454C26.7183 18.6399 26.6437 19.0807 26.6437 19.5679C26.6437 20.0684 26.7199 20.5075 26.8724 20.8854C27.0248 21.2632 27.2502 21.5582 27.5485 21.7703C27.8501 21.9824 28.2213 22.0885 28.6622 22.0885ZM35.6025 18.9017V23.4358H34.116V13.254H35.5826V17.0423H35.6771C35.856 16.6313 36.1295 16.3049 36.4974 16.0629C36.8653 15.821 37.3459 15.7 37.9391 15.7C38.4628 15.7 38.9202 15.8077 39.3113 16.0231C39.7057 16.2386 40.0106 16.5601 40.2261 16.9876C40.4448 17.4119 40.5542 17.9422 40.5542 18.5785V23.4358H39.0677V18.7575C39.0677 18.1974 38.9235 17.7632 38.6352 17.455C38.3468 17.1434 37.9458 16.9876 37.432 16.9876C37.0807 16.9876 36.7658 17.0622 36.4874 17.2114C36.2123 17.3605 35.9953 17.5793 35.8362 17.8676C35.6804 18.1526 35.6025 18.4973 35.6025 18.9017ZM44.4718 22.0437L44.3972 22.5856C44.3475 22.9834 44.263 23.3977 44.1437 23.8285C44.0277 24.2627 43.9067 24.6654 43.7808 25.0366C43.6581 25.4079 43.557 25.7028 43.4775 25.9216H42.4235C42.4666 25.7161 42.5263 25.4377 42.6025 25.0864C42.6787 24.7383 42.7533 24.3489 42.8262 23.918C42.8991 23.4872 42.9538 23.048 42.9903 22.6006L43.04 22.0437H44.4718ZM50.2314 13.254H52.0957L55.3372 21.1687H55.4565L58.698 13.254H60.5624V23.4358H59.1007V16.0679H59.0063L56.0034 23.4209H54.7903L51.7875 16.0629H51.693V23.4358H50.2314V13.254ZM62.6765 23.4358V15.7994H64.163V23.4358H62.6765ZM63.4272 14.6212C63.1687 14.6212 62.9467 14.535 62.7611 14.3626C62.5788 14.187 62.4876 13.9782 62.4876 13.7362C62.4876 13.491 62.5788 13.2821 62.7611 13.1098C62.9467 12.9341 63.1687 12.8463 63.4272 12.8463C63.6858 12.8463 63.9062 12.9341 64.0885 13.1098C64.2741 13.2821 64.3669 13.491 64.3669 13.7362C64.3669 13.9782 64.2741 14.187 64.0885 14.3626C63.9062 14.535 63.6858 14.6212 63.4272 14.6212ZM67.5301 20.8456L67.5201 19.031H67.7786L70.8212 15.7994H72.6011L69.1309 19.4784H68.8972L67.5301 20.8456ZM66.1629 23.4358V13.254H67.6494V23.4358H66.1629ZM70.9853 23.4358L68.2509 19.8065L69.2751 18.7675L72.8099 23.4358H70.9853ZM76.9326 23.5899C76.1802 23.5899 75.5322 23.4292 74.9887 23.1077C74.4484 22.7829 74.0308 22.3271 73.7358 21.7405C73.4442 21.1505 73.2983 20.4595 73.2983 19.6673C73.2983 18.8851 73.4442 18.1957 73.7358 17.5991C74.0308 17.0026 74.4418 16.5369 74.9688 16.2021C75.4991 15.8674 76.1189 15.7 76.8282 15.7C77.259 15.7 77.6767 15.7713 78.081 15.9138C78.4854 16.0563 78.8483 16.28 79.1698 16.5849C79.4913 16.8899 79.7448 17.2859 79.9304 17.7731C80.116 18.2571 80.2089 18.8454 80.2089 19.5381V20.0651H74.1385V18.9514H78.7522C78.7522 18.5603 78.6726 18.214 78.5135 17.9124C78.3544 17.6074 78.1307 17.3671 77.8424 17.1915C77.5573 17.0158 77.2226 16.928 76.8381 16.928C76.4205 16.928 76.0559 17.0307 75.7444 17.2362C75.4361 17.4384 75.1975 17.7035 75.0285 18.0317C74.8627 18.3565 74.7799 18.7095 74.7799 19.0906V19.9606C74.7799 20.4711 74.8694 20.9053 75.0483 21.2632C75.2306 21.6212 75.4842 21.8946 75.809 22.0835C76.1338 22.2691 76.5133 22.3619 76.9475 22.3619C77.2292 22.3619 77.4861 22.3222 77.7181 22.2426C77.9501 22.1597 78.1506 22.0371 78.3196 21.8747C78.4887 21.7123 78.6179 21.5118 78.7074 21.2731L80.1144 21.5267C80.0017 21.941 79.7995 22.3039 79.5079 22.6155C79.2195 22.9237 78.8566 23.164 78.4191 23.3364C77.9849 23.5054 77.4894 23.5899 76.9326 23.5899ZM85.5633 23.4358V15.7994H87.0498V23.4358H85.5633ZM86.314 14.6212C86.0554 14.6212 85.8334 14.535 85.6478 14.3626C85.4655 14.187 85.3743 13.9782 85.3743 13.7362C85.3743 13.491 85.4655 13.2821 85.6478 13.1098C85.8334 12.9341 86.0554 12.8463 86.314 12.8463C86.5725 12.8463 86.7929 12.9341 86.9752 13.1098C87.1608 13.2821 87.2536 13.491 87.2536 13.7362C87.2536 13.9782 87.1608 14.187 86.9752 14.3626C86.7929 14.535 86.5725 14.6212 86.314 14.6212ZM94.7719 17.6638L93.4246 17.9024C93.3682 17.7301 93.2787 17.566 93.1561 17.4102C93.0368 17.2544 92.8744 17.1268 92.6689 17.0274C92.4634 16.928 92.2065 16.8783 91.8983 16.8783C91.4774 16.8783 91.1261 16.9727 90.8443 17.1616C90.5626 17.3472 90.4217 17.5875 90.4217 17.8825C90.4217 18.1377 90.5162 18.3432 90.7051 18.499C90.894 18.6548 91.199 18.7824 91.6199 18.8818L92.833 19.1602C93.5356 19.3226 94.0593 19.5729 94.404 19.9109C94.7487 20.249 94.921 20.6882 94.921 21.2284C94.921 21.6858 94.7885 22.0935 94.5233 22.4514C94.2615 22.8061 93.8952 23.0845 93.4246 23.2866C92.9573 23.4888 92.4154 23.5899 91.7989 23.5899C90.9438 23.5899 90.2461 23.4076 89.7058 23.043C89.1656 22.6751 88.8341 22.1531 88.7115 21.477L90.1483 21.2582C90.2378 21.6328 90.4217 21.9161 90.7002 22.1084C90.9786 22.2973 91.3415 22.3918 91.7889 22.3918C92.2761 22.3918 92.6656 22.2907 92.9573 22.0885C93.2489 21.883 93.3948 21.6328 93.3948 21.3378C93.3948 21.0991 93.3053 20.8986 93.1263 20.7362C92.9506 20.5738 92.6805 20.4512 92.3159 20.3683L91.0233 20.0849C90.3107 19.9225 89.7837 19.664 89.4423 19.3094C89.1043 18.9547 88.9352 18.5056 88.9352 17.9621C88.9352 17.5113 89.0612 17.1169 89.3131 16.7788C89.565 16.4408 89.913 16.1773 90.3571 15.9883C90.8012 15.7961 91.31 15.7 91.8834 15.7C92.7087 15.7 93.3583 15.879 93.8323 16.2369C94.3062 16.5916 94.6194 17.0672 94.7719 17.6638ZM102.483 23.6048C101.999 23.6048 101.561 23.5153 101.17 23.3364C100.779 23.1541 100.469 22.8906 100.241 22.5459C100.015 22.2012 99.9026 21.7786 99.9026 21.2781C99.9026 20.8472 99.9854 20.4926 100.151 20.2142C100.317 19.9358 100.541 19.7154 100.822 19.553C101.104 19.3906 101.419 19.2679 101.767 19.1851C102.115 19.1022 102.47 19.0392 102.831 18.9962C103.288 18.9431 103.659 18.9 103.944 18.8669C104.23 18.8304 104.437 18.7724 104.566 18.6929C104.695 18.6133 104.76 18.4841 104.76 18.3051V18.2703C104.76 17.8361 104.637 17.4997 104.392 17.2611C104.15 17.0224 103.789 16.9031 103.308 16.9031C102.808 16.9031 102.413 17.0142 102.125 17.2362C101.84 17.455 101.643 17.6986 101.533 17.967L100.136 17.6489C100.302 17.1848 100.544 16.8103 100.862 16.5253C101.184 16.2369 101.553 16.0281 101.971 15.8989C102.388 15.7663 102.828 15.7 103.288 15.7C103.593 15.7 103.916 15.7365 104.258 15.8094C104.602 15.879 104.924 16.0082 105.222 16.1972C105.524 16.3861 105.771 16.6562 105.963 17.0075C106.155 17.3555 106.251 17.808 106.251 18.3648V23.4358H104.8V22.3918H104.74C104.644 22.584 104.5 22.7729 104.307 22.9585C104.115 23.1441 103.868 23.2982 103.567 23.4209C103.265 23.5435 102.904 23.6048 102.483 23.6048ZM102.806 22.4116C103.217 22.4116 103.568 22.3304 103.86 22.168C104.155 22.0056 104.379 21.7935 104.531 21.5317C104.687 21.2665 104.765 20.9831 104.765 20.6815V19.6972C104.712 19.7502 104.609 19.7999 104.457 19.8463C104.307 19.8894 104.137 19.9275 103.944 19.9606C103.752 19.9905 103.565 20.0187 103.383 20.0452C103.2 20.0684 103.048 20.0883 102.925 20.1048C102.637 20.1413 102.373 20.2026 102.135 20.2888C101.899 20.3749 101.711 20.4992 101.568 20.6616C101.429 20.8207 101.359 21.0329 101.359 21.298C101.359 21.6659 101.495 21.9443 101.767 22.1332C102.039 22.3188 102.385 22.4116 102.806 22.4116ZM113.954 17.6638L112.606 17.9024C112.55 17.7301 112.46 17.566 112.338 17.4102C112.218 17.2544 112.056 17.1268 111.851 17.0274C111.645 16.928 111.388 16.8783 111.08 16.8783C110.659 16.8783 110.308 16.9727 110.026 17.1616C109.744 17.3472 109.603 17.5875 109.603 17.8825C109.603 18.1377 109.698 18.3432 109.887 18.499C110.076 18.6548 110.381 18.7824 110.802 18.8818L112.015 19.1602C112.717 19.3226 113.241 19.5729 113.586 19.9109C113.93 20.249 114.103 20.6882 114.103 21.2284C114.103 21.6858 113.97 22.0935 113.705 22.4514C113.443 22.8061 113.077 23.0845 112.606 23.2866C112.139 23.4888 111.597 23.5899 110.981 23.5899C110.125 23.5899 109.428 23.4076 108.887 23.043C108.347 22.6751 108.016 22.1531 107.893 21.477L109.33 21.2582C109.419 21.6328 109.603 21.9161 109.882 22.1084C110.16 22.2973 110.523 22.3918 110.971 22.3918C111.458 22.3918 111.847 22.2907 112.139 22.0885C112.431 21.883 112.576 21.6328 112.576 21.3378C112.576 21.0991 112.487 20.8986 112.308 20.7362C112.132 20.5738 111.862 20.4512 111.498 20.3683L110.205 20.0849C109.492 19.9225 108.965 19.664 108.624 19.3094C108.286 18.9547 108.117 18.5056 108.117 17.9621C108.117 17.5113 108.243 17.1169 108.495 16.7788C108.747 16.4408 109.095 16.1773 109.539 15.9883C109.983 15.7961 110.492 15.7 111.065 15.7C111.89 15.7 112.54 15.879 113.014 16.2369C113.488 16.5916 113.801 17.0672 113.954 17.6638ZM117.104 20.8456L117.094 19.031H117.353L120.395 15.7994H122.175L118.705 19.4784H118.471L117.104 20.8456ZM115.737 23.4358V13.254H117.224V23.4358H115.737ZM120.56 23.4358L117.825 19.8065L118.849 18.7675L122.384 23.4358H120.56ZM123.53 23.4358V15.7994H125.017V23.4358H123.53ZM124.281 14.6212C124.022 14.6212 123.8 14.535 123.615 14.3626C123.432 14.187 123.341 13.9782 123.341 13.7362C123.341 13.491 123.432 13.2821 123.615 13.1098C123.8 12.9341 124.022 12.8463 124.281 12.8463C124.539 12.8463 124.76 12.9341 124.942 13.1098C125.128 13.2821 125.22 13.491 125.22 13.7362C125.22 13.9782 125.128 14.187 124.942 14.3626C124.76 14.535 124.539 14.6212 124.281 14.6212ZM128.503 18.9017V23.4358H127.016V15.7994H128.443V17.0423H128.538C128.713 16.638 128.988 16.3132 129.363 16.0679C129.741 15.8226 130.216 15.7 130.79 15.7C131.31 15.7 131.766 15.8094 132.157 16.0281C132.548 16.2436 132.851 16.5651 133.067 16.9926C133.282 17.4202 133.39 17.9488 133.39 18.5785V23.4358H131.903V18.7575C131.903 18.204 131.759 17.7715 131.471 17.4599C131.183 17.1451 130.787 16.9876 130.283 16.9876C129.938 16.9876 129.631 17.0622 129.363 17.2114C129.098 17.3605 128.887 17.5793 128.732 17.8676C128.579 18.1526 128.503 18.4973 128.503 18.9017ZM138.585 26.4585C137.979 26.4585 137.457 26.379 137.019 26.2199C136.585 26.0608 136.23 25.8503 135.955 25.5885C135.68 25.3267 135.475 25.04 135.339 24.7284L136.617 24.2014C136.706 24.3472 136.825 24.5014 136.974 24.6638C137.127 24.8295 137.332 24.9704 137.591 25.0864C137.853 25.2024 138.189 25.2604 138.6 25.2604C139.164 25.2604 139.629 25.1228 139.997 24.8477C140.365 24.5759 140.549 24.1418 140.549 23.5452V22.0437H140.455C140.365 22.2062 140.236 22.3868 140.067 22.5856C139.901 22.7845 139.672 22.9569 139.381 23.1027C139.089 23.2485 138.71 23.3214 138.242 23.3214C137.639 23.3214 137.095 23.1806 136.612 22.8989C136.131 22.6138 135.75 22.1946 135.468 21.641C135.19 21.0842 135.05 20.3998 135.05 19.5878C135.05 18.7758 135.188 18.0797 135.463 17.4997C135.742 16.9197 136.123 16.4756 136.607 16.1673C137.09 15.8558 137.639 15.7 138.252 15.7C138.726 15.7 139.109 15.7795 139.401 15.9386C139.692 16.0944 139.919 16.2767 140.082 16.4855C140.247 16.6943 140.375 16.8783 140.465 17.0374H140.574V15.7994H142.031V23.6048C142.031 24.2611 141.878 24.7997 141.573 25.2206C141.268 25.6415 140.856 25.9531 140.335 26.1553C139.818 26.3574 139.235 26.4585 138.585 26.4585ZM138.57 22.0885C138.998 22.0885 139.359 21.9891 139.654 21.7902C139.952 21.588 140.178 21.2997 140.33 20.9251C140.486 20.5473 140.564 20.0949 140.564 19.5679C140.564 19.0542 140.488 18.6017 140.335 18.2106C140.183 17.8196 139.959 17.5146 139.664 17.2959C139.369 17.0738 139.005 16.9628 138.57 16.9628C138.123 16.9628 137.75 17.0788 137.452 17.3108C137.153 17.5395 136.928 17.851 136.776 18.2454C136.626 18.6399 136.552 19.0807 136.552 19.5679C136.552 20.0684 136.628 20.5075 136.781 20.8854C136.933 21.2632 137.158 21.5582 137.457 21.7703C137.758 21.9824 138.13 22.0885 138.57 22.0885ZM151.294 15.7994V16.9926H147.123V15.7994H151.294ZM148.241 13.9699H149.728V21.1936C149.728 21.482 149.771 21.699 149.857 21.8449C149.943 21.9874 150.054 22.0852 150.19 22.1382C150.329 22.1879 150.48 22.2128 150.643 22.2128C150.762 22.2128 150.866 22.2045 150.956 22.1879C151.045 22.1713 151.115 22.1581 151.165 22.1481L151.433 23.3761C151.347 23.4093 151.224 23.4424 151.065 23.4756C150.906 23.512 150.707 23.5319 150.469 23.5352C150.078 23.5419 149.713 23.4722 149.375 23.3264C149.037 23.1806 148.763 22.9552 148.555 22.6503C148.346 22.3454 148.241 21.9625 148.241 21.5018V13.9699ZM156.073 23.5899C155.357 23.5899 154.732 23.4258 154.199 23.0977C153.665 22.7696 153.251 22.3106 152.956 21.7206C152.661 21.1306 152.513 20.4412 152.513 19.6524C152.513 18.8603 152.661 18.1676 152.956 17.5743C153.251 16.981 153.665 16.5203 154.199 16.1922C154.732 15.8641 155.357 15.7 156.073 15.7C156.789 15.7 157.414 15.8641 157.947 16.1922C158.481 16.5203 158.895 16.981 159.19 17.5743C159.485 18.1676 159.633 18.8603 159.633 19.6524C159.633 20.4412 159.485 21.1306 159.19 21.7206C158.895 22.3106 158.481 22.7696 157.947 23.0977C157.414 23.4258 156.789 23.5899 156.073 23.5899ZM156.078 22.342C156.542 22.342 156.926 22.2194 157.231 21.9741C157.536 21.7289 157.762 21.4024 157.907 20.9947C158.057 20.5871 158.131 20.138 158.131 19.6474C158.131 19.1602 158.057 18.7128 157.907 18.3051C157.762 17.8941 157.536 17.5643 157.231 17.3158C156.926 17.0672 156.542 16.9429 156.078 16.9429C155.61 16.9429 155.223 17.0672 154.914 17.3158C154.61 17.5643 154.383 17.8941 154.233 18.3051C154.088 18.7128 154.015 19.1602 154.015 19.6474C154.015 20.138 154.088 20.5871 154.233 20.9947C154.383 21.4024 154.61 21.7289 154.914 21.9741C155.223 22.2194 155.61 22.342 156.078 22.342ZM166.483 18.9017V23.4358H164.997V13.254H166.463V17.0423H166.558C166.737 16.6313 167.01 16.3049 167.378 16.0629C167.746 15.821 168.227 15.7 168.82 15.7C169.344 15.7 169.801 15.8077 170.192 16.0231C170.587 16.2386 170.891 16.5601 171.107 16.9876C171.326 17.4119 171.435 17.9422 171.435 18.5785V23.4358H169.949V18.7575C169.949 18.1974 169.804 17.7632 169.516 17.455C169.228 17.1434 168.827 16.9876 168.313 16.9876C167.962 16.9876 167.647 17.0622 167.368 17.2114C167.093 17.3605 166.876 17.5793 166.717 17.8676C166.561 18.1526 166.483 18.4973 166.483 18.9017ZM175.641 23.6048C175.157 23.6048 174.72 23.5153 174.329 23.3364C173.937 23.1541 173.628 22.8906 173.399 22.5459C173.173 22.2012 173.061 21.7786 173.061 21.2781C173.061 20.8472 173.144 20.4926 173.309 20.2142C173.475 19.9358 173.699 19.7154 173.981 19.553C174.262 19.3906 174.577 19.2679 174.925 19.1851C175.273 19.1022 175.628 19.0392 175.989 18.9962C176.446 18.9431 176.818 18.9 177.103 18.8669C177.388 18.8304 177.595 18.7724 177.724 18.6929C177.853 18.6133 177.918 18.4841 177.918 18.3051V18.2703C177.918 17.8361 177.795 17.4997 177.55 17.2611C177.308 17.0224 176.947 16.9031 176.466 16.9031C175.966 16.9031 175.571 17.0142 175.283 17.2362C174.998 17.455 174.801 17.6986 174.691 17.967L173.294 17.6489C173.46 17.1848 173.702 16.8103 174.02 16.5253C174.342 16.2369 174.711 16.0281 175.129 15.8989C175.547 15.7663 175.986 15.7 176.446 15.7C176.751 15.7 177.074 15.7365 177.416 15.8094C177.761 15.879 178.082 16.0082 178.38 16.1972C178.682 16.3861 178.929 16.6562 179.121 17.0075C179.313 17.3555 179.409 17.808 179.409 18.3648V23.4358H177.958V22.3918H177.898C177.802 22.584 177.658 22.7729 177.466 22.9585C177.273 23.1441 177.026 23.2982 176.725 23.4209C176.423 23.5435 176.062 23.6048 175.641 23.6048ZM175.964 22.4116C176.375 22.4116 176.726 22.3304 177.018 22.168C177.313 22.0056 177.537 21.7935 177.689 21.5317C177.845 21.2665 177.923 20.9831 177.923 20.6815V19.6972C177.87 19.7502 177.767 19.7999 177.615 19.8463C177.466 19.8894 177.295 19.9275 177.103 19.9606C176.91 19.9905 176.723 20.0187 176.541 20.0452C176.359 20.0684 176.206 20.0883 176.083 20.1048C175.795 20.1413 175.532 20.2026 175.293 20.2888C175.058 20.3749 174.869 20.4992 174.726 20.6616C174.587 20.8207 174.517 21.0329 174.517 21.298C174.517 21.6659 174.653 21.9443 174.925 22.1332C175.197 22.3188 175.543 22.4116 175.964 22.4116ZM182.876 18.9017V23.4358H181.389V15.7994H182.816V17.0423H182.911C183.086 16.638 183.361 16.3132 183.736 16.0679C184.114 15.8226 184.589 15.7 185.163 15.7C185.683 15.7 186.139 15.8094 186.53 16.0281C186.921 16.2436 187.224 16.5651 187.44 16.9926C187.655 17.4202 187.763 17.9488 187.763 18.5785V23.4358H186.277V18.7575C186.277 18.204 186.132 17.7715 185.844 17.4599C185.556 17.1451 185.16 16.9876 184.656 16.9876C184.311 16.9876 184.004 17.0622 183.736 17.2114C183.471 17.3605 183.26 17.5793 183.105 17.8676C182.952 18.1526 182.876 18.4973 182.876 18.9017ZM192.958 26.4585C192.352 26.4585 191.83 26.379 191.392 26.2199C190.958 26.0608 190.603 25.8503 190.328 25.5885C190.053 25.3267 189.848 25.04 189.712 24.7284L190.99 24.2014C191.079 24.3472 191.198 24.5014 191.348 24.6638C191.5 24.8295 191.705 24.9704 191.964 25.0864C192.226 25.2024 192.562 25.2604 192.973 25.2604C193.537 25.2604 194.002 25.1228 194.37 24.8477C194.738 24.5759 194.922 24.1418 194.922 23.5452V22.0437H194.828C194.738 22.2062 194.609 22.3868 194.44 22.5856C194.274 22.7845 194.045 22.9569 193.754 23.1027C193.462 23.2485 193.083 23.3214 192.615 23.3214C192.012 23.3214 191.468 23.1806 190.985 22.8989C190.504 22.6138 190.123 22.1946 189.841 21.641C189.563 21.0842 189.424 20.3998 189.424 19.5878C189.424 18.7758 189.561 18.0797 189.836 17.4997C190.115 16.9197 190.496 16.4756 190.98 16.1673C191.464 15.8558 192.012 15.7 192.625 15.7C193.099 15.7 193.482 15.7795 193.774 15.9386C194.065 16.0944 194.292 16.2767 194.455 16.4855C194.62 16.6943 194.748 16.8783 194.838 17.0374H194.947V15.7994H196.404V23.6048C196.404 24.2611 196.251 24.7997 195.946 25.2206C195.641 25.6415 195.229 25.9531 194.708 26.1553C194.191 26.3574 193.608 26.4585 192.958 26.4585ZM192.943 22.0885C193.371 22.0885 193.732 21.9891 194.027 21.7902C194.326 21.588 194.551 21.2997 194.703 20.9251C194.859 20.5473 194.937 20.0949 194.937 19.5679C194.937 19.0542 194.861 18.6017 194.708 18.2106C194.556 17.8196 194.332 17.5146 194.037 17.2959C193.742 17.0738 193.378 16.9628 192.943 16.9628C192.496 16.9628 192.123 17.0788 191.825 17.3108C191.527 17.5395 191.301 17.851 191.149 18.2454C191 18.6399 190.925 19.0807 190.925 19.5679C190.925 20.0684 191.001 20.5075 191.154 20.8854C191.306 21.2632 191.531 21.5582 191.83 21.7703C192.131 21.9824 192.503 22.0885 192.943 22.0885ZM205.319 23.5899C204.603 23.5899 203.978 23.4258 203.445 23.0977C202.911 22.7696 202.497 22.3106 202.202 21.7206C201.907 21.1306 201.759 20.4412 201.759 19.6524C201.759 18.8603 201.907 18.1676 202.202 17.5743C202.497 16.981 202.911 16.5203 203.445 16.1922C203.978 15.8641 204.603 15.7 205.319 15.7C206.035 15.7 206.66 15.8641 207.193 16.1922C207.727 16.5203 208.141 16.981 208.436 17.5743C208.731 18.1676 208.879 18.8603 208.879 19.6524C208.879 20.4412 208.731 21.1306 208.436 21.7206C208.141 22.3106 207.727 22.7696 207.193 23.0977C206.66 23.4258 206.035 23.5899 205.319 23.5899ZM205.324 22.342C205.788 22.342 206.172 22.2194 206.477 21.9741C206.782 21.7289 207.008 21.4024 207.153 20.9947C207.303 20.5871 207.377 20.138 207.377 19.6474C207.377 19.1602 207.303 18.7128 207.153 18.3051C207.008 17.8941 206.782 17.5643 206.477 17.3158C206.172 17.0672 205.788 16.9429 205.324 16.9429C204.857 16.9429 204.469 17.0672 204.161 17.3158C203.856 17.5643 203.629 17.8941 203.479 18.3051C203.334 18.7128 203.261 19.1602 203.261 19.6474C203.261 20.138 203.334 20.5871 203.479 20.9947C203.629 21.4024 203.856 21.7289 204.161 21.9741C204.469 22.2194 204.857 22.342 205.324 22.342ZM215.375 20.2689V15.7994H216.867V23.4358H215.405V22.1133H215.326C215.15 22.521 214.868 22.8607 214.48 23.1325C214.096 23.401 213.617 23.5352 213.044 23.5352C212.553 23.5352 212.119 23.4275 211.741 23.2121C211.366 22.9933 211.071 22.6702 210.856 22.2426C210.644 21.8151 210.538 21.2864 210.538 20.6567V15.7994H212.024V20.4777C212.024 20.9981 212.169 21.4124 212.457 21.7206C212.745 22.0288 213.12 22.183 213.58 22.183C213.859 22.183 214.136 22.1133 214.411 21.9741C214.689 21.8349 214.919 21.6245 215.102 21.3428C215.287 21.061 215.379 20.7031 215.375 20.2689ZM222.429 15.7994V16.9926H218.258V15.7994H222.429ZM219.376 13.9699H220.863V21.1936C220.863 21.482 220.906 21.699 220.992 21.8449C221.078 21.9874 221.189 22.0852 221.325 22.1382C221.464 22.1879 221.615 22.2128 221.777 22.2128C221.897 22.2128 222.001 22.2045 222.091 22.1879C222.18 22.1713 222.25 22.1581 222.299 22.1481L222.568 23.3761C222.482 23.4093 222.359 23.4424 222.2 23.4756C222.041 23.512 221.842 23.5319 221.603 23.5352C221.212 23.5419 220.848 23.4722 220.51 23.3264C220.172 23.1806 219.898 22.9552 219.689 22.6503C219.481 22.3454 219.376 21.9625 219.376 21.5018V13.9699ZM17.3754 41.6048C16.8915 41.6048 16.454 41.5153 16.0629 41.3364C15.6718 41.1541 15.3619 40.8906 15.1332 40.5459C14.9078 40.2012 14.7951 39.7786 14.7951 39.2781C14.7951 38.8472 14.878 38.4926 15.0437 38.2142C15.2094 37.9358 15.4332 37.7154 15.7149 37.553C15.9966 37.3906 16.3115 37.2679 16.6595 37.1851C17.0075 37.1022 17.3621 37.0392 17.7234 36.9962C18.1808 36.9431 18.552 36.9 18.837 36.8669C19.1221 36.8304 19.3292 36.7724 19.4585 36.6929C19.5878 36.6133 19.6524 36.4841 19.6524 36.3051V36.2703C19.6524 35.8361 19.5298 35.4997 19.2845 35.2611C19.0425 35.0224 18.6813 34.9031 18.2007 34.9031C17.7002 34.9031 17.3058 35.0142 17.0174 35.2362C16.7324 35.455 16.5352 35.6986 16.4258 35.967L15.0288 35.6489C15.1945 35.1848 15.4365 34.8103 15.7547 34.5253C16.0762 34.2369 16.4457 34.0281 16.8633 33.8989C17.2809 33.7663 17.7201 33.7 18.1808 33.7C18.4857 33.7 18.8089 33.7365 19.1503 33.8094C19.495 33.879 19.8165 34.0082 20.1147 34.1972C20.4164 34.3861 20.6633 34.6562 20.8555 35.0075C21.0477 35.3555 21.1439 35.808 21.1439 36.3648V41.4358H19.6922V40.3918H19.6325C19.5364 40.584 19.3922 40.7729 19.2 40.9585C19.0077 41.1441 18.7608 41.2982 18.4592 41.4209C18.1576 41.5435 17.7963 41.6048 17.3754 41.6048ZM17.6986 40.4116C18.1095 40.4116 18.4609 40.3304 18.7525 40.168C19.0475 40.0056 19.2712 39.7935 19.4237 39.5317C19.5795 39.2665 19.6574 38.9831 19.6574 38.6815V37.6972C19.6043 37.7502 19.5016 37.7999 19.3491 37.8463C19.2 37.8894 19.0293 37.9275 18.837 37.9606C18.6448 37.9905 18.4575 38.0187 18.2753 38.0452C18.093 38.0684 17.9405 38.0883 17.8179 38.1048C17.5295 38.1413 17.266 38.2026 17.0274 38.2888C16.7921 38.3749 16.6031 38.4992 16.4606 38.6616C16.3214 38.8207 16.2518 39.0329 16.2518 39.298C16.2518 39.6659 16.3877 39.9443 16.6595 40.1332C16.9313 40.3188 17.2776 40.4116 17.6986 40.4116ZM26.3255 44.4585C25.719 44.4585 25.197 44.379 24.7595 44.2199C24.3253 44.0608 23.9706 43.8503 23.6955 43.5885C23.4204 43.3267 23.2149 43.04 23.0791 42.7284L24.3568 42.2014C24.4462 42.3472 24.5656 42.5014 24.7147 42.6638C24.8672 42.8295 25.0727 42.9704 25.3312 43.0864C25.593 43.2024 25.9294 43.2604 26.3404 43.2604C26.9039 43.2604 27.3695 43.1228 27.7374 42.8477C28.1053 42.5759 28.2893 42.1418 28.2893 41.5452V40.0437H28.1948C28.1053 40.2062 27.9761 40.3868 27.807 40.5856C27.6413 40.7845 27.4126 40.9569 27.121 41.1027C26.8293 41.2485 26.4498 41.3214 25.9825 41.3214C25.3792 41.3214 24.8357 41.1806 24.3518 40.8989C23.8712 40.6138 23.49 40.1946 23.2083 39.641C22.9299 39.0842 22.7907 38.3998 22.7907 37.5878C22.7907 36.7758 22.9283 36.0797 23.2033 35.4997C23.4818 34.9197 23.8629 34.4756 24.3468 34.1673C24.8307 33.8558 25.3792 33.7 25.9924 33.7C26.4664 33.7 26.8492 33.7795 27.1408 33.9386C27.4325 34.0944 27.6595 34.2767 27.822 34.4855C27.9877 34.6943 28.1153 34.8783 28.2048 35.0374H28.3141V33.7994H29.7708V41.6048C29.7708 42.2611 29.6184 42.7997 29.3134 43.2206C29.0085 43.6415 28.5959 43.9531 28.0755 44.1553C27.5585 44.3574 26.9751 44.4585 26.3255 44.4585ZM26.3106 40.0885C26.7381 40.0885 27.0994 39.9891 27.3944 39.7902C27.6927 39.588 27.9181 39.2997 28.0705 38.9251C28.2263 38.5473 28.3042 38.0949 28.3042 37.5679C28.3042 37.0542 28.228 36.6017 28.0755 36.2106C27.923 35.8196 27.6993 35.5146 27.4043 35.2959C27.1094 35.0738 26.7448 34.9628 26.3106 34.9628C25.8631 34.9628 25.4903 35.0788 25.192 35.3108C24.8937 35.5395 24.6683 35.851 24.5158 36.2454C24.3667 36.6399 24.2921 37.0807 24.2921 37.5679C24.2921 38.0684 24.3684 38.5075 24.5208 38.8854C24.6733 39.2632 24.8987 39.5582 25.197 39.7703C25.4986 39.9824 25.8698 40.0885 26.3106 40.0885ZM33.9867 41.6048C33.5028 41.6048 33.0653 41.5153 32.6742 41.3364C32.2831 41.1541 31.9732 40.8906 31.7445 40.5459C31.5192 40.2012 31.4065 39.7786 31.4065 39.2781C31.4065 38.8472 31.4893 38.4926 31.6551 38.2142C31.8208 37.9358 32.0445 37.7154 32.3262 37.553C32.6079 37.3906 32.9228 37.2679 33.2708 37.1851C33.6188 37.1022 33.9735 37.0392 34.3347 36.9962C34.7921 36.9431 35.1633 36.9 35.4484 36.8669C35.7334 36.8304 35.9406 36.7724 36.0698 36.6929C36.1991 36.6133 36.2637 36.4841 36.2637 36.3051V36.2703C36.2637 35.8361 36.1411 35.4997 35.8958 35.2611C35.6539 35.0224 35.2926 34.9031 34.812 34.9031C34.3115 34.9031 33.9171 35.0142 33.6288 35.2362C33.3437 35.455 33.1465 35.6986 33.0372 35.967L31.6401 35.6489C31.8059 35.1848 32.0478 34.8103 32.366 34.5253C32.6875 34.2369 33.057 34.0281 33.4747 33.8989C33.8923 33.7663 34.3314 33.7 34.7921 33.7C35.097 33.7 35.4202 33.7365 35.7616 33.8094C36.1063 33.879 36.4278 34.0082 36.7261 34.1972C37.0277 34.3861 37.2746 34.6562 37.4668 35.0075C37.6591 35.3555 37.7552 35.808 37.7552 36.3648V41.4358H36.3035V40.3918H36.2438C36.1477 40.584 36.0035 40.7729 35.8113 40.9585C35.6191 41.1441 35.3721 41.2982 35.0705 41.4209C34.7689 41.5435 34.4077 41.6048 33.9867 41.6048ZM34.3099 40.4116C34.7209 40.4116 35.0722 40.3304 35.3639 40.168C35.6588 40.0056 35.8826 39.7935 36.035 39.5317C36.1908 39.2665 36.2687 38.9831 36.2687 38.6815V37.6972C36.2157 37.7502 36.1129 37.7999 35.9604 37.8463C35.8113 37.8894 35.6406 37.9275 35.4484 37.9606C35.2561 37.9905 35.0689 38.0187 34.8866 38.0452C34.7043 38.0684 34.5518 38.0883 34.4292 38.1048C34.1408 38.1413 33.8774 38.2026 33.6387 38.2888C33.4034 38.3749 33.2145 38.4992 33.072 38.6616C32.9328 38.8207 32.8631 39.0329 32.8631 39.298C32.8631 39.6659 32.999 39.9443 33.2708 40.1332C33.5426 40.3188 33.889 40.4116 34.3099 40.4116ZM39.7351 41.4358V33.7994H41.2216V41.4358H39.7351ZM40.4858 32.6212C40.2273 32.6212 40.0053 32.535 39.8196 32.3626C39.6374 32.187 39.5462 31.9782 39.5462 31.7362C39.5462 31.491 39.6374 31.2821 39.8196 31.1098C40.0053 30.9341 40.2273 30.8463 40.4858 30.8463C40.7444 30.8463 40.9648 30.9341 41.1471 31.1098C41.3327 31.2821 41.4255 31.491 41.4255 31.7362C41.4255 31.9782 41.3327 32.187 41.1471 32.3626C40.9648 32.535 40.7444 32.6212 40.4858 32.6212ZM44.708 36.9017V41.4358H43.2215V33.7994H44.6483V35.0423H44.7428C44.9184 34.638 45.1935 34.3132 45.568 34.0679C45.9459 33.8226 46.4215 33.7 46.9949 33.7C47.5153 33.7 47.971 33.8094 48.3621 34.0281C48.7532 34.2436 49.0564 34.5651 49.2719 34.9926C49.4873 35.4202 49.595 35.9488 49.595 36.5785V41.4358H48.1085V36.7575C48.1085 36.204 47.9644 35.7715 47.676 35.4599C47.3877 35.1451 46.9916 34.9876 46.4878 34.9876C46.1431 34.9876 45.8365 35.0622 45.568 35.2114C45.3029 35.3605 45.0924 35.5793 44.9367 35.8676C44.7842 36.1526 44.708 36.4973 44.708 36.9017ZM52.568 41.5303C52.2963 41.5303 52.0626 41.4341 51.8671 41.2419C51.6715 41.0463 51.5737 40.811 51.5737 40.5359C51.5737 40.2642 51.6715 40.0321 51.8671 39.8399C52.0626 39.6444 52.2963 39.5466 52.568 39.5466C52.8398 39.5466 53.0735 39.6444 53.269 39.8399C53.4646 40.0321 53.5624 40.2642 53.5624 40.5359C53.5624 40.7182 53.516 40.8856 53.4232 41.0381C53.3337 41.1872 53.2144 41.3065 53.0652 41.396C52.9161 41.4855 52.7503 41.5303 52.568 41.5303ZM60.75 31.254V41.4358H59.2138V31.254H60.75ZM66.573 41.4358V33.7994H68.0098V35.0125H68.0894C68.2286 34.6015 68.4738 34.2784 68.8252 34.043C69.1798 33.8044 69.5808 33.6851 70.0283 33.6851C70.1211 33.6851 70.2305 33.6884 70.3564 33.695C70.4857 33.7017 70.5868 33.7099 70.6597 33.7199V35.1418C70.6 35.1252 70.4939 35.107 70.3415 35.0871C70.189 35.0639 70.0366 35.0523 69.8841 35.0523C69.5328 35.0523 69.2196 35.1268 68.9445 35.276C68.6727 35.4218 68.4573 35.6257 68.2982 35.8875C68.1391 36.146 68.0595 36.441 68.0595 36.7724V41.4358H66.573ZM74.9638 41.5899C74.2115 41.5899 73.5635 41.4292 73.0199 41.1077C72.4797 40.7829 72.0621 40.3271 71.7671 39.7405C71.4754 39.1505 71.3296 38.4595 71.3296 37.6673C71.3296 36.8851 71.4754 36.1957 71.7671 35.5991C72.0621 35.0026 72.4731 34.5369 73 34.2021C73.5303 33.8674 74.1501 33.7 74.8594 33.7C75.2903 33.7 75.7079 33.7713 76.1123 33.9138C76.5166 34.0563 76.8795 34.28 77.201 34.5849C77.5225 34.8899 77.7761 35.2859 77.9617 35.7731C78.1473 36.2571 78.2401 36.8454 78.2401 37.5381V38.0651H72.1698V36.9514H76.7834C76.7834 36.5603 76.7039 36.214 76.5448 35.9124C76.3857 35.6074 76.162 35.3671 75.8736 35.1915C75.5886 35.0158 75.2538 34.928 74.8694 34.928C74.4517 34.928 74.0872 35.0307 73.7756 35.2362C73.4674 35.4384 73.2287 35.7035 73.0597 36.0317C72.894 36.3565 72.8111 36.7095 72.8111 37.0906V37.9606C72.8111 38.4711 72.9006 38.9053 73.0796 39.2632C73.2619 39.6212 73.5154 39.8946 73.8402 40.0835C74.1651 40.2691 74.5446 40.3619 74.9787 40.3619C75.2605 40.3619 75.5173 40.3222 75.7493 40.2426C75.9813 40.1597 76.1819 40.0371 76.3509 39.8747C76.5199 39.7123 76.6492 39.5118 76.7387 39.2731L78.1456 39.5267C78.033 39.941 77.8308 40.3039 77.5391 40.6155C77.2508 40.9237 76.8878 41.164 76.4503 41.3364C76.0161 41.5054 75.5206 41.5899 74.9638 41.5899ZM82.1117 41.6048C81.6278 41.6048 81.1903 41.5153 80.7992 41.3364C80.4081 41.1541 80.0982 40.8906 79.8695 40.5459C79.6442 40.2012 79.5315 39.7786 79.5315 39.2781C79.5315 38.8472 79.6143 38.4926 79.7801 38.2142C79.9458 37.9358 80.1695 37.7154 80.4512 37.553C80.7329 37.3906 81.0478 37.2679 81.3958 37.1851C81.7438 37.1022 82.0985 37.0392 82.4597 36.9962C82.9171 36.9431 83.2883 36.9 83.5734 36.8669C83.8584 36.8304 84.0656 36.7724 84.1948 36.6929C84.3241 36.6133 84.3887 36.4841 84.3887 36.3051V36.2703C84.3887 35.8361 84.2661 35.4997 84.0208 35.2611C83.7789 35.0224 83.4176 34.9031 82.937 34.9031C82.4365 34.9031 82.0421 35.0142 81.7538 35.2362C81.4687 35.455 81.2715 35.6986 81.1622 35.967L79.7651 35.6489C79.9309 35.1848 80.1728 34.8103 80.491 34.5253C80.8125 34.2369 81.182 34.0281 81.5997 33.8989C82.0173 33.7663 82.4564 33.7 82.9171 33.7C83.222 33.7 83.5452 33.7365 83.8866 33.8094C84.2313 33.879 84.5528 34.0082 84.8511 34.1972C85.1527 34.3861 85.3996 34.6562 85.5918 35.0075C85.7841 35.3555 85.8802 35.808 85.8802 36.3648V41.4358H84.4285V40.3918H84.3688C84.2727 40.584 84.1285 40.7729 83.9363 40.9585C83.7441 41.1441 83.4971 41.2982 83.1955 41.4209C82.8939 41.5435 82.5327 41.6048 82.1117 41.6048ZM82.4349 40.4116C82.8459 40.4116 83.1972 40.3304 83.4889 40.168C83.7838 40.0056 84.0076 39.7935 84.16 39.5317C84.3158 39.2665 84.3937 38.9831 84.3937 38.6815V37.6972C84.3407 37.7502 84.2379 37.7999 84.0854 37.8463C83.9363 37.8894 83.7656 37.9275 83.5734 37.9606C83.3811 37.9905 83.1939 38.0187 83.0116 38.0452C82.8293 38.0684 82.6768 38.0883 82.5542 38.1048C82.2658 38.1413 82.0024 38.2026 81.7637 38.2888C81.5284 38.3749 81.3395 38.4992 81.197 38.6616C81.0578 38.8207 80.9881 39.0329 80.9881 39.298C80.9881 39.6659 81.124 39.9443 81.3958 40.1332C81.6676 40.3188 82.014 40.4116 82.4349 40.4116ZM89.3466 31.254V41.4358H87.8601V31.254H89.3466ZM92.833 31.254V41.4358H91.3465V31.254H92.833ZM95.7724 44.2994C95.5504 44.2994 95.3482 44.2812 95.1659 44.2447C94.9836 44.2116 94.8477 44.1751 94.7582 44.1354L95.1162 42.9173C95.3879 42.9902 95.6299 43.0217 95.842 43.0118C96.0541 43.0018 96.2414 42.9223 96.4038 42.7731C96.5695 42.624 96.7154 42.3804 96.8413 42.0423L97.0253 41.5352L94.2312 33.7994H95.8221L97.7561 39.7256H97.8356L99.7696 33.7994H101.365L98.2184 42.455C98.0726 42.8527 97.887 43.1891 97.6616 43.4642C97.4362 43.7426 97.1678 43.9514 96.8562 44.0906C96.5447 44.2298 96.1834 44.2994 95.7724 44.2994ZM109.326 41.5849C108.71 41.5849 108.16 41.4275 107.676 41.1126C107.195 40.7945 106.817 40.342 106.542 39.7554C106.27 39.1654 106.134 38.4578 106.134 37.6325C106.134 36.8072 106.272 36.1013 106.547 35.5146C106.826 34.928 107.207 34.4789 107.691 34.1673C108.174 33.8558 108.723 33.7 109.336 33.7C109.81 33.7 110.191 33.7795 110.48 33.9386C110.771 34.0944 110.997 34.2767 111.156 34.4855C111.318 34.6943 111.444 34.8783 111.534 35.0374H111.623V31.254H113.11V41.4358H111.658V40.2476H111.534C111.444 40.41 111.315 40.5956 111.146 40.8044C110.98 41.0132 110.751 41.1955 110.46 41.3513C110.168 41.5071 109.79 41.5849 109.326 41.5849ZM109.654 40.3172C110.082 40.3172 110.443 40.2045 110.738 39.9791C111.036 39.7504 111.262 39.4339 111.414 39.0295C111.57 38.6252 111.648 38.1545 111.648 37.6176C111.648 37.0873 111.572 36.6233 111.419 36.2256C111.267 35.8278 111.043 35.5179 110.748 35.2959C110.453 35.0738 110.089 34.9628 109.654 34.9628C109.207 34.9628 108.834 35.0788 108.536 35.3108C108.237 35.5428 108.012 35.8593 107.86 36.2604C107.71 36.6614 107.636 37.1138 107.636 37.6176C107.636 38.128 107.712 38.5871 107.865 38.9947C108.017 39.4024 108.242 39.7256 108.541 39.9642C108.842 40.1995 109.214 40.3172 109.654 40.3172ZM118.448 41.5899C117.732 41.5899 117.107 41.4258 116.574 41.0977C116.04 40.7696 115.626 40.3106 115.331 39.7206C115.036 39.1306 114.888 38.4412 114.888 37.6524C114.888 36.8603 115.036 36.1676 115.331 35.5743C115.626 34.981 116.04 34.5203 116.574 34.1922C117.107 33.8641 117.732 33.7 118.448 33.7C119.164 33.7 119.789 33.8641 120.322 34.1922C120.856 34.5203 121.27 34.981 121.565 35.5743C121.86 36.1676 122.008 36.8603 122.008 37.6524C122.008 38.4412 121.86 39.1306 121.565 39.7206C121.27 40.3106 120.856 40.7696 120.322 41.0977C119.789 41.4258 119.164 41.5899 118.448 41.5899ZM118.453 40.342C118.917 40.342 119.301 40.2194 119.606 39.9741C119.911 39.7289 120.137 39.4024 120.282 38.9947C120.432 38.5871 120.506 38.138 120.506 37.6474C120.506 37.1602 120.432 36.7128 120.282 36.3051C120.137 35.8941 119.911 35.5643 119.606 35.3158C119.301 35.0672 118.917 34.9429 118.453 34.9429C117.985 34.9429 117.598 35.0672 117.289 35.3158C116.985 35.5643 116.758 35.8941 116.608 36.3051C116.463 36.7128 116.39 37.1602 116.39 37.6474C116.39 38.138 116.463 38.5871 116.608 38.9947C116.758 39.4024 116.985 39.7289 117.289 39.9741C117.598 40.2194 117.985 40.342 118.453 40.342ZM125.153 36.9017V41.4358H123.667V33.7994H125.094V35.0423H125.188C125.364 34.638 125.639 34.3132 126.013 34.0679C126.391 33.8226 126.867 33.7 127.44 33.7C127.961 33.7 128.416 33.8094 128.807 34.0281C129.198 34.2436 129.502 34.5651 129.717 34.9926C129.933 35.4202 130.04 35.9488 130.04 36.5785V41.4358H128.554V36.7575C128.554 36.204 128.41 35.7715 128.121 35.4599C127.833 35.1451 127.437 34.9876 126.933 34.9876C126.588 34.9876 126.282 35.0622 126.013 35.2114C125.748 35.3605 125.538 35.5793 125.382 35.8676C125.23 36.1526 125.153 36.4973 125.153 36.9017ZM133.163 31.254V34.8783H131.93V31.254H133.163ZM138.647 33.7994V34.9926H134.476V33.7994H138.647ZM135.595 31.9699H137.081V39.1936C137.081 39.482 137.124 39.699 137.211 39.8449C137.297 39.9874 137.408 40.0852 137.544 40.1382C137.683 40.1879 137.834 40.2128 137.996 40.2128C138.115 40.2128 138.22 40.2045 138.309 40.1879C138.399 40.1713 138.468 40.1581 138.518 40.1481L138.787 41.3761C138.7 41.4093 138.578 41.4424 138.419 41.4756C138.26 41.512 138.061 41.5319 137.822 41.5352C137.431 41.5419 137.066 41.4722 136.728 41.3264C136.39 41.1806 136.117 40.9552 135.908 40.6503C135.699 40.3454 135.595 39.9625 135.595 39.5018V31.9699ZM145.652 41.4358L143.405 33.7994H144.941L146.438 39.4074H146.512L148.014 33.7994H149.55L151.042 39.3825H151.116L152.603 33.7994H154.139L151.897 41.4358H150.38L148.829 35.9223H148.715L147.164 41.4358H145.652ZM157.772 41.6048C157.288 41.6048 156.85 41.5153 156.459 41.3364C156.068 41.1541 155.758 40.8906 155.53 40.5459C155.304 40.2012 155.192 39.7786 155.192 39.2781C155.192 38.8472 155.274 38.4926 155.44 38.2142C155.606 37.9358 155.83 37.7154 156.111 37.553C156.393 37.3906 156.708 37.2679 157.056 37.1851C157.404 37.1022 157.759 37.0392 158.12 36.9962C158.577 36.9431 158.948 36.9 159.234 36.8669C159.519 36.8304 159.726 36.7724 159.855 36.6929C159.984 36.6133 160.049 36.4841 160.049 36.3051V36.2703C160.049 35.8361 159.926 35.4997 159.681 35.2611C159.439 35.0224 159.078 34.9031 158.597 34.9031C158.097 34.9031 157.702 35.0142 157.414 35.2362C157.129 35.455 156.932 35.6986 156.822 35.967L155.425 35.6489C155.591 35.1848 155.833 34.8103 156.151 34.5253C156.473 34.2369 156.842 34.0281 157.26 33.8989C157.677 33.7663 158.117 33.7 158.577 33.7C158.882 33.7 159.205 33.7365 159.547 33.8094C159.891 33.879 160.213 34.0082 160.511 34.1972C160.813 34.3861 161.06 34.6562 161.252 35.0075C161.444 35.3555 161.54 35.808 161.54 36.3648V41.4358H160.089V40.3918H160.029C159.933 40.584 159.789 40.7729 159.596 40.9585C159.404 41.1441 159.157 41.2982 158.856 41.4209C158.554 41.5435 158.193 41.6048 157.772 41.6048ZM158.095 40.4116C158.506 40.4116 158.857 40.3304 159.149 40.168C159.444 40.0056 159.668 39.7935 159.82 39.5317C159.976 39.2665 160.054 38.9831 160.054 38.6815V37.6972C160.001 37.7502 159.898 37.7999 159.746 37.8463C159.596 37.8894 159.426 37.9275 159.234 37.9606C159.041 37.9905 158.854 38.0187 158.672 38.0452C158.489 38.0684 158.337 38.0883 158.214 38.1048C157.926 38.1413 157.663 38.2026 157.424 38.2888C157.189 38.3749 157 38.4992 156.857 38.6616C156.718 38.8207 156.648 39.0329 156.648 39.298C156.648 39.6659 156.784 39.9443 157.056 40.1332C157.328 40.3188 157.674 40.4116 158.095 40.4116ZM165.007 36.9017V41.4358H163.52V33.7994H164.947V35.0423H165.042C165.217 34.638 165.492 34.3132 165.867 34.0679C166.245 33.8226 166.72 33.7 167.294 33.7C167.814 33.7 168.27 33.8094 168.661 34.0281C169.052 34.2436 169.355 34.5651 169.571 34.9926C169.786 35.4202 169.894 35.9488 169.894 36.5785V41.4358H168.407V36.7575C168.407 36.204 168.263 35.7715 167.975 35.4599C167.686 35.1451 167.29 34.9876 166.787 34.9876C166.442 34.9876 166.135 35.0622 165.867 35.2114C165.602 35.3605 165.391 35.5793 165.235 35.8676C165.083 36.1526 165.007 36.4973 165.007 36.9017ZM175.452 33.7994V34.9926H171.281V33.7994H175.452ZM172.4 31.9699H173.886V39.1936C173.886 39.482 173.929 39.699 174.015 39.8449C174.101 39.9874 174.213 40.0852 174.348 40.1382C174.488 40.1879 174.638 40.2128 174.801 40.2128C174.92 40.2128 175.025 40.2045 175.114 40.1879C175.204 40.1713 175.273 40.1581 175.323 40.1481L175.591 41.3761C175.505 41.4093 175.383 41.4424 175.223 41.4756C175.064 41.512 174.865 41.5319 174.627 41.5352C174.236 41.5419 173.871 41.4722 173.533 41.3264C173.195 41.1806 172.922 40.9552 172.713 40.6503C172.504 40.3454 172.4 39.9625 172.4 39.5018V31.9699ZM184.366 33.7994V34.9926H180.195V33.7994H184.366ZM181.314 31.9699H182.8V39.1936C182.8 39.482 182.843 39.699 182.929 39.8449C183.016 39.9874 183.127 40.0852 183.262 40.1382C183.402 40.1879 183.552 40.2128 183.715 40.2128C183.834 40.2128 183.939 40.2045 184.028 40.1879C184.118 40.1713 184.187 40.1581 184.237 40.1481L184.505 41.3761C184.419 41.4093 184.297 41.4424 184.137 41.4756C183.978 41.512 183.78 41.5319 183.541 41.5352C183.15 41.5419 182.785 41.4722 182.447 41.3264C182.109 41.1806 181.836 40.9552 181.627 40.6503C181.418 40.3454 181.314 39.9625 181.314 39.5018V31.9699ZM189.145 41.5899C188.429 41.5899 187.804 41.4258 187.271 41.0977C186.737 40.7696 186.323 40.3106 186.028 39.7206C185.733 39.1306 185.585 38.4412 185.585 37.6524C185.585 36.8603 185.733 36.1676 186.028 35.5743C186.323 34.981 186.737 34.5203 187.271 34.1922C187.804 33.8641 188.429 33.7 189.145 33.7C189.861 33.7 190.486 33.8641 191.019 34.1922C191.553 34.5203 191.967 34.981 192.262 35.5743C192.557 36.1676 192.705 36.8603 192.705 37.6524C192.705 38.4412 192.557 39.1306 192.262 39.7206C191.967 40.3106 191.553 40.7696 191.019 41.0977C190.486 41.4258 189.861 41.5899 189.145 41.5899ZM189.15 40.342C189.614 40.342 189.999 40.2194 190.303 39.9741C190.608 39.7289 190.834 39.4024 190.98 38.9947C191.129 38.5871 191.203 38.138 191.203 37.6474C191.203 37.1602 191.129 36.7128 190.98 36.3051C190.834 35.8941 190.608 35.5643 190.303 35.3158C189.999 35.0672 189.614 34.9429 189.15 34.9429C188.683 34.9429 188.295 35.0672 187.987 35.3158C187.682 35.5643 187.455 35.8941 187.306 36.3051C187.16 36.7128 187.087 37.1602 187.087 37.6474C187.087 38.138 187.16 38.5871 187.306 38.9947C187.455 39.4024 187.682 39.7289 187.987 39.9741C188.295 40.2194 188.683 40.342 189.15 40.342ZM201.271 44.4585C200.664 44.4585 200.142 44.379 199.705 44.2199C199.271 44.0608 198.916 43.8503 198.641 43.5885C198.366 43.3267 198.16 43.04 198.024 42.7284L199.302 42.2014C199.392 42.3472 199.511 42.5014 199.66 42.6638C199.812 42.8295 200.018 42.9704 200.277 43.0864C200.538 43.2024 200.875 43.2604 201.286 43.2604C201.849 43.2604 202.315 43.1228 202.683 42.8477C203.051 42.5759 203.235 42.1418 203.235 41.5452V40.0437H203.14C203.051 40.2062 202.921 40.3868 202.752 40.5856C202.587 40.7845 202.358 40.9569 202.066 41.1027C201.775 41.2485 201.395 41.3214 200.928 41.3214C200.325 41.3214 199.781 41.1806 199.297 40.8989C198.817 40.6138 198.435 40.1946 198.154 39.641C197.875 39.0842 197.736 38.3998 197.736 37.5878C197.736 36.7758 197.874 36.0797 198.149 35.4997C198.427 34.9197 198.808 34.4756 199.292 34.1673C199.776 33.8558 200.325 33.7 200.938 33.7C201.412 33.7 201.794 33.7795 202.086 33.9386C202.378 34.0944 202.605 34.2767 202.767 34.4855C202.933 34.6943 203.061 34.8783 203.15 35.0374H203.259V33.7994H204.716V41.6048C204.716 42.2611 204.564 42.7997 204.259 43.2206C203.954 43.6415 203.541 43.9531 203.021 44.1553C202.504 44.3574 201.92 44.4585 201.271 44.4585ZM201.256 40.0885C201.683 40.0885 202.045 39.9891 202.34 39.7902C202.638 39.588 202.863 39.2997 203.016 38.9251C203.172 38.5473 203.25 38.0949 203.25 37.5679C203.25 37.0542 203.173 36.6017 203.021 36.2106C202.868 35.8196 202.645 35.5146 202.35 35.2959C202.055 35.0738 201.69 34.9628 201.256 34.9628C200.808 34.9628 200.436 35.0788 200.137 35.3108C199.839 35.5395 199.614 35.851 199.461 36.2454C199.312 36.6399 199.237 37.0807 199.237 37.5679C199.237 38.0684 199.314 38.5075 199.466 38.8854C199.619 39.2632 199.844 39.5582 200.142 39.7703C200.444 39.9824 200.815 40.0885 201.256 40.0885ZM209.926 41.5899C209.21 41.5899 208.586 41.4258 208.052 41.0977C207.518 40.7696 207.104 40.3106 206.809 39.7206C206.514 39.1306 206.367 38.4412 206.367 37.6524C206.367 36.8603 206.514 36.1676 206.809 35.5743C207.104 34.981 207.518 34.5203 208.052 34.1922C208.586 33.8641 209.21 33.7 209.926 33.7C210.642 33.7 211.267 33.8641 211.801 34.1922C212.334 34.5203 212.749 34.981 213.044 35.5743C213.339 36.1676 213.486 36.8603 213.486 37.6524C213.486 38.4412 213.339 39.1306 213.044 39.7206C212.749 40.3106 212.334 40.7696 211.801 41.0977C211.267 41.4258 210.642 41.5899 209.926 41.5899ZM209.931 40.342C210.395 40.342 210.78 40.2194 211.085 39.9741C211.39 39.7289 211.615 39.4024 211.761 38.9947C211.91 38.5871 211.985 38.138 211.985 37.6474C211.985 37.1602 211.91 36.7128 211.761 36.3051C211.615 35.8941 211.39 35.5643 211.085 35.3158C210.78 35.0672 210.395 34.9429 209.931 34.9429C209.464 34.9429 209.076 35.0672 208.768 35.3158C208.463 35.5643 208.236 35.8941 208.087 36.3051C207.941 36.7128 207.868 37.1602 207.868 37.6474C207.868 38.138 207.941 38.5871 208.087 38.9947C208.236 39.4024 208.463 39.7289 208.768 39.9741C209.076 40.2194 209.464 40.342 209.931 40.342ZM216.125 41.5303C215.853 41.5303 215.619 41.4341 215.424 41.2419C215.228 41.0463 215.13 40.811 215.13 40.5359C215.13 40.2642 215.228 40.0321 215.424 39.8399C215.619 39.6444 215.853 39.5466 216.125 39.5466C216.396 39.5466 216.63 39.6444 216.826 39.8399C217.021 40.0321 217.119 40.2642 217.119 40.5359C217.119 40.7182 217.073 40.8856 216.98 41.0381C216.89 41.1872 216.771 41.3065 216.622 41.396C216.473 41.4855 216.307 41.5303 216.125 41.5303ZM15.2724 59.4358V49.254H16.8086V53.6787H21.8846V49.254H23.4258V59.4358H21.8846V54.9962H16.8086V59.4358H15.2724ZM28.8349 59.5899C28.0825 59.5899 27.4346 59.4292 26.891 59.1077C26.3508 58.7829 25.9332 58.3271 25.6382 57.7405C25.3465 57.1505 25.2007 56.4595 25.2007 55.6673C25.2007 54.8851 25.3465 54.1957 25.6382 53.5991C25.9332 53.0026 26.3441 52.5369 26.8711 52.2021C27.4014 51.8674 28.0212 51.7 28.7305 51.7C29.1614 51.7 29.579 51.7713 29.9834 51.9138C30.3877 52.0563 30.7506 52.28 31.0721 52.5849C31.3936 52.8899 31.6472 53.2859 31.8328 53.7731C32.0184 54.2571 32.1112 54.8454 32.1112 55.5381V56.0651H26.0409V54.9514H30.6545C30.6545 54.5603 30.575 54.214 30.4159 53.9124C30.2568 53.6074 30.0331 53.3671 29.7447 53.1915C29.4597 53.0158 29.1249 52.928 28.7405 52.928C28.3228 52.928 27.9583 53.0307 27.6467 53.2362C27.3385 53.4384 27.0998 53.7035 26.9308 54.0317C26.7651 54.3565 26.6822 54.7095 26.6822 55.0906V55.9606C26.6822 56.4711 26.7717 56.9053 26.9507 57.2632C27.133 57.6212 27.3865 57.8946 27.7113 58.0835C28.0361 58.2691 28.4156 58.3619 28.8498 58.3619C29.1316 58.3619 29.3884 58.3222 29.6204 58.2426C29.8524 58.1597 30.053 58.0371 30.222 57.8747C30.391 57.7123 30.5203 57.5118 30.6098 57.2731L32.0167 57.5267C31.904 57.941 31.7019 58.3039 31.4102 58.6155C31.1218 58.9237 30.7589 59.164 30.3214 59.3364C29.8872 59.5054 29.3917 59.5899 28.8349 59.5899ZM35.247 49.254V59.4358H33.7605V49.254H35.247ZM37.2468 62.2994V51.7994H38.6986V53.0374H38.8228C38.909 52.8783 39.0333 52.6943 39.1957 52.4855C39.3581 52.2767 39.5835 52.0944 39.8718 51.9386C40.1602 51.7795 40.5414 51.7 41.0153 51.7C41.6318 51.7 42.182 51.8558 42.6659 52.1673C43.1498 52.4789 43.5293 52.928 43.8044 53.5146C44.0828 54.1013 44.222 54.8072 44.222 55.6325C44.222 56.4578 44.0844 57.1654 43.8093 57.7554C43.5343 58.342 43.1564 58.7945 42.6758 59.1126C42.1952 59.4275 41.6467 59.5849 41.0302 59.5849C40.5662 59.5849 40.1867 59.5071 39.8917 59.3513C39.6001 59.1955 39.3714 59.0132 39.2057 58.8044C39.0399 58.5956 38.9123 58.41 38.8228 58.2476H38.7334V62.2994H37.2468ZM38.7035 55.6176C38.7035 56.1545 38.7814 56.6252 38.9372 57.0295C39.093 57.4339 39.3183 57.7504 39.6133 57.9791C39.9083 58.2045 40.2696 58.3172 40.6971 58.3172C41.1413 58.3172 41.5125 58.1995 41.8108 57.9642C42.1091 57.7256 42.3344 57.4024 42.4869 56.9947C42.6427 56.5871 42.7206 56.128 42.7206 55.6176C42.7206 55.1138 42.6443 54.6614 42.4919 54.2604C42.3427 53.8593 42.1174 53.5428 41.8157 53.3108C41.5174 53.0788 41.1446 52.9628 40.6971 52.9628C40.2663 52.9628 39.9017 53.0738 39.6034 53.2959C39.3084 53.5179 39.0847 53.8278 38.9322 54.2256C38.7798 54.6233 38.7035 55.0873 38.7035 55.6176ZM49.5926 59.4358V51.7994H51.0194V53.0423H51.1139C51.2729 52.6214 51.5331 52.2933 51.8944 52.058C52.2557 51.8193 52.6882 51.7 53.192 51.7C53.7024 51.7 54.13 51.8193 54.4747 52.058C54.8227 52.2966 55.0795 52.6247 55.2453 53.0423H55.3248C55.5071 52.6347 55.7971 52.3098 56.1948 52.0679C56.5926 51.8226 57.0665 51.7 57.6167 51.7C58.3094 51.7 58.8745 51.9171 59.312 52.3513C59.7528 52.7855 59.9732 53.4401 59.9732 54.3151V59.4358H58.4867V54.4543C58.4867 53.9372 58.3459 53.5627 58.0641 53.3307C57.7824 53.0987 57.446 52.9827 57.0549 52.9827C56.571 52.9827 56.1948 53.1318 55.9264 53.4301C55.6579 53.7251 55.5237 54.1046 55.5237 54.5686V59.4358H54.0421V54.3598C54.0421 53.9455 53.9129 53.6124 53.6543 53.3605C53.3958 53.1086 53.0594 52.9827 52.6451 52.9827C52.3634 52.9827 52.1032 53.0572 51.8646 53.2064C51.6292 53.3522 51.4387 53.5561 51.2928 53.8179C51.1503 54.0797 51.0791 54.383 51.0791 54.7277V59.4358H49.5926ZM65.2568 59.5899C64.5044 59.5899 63.8565 59.4292 63.3129 59.1077C62.7727 58.7829 62.355 58.3271 62.0601 57.7405C61.7684 57.1505 61.6226 56.4595 61.6226 55.6673C61.6226 54.8851 61.7684 54.1957 62.0601 53.5991C62.355 53.0026 62.766 52.5369 63.293 52.2021C63.8233 51.8674 64.4431 51.7 65.1524 51.7C65.5833 51.7 66.0009 51.7713 66.4052 51.9138C66.8096 52.0563 67.1725 52.28 67.494 52.5849C67.8155 52.8899 68.0691 53.2859 68.2547 53.7731C68.4403 54.2571 68.5331 54.8454 68.5331 55.5381V56.0651H62.4628V54.9514H67.0764C67.0764 54.5603 66.9968 54.214 66.8378 53.9124C66.6787 53.6074 66.4549 53.3671 66.1666 53.1915C65.8816 53.0158 65.5468 52.928 65.1623 52.928C64.7447 52.928 64.3801 53.0307 64.0686 53.2362C63.7603 53.4384 63.5217 53.7035 63.3527 54.0317C63.187 54.3565 63.1041 54.7095 63.1041 55.0906V55.9606C63.1041 56.4711 63.1936 56.9053 63.3726 57.2632C63.5549 57.6212 63.8084 57.8946 64.1332 58.0835C64.458 58.2691 64.8375 58.3619 65.2717 58.3619C65.5534 58.3619 65.8103 58.3222 66.0423 58.2426C66.2743 58.1597 66.4748 58.0371 66.6439 57.8747C66.8129 57.7123 66.9422 57.5118 67.0316 57.2731L68.4386 57.5267C68.3259 57.941 68.1237 58.3039 67.8321 58.6155C67.5437 58.9237 67.1808 59.164 66.7433 59.3364C66.3091 59.5054 65.8136 59.5899 65.2568 59.5899ZM74.0068 59.4358V49.254H75.4933V53.0374H75.5828C75.669 52.8783 75.7932 52.6943 75.9557 52.4855C76.1181 52.2767 76.3434 52.0944 76.6318 51.9386C76.9201 51.7795 77.3013 51.7 77.7753 51.7C78.3917 51.7 78.9419 51.8558 79.4258 52.1673C79.9097 52.4789 80.2892 52.928 80.5643 53.5146C80.8427 54.1013 80.9819 54.8072 80.9819 55.6325C80.9819 56.4578 80.8444 57.1654 80.5693 57.7554C80.2942 58.342 79.9164 58.7945 79.4358 59.1126C78.9552 59.4275 78.4066 59.5849 77.7902 59.5849C77.3262 59.5849 76.9467 59.5071 76.6517 59.3513C76.36 59.1955 76.1313 59.0132 75.9656 58.8044C75.7999 58.5956 75.6723 58.41 75.5828 58.2476H75.4585V59.4358H74.0068ZM75.4635 55.6176C75.4635 56.1545 75.5414 56.6252 75.6971 57.0295C75.8529 57.4339 76.0783 57.7504 76.3733 57.9791C76.6683 58.2045 77.0295 58.3172 77.4571 58.3172C77.9012 58.3172 78.2724 58.1995 78.5707 57.9642C78.869 57.7256 79.0944 57.4024 79.2468 56.9947C79.4026 56.5871 79.4805 56.128 79.4805 55.6176C79.4805 55.1138 79.4043 54.6614 79.2518 54.2604C79.1027 53.8593 78.8773 53.5428 78.5757 53.3108C78.2774 53.0788 77.9045 52.9628 77.4571 52.9628C77.0262 52.9628 76.6616 53.0738 76.3633 53.2959C76.0683 53.5179 75.8446 53.8278 75.6922 54.2256C75.5397 54.6233 75.4635 55.0873 75.4635 55.6176ZM84.8734 59.6048C84.3895 59.6048 83.952 59.5153 83.5609 59.3364C83.1698 59.1541 82.86 58.8906 82.6313 58.5459C82.4059 58.2012 82.2932 57.7786 82.2932 57.2781C82.2932 56.8472 82.3761 56.4926 82.5418 56.2142C82.7075 55.9358 82.9312 55.7154 83.2129 55.553C83.4947 55.3906 83.8095 55.2679 84.1575 55.1851C84.5055 55.1022 84.8602 55.0392 85.2215 54.9962C85.6788 54.9431 86.0501 54.9 86.3351 54.8669C86.6201 54.8304 86.8273 54.7724 86.9565 54.6929C87.0858 54.6133 87.1504 54.4841 87.1504 54.3051V54.2703C87.1504 53.8361 87.0278 53.4997 86.7825 53.2611C86.5406 53.0224 86.1793 52.9031 85.6987 52.9031C85.1983 52.9031 84.8038 53.0142 84.5155 53.2362C84.2305 53.455 84.0332 53.6986 83.9239 53.967L82.5269 53.6489C82.6926 53.1848 82.9345 52.8103 83.2527 52.5253C83.5742 52.2369 83.9438 52.0281 84.3614 51.8989C84.779 51.7663 85.2181 51.7 85.6788 51.7C85.9838 51.7 86.3069 51.7365 86.6483 51.8094C86.993 51.879 87.3145 52.0082 87.6128 52.1972C87.9144 52.3861 88.1613 52.6562 88.3536 53.0075C88.5458 53.3555 88.6419 53.808 88.6419 54.3648V59.4358H87.1902V58.3918H87.1305C87.0344 58.584 86.8903 58.7729 86.698 58.9585C86.5058 59.1441 86.2589 59.2982 85.9573 59.4209C85.6556 59.5435 85.2944 59.6048 84.8734 59.6048ZM85.1966 58.4116C85.6076 58.4116 85.9589 58.3304 86.2506 58.168C86.5456 58.0056 86.7693 57.7935 86.9217 57.5317C87.0775 57.2665 87.1554 56.9831 87.1554 56.6815V55.6972C87.1024 55.7502 86.9996 55.7999 86.8472 55.8463C86.698 55.8894 86.5273 55.9275 86.3351 55.9606C86.1429 55.9905 85.9556 56.0187 85.7733 56.0452C85.591 56.0684 85.4386 56.0883 85.3159 56.1048C85.0276 56.1413 84.7641 56.2026 84.5254 56.2888C84.2901 56.3749 84.1012 56.4992 83.9587 56.6616C83.8195 56.8207 83.7499 57.0329 83.7499 57.298C83.7499 57.6659 83.8858 57.9443 84.1575 58.1332C84.4293 58.3188 84.7757 58.4116 85.1966 58.4116ZM90.6218 59.4358V51.7994H92.1084V59.4358H90.6218ZM91.3726 50.6212C91.114 50.6212 90.892 50.535 90.7064 50.3626C90.5241 50.187 90.4329 49.9782 90.4329 49.7362C90.4329 49.491 90.5241 49.2821 90.7064 49.1098C90.892 48.9341 91.114 48.8463 91.3726 48.8463C91.6311 48.8463 91.8515 48.9341 92.0338 49.1098C92.2194 49.2821 92.3122 49.491 92.3122 49.7362C92.3122 49.9782 92.2194 50.187 92.0338 50.3626C91.8515 50.535 91.6311 50.6212 91.3726 50.6212ZM95.5947 49.254V59.4358H94.1082V49.254H95.5947ZM99.2202 56.5075V56.4131C99.2268 55.7966 99.2882 55.3061 99.4042 54.9415C99.5235 54.5769 99.6925 54.2819 99.9113 54.0565C100.13 53.8312 100.394 53.6257 100.702 53.4401C100.901 53.3141 101.08 53.1732 101.239 53.0175C101.398 52.8617 101.524 52.6827 101.617 52.4805C101.709 52.2784 101.756 52.0546 101.756 51.8094C101.756 51.5144 101.686 51.2592 101.547 51.0437C101.408 50.8283 101.222 50.6626 100.99 50.5466C100.761 50.4273 100.506 50.3676 100.224 50.3676C99.9693 50.3676 99.7257 50.4206 99.4937 50.5267C99.2616 50.6328 99.0694 50.7985 98.9169 51.0239C98.7645 51.2459 98.6767 51.5326 98.6535 51.8839H97.1421C97.1653 51.2874 97.3161 50.7836 97.5945 50.3726C97.8729 49.9583 98.2408 49.6451 98.6982 49.4329C99.1589 49.2208 99.6677 49.1148 100.224 49.1148C100.834 49.1148 101.368 49.2291 101.825 49.4578C102.283 49.6832 102.637 49.9997 102.889 50.4074C103.144 50.8117 103.272 51.284 103.272 51.8243C103.272 52.1955 103.214 52.5303 103.098 52.8285C102.982 53.1235 102.816 53.387 102.601 53.619C102.389 53.851 102.134 54.0565 101.835 54.2355C101.554 54.4112 101.325 54.5935 101.149 54.7824C100.977 54.9713 100.851 55.195 100.771 55.4535C100.692 55.7121 100.649 56.0319 100.642 56.4131V56.5075H99.2202ZM99.9709 59.5303C99.6991 59.5303 99.4655 59.4341 99.2699 59.2419C99.0744 59.0463 98.9766 58.811 98.9766 58.5359C98.9766 58.2642 99.0744 58.0321 99.2699 57.8399C99.4655 57.6444 99.6991 57.5466 99.9709 57.5466C100.239 57.5466 100.471 57.6444 100.667 57.8399C100.866 58.0321 100.965 58.2642 100.965 58.5359C100.965 58.7182 100.919 58.8856 100.826 59.0381C100.737 59.1872 100.617 59.3065 100.468 59.396C100.319 59.4855 100.153 59.5303 99.9709 59.5303Z" fill="#FEFEFE"/>
</svg>
