<svg width="241" height="37" viewBox="0 0 241 37" fill="none" xmlns="http://www.w3.org/2000/svg">
<path d="M217.974 36.7178C221.028 36.7178 223.911 35.9914 226.463 34.7041C227.002 34.9996 227.561 35.2712 228.14 35.5137C232.192 37.2083 236.52 37.2626 240.385 35.9795C237.795 33.5406 235.661 30.7518 234.039 27.7529C235.819 24.8733 236.846 21.4796 236.846 17.8457H217.974V36.7178Z" fill="#1397F6"/>
<path d="M236.846 14.1538C236.846 6.3369 230.509 0 222.692 0H217.974V19.0252H236.846V14.1538Z" fill="#1397F6"/>
<path d="M0 14.1538C0 6.33688 6.33689 0 14.1538 0H219.154V36.8718H14.1539C6.33691 36.8718 0 30.5349 0 22.7179V14.1538Z" fill="#1397F6"/>
<path d="M21.4262 17.6638L20.0789 17.9024C20.0225 17.7301 19.933 17.566 19.8104 17.4102C19.6911 17.2544 19.5287 17.1268 19.3232 17.0274C19.1177 16.928 18.8608 16.8783 18.5526 16.8783C18.1317 16.8783 17.7803 16.9727 17.4986 17.1616C17.2169 17.3472 17.076 17.5875 17.076 17.8825C17.076 18.1377 17.1705 18.3432 17.3594 18.499C17.5483 18.6548 17.8533 18.7824 18.2742 18.8818L19.4873 19.1602C20.1899 19.3226 20.7136 19.5729 21.0583 19.9109C21.403 20.249 21.5753 20.6882 21.5753 21.2284C21.5753 21.6858 21.4428 22.0935 21.1776 22.4514C20.9158 22.8061 20.5495 23.0845 20.0789 23.2866C19.6116 23.4888 19.0696 23.5899 18.4532 23.5899C17.5981 23.5899 16.9004 23.4076 16.3601 23.043C15.8199 22.6751 15.4884 22.1531 15.3658 21.477L16.8026 21.2582C16.8921 21.6328 17.076 21.9161 17.3544 22.1084C17.6329 22.2973 17.9958 22.3918 18.4432 22.3918C18.9304 22.3918 19.3199 22.2907 19.6116 22.0885C19.9032 21.883 20.0491 21.6328 20.0491 21.3378C20.0491 21.0991 19.9596 20.8986 19.7806 20.7362C19.6049 20.5738 19.3348 20.4512 18.9702 20.3683L17.6776 20.0849C16.965 19.9225 16.438 19.664 16.0966 19.3094C15.7586 18.9547 15.5895 18.5056 15.5895 17.9621C15.5895 17.5113 15.7155 17.1169 15.9674 16.7788C16.2193 16.4408 16.5673 16.1773 17.0114 15.9883C17.4555 15.7961 17.9643 15.7 18.5377 15.7C19.363 15.7 20.0126 15.879 20.4866 16.2369C20.9605 16.5916 21.2737 17.0672 21.4262 17.6638ZM26.4264 23.5899C25.6872 23.5899 25.0509 23.4225 24.5173 23.0878C23.987 22.7497 23.5793 22.284 23.2943 21.6908C23.0092 21.0975 22.8667 20.418 22.8667 19.6524C22.8667 18.8768 23.0125 18.1924 23.3042 17.5991C23.5959 17.0026 24.0069 16.5369 24.5372 16.2021C25.0675 15.8674 25.6922 15.7 26.4114 15.7C26.9915 15.7 27.5085 15.8077 27.9626 16.0231C28.4167 16.2353 28.7829 16.5336 29.0613 16.918C29.343 17.3025 29.5104 17.7516 29.5634 18.2653H28.1167C28.0372 17.9074 27.8549 17.5991 27.5698 17.3406C27.2881 17.0821 26.9103 16.9528 26.4363 16.9528C26.022 16.9528 25.6591 17.0622 25.3475 17.281C25.0393 17.4964 24.799 17.8046 24.6266 18.2057C24.4543 18.6034 24.3681 19.074 24.3681 19.6176C24.3681 20.1744 24.4526 20.655 24.6217 21.0594C24.7907 21.4637 25.0293 21.7769 25.3376 21.999C25.6491 22.2211 26.0154 22.3321 26.4363 22.3321C26.718 22.3321 26.9732 22.2807 27.2019 22.178C27.4339 22.0719 27.6278 21.9211 27.7836 21.7256C27.9427 21.53 28.0537 21.2947 28.1167 21.0196H29.5634C29.5104 21.5134 29.3497 21.9543 29.0812 22.342C28.8127 22.7298 28.4531 23.0347 28.0024 23.2568C27.5549 23.4789 27.0296 23.5899 26.4264 23.5899ZM32.6396 18.9017V23.4358H31.1531V13.254H32.6197V17.0423H32.7142C32.8932 16.6313 33.1666 16.3049 33.5345 16.0629C33.9024 15.821 34.383 15.7 34.9763 15.7C35.4999 15.7 35.9573 15.8077 36.3484 16.0231C36.7428 16.2386 37.0477 16.5601 37.2632 16.9876C37.4819 17.4119 37.5913 17.9422 37.5913 18.5785V23.4358H36.1048V18.7575C36.1048 18.1974 35.9606 17.7632 35.6723 17.455C35.3839 17.1434 34.9829 16.9876 34.4691 16.9876C34.1178 16.9876 33.803 17.0622 33.5245 17.2114C33.2495 17.3605 33.0324 17.5793 32.8733 17.8676C32.7175 18.1526 32.6396 18.4973 32.6396 18.9017ZM42.8662 23.5899C42.1138 23.5899 41.4658 23.4292 40.9223 23.1077C40.382 22.7829 39.9644 22.3271 39.6694 21.7405C39.3778 21.1505 39.2319 20.4595 39.2319 19.6673C39.2319 18.8851 39.3778 18.1957 39.6694 17.5991C39.9644 17.0026 40.3754 16.5369 40.9024 16.2021C41.4327 15.8674 42.0525 15.7 42.7618 15.7C43.1926 15.7 43.6102 15.7713 44.0146 15.9138C44.419 16.0563 44.7819 16.28 45.1034 16.5849C45.4249 16.8899 45.6784 17.2859 45.864 17.7731C46.0496 18.2571 46.1424 18.8454 46.1424 19.5381V20.0651H40.0721V18.9514H44.6858C44.6858 18.5603 44.6062 18.214 44.4471 17.9124C44.288 17.6074 44.0643 17.3671 43.776 17.1915C43.4909 17.0158 43.1562 16.928 42.7717 16.928C42.3541 16.928 41.9895 17.0307 41.678 17.2362C41.3697 17.4384 41.1311 17.7035 40.962 18.0317C40.7963 18.3565 40.7135 18.7095 40.7135 19.0906V19.9606C40.7135 20.4711 40.803 20.9053 40.9819 21.2632C41.1642 21.6212 41.4178 21.8946 41.7426 22.0835C42.0674 22.2691 42.4469 22.3619 42.8811 22.3619C43.1628 22.3619 43.4197 22.3222 43.6517 22.2426C43.8837 22.1597 44.0842 22.0371 44.2532 21.8747C44.4223 21.7123 44.5515 21.5118 44.641 21.2731L46.048 21.5267C45.9353 21.941 45.7331 22.3039 45.4415 22.6155C45.1531 22.9237 44.7902 23.164 44.3527 23.3364C43.9185 23.5054 43.423 23.5899 42.8662 23.5899ZM50.6504 23.5849C50.034 23.5849 49.4838 23.4275 48.9999 23.1126C48.5193 22.7945 48.1414 22.342 47.8663 21.7554C47.5946 21.1654 47.4587 20.4578 47.4587 19.6325C47.4587 18.8072 47.5962 18.1013 47.8713 17.5146C48.1497 16.928 48.5309 16.4789 49.0148 16.1673C49.4987 15.8558 50.0472 15.7 50.6604 15.7C51.1343 15.7 51.5155 15.7795 51.8038 15.9386C52.0955 16.0944 52.3209 16.2767 52.48 16.4855C52.6424 16.6943 52.7683 16.8783 52.8578 17.0374H52.9473V13.254H54.4338V23.4358H52.9821V22.2476H52.8578C52.7683 22.41 52.6391 22.5956 52.47 22.8044C52.3043 23.0132 52.0756 23.1955 51.784 23.3513C51.4923 23.5071 51.1145 23.5849 50.6504 23.5849ZM50.9786 22.3172C51.4061 22.3172 51.7674 22.2045 52.0624 21.9791C52.3607 21.7504 52.586 21.4339 52.7385 21.0295C52.8943 20.6252 52.9722 20.1545 52.9722 19.6176C52.9722 19.0873 52.8959 18.6233 52.7435 18.2256C52.591 17.8278 52.3673 17.5179 52.0723 17.2959C51.7773 17.0738 51.4127 16.9628 50.9786 16.9628C50.5311 16.9628 50.1582 17.0788 49.86 17.3108C49.5617 17.5428 49.3363 17.8593 49.1838 18.2604C49.0347 18.6614 48.9601 19.1138 48.9601 19.6176C48.9601 20.128 49.0363 20.5871 49.1888 20.9947C49.3412 21.4024 49.5666 21.7256 49.8649 21.9642C50.1665 22.1995 50.5377 22.3172 50.9786 22.3172ZM61.3928 20.2689V15.7994H62.8843V23.4358H61.4226V22.1133H61.3431C61.1674 22.521 60.8857 22.8607 60.4979 23.1325C60.1134 23.401 59.6345 23.5352 59.0611 23.5352C58.5706 23.5352 58.1364 23.4275 57.7586 23.2121C57.384 22.9933 57.0891 22.6702 56.8736 22.2426C56.6615 21.8151 56.5554 21.2864 56.5554 20.6567V15.7994H58.0419V20.4777C58.0419 20.9981 58.1861 21.4124 58.4745 21.7206C58.7628 22.0288 59.1374 22.183 59.5981 22.183C59.8765 22.183 60.1532 22.1133 60.4283 21.9741C60.7067 21.8349 60.9371 21.6245 61.1194 21.3428C61.305 21.061 61.3961 20.7031 61.3928 20.2689ZM66.3681 13.254V23.4358H64.8816V13.254H66.3681ZM71.6591 23.5899C70.9068 23.5899 70.2588 23.4292 69.7152 23.1077C69.175 22.7829 68.7574 22.3271 68.4624 21.7405C68.1707 21.1505 68.0249 20.4595 68.0249 19.6673C68.0249 18.8851 68.1707 18.1957 68.4624 17.5991C68.7574 17.0026 69.1684 16.5369 69.6954 16.2021C70.2257 15.8674 70.8455 15.7 71.5547 15.7C71.9856 15.7 72.4032 15.7713 72.8076 15.9138C73.2119 16.0563 73.5749 16.28 73.8964 16.5849C74.2178 16.8899 74.4714 17.2859 74.657 17.7731C74.8426 18.2571 74.9354 18.8454 74.9354 19.5381V20.0651H68.8651V18.9514H73.4787C73.4787 18.5603 73.3992 18.214 73.2401 17.9124C73.081 17.6074 72.8573 17.3671 72.5689 17.1915C72.2839 17.0158 71.9491 16.928 71.5647 16.928C71.1471 16.928 70.7825 17.0307 70.4709 17.2362C70.1627 17.4384 69.9241 17.7035 69.755 18.0317C69.5893 18.3565 69.5064 18.7095 69.5064 19.0906V19.9606C69.5064 20.4711 69.5959 20.9053 69.7749 21.2632C69.9572 21.6212 70.2107 21.8946 70.5356 22.0835C70.8604 22.2691 71.2399 22.3619 71.6741 22.3619C71.9558 22.3619 72.2126 22.3222 72.4446 22.2426C72.6767 22.1597 72.8772 22.0371 73.0462 21.8747C73.2152 21.7123 73.3445 21.5118 73.434 21.2731L74.841 21.5267C74.7283 21.941 74.5261 22.3039 74.2344 22.6155C73.9461 22.9237 73.5831 23.164 73.1456 23.3364C72.7115 23.5054 72.216 23.5899 71.6591 23.5899ZM83.1485 23.5849C82.532 23.5849 81.9818 23.4275 81.4979 23.1126C81.0173 22.7945 80.6395 22.342 80.3644 21.7554C80.0926 21.1654 79.9567 20.4578 79.9567 19.6325C79.9567 18.8072 80.0943 18.1013 80.3694 17.5146C80.6478 16.928 81.0289 16.4789 81.5128 16.1673C81.9967 15.8558 82.5453 15.7 83.1584 15.7C83.6324 15.7 84.0135 15.7795 84.3019 15.9386C84.5936 16.0944 84.8189 16.2767 84.978 16.4855C85.1404 16.6943 85.2664 16.8783 85.3559 17.0374H85.4454V13.254H86.9319V23.4358H85.4802V22.2476H85.3559C85.2664 22.41 85.1371 22.5956 84.9681 22.8044C84.8024 23.0132 84.5737 23.1955 84.282 23.3513C83.9903 23.5071 83.6125 23.5849 83.1485 23.5849ZM83.4766 22.3172C83.9042 22.3172 84.2654 22.2045 84.5604 21.9791C84.8587 21.7504 85.0841 21.4339 85.2366 21.0295C85.3923 20.6252 85.4702 20.1545 85.4702 19.6176C85.4702 19.0873 85.394 18.6233 85.2415 18.2256C85.0891 17.8278 84.8653 17.5179 84.5704 17.2959C84.2754 17.0738 83.9108 16.9628 83.4766 16.9628C83.0292 16.9628 82.6563 17.0788 82.358 17.3108C82.0597 17.5428 81.8343 17.8593 81.6819 18.2604C81.5327 18.6614 81.4581 19.1138 81.4581 19.6176C81.4581 20.128 81.5344 20.5871 81.6868 20.9947C81.8393 21.4024 82.0647 21.7256 82.363 21.9642C82.6646 22.1995 83.0358 22.3172 83.4766 22.3172ZM91.2758 23.6048C90.7919 23.6048 90.3544 23.5153 89.9633 23.3364C89.5722 23.1541 89.2623 22.8906 89.0336 22.5459C88.8082 22.2012 88.6955 21.7786 88.6955 21.2781C88.6955 20.8472 88.7784 20.4926 88.9441 20.2142C89.1098 19.9358 89.3336 19.7154 89.6153 19.553C89.897 19.3906 90.2119 19.2679 90.5599 19.1851C90.9079 19.1022 91.2625 19.0392 91.6238 18.9962C92.0812 18.9431 92.4524 18.9 92.7374 18.8669C93.0225 18.8304 93.2296 18.7724 93.3589 18.6929C93.4881 18.6133 93.5528 18.4841 93.5528 18.3051V18.2703C93.5528 17.8361 93.4301 17.4997 93.1849 17.2611C92.9429 17.0224 92.5817 16.9031 92.1011 16.9031C91.6006 16.9031 91.2062 17.0142 90.9178 17.2362C90.6328 17.455 90.4356 17.6986 90.3262 17.967L88.9292 17.6489C89.0949 17.1848 89.3369 16.8103 89.6551 16.5253C89.9765 16.2369 90.3461 16.0281 90.7637 15.8989C91.1813 15.7663 91.6205 15.7 92.0812 15.7C92.3861 15.7 92.7093 15.7365 93.0506 15.8094C93.3953 15.879 93.7168 16.0082 94.0151 16.1972C94.3167 16.3861 94.5637 16.6562 94.7559 17.0075C94.9481 17.3555 95.0443 17.808 95.0443 18.3648V23.4358H93.5926V22.3918H93.5329C93.4368 22.584 93.2926 22.7729 93.1004 22.9585C92.9081 23.1441 92.6612 23.2982 92.3596 23.4209C92.058 23.5435 91.6967 23.6048 91.2758 23.6048ZM91.5989 22.4116C92.0099 22.4116 92.3613 22.3304 92.6529 22.168C92.9479 22.0056 93.1716 21.7935 93.3241 21.5317C93.4799 21.2665 93.5578 20.9831 93.5578 20.6815V19.6972C93.5047 19.7502 93.402 19.7999 93.2495 19.8463C93.1004 19.8894 92.9297 19.9275 92.7374 19.9606C92.5452 19.9905 92.3579 20.0187 92.1756 20.0452C91.9934 20.0684 91.8409 20.0883 91.7183 20.1048C91.4299 20.1413 91.1664 20.2026 90.9278 20.2888C90.6925 20.3749 90.5035 20.4992 90.361 20.6616C90.2218 20.8207 90.1522 21.0329 90.1522 21.298C90.1522 21.6659 90.2881 21.9443 90.5599 22.1332C90.8317 22.3188 91.178 22.4116 91.5989 22.4116ZM100.589 15.7994V16.9926H96.4177V15.7994H100.589ZM97.5363 13.9699H99.0228V21.1936C99.0228 21.482 99.0659 21.699 99.152 21.8449C99.2382 21.9874 99.3492 22.0852 99.4851 22.1382C99.6243 22.1879 99.7751 22.2128 99.9375 22.2128C100.057 22.2128 100.161 22.2045 100.251 22.1879C100.34 22.1713 100.41 22.1581 100.46 22.1481L100.728 23.3761C100.642 23.4093 100.519 23.4424 100.36 23.4756C100.201 23.512 100.002 23.5319 99.7635 23.5352C99.3724 23.5419 99.0079 23.4722 98.6698 23.3264C98.3317 23.1806 98.0583 22.9552 97.8495 22.6503C97.6407 22.3454 97.5363 21.9625 97.5363 21.5018V13.9699ZM105.442 23.5899C104.69 23.5899 104.042 23.4292 103.498 23.1077C102.958 22.7829 102.541 22.3271 102.246 21.7405C101.954 21.1505 101.808 20.4595 101.808 19.6673C101.808 18.8851 101.954 18.1957 102.246 17.5991C102.541 17.0026 102.952 16.5369 103.479 16.2021C104.009 15.8674 104.629 15.7 105.338 15.7C105.769 15.7 106.186 15.7713 106.591 15.9138C106.995 16.0563 107.358 16.28 107.68 16.5849C108.001 16.8899 108.255 17.2859 108.44 17.7731C108.626 18.2571 108.719 18.8454 108.719 19.5381V20.0651H102.648V18.9514H107.262C107.262 18.5603 107.182 18.214 107.023 17.9124C106.864 17.6074 106.64 17.3671 106.352 17.1915C106.067 17.0158 105.732 16.928 105.348 16.928C104.93 16.928 104.566 17.0307 104.254 17.2362C103.946 17.4384 103.707 17.7035 103.538 18.0317C103.372 18.3565 103.29 18.7095 103.29 19.0906V19.9606C103.29 20.4711 103.379 20.9053 103.558 21.2632C103.74 21.6212 103.994 21.8946 104.319 22.0835C104.644 22.2691 105.023 22.3619 105.457 22.3619C105.739 22.3619 105.996 22.3222 106.228 22.2426C106.46 22.1597 106.66 22.0371 106.829 21.8747C106.998 21.7123 107.128 21.5118 107.217 21.2731L108.624 21.5267C108.511 21.941 108.309 22.3039 108.018 22.6155C107.729 22.9237 107.366 23.164 106.929 23.3364C106.495 23.5054 105.999 23.5899 105.442 23.5899ZM115.56 18.9017V23.4358H114.073V15.7994H115.5V17.0423H115.594C115.77 16.638 116.045 16.3132 116.42 16.0679C116.797 15.8226 117.273 15.7 117.846 15.7C118.367 15.7 118.823 15.8094 119.214 16.0281C119.605 16.2436 119.908 16.5651 120.123 16.9926C120.339 17.4202 120.447 17.9488 120.447 18.5785V23.4358H118.96V18.7575C118.96 18.204 118.816 17.7715 118.528 17.4599C118.239 17.1451 117.843 16.9876 117.339 16.9876C116.995 16.9876 116.688 17.0622 116.42 17.2114C116.154 17.3605 115.944 17.5793 115.788 17.8676C115.636 18.1526 115.56 18.4973 115.56 18.9017ZM122.44 23.4358V15.7994H123.927V23.4358H122.44ZM123.191 14.6212C122.932 14.6212 122.71 14.535 122.525 14.3626C122.342 14.187 122.251 13.9782 122.251 13.7362C122.251 13.491 122.342 13.2821 122.525 13.1098C122.71 12.9341 122.932 12.8463 123.191 12.8463C123.449 12.8463 123.67 12.9341 123.852 13.1098C124.038 13.2821 124.131 13.491 124.131 13.7362C124.131 13.9782 124.038 14.187 123.852 14.3626C123.67 14.535 123.449 14.6212 123.191 14.6212ZM129.128 26.4585C128.522 26.4585 128 26.379 127.562 26.2199C127.128 26.0608 126.773 25.8503 126.498 25.5885C126.223 25.3267 126.018 25.04 125.882 24.7284L127.159 24.2014C127.249 24.3472 127.368 24.5014 127.517 24.6638C127.67 24.8295 127.875 24.9704 128.134 25.0864C128.396 25.2024 128.732 25.2604 129.143 25.2604C129.707 25.2604 130.172 25.1228 130.54 24.8477C130.908 24.5759 131.092 24.1418 131.092 23.5452V22.0437H130.998C130.908 22.2062 130.779 22.3868 130.61 22.5856C130.444 22.7845 130.215 22.9569 129.924 23.1027C129.632 23.2485 129.253 23.3214 128.785 23.3214C128.182 23.3214 127.638 23.1806 127.155 22.8989C126.674 22.6138 126.293 22.1946 126.011 21.641C125.733 21.0842 125.593 20.3998 125.593 19.5878C125.593 18.7758 125.731 18.0797 126.006 17.4997C126.284 16.9197 126.666 16.4756 127.15 16.1673C127.633 15.8558 128.182 15.7 128.795 15.7C129.269 15.7 129.652 15.7795 129.944 15.9386C130.235 16.0944 130.462 16.2767 130.625 16.4855C130.79 16.6943 130.918 16.8783 131.008 17.0374H131.117V15.7994H132.574V23.6048C132.574 24.2611 132.421 24.7997 132.116 25.2206C131.811 25.6415 131.399 25.9531 130.878 26.1553C130.361 26.3574 129.778 26.4585 129.128 26.4585ZM129.113 22.0885C129.541 22.0885 129.902 21.9891 130.197 21.7902C130.495 21.588 130.721 21.2997 130.873 20.9251C131.029 20.5473 131.107 20.0949 131.107 19.5679C131.107 19.0542 131.031 18.6017 130.878 18.2106C130.726 17.8196 130.502 17.5146 130.207 17.2959C129.912 17.0738 129.548 16.9628 129.113 16.9628C128.666 16.9628 128.293 17.0788 127.995 17.3108C127.696 17.5395 127.471 17.851 127.319 18.2454C127.169 18.6399 127.095 19.0807 127.095 19.5679C127.095 20.0684 127.171 20.5075 127.324 20.8854C127.476 21.2632 127.701 21.5582 128 21.7703C128.301 21.9824 128.673 22.0885 129.113 22.0885ZM136.054 18.9017V23.4358H134.567V13.254H136.034V17.0423H136.128C136.307 16.6313 136.581 16.3049 136.949 16.0629C137.316 15.821 137.797 15.7 138.39 15.7C138.914 15.7 139.371 15.8077 139.762 16.0231C140.157 16.2386 140.462 16.5601 140.677 16.9876C140.896 17.4119 141.005 17.9422 141.005 18.5785V23.4358H139.519V18.7575C139.519 18.1974 139.375 17.7632 139.086 17.455C138.798 17.1434 138.397 16.9876 137.883 16.9876C137.532 16.9876 137.217 17.0622 136.939 17.2114C136.664 17.3605 136.446 17.5793 136.287 17.8676C136.132 18.1526 136.054 18.4973 136.054 18.9017ZM146.554 15.7994V16.9926H142.383V15.7994H146.554ZM143.501 13.9699H144.988V21.1936C144.988 21.482 145.031 21.699 145.117 21.8449C145.203 21.9874 145.314 22.0852 145.45 22.1382C145.589 22.1879 145.74 22.2128 145.902 22.2128C146.022 22.2128 146.126 22.2045 146.216 22.1879C146.305 22.1713 146.375 22.1581 146.424 22.1481L146.693 23.3761C146.607 23.4093 146.484 23.4424 146.325 23.4756C146.166 23.512 145.967 23.5319 145.728 23.5352C145.337 23.5419 144.973 23.4722 144.635 23.3264C144.297 23.1806 144.023 22.9552 143.814 22.6503C143.606 22.3454 143.501 21.9625 143.501 21.5018V13.9699ZM153.559 23.4358L151.311 15.7994H152.848L154.344 21.4074H154.419L155.92 15.7994H157.456L158.948 21.3825H159.022L160.509 15.7994H162.045L159.803 23.4358H158.287L156.735 17.9223H156.621L155.07 23.4358H153.559ZM163.456 23.4358V15.7994H164.942V23.4358H163.456ZM164.207 14.6212C163.948 14.6212 163.726 14.535 163.54 14.3626C163.358 14.187 163.267 13.9782 163.267 13.7362C163.267 13.491 163.358 13.2821 163.54 13.1098C163.726 12.9341 163.948 12.8463 164.207 12.8463C164.465 12.8463 164.685 12.9341 164.868 13.1098C165.053 13.2821 165.146 13.491 165.146 13.7362C165.146 13.9782 165.053 14.187 164.868 14.3626C164.685 14.535 164.465 14.6212 164.207 14.6212ZM170.507 15.7994V16.9926H166.336V15.7994H170.507ZM167.454 13.9699H168.941V21.1936C168.941 21.482 168.984 21.699 169.07 21.8449C169.156 21.9874 169.267 22.0852 169.403 22.1382C169.542 22.1879 169.693 22.2128 169.856 22.2128C169.975 22.2128 170.079 22.2045 170.169 22.1879C170.258 22.1713 170.328 22.1581 170.378 22.1481L170.646 23.3761C170.56 23.4093 170.437 23.4424 170.278 23.4756C170.119 23.512 169.92 23.5319 169.682 23.5352C169.29 23.5419 168.926 23.4722 168.588 23.3264C168.25 23.1806 167.976 22.9552 167.767 22.6503C167.559 22.3454 167.454 21.9625 167.454 21.5018V13.9699ZM173.802 18.9017V23.4358H172.315V13.254H173.782V17.0423H173.876C174.055 16.6313 174.329 16.3049 174.697 16.0629C175.064 15.821 175.545 15.7 176.138 15.7C176.662 15.7 177.119 15.8077 177.511 16.0231C177.905 16.2386 178.21 16.5601 178.425 16.9876C178.644 17.4119 178.753 17.9422 178.753 18.5785V23.4358H177.267V18.7575C177.267 18.1974 177.123 17.7632 176.834 17.455C176.546 17.1434 176.145 16.9876 175.631 16.9876C175.28 16.9876 174.965 17.0622 174.687 17.2114C174.412 17.3605 174.194 17.5793 174.035 17.8676C173.88 18.1526 173.802 18.4973 173.802 18.9017ZM184.561 23.4358V13.254H190.945V14.5764H186.098V17.6787H190.612V18.9962H186.098V22.1133H191.005V23.4358H184.561ZM192.878 23.4358V15.7994H194.305V17.0423H194.399C194.558 16.6214 194.818 16.2933 195.18 16.058C195.541 15.8193 195.973 15.7 196.477 15.7C196.988 15.7 197.415 15.8193 197.76 16.058C198.108 16.2966 198.365 16.6247 198.53 17.0423H198.61C198.792 16.6347 199.082 16.3098 199.48 16.0679C199.878 15.8226 200.352 15.7 200.902 15.7C201.595 15.7 202.16 15.9171 202.597 16.3513C203.038 16.7855 203.258 17.4401 203.258 18.3151V23.4358H201.772V18.4543C201.772 17.9372 201.631 17.5627 201.349 17.3307C201.068 17.0987 200.731 16.9827 200.34 16.9827C199.856 16.9827 199.48 17.1318 199.212 17.4301C198.943 17.7251 198.809 18.1046 198.809 18.5686V23.4358H197.327V18.3598C197.327 17.9455 197.198 17.6124 196.939 17.3605C196.681 17.1086 196.345 16.9827 195.93 16.9827C195.649 16.9827 195.388 17.0572 195.15 17.2064C194.914 17.3522 194.724 17.5561 194.578 17.8179C194.435 18.0797 194.364 18.383 194.364 18.7277V23.4358H192.878ZM205.251 23.4358V15.7994H206.737V23.4358H205.251ZM206.001 14.6212C205.743 14.6212 205.521 14.535 205.335 14.3626C205.153 14.187 205.062 13.9782 205.062 13.7362C205.062 13.491 205.153 13.2821 205.335 13.1098C205.521 12.9341 205.743 12.8463 206.001 12.8463C206.26 12.8463 206.48 12.9341 206.663 13.1098C206.848 13.2821 206.941 13.491 206.941 13.7362C206.941 13.9782 206.848 14.187 206.663 14.3626C206.48 14.535 206.26 14.6212 206.001 14.6212ZM210.224 13.254V23.4358H208.737V13.254H210.224ZM213.163 26.2994C212.941 26.2994 212.739 26.2812 212.557 26.2447C212.374 26.2116 212.238 26.1751 212.149 26.1354L212.507 24.9173C212.779 24.9902 213.021 25.0217 213.233 25.0118C213.445 25.0018 213.632 24.9223 213.794 24.7731C213.96 24.624 214.106 24.3804 214.232 24.0423L214.416 23.5352L211.622 15.7994H213.213L215.147 21.7256H215.226L217.16 15.7994H218.756L215.609 24.455C215.463 24.8527 215.278 25.1891 215.052 25.4642C214.827 25.7426 214.558 25.9514 214.247 26.0906C213.935 26.2298 213.574 26.2994 213.163 26.2994Z" fill="#FEFEFE"/>
</svg>
