<svg width="305" height="120" viewBox="0 0 305 120" fill="none" xmlns="http://www.w3.org/2000/svg">
<path d="M6.98623 108.083C3.70313 107.535 0.602192 109.766 0.0762711 113.052C-0.44965 116.339 1.80055 119.425 5.09038 119.93C8.35041 120.43 11.4027 118.205 11.9238 114.948C12.4449 111.691 10.2394 108.625 6.98623 108.083Z" fill="white" fill-opacity="0.4"/>
<rect width="293" height="108" rx="16" transform="matrix(-1 0 0 1 305 0)" fill="white" fill-opacity="0.4"/>
<rect x="-0.5" y="0.5" width="292" height="107" rx="15.5" transform="matrix(-1 0 0 1 304 0)" stroke="white" stroke-opacity="0.32"/>
<rect x="16" y="4" width="285" height="24" rx="12" fill="white" fill-opacity="0.56"/>
<rect x="20" y="8" width="16" height="16" rx="8" fill="#1397F6"/>
<path d="M24.75 16.25L26.7429 18.2429C26.7468 18.2468 26.7532 18.2468 26.7571 18.2429L31.25 13.75" stroke="white" stroke-width="1.5" stroke-linecap="round"/>
<path d="M46.02 20.108C44.98 20.108 44.148 19.86 43.524 19.364C42.9 18.868 42.536 18.16 42.432 17.24H43.668C43.74 17.84 43.98 18.296 44.388 18.608C44.796 18.92 45.348 19.076 46.044 19.076C46.628 19.076 47.068 18.968 47.364 18.752C47.668 18.536 47.82 18.228 47.82 17.828C47.82 17.468 47.72 17.184 47.52 16.976C47.32 16.76 47.004 16.584 46.572 16.448L45.072 15.968C44.304 15.72 43.74 15.408 43.38 15.032C43.02 14.656 42.84 14.18 42.84 13.604C42.84 13.116 42.96 12.696 43.2 12.344C43.448 11.992 43.792 11.72 44.232 11.528C44.68 11.328 45.2 11.228 45.792 11.228C46.704 11.228 47.432 11.46 47.976 11.924C48.528 12.38 48.844 13.016 48.924 13.832H47.688C47.592 13.288 47.384 12.892 47.064 12.644C46.744 12.388 46.304 12.26 45.744 12.26C45.216 12.26 44.804 12.364 44.508 12.572C44.212 12.78 44.064 13.072 44.064 13.448C44.064 13.752 44.16 14.008 44.352 14.216C44.552 14.416 44.88 14.588 45.336 14.732L46.908 15.236C47.636 15.468 48.172 15.784 48.516 16.184C48.868 16.584 49.044 17.088 49.044 17.696C49.044 18.464 48.78 19.06 48.252 19.484C47.724 19.9 46.98 20.108 46.02 20.108ZM52.9691 20.12C52.3531 20.12 51.8091 19.984 51.3371 19.712C50.8731 19.44 50.5091 19.064 50.2451 18.584C49.9811 18.104 49.8491 17.552 49.8491 16.928C49.8491 16.296 49.9771 15.744 50.2331 15.272C50.4971 14.792 50.8651 14.42 51.3371 14.156C51.8091 13.892 52.3491 13.76 52.9571 13.76C53.5491 13.76 54.0611 13.888 54.4931 14.144C54.9331 14.392 55.2691 14.74 55.5011 15.188C55.7411 15.636 55.8611 16.168 55.8611 16.784C55.8611 16.88 55.8571 16.972 55.8491 17.06C55.8491 17.14 55.8411 17.224 55.8251 17.312H50.6891V16.376H54.9491L54.6371 16.748C54.6371 16.092 54.4891 15.592 54.1931 15.248C53.8971 14.904 53.4851 14.732 52.9571 14.732C52.3891 14.732 51.9371 14.928 51.6011 15.32C51.2731 15.704 51.1091 16.24 51.1091 16.928C51.1091 17.624 51.2731 18.168 51.6011 18.56C51.9371 18.952 52.4011 19.148 52.9931 19.148C53.3531 19.148 53.6651 19.076 53.9291 18.932C54.1931 18.78 54.3891 18.56 54.5171 18.272H55.6931C55.4931 18.848 55.1531 19.3 54.6731 19.628C54.2011 19.956 53.6331 20.12 52.9691 20.12ZM60.8594 20C60.8194 19.848 60.7914 19.68 60.7754 19.496C60.7674 19.312 60.7634 19.088 60.7634 18.824H60.7034V15.908C60.7034 15.516 60.6034 15.224 60.4034 15.032C60.2114 14.832 59.9034 14.732 59.4794 14.732C59.0714 14.732 58.7434 14.812 58.4954 14.972C58.2554 15.132 58.1154 15.36 58.0754 15.656H56.8874C56.9434 15.08 57.2034 14.62 57.6674 14.276C58.1314 13.932 58.7514 13.76 59.5274 13.76C60.3274 13.76 60.9274 13.948 61.3274 14.324C61.7274 14.692 61.9274 15.236 61.9274 15.956V18.824C61.9274 19.008 61.9394 19.196 61.9634 19.388C61.9874 19.58 62.0234 19.784 62.0714 20H60.8594ZM58.7474 20.12C58.1234 20.12 57.6274 19.968 57.2594 19.664C56.8914 19.352 56.7074 18.932 56.7074 18.404C56.7074 17.86 56.8994 17.432 57.2834 17.12C57.6754 16.8 58.2354 16.584 58.9634 16.472L60.9794 16.148V17.024L59.1554 17.312C58.7474 17.376 58.4394 17.484 58.2314 17.636C58.0314 17.788 57.9314 18.008 57.9314 18.296C57.9314 18.576 58.0234 18.788 58.2074 18.932C58.3994 19.068 58.6754 19.136 59.0354 19.136C59.5154 19.136 59.9114 19.02 60.2234 18.788C60.5434 18.556 60.7034 18.264 60.7034 17.912L60.8594 18.8C60.7154 19.224 60.4594 19.552 60.0914 19.784C59.7234 20.008 59.2754 20.12 58.7474 20.12ZM63.6182 20V13.88H64.8062V15.404H64.8662V20H63.6182ZM64.8662 16.808L64.7102 15.356C64.8542 14.836 65.1022 14.44 65.4542 14.168C65.8062 13.896 66.2262 13.76 66.7142 13.76C66.8982 13.76 67.0262 13.776 67.0982 13.808V14.984C67.0582 14.968 67.0022 14.96 66.9302 14.96C66.8582 14.952 66.7702 14.948 66.6662 14.948C66.0662 14.948 65.6142 15.104 65.3102 15.416C65.0142 15.728 64.8662 16.192 64.8662 16.808ZM70.5802 20.12C69.9962 20.12 69.4762 19.984 69.0202 19.712C68.5642 19.432 68.2042 19.052 67.9402 18.572C67.6842 18.092 67.5562 17.544 67.5562 16.928C67.5562 16.312 67.6842 15.768 67.9402 15.296C68.2042 14.816 68.5642 14.44 69.0202 14.168C69.4762 13.896 69.9922 13.76 70.5682 13.76C71.0562 13.76 71.4922 13.852 71.8762 14.036C72.2602 14.22 72.5762 14.476 72.8242 14.804C73.0722 15.132 73.2322 15.52 73.3042 15.968H72.1282C72.0482 15.608 71.8722 15.32 71.6002 15.104C71.3362 14.888 71.0002 14.78 70.5922 14.78C70.2402 14.78 69.9322 14.868 69.6682 15.044C69.4042 15.22 69.2002 15.468 69.0562 15.788C68.9122 16.108 68.8402 16.488 68.8402 16.928C68.8402 17.36 68.9122 17.74 69.0562 18.068C69.2002 18.396 69.4042 18.652 69.6682 18.836C69.9322 19.012 70.2442 19.1 70.6042 19.1C70.9962 19.1 71.3282 18.996 71.6002 18.788C71.8802 18.572 72.0602 18.284 72.1402 17.924H73.3162C73.2362 18.364 73.0682 18.748 72.8122 19.076C72.5642 19.404 72.2482 19.66 71.8642 19.844C71.4802 20.028 71.0522 20.12 70.5802 20.12ZM74.5518 20V11.36H75.7998V20H74.5518ZM78.8958 20V16.064C78.8958 15.64 78.7878 15.324 78.5718 15.116C78.3638 14.908 78.0518 14.804 77.6358 14.804C77.2758 14.804 76.9558 14.884 76.6758 15.044C76.4038 15.204 76.1878 15.424 76.0278 15.704C75.8758 15.984 75.7998 16.316 75.7998 16.7L75.6438 15.236C75.8438 14.78 76.1518 14.42 76.5678 14.156C76.9838 13.892 77.4678 13.76 78.0198 13.76C78.6758 13.76 79.1918 13.944 79.5678 14.312C79.9438 14.68 80.1318 15.168 80.1318 15.776V20H78.8958ZM81.8057 20V13.88H83.0537V20H81.8057ZM81.7457 12.68V11.276H83.1257V12.68H81.7457ZM84.8057 20V13.88H85.9937V15.32H86.0537V20H84.8057ZM89.1497 20V16.064C89.1497 15.64 89.0417 15.324 88.8257 15.116C88.6177 14.908 88.3057 14.804 87.8897 14.804C87.5297 14.804 87.2097 14.884 86.9297 15.044C86.6577 15.204 86.4417 15.424 86.2817 15.704C86.1297 15.984 86.0537 16.316 86.0537 16.7L85.8977 15.236C86.0977 14.78 86.4057 14.42 86.8217 14.156C87.2377 13.892 87.7217 13.76 88.2737 13.76C88.9297 13.76 89.4457 13.944 89.8217 14.312C90.1977 14.68 90.3857 15.168 90.3857 15.776V20H89.1497ZM94.6393 22.58C93.8713 22.58 93.2353 22.404 92.7313 22.052C92.2353 21.708 91.9353 21.248 91.8313 20.672H93.0073C93.0873 20.936 93.2633 21.144 93.5353 21.296C93.8153 21.448 94.1873 21.524 94.6513 21.524C95.2513 21.524 95.6993 21.376 95.9953 21.08C96.2913 20.784 96.4393 20.344 96.4393 19.76V18.44L96.5473 18.464C96.4273 18.928 96.1673 19.296 95.7673 19.568C95.3673 19.832 94.8873 19.964 94.3273 19.964C93.7913 19.964 93.3193 19.836 92.9113 19.58C92.5033 19.324 92.1873 18.968 91.9633 18.512C91.7393 18.048 91.6273 17.508 91.6273 16.892C91.6273 16.268 91.7433 15.72 91.9753 15.248C92.2073 14.776 92.5313 14.412 92.9473 14.156C93.3713 13.9 93.8633 13.772 94.4233 13.772C94.9993 13.772 95.4753 13.912 95.8513 14.192C96.2353 14.464 96.4793 14.852 96.5833 15.356L96.4873 15.368V13.88H97.6753V19.748C97.6753 20.628 97.4033 21.32 96.8593 21.824C96.3233 22.328 95.5833 22.58 94.6393 22.58ZM94.6993 18.956C95.2353 18.956 95.6633 18.768 95.9833 18.392C96.3113 18.016 96.4753 17.5 96.4753 16.844C96.4753 16.204 96.3113 15.7 95.9833 15.332C95.6633 14.964 95.2313 14.78 94.6873 14.78C94.1433 14.78 93.7113 14.968 93.3913 15.344C93.0713 15.712 92.9113 16.224 92.9113 16.88C92.9113 17.52 93.0713 18.028 93.3913 18.404C93.7193 18.772 94.1553 18.956 94.6993 18.956ZM102.29 20V13.172C102.29 12.548 102.466 12.072 102.818 11.744C103.17 11.408 103.698 11.24 104.402 11.24C104.562 11.24 104.694 11.248 104.798 11.264C104.902 11.28 104.994 11.304 105.074 11.336V12.296C105.018 12.28 104.942 12.264 104.846 12.248C104.758 12.232 104.658 12.224 104.546 12.224C104.194 12.224 103.938 12.312 103.778 12.488C103.618 12.656 103.538 12.896 103.538 13.208V20H102.29ZM101.114 14.876V13.88H104.942V14.876H101.114ZM108.563 20.12C107.939 20.12 107.391 19.984 106.919 19.712C106.447 19.432 106.079 19.052 105.815 18.572C105.551 18.084 105.419 17.532 105.419 16.916C105.419 16.292 105.551 15.744 105.815 15.272C106.087 14.8 106.455 14.432 106.919 14.168C107.391 13.896 107.939 13.76 108.563 13.76C109.195 13.76 109.747 13.896 110.219 14.168C110.691 14.432 111.055 14.8 111.311 15.272C111.575 15.744 111.707 16.292 111.707 16.916C111.707 17.532 111.575 18.084 111.311 18.572C111.055 19.052 110.691 19.432 110.219 19.712C109.747 19.984 109.195 20.12 108.563 20.12ZM108.563 19.1C108.939 19.1 109.263 19.008 109.535 18.824C109.815 18.64 110.035 18.384 110.195 18.056C110.355 17.728 110.435 17.344 110.435 16.904C110.435 16.248 110.259 15.732 109.907 15.356C109.563 14.972 109.115 14.78 108.563 14.78C108.019 14.78 107.571 14.972 107.219 15.356C106.875 15.74 106.703 16.256 106.703 16.904C106.703 17.344 106.779 17.728 106.931 18.056C107.091 18.384 107.311 18.64 107.591 18.824C107.879 19.008 108.203 19.1 108.563 19.1ZM112.989 20V13.88H114.177V15.404H114.237V20H112.989ZM114.237 16.808L114.081 15.356C114.225 14.836 114.473 14.44 114.825 14.168C115.177 13.896 115.597 13.76 116.085 13.76C116.269 13.76 116.397 13.776 116.469 13.808V14.984C116.429 14.968 116.373 14.96 116.301 14.96C116.229 14.952 116.141 14.948 116.037 14.948C115.437 14.948 114.985 15.104 114.681 15.416C114.385 15.728 114.237 16.192 114.237 16.808ZM122.554 20.12C121.842 20.12 121.318 19.956 120.982 19.628C120.654 19.292 120.49 18.8 120.49 18.152V12.476L121.726 12.008V18.164C121.726 18.484 121.81 18.72 121.978 18.872C122.146 19.024 122.418 19.1 122.794 19.1C122.938 19.1 123.066 19.088 123.178 19.064C123.29 19.04 123.386 19.012 123.466 18.98V19.988C123.378 20.028 123.254 20.06 123.094 20.084C122.934 20.108 122.754 20.12 122.554 20.12ZM119.266 14.876V13.88H123.466V14.876H119.266ZM124.649 20V11.36H125.897V20H124.649ZM128.993 20V16.064C128.993 15.64 128.885 15.324 128.669 15.116C128.461 14.908 128.149 14.804 127.733 14.804C127.373 14.804 127.053 14.884 126.773 15.044C126.501 15.204 126.285 15.424 126.125 15.704C125.973 15.984 125.897 16.316 125.897 16.7L125.741 15.236C125.941 14.78 126.249 14.42 126.665 14.156C127.081 13.892 127.565 13.76 128.117 13.76C128.773 13.76 129.289 13.944 129.665 14.312C130.041 14.68 130.229 15.168 130.229 15.776V20H128.993ZM134.567 20.12C133.951 20.12 133.407 19.984 132.935 19.712C132.471 19.44 132.107 19.064 131.843 18.584C131.579 18.104 131.447 17.552 131.447 16.928C131.447 16.296 131.575 15.744 131.831 15.272C132.095 14.792 132.463 14.42 132.935 14.156C133.407 13.892 133.947 13.76 134.555 13.76C135.147 13.76 135.659 13.888 136.091 14.144C136.531 14.392 136.867 14.74 137.099 15.188C137.339 15.636 137.459 16.168 137.459 16.784C137.459 16.88 137.455 16.972 137.447 17.06C137.447 17.14 137.439 17.224 137.423 17.312H132.287V16.376H136.547L136.235 16.748C136.235 16.092 136.087 15.592 135.791 15.248C135.495 14.904 135.083 14.732 134.555 14.732C133.987 14.732 133.535 14.928 133.199 15.32C132.871 15.704 132.707 16.24 132.707 16.928C132.707 17.624 132.871 18.168 133.199 18.56C133.535 18.952 133.999 19.148 134.591 19.148C134.951 19.148 135.263 19.076 135.527 18.932C135.791 18.78 135.987 18.56 136.115 18.272H137.291C137.091 18.848 136.751 19.3 136.271 19.628C135.799 19.956 135.231 20.12 134.567 20.12ZM144.367 20.108C143.791 20.108 143.311 19.972 142.927 19.7C142.543 19.42 142.291 19.032 142.171 18.536L142.291 18.512V20H141.103V11.36H142.351V15.284L142.219 15.248C142.355 14.784 142.619 14.42 143.011 14.156C143.411 13.892 143.891 13.76 144.451 13.76C145.003 13.76 145.479 13.892 145.879 14.156C146.287 14.42 146.599 14.788 146.815 15.26C147.039 15.732 147.151 16.284 147.151 16.916C147.151 17.556 147.035 18.116 146.803 18.596C146.571 19.076 146.247 19.448 145.831 19.712C145.415 19.976 144.927 20.108 144.367 20.108ZM144.103 19.076C144.647 19.076 145.079 18.884 145.399 18.5C145.719 18.116 145.879 17.588 145.879 16.916C145.879 16.252 145.719 15.736 145.399 15.368C145.079 14.992 144.643 14.804 144.091 14.804C143.547 14.804 143.111 14.996 142.783 15.38C142.463 15.756 142.303 16.28 142.303 16.952C142.303 17.608 142.463 18.128 142.783 18.512C143.111 18.888 143.551 19.076 144.103 19.076ZM151.137 20.12C150.521 20.12 149.977 19.984 149.505 19.712C149.041 19.44 148.677 19.064 148.413 18.584C148.149 18.104 148.017 17.552 148.017 16.928C148.017 16.296 148.145 15.744 148.401 15.272C148.665 14.792 149.033 14.42 149.505 14.156C149.977 13.892 150.517 13.76 151.125 13.76C151.717 13.76 152.229 13.888 152.661 14.144C153.101 14.392 153.437 14.74 153.669 15.188C153.909 15.636 154.029 16.168 154.029 16.784C154.029 16.88 154.025 16.972 154.017 17.06C154.017 17.14 154.009 17.224 153.993 17.312H148.857V16.376H153.117L152.805 16.748C152.805 16.092 152.657 15.592 152.361 15.248C152.065 14.904 151.653 14.732 151.125 14.732C150.557 14.732 150.105 14.928 149.769 15.32C149.441 15.704 149.277 16.24 149.277 16.928C149.277 17.624 149.441 18.168 149.769 18.56C150.105 18.952 150.569 19.148 151.161 19.148C151.521 19.148 151.833 19.076 152.097 18.932C152.361 18.78 152.557 18.56 152.685 18.272H153.861C153.661 18.848 153.321 19.3 152.841 19.628C152.369 19.956 151.801 20.12 151.137 20.12ZM157.537 20.12C156.737 20.12 156.101 19.944 155.629 19.592C155.157 19.24 154.889 18.744 154.825 18.104H155.977C156.033 18.456 156.193 18.728 156.457 18.92C156.729 19.104 157.097 19.196 157.561 19.196C157.969 19.196 158.281 19.124 158.497 18.98C158.713 18.836 158.821 18.632 158.821 18.368C158.821 18.176 158.757 18.016 158.629 17.888C158.509 17.752 158.269 17.64 157.909 17.552L156.925 17.324C156.309 17.172 155.849 16.948 155.545 16.652C155.249 16.348 155.101 15.976 155.101 15.536C155.101 14.984 155.305 14.552 155.713 14.24C156.129 13.92 156.697 13.76 157.417 13.76C158.129 13.76 158.701 13.92 159.133 14.24C159.573 14.56 159.821 15.008 159.877 15.584H158.725C158.677 15.296 158.537 15.076 158.305 14.924C158.081 14.764 157.773 14.684 157.381 14.684C157.013 14.684 156.729 14.752 156.529 14.888C156.337 15.016 156.241 15.196 156.241 15.428C156.241 15.62 156.313 15.78 156.457 15.908C156.609 16.036 156.857 16.144 157.201 16.232L158.209 16.484C158.793 16.628 159.233 16.864 159.529 17.192C159.825 17.512 159.973 17.9 159.973 18.356C159.973 18.908 159.757 19.34 159.325 19.652C158.901 19.964 158.305 20.12 157.537 20.12ZM163.722 20.12C163.01 20.12 162.486 19.956 162.15 19.628C161.822 19.292 161.658 18.8 161.658 18.152V12.476L162.894 12.008V18.164C162.894 18.484 162.978 18.72 163.146 18.872C163.314 19.024 163.586 19.1 163.962 19.1C164.106 19.1 164.234 19.088 164.346 19.064C164.458 19.04 164.554 19.012 164.634 18.98V19.988C164.546 20.028 164.422 20.06 164.262 20.084C164.102 20.108 163.922 20.12 163.722 20.12ZM160.434 14.876V13.88H164.634V14.876H160.434ZM171.449 20.108C170.873 20.108 170.393 19.972 170.009 19.7C169.633 19.42 169.385 19.032 169.265 18.536L169.433 18.512V22.46H168.185V13.88H169.373V15.284L169.253 15.248C169.381 14.784 169.653 14.42 170.069 14.156C170.485 13.892 170.973 13.76 171.533 13.76C172.085 13.76 172.561 13.892 172.961 14.156C173.369 14.42 173.681 14.788 173.897 15.26C174.121 15.732 174.233 16.284 174.233 16.916C174.233 17.556 174.117 18.116 173.885 18.596C173.653 19.076 173.329 19.448 172.913 19.712C172.497 19.976 172.009 20.108 171.449 20.108ZM171.185 19.076C171.729 19.076 172.161 18.884 172.481 18.5C172.801 18.116 172.961 17.588 172.961 16.916C172.961 16.252 172.801 15.736 172.481 15.368C172.161 14.992 171.725 14.804 171.173 14.804C170.629 14.804 170.193 14.996 169.865 15.38C169.545 15.756 169.385 16.28 169.385 16.952C169.385 17.608 169.545 18.128 169.865 18.512C170.193 18.888 170.633 19.076 171.185 19.076ZM175.544 20V13.88H176.732V15.404H176.792V20H175.544ZM176.792 16.808L176.636 15.356C176.78 14.836 177.028 14.44 177.38 14.168C177.732 13.896 178.152 13.76 178.64 13.76C178.824 13.76 178.952 13.776 179.024 13.808V14.984C178.984 14.968 178.928 14.96 178.856 14.96C178.784 14.952 178.696 14.948 178.592 14.948C177.992 14.948 177.54 15.104 177.236 15.416C176.94 15.728 176.792 16.192 176.792 16.808ZM180.032 20V13.88H181.28V20H180.032ZM179.972 12.68V11.276H181.352V12.68H179.972ZM185.553 20.12C184.969 20.12 184.449 19.984 183.993 19.712C183.537 19.432 183.177 19.052 182.913 18.572C182.657 18.092 182.529 17.544 182.529 16.928C182.529 16.312 182.657 15.768 182.913 15.296C183.177 14.816 183.537 14.44 183.993 14.168C184.449 13.896 184.965 13.76 185.541 13.76C186.029 13.76 186.465 13.852 186.849 14.036C187.233 14.22 187.549 14.476 187.797 14.804C188.045 15.132 188.205 15.52 188.277 15.968H187.101C187.021 15.608 186.845 15.32 186.573 15.104C186.309 14.888 185.973 14.78 185.565 14.78C185.213 14.78 184.905 14.868 184.641 15.044C184.377 15.22 184.173 15.468 184.029 15.788C183.885 16.108 183.813 16.488 183.813 16.928C183.813 17.36 183.885 17.74 184.029 18.068C184.173 18.396 184.377 18.652 184.641 18.836C184.905 19.012 185.217 19.1 185.577 19.1C185.969 19.1 186.301 18.996 186.573 18.788C186.853 18.572 187.033 18.284 187.113 17.924H188.289C188.209 18.364 188.041 18.748 187.785 19.076C187.537 19.404 187.221 19.66 186.837 19.844C186.453 20.028 186.025 20.12 185.553 20.12ZM192.141 20.12C191.525 20.12 190.981 19.984 190.509 19.712C190.045 19.44 189.681 19.064 189.417 18.584C189.153 18.104 189.021 17.552 189.021 16.928C189.021 16.296 189.149 15.744 189.405 15.272C189.669 14.792 190.037 14.42 190.509 14.156C190.981 13.892 191.521 13.76 192.129 13.76C192.721 13.76 193.233 13.888 193.665 14.144C194.105 14.392 194.441 14.74 194.673 15.188C194.913 15.636 195.033 16.168 195.033 16.784C195.033 16.88 195.029 16.972 195.021 17.06C195.021 17.14 195.013 17.224 194.997 17.312H189.861V16.376H194.121L193.809 16.748C193.809 16.092 193.661 15.592 193.365 15.248C193.069 14.904 192.657 14.732 192.129 14.732C191.561 14.732 191.109 14.928 190.773 15.32C190.445 15.704 190.281 16.24 190.281 16.928C190.281 17.624 190.445 18.168 190.773 18.56C191.109 18.952 191.573 19.148 192.165 19.148C192.525 19.148 192.837 19.076 193.101 18.932C193.365 18.78 193.561 18.56 193.689 18.272H194.865C194.665 18.848 194.325 19.3 193.845 19.628C193.373 19.956 192.805 20.12 192.141 20.12ZM198.541 20.12C197.741 20.12 197.105 19.944 196.633 19.592C196.161 19.24 195.893 18.744 195.829 18.104H196.981C197.037 18.456 197.197 18.728 197.461 18.92C197.733 19.104 198.101 19.196 198.565 19.196C198.973 19.196 199.285 19.124 199.501 18.98C199.717 18.836 199.825 18.632 199.825 18.368C199.825 18.176 199.761 18.016 199.633 17.888C199.513 17.752 199.273 17.64 198.913 17.552L197.929 17.324C197.313 17.172 196.853 16.948 196.549 16.652C196.253 16.348 196.105 15.976 196.105 15.536C196.105 14.984 196.309 14.552 196.717 14.24C197.133 13.92 197.701 13.76 198.421 13.76C199.133 13.76 199.705 13.92 200.137 14.24C200.577 14.56 200.825 15.008 200.881 15.584H199.729C199.681 15.296 199.541 15.076 199.309 14.924C199.085 14.764 198.777 14.684 198.385 14.684C198.017 14.684 197.733 14.752 197.533 14.888C197.341 15.016 197.245 15.196 197.245 15.428C197.245 15.62 197.317 15.78 197.461 15.908C197.613 16.036 197.861 16.144 198.205 16.232L199.213 16.484C199.797 16.628 200.237 16.864 200.533 17.192C200.829 17.512 200.977 17.9 200.977 18.356C200.977 18.908 200.761 19.34 200.329 19.652C199.905 19.964 199.309 20.12 198.541 20.12ZM204.501 20V13.88H205.689V15.32H205.749V20H204.501ZM208.845 20V16.064C208.845 15.64 208.737 15.324 208.521 15.116C208.313 14.908 208.001 14.804 207.585 14.804C207.225 14.804 206.905 14.884 206.625 15.044C206.353 15.204 206.137 15.424 205.977 15.704C205.825 15.984 205.749 16.316 205.749 16.7L205.593 15.236C205.793 14.78 206.101 14.42 206.517 14.156C206.933 13.892 207.417 13.76 207.969 13.76C208.625 13.76 209.141 13.944 209.517 14.312C209.893 14.68 210.081 15.168 210.081 15.776V20H208.845ZM214.418 20.12C213.802 20.12 213.258 19.984 212.786 19.712C212.322 19.44 211.958 19.064 211.694 18.584C211.43 18.104 211.298 17.552 211.298 16.928C211.298 16.296 211.426 15.744 211.682 15.272C211.946 14.792 212.314 14.42 212.786 14.156C213.258 13.892 213.798 13.76 214.406 13.76C214.998 13.76 215.51 13.888 215.942 14.144C216.382 14.392 216.718 14.74 216.95 15.188C217.19 15.636 217.31 16.168 217.31 16.784C217.31 16.88 217.306 16.972 217.298 17.06C217.298 17.14 217.29 17.224 217.274 17.312H212.138V16.376H216.398L216.086 16.748C216.086 16.092 215.938 15.592 215.642 15.248C215.346 14.904 214.934 14.732 214.406 14.732C213.838 14.732 213.386 14.928 213.05 15.32C212.722 15.704 212.558 16.24 212.558 16.928C212.558 17.624 212.722 18.168 213.05 18.56C213.386 18.952 213.85 19.148 214.442 19.148C214.802 19.148 215.114 19.076 215.378 18.932C215.642 18.78 215.838 18.56 215.966 18.272H217.142C216.942 18.848 216.602 19.3 216.122 19.628C215.65 19.956 215.082 20.12 214.418 20.12ZM222.309 20C222.269 19.848 222.241 19.68 222.225 19.496C222.217 19.312 222.213 19.088 222.213 18.824H222.153V15.908C222.153 15.516 222.053 15.224 221.853 15.032C221.661 14.832 221.353 14.732 220.929 14.732C220.521 14.732 220.193 14.812 219.945 14.972C219.705 15.132 219.565 15.36 219.525 15.656H218.337C218.393 15.08 218.653 14.62 219.117 14.276C219.581 13.932 220.201 13.76 220.977 13.76C221.777 13.76 222.377 13.948 222.777 14.324C223.177 14.692 223.377 15.236 223.377 15.956V18.824C223.377 19.008 223.389 19.196 223.413 19.388C223.437 19.58 223.473 19.784 223.521 20H222.309ZM220.197 20.12C219.573 20.12 219.077 19.968 218.709 19.664C218.341 19.352 218.157 18.932 218.157 18.404C218.157 17.86 218.349 17.432 218.733 17.12C219.125 16.8 219.685 16.584 220.413 16.472L222.429 16.148V17.024L220.605 17.312C220.197 17.376 219.889 17.484 219.681 17.636C219.481 17.788 219.381 18.008 219.381 18.296C219.381 18.576 219.473 18.788 219.657 18.932C219.849 19.068 220.125 19.136 220.485 19.136C220.965 19.136 221.361 19.02 221.673 18.788C221.993 18.556 222.153 18.264 222.153 17.912L222.309 18.8C222.165 19.224 221.909 19.552 221.541 19.784C221.173 20.008 220.725 20.12 220.197 20.12ZM225.067 20V13.88H226.255V15.404H226.315V20H225.067ZM226.315 16.808L226.159 15.356C226.303 14.836 226.551 14.44 226.903 14.168C227.255 13.896 227.675 13.76 228.163 13.76C228.347 13.76 228.475 13.776 228.547 13.808V14.984C228.507 14.968 228.451 14.96 228.379 14.96C228.307 14.952 228.219 14.948 228.115 14.948C227.515 14.948 227.063 15.104 226.759 15.416C226.463 15.728 226.315 16.192 226.315 16.808ZM232.484 22.46L233.96 19.088L234.212 18.692L236.072 13.88H237.368L233.768 22.46H232.484ZM233.9 20L231.284 13.88H232.64L234.86 19.388L233.9 20ZM240.892 20.12C240.268 20.12 239.72 19.984 239.248 19.712C238.776 19.432 238.408 19.052 238.144 18.572C237.88 18.084 237.748 17.532 237.748 16.916C237.748 16.292 237.88 15.744 238.144 15.272C238.416 14.8 238.784 14.432 239.248 14.168C239.72 13.896 240.268 13.76 240.892 13.76C241.524 13.76 242.076 13.896 242.548 14.168C243.02 14.432 243.384 14.8 243.64 15.272C243.904 15.744 244.036 16.292 244.036 16.916C244.036 17.532 243.904 18.084 243.64 18.572C243.384 19.052 243.02 19.432 242.548 19.712C242.076 19.984 241.524 20.12 240.892 20.12ZM240.892 19.1C241.268 19.1 241.592 19.008 241.864 18.824C242.144 18.64 242.364 18.384 242.524 18.056C242.684 17.728 242.764 17.344 242.764 16.904C242.764 16.248 242.588 15.732 242.236 15.356C241.892 14.972 241.444 14.78 240.892 14.78C240.348 14.78 239.9 14.972 239.548 15.356C239.204 15.74 239.032 16.256 239.032 16.904C239.032 17.344 239.108 17.728 239.26 18.056C239.42 18.384 239.64 18.64 239.92 18.824C240.208 19.008 240.532 19.1 240.892 19.1ZM247.309 20.12C246.901 20.12 246.541 20.036 246.229 19.868C245.917 19.692 245.673 19.452 245.497 19.148C245.329 18.844 245.245 18.496 245.245 18.104V13.88H246.493V17.816C246.493 18.24 246.597 18.556 246.805 18.764C247.013 18.972 247.309 19.076 247.693 19.076C248.037 19.076 248.341 18.996 248.605 18.836C248.877 18.676 249.089 18.456 249.241 18.176C249.401 17.888 249.481 17.556 249.481 17.18L249.637 18.644C249.437 19.092 249.129 19.452 248.713 19.724C248.305 19.988 247.837 20.12 247.309 20.12ZM249.529 20V18.56H249.481V13.88H250.717V20H249.529Z" fill="black"/>
<path d="M290 17.5L287 14.5L284 17.5" stroke="black" stroke-width="1.5" stroke-linecap="round" stroke-linejoin="round"/>
<path d="M41.888 48V39.36H43.16V48H41.888ZM47.7821 48V41.172C47.7821 40.548 47.9581 40.072 48.3101 39.744C48.6621 39.408 49.1901 39.24 49.8941 39.24C50.0541 39.24 50.1861 39.248 50.2901 39.264C50.3941 39.28 50.4861 39.304 50.5661 39.336V40.296C50.5101 40.28 50.4341 40.264 50.3381 40.248C50.2501 40.232 50.1501 40.224 50.0381 40.224C49.6861 40.224 49.4301 40.312 49.2701 40.488C49.1101 40.656 49.0301 40.896 49.0301 41.208V48H47.7821ZM46.6061 42.876V41.88H50.4341V42.876H46.6061ZM54.0556 48.12C53.4316 48.12 52.8836 47.984 52.4116 47.712C51.9396 47.432 51.5716 47.052 51.3076 46.572C51.0436 46.084 50.9116 45.532 50.9116 44.916C50.9116 44.292 51.0436 43.744 51.3076 43.272C51.5796 42.8 51.9476 42.432 52.4116 42.168C52.8836 41.896 53.4316 41.76 54.0556 41.76C54.6876 41.76 55.2396 41.896 55.7116 42.168C56.1836 42.432 56.5476 42.8 56.8036 43.272C57.0676 43.744 57.1996 44.292 57.1996 44.916C57.1996 45.532 57.0676 46.084 56.8036 46.572C56.5476 47.052 56.1836 47.432 55.7116 47.712C55.2396 47.984 54.6876 48.12 54.0556 48.12ZM54.0556 47.1C54.4316 47.1 54.7556 47.008 55.0276 46.824C55.3076 46.64 55.5276 46.384 55.6876 46.056C55.8476 45.728 55.9276 45.344 55.9276 44.904C55.9276 44.248 55.7516 43.732 55.3996 43.356C55.0556 42.972 54.6076 42.78 54.0556 42.78C53.5116 42.78 53.0636 42.972 52.7116 43.356C52.3676 43.74 52.1956 44.256 52.1956 44.904C52.1956 45.344 52.2716 45.728 52.4236 46.056C52.5836 46.384 52.8036 46.64 53.0836 46.824C53.3716 47.008 53.6956 47.1 54.0556 47.1ZM60.4735 48.12C60.0655 48.12 59.7055 48.036 59.3935 47.868C59.0815 47.692 58.8375 47.452 58.6615 47.148C58.4935 46.844 58.4095 46.496 58.4095 46.104V41.88H59.6575V45.816C59.6575 46.24 59.7615 46.556 59.9695 46.764C60.1775 46.972 60.4735 47.076 60.8575 47.076C61.2015 47.076 61.5055 46.996 61.7695 46.836C62.0415 46.676 62.2535 46.456 62.4055 46.176C62.5655 45.888 62.6455 45.556 62.6455 45.18L62.8015 46.644C62.6015 47.092 62.2935 47.452 61.8775 47.724C61.4695 47.988 61.0015 48.12 60.4735 48.12ZM62.6935 48V46.56H62.6455V41.88H63.8815V48H62.6935ZM65.6299 48V41.88H66.8179V43.32H66.8779V48H65.6299ZM69.9739 48V44.064C69.9739 43.64 69.8659 43.324 69.6499 43.116C69.4419 42.908 69.1299 42.804 68.7139 42.804C68.3539 42.804 68.0339 42.884 67.7539 43.044C67.4819 43.204 67.2659 43.424 67.1059 43.704C66.9539 43.984 66.8779 44.316 66.8779 44.7L66.7219 43.236C66.9219 42.78 67.2299 42.42 67.6459 42.156C68.0619 41.892 68.5459 41.76 69.0979 41.76C69.7539 41.76 70.2699 41.944 70.6459 42.312C71.0219 42.68 71.2099 43.168 71.2099 43.776V48H69.9739ZM77.3233 48V46.596L77.4433 46.632C77.3153 47.088 77.0513 47.452 76.6513 47.724C76.2513 47.988 75.7713 48.12 75.2113 48.12C74.6593 48.12 74.1753 47.988 73.7593 47.724C73.3513 47.46 73.0313 47.092 72.7993 46.62C72.5753 46.148 72.4633 45.596 72.4633 44.964C72.4633 44.324 72.5793 43.764 72.8113 43.284C73.0433 42.804 73.3673 42.432 73.7833 42.168C74.1993 41.904 74.6873 41.772 75.2473 41.772C75.8313 41.772 76.3113 41.912 76.6873 42.192C77.0713 42.464 77.3233 42.848 77.4433 43.344L77.2753 43.368V39.36H78.5113V48H77.3233ZM75.5233 47.076C76.0753 47.076 76.5113 46.888 76.8313 46.512C77.1513 46.128 77.3113 45.6 77.3113 44.928C77.3113 44.272 77.1473 43.756 76.8193 43.38C76.4993 42.996 76.0633 42.804 75.5113 42.804C74.9673 42.804 74.5353 42.996 74.2153 43.38C73.9033 43.756 73.7473 44.284 73.7473 44.964C73.7473 45.628 73.9033 46.148 74.2153 46.524C74.5353 46.892 74.9713 47.076 75.5233 47.076ZM86.4258 48C86.3858 47.848 86.3578 47.68 86.3418 47.496C86.3338 47.312 86.3298 47.088 86.3298 46.824H86.2698V43.908C86.2698 43.516 86.1698 43.224 85.9698 43.032C85.7778 42.832 85.4698 42.732 85.0458 42.732C84.6378 42.732 84.3098 42.812 84.0618 42.972C83.8218 43.132 83.6818 43.36 83.6418 43.656H82.4538C82.5098 43.08 82.7698 42.62 83.2338 42.276C83.6978 41.932 84.3178 41.76 85.0938 41.76C85.8938 41.76 86.4938 41.948 86.8938 42.324C87.2938 42.692 87.4938 43.236 87.4938 43.956V46.824C87.4938 47.008 87.5058 47.196 87.5298 47.388C87.5538 47.58 87.5898 47.784 87.6378 48H86.4258ZM84.3138 48.12C83.6898 48.12 83.1938 47.968 82.8258 47.664C82.4578 47.352 82.2738 46.932 82.2738 46.404C82.2738 45.86 82.4658 45.432 82.8498 45.12C83.2418 44.8 83.8018 44.584 84.5298 44.472L86.5458 44.148V45.024L84.7218 45.312C84.3138 45.376 84.0058 45.484 83.7978 45.636C83.5978 45.788 83.4978 46.008 83.4978 46.296C83.4978 46.576 83.5898 46.788 83.7738 46.932C83.9658 47.068 84.2418 47.136 84.6018 47.136C85.0818 47.136 85.4778 47.02 85.7898 46.788C86.1098 46.556 86.2698 46.264 86.2698 45.912L86.4258 46.8C86.2818 47.224 86.0258 47.552 85.6578 47.784C85.2898 48.008 84.8418 48.12 84.3138 48.12ZM94.0958 48.12C93.5118 48.12 92.9918 47.984 92.5358 47.712C92.0798 47.432 91.7198 47.052 91.4558 46.572C91.1998 46.092 91.0718 45.544 91.0718 44.928C91.0718 44.312 91.1998 43.768 91.4558 43.296C91.7198 42.816 92.0798 42.44 92.5358 42.168C92.9918 41.896 93.5078 41.76 94.0838 41.76C94.5718 41.76 95.0078 41.852 95.3918 42.036C95.7758 42.22 96.0918 42.476 96.3398 42.804C96.5878 43.132 96.7478 43.52 96.8198 43.968H95.6438C95.5638 43.608 95.3878 43.32 95.1158 43.104C94.8518 42.888 94.5158 42.78 94.1078 42.78C93.7558 42.78 93.4478 42.868 93.1838 43.044C92.9198 43.22 92.7158 43.468 92.5718 43.788C92.4278 44.108 92.3558 44.488 92.3558 44.928C92.3558 45.36 92.4278 45.74 92.5718 46.068C92.7158 46.396 92.9198 46.652 93.1838 46.836C93.4478 47.012 93.7598 47.1 94.1198 47.1C94.5118 47.1 94.8438 46.996 95.1158 46.788C95.3958 46.572 95.5758 46.284 95.6558 45.924H96.8318C96.7518 46.364 96.5838 46.748 96.3278 47.076C96.0798 47.404 95.7638 47.66 95.3798 47.844C94.9958 48.028 94.5678 48.12 94.0958 48.12ZM98.0674 48V39.36H99.3154V48H98.0674ZM102.411 48V44.064C102.411 43.64 102.303 43.324 102.087 43.116C101.879 42.908 101.567 42.804 101.151 42.804C100.791 42.804 100.471 42.884 100.191 43.044C99.9194 43.204 99.7034 43.424 99.5434 43.704C99.3914 43.984 99.3154 44.316 99.3154 44.7L99.1594 43.236C99.3594 42.78 99.6674 42.42 100.083 42.156C100.499 41.892 100.983 41.76 101.535 41.76C102.191 41.76 102.707 41.944 103.083 42.312C103.459 42.68 103.647 43.168 103.647 43.776V48H102.411ZM107.985 48.12C107.369 48.12 106.825 47.984 106.353 47.712C105.889 47.44 105.525 47.064 105.261 46.584C104.997 46.104 104.865 45.552 104.865 44.928C104.865 44.296 104.993 43.744 105.249 43.272C105.513 42.792 105.881 42.42 106.353 42.156C106.825 41.892 107.365 41.76 107.973 41.76C108.565 41.76 109.077 41.888 109.509 42.144C109.949 42.392 110.285 42.74 110.517 43.188C110.757 43.636 110.877 44.168 110.877 44.784C110.877 44.88 110.873 44.972 110.865 45.06C110.865 45.14 110.857 45.224 110.841 45.312H105.705V44.376H109.965L109.653 44.748C109.653 44.092 109.505 43.592 109.209 43.248C108.913 42.904 108.501 42.732 107.973 42.732C107.405 42.732 106.953 42.928 106.617 43.32C106.289 43.704 106.125 44.24 106.125 44.928C106.125 45.624 106.289 46.168 106.617 46.56C106.953 46.952 107.417 47.148 108.009 47.148C108.369 47.148 108.681 47.076 108.945 46.932C109.209 46.78 109.405 46.56 109.533 46.272H110.709C110.509 46.848 110.169 47.3 109.689 47.628C109.217 47.956 108.649 48.12 107.985 48.12ZM115.875 48C115.835 47.848 115.807 47.68 115.791 47.496C115.783 47.312 115.779 47.088 115.779 46.824H115.719V43.908C115.719 43.516 115.619 43.224 115.419 43.032C115.227 42.832 114.919 42.732 114.495 42.732C114.087 42.732 113.759 42.812 113.511 42.972C113.271 43.132 113.131 43.36 113.091 43.656H111.903C111.959 43.08 112.219 42.62 112.683 42.276C113.147 41.932 113.767 41.76 114.543 41.76C115.343 41.76 115.943 41.948 116.343 42.324C116.743 42.692 116.943 43.236 116.943 43.956V46.824C116.943 47.008 116.955 47.196 116.979 47.388C117.003 47.58 117.039 47.784 117.087 48H115.875ZM113.763 48.12C113.139 48.12 112.643 47.968 112.275 47.664C111.907 47.352 111.723 46.932 111.723 46.404C111.723 45.86 111.915 45.432 112.299 45.12C112.691 44.8 113.251 44.584 113.979 44.472L115.995 44.148V45.024L114.171 45.312C113.763 45.376 113.455 45.484 113.247 45.636C113.047 45.788 112.947 46.008 112.947 46.296C112.947 46.576 113.039 46.788 113.223 46.932C113.415 47.068 113.691 47.136 114.051 47.136C114.531 47.136 114.927 47.02 115.239 46.788C115.559 46.556 115.719 46.264 115.719 45.912L115.875 46.8C115.731 47.224 115.475 47.552 115.107 47.784C114.739 48.008 114.291 48.12 113.763 48.12ZM121.898 48.108C121.322 48.108 120.842 47.972 120.458 47.7C120.082 47.42 119.834 47.032 119.714 46.536L119.882 46.512V50.46H118.634V41.88H119.822V43.284L119.702 43.248C119.83 42.784 120.102 42.42 120.518 42.156C120.934 41.892 121.422 41.76 121.982 41.76C122.534 41.76 123.01 41.892 123.41 42.156C123.818 42.42 124.13 42.788 124.346 43.26C124.57 43.732 124.682 44.284 124.682 44.916C124.682 45.556 124.566 46.116 124.334 46.596C124.102 47.076 123.778 47.448 123.362 47.712C122.946 47.976 122.458 48.108 121.898 48.108ZM121.634 47.076C122.178 47.076 122.61 46.884 122.93 46.5C123.25 46.116 123.41 45.588 123.41 44.916C123.41 44.252 123.25 43.736 122.93 43.368C122.61 42.992 122.174 42.804 121.622 42.804C121.078 42.804 120.642 42.996 120.314 43.38C119.994 43.756 119.834 44.28 119.834 44.952C119.834 45.608 119.994 46.128 120.314 46.512C120.642 46.888 121.082 47.076 121.634 47.076ZM128.668 48.12C128.052 48.12 127.508 47.984 127.036 47.712C126.572 47.44 126.208 47.064 125.944 46.584C125.68 46.104 125.548 45.552 125.548 44.928C125.548 44.296 125.676 43.744 125.932 43.272C126.196 42.792 126.564 42.42 127.036 42.156C127.508 41.892 128.048 41.76 128.656 41.76C129.248 41.76 129.76 41.888 130.192 42.144C130.632 42.392 130.968 42.74 131.2 43.188C131.44 43.636 131.56 44.168 131.56 44.784C131.56 44.88 131.556 44.972 131.548 45.06C131.548 45.14 131.54 45.224 131.524 45.312H126.388V44.376H130.648L130.336 44.748C130.336 44.092 130.188 43.592 129.892 43.248C129.596 42.904 129.184 42.732 128.656 42.732C128.088 42.732 127.636 42.928 127.3 43.32C126.972 43.704 126.808 44.24 126.808 44.928C126.808 45.624 126.972 46.168 127.3 46.56C127.636 46.952 128.1 47.148 128.692 47.148C129.052 47.148 129.364 47.076 129.628 46.932C129.892 46.78 130.088 46.56 130.216 46.272H131.392C131.192 46.848 130.852 47.3 130.372 47.628C129.9 47.956 129.332 48.12 128.668 48.12ZM132.837 48V41.88H134.025V43.404H134.085V48H132.837ZM134.085 44.808L133.929 43.356C134.073 42.836 134.321 42.44 134.673 42.168C135.025 41.896 135.445 41.76 135.933 41.76C136.117 41.76 136.245 41.776 136.317 41.808V42.984C136.277 42.968 136.221 42.96 136.149 42.96C136.077 42.952 135.989 42.948 135.885 42.948C135.285 42.948 134.833 43.104 134.529 43.416C134.233 43.728 134.085 44.192 134.085 44.808ZM142.006 48.12C141.206 48.12 140.57 47.944 140.098 47.592C139.626 47.24 139.358 46.744 139.294 46.104H140.446C140.502 46.456 140.662 46.728 140.926 46.92C141.198 47.104 141.566 47.196 142.03 47.196C142.438 47.196 142.75 47.124 142.966 46.98C143.182 46.836 143.29 46.632 143.29 46.368C143.29 46.176 143.226 46.016 143.098 45.888C142.978 45.752 142.738 45.64 142.378 45.552L141.394 45.324C140.778 45.172 140.318 44.948 140.014 44.652C139.718 44.348 139.57 43.976 139.57 43.536C139.57 42.984 139.774 42.552 140.182 42.24C140.598 41.92 141.166 41.76 141.886 41.76C142.598 41.76 143.17 41.92 143.602 42.24C144.042 42.56 144.29 43.008 144.346 43.584H143.194C143.146 43.296 143.006 43.076 142.774 42.924C142.55 42.764 142.242 42.684 141.85 42.684C141.482 42.684 141.198 42.752 140.998 42.888C140.806 43.016 140.71 43.196 140.71 43.428C140.71 43.62 140.782 43.78 140.926 43.908C141.078 44.036 141.326 44.144 141.67 44.232L142.678 44.484C143.262 44.628 143.702 44.864 143.998 45.192C144.294 45.512 144.442 45.9 144.442 46.356C144.442 46.908 144.226 47.34 143.794 47.652C143.37 47.964 142.774 48.12 142.006 48.12ZM148.191 48.12C147.479 48.12 146.955 47.956 146.619 47.628C146.291 47.292 146.127 46.8 146.127 46.152V40.476L147.363 40.008V46.164C147.363 46.484 147.447 46.72 147.615 46.872C147.783 47.024 148.055 47.1 148.431 47.1C148.575 47.1 148.703 47.088 148.815 47.064C148.927 47.04 149.023 47.012 149.103 46.98V47.988C149.015 48.028 148.891 48.06 148.731 48.084C148.571 48.108 148.391 48.12 148.191 48.12ZM144.903 42.876V41.88H149.103V42.876H144.903ZM152.786 48.12C152.162 48.12 151.614 47.984 151.142 47.712C150.67 47.432 150.302 47.052 150.038 46.572C149.774 46.084 149.642 45.532 149.642 44.916C149.642 44.292 149.774 43.744 150.038 43.272C150.31 42.8 150.678 42.432 151.142 42.168C151.614 41.896 152.162 41.76 152.786 41.76C153.418 41.76 153.97 41.896 154.442 42.168C154.914 42.432 155.278 42.8 155.534 43.272C155.798 43.744 155.93 44.292 155.93 44.916C155.93 45.532 155.798 46.084 155.534 46.572C155.278 47.052 154.914 47.432 154.442 47.712C153.97 47.984 153.418 48.12 152.786 48.12ZM152.786 47.1C153.162 47.1 153.486 47.008 153.758 46.824C154.038 46.64 154.258 46.384 154.418 46.056C154.578 45.728 154.658 45.344 154.658 44.904C154.658 44.248 154.482 43.732 154.13 43.356C153.786 42.972 153.338 42.78 152.786 42.78C152.242 42.78 151.794 42.972 151.442 43.356C151.098 43.74 150.926 44.256 150.926 44.904C150.926 45.344 151.002 45.728 151.154 46.056C151.314 46.384 151.534 46.64 151.814 46.824C152.102 47.008 152.426 47.1 152.786 47.1ZM157.212 48V41.88H158.4V43.404H158.46V48H157.212ZM158.46 44.808L158.304 43.356C158.448 42.836 158.696 42.44 159.048 42.168C159.4 41.896 159.82 41.76 160.308 41.76C160.492 41.76 160.62 41.776 160.692 41.808V42.984C160.652 42.968 160.596 42.96 160.524 42.96C160.452 42.952 160.364 42.948 160.26 42.948C159.66 42.948 159.208 43.104 158.904 43.416C158.608 43.728 158.46 44.192 158.46 44.808ZM164.27 48.12C163.654 48.12 163.11 47.984 162.638 47.712C162.174 47.44 161.81 47.064 161.546 46.584C161.282 46.104 161.15 45.552 161.15 44.928C161.15 44.296 161.278 43.744 161.534 43.272C161.798 42.792 162.166 42.42 162.638 42.156C163.11 41.892 163.65 41.76 164.258 41.76C164.85 41.76 165.362 41.888 165.794 42.144C166.234 42.392 166.57 42.74 166.802 43.188C167.042 43.636 167.162 44.168 167.162 44.784C167.162 44.88 167.158 44.972 167.15 45.06C167.15 45.14 167.142 45.224 167.126 45.312H161.99V44.376H166.25L165.938 44.748C165.938 44.092 165.79 43.592 165.494 43.248C165.198 42.904 164.786 42.732 164.258 42.732C163.69 42.732 163.238 42.928 162.902 43.32C162.574 43.704 162.41 44.24 162.41 44.928C162.41 45.624 162.574 46.168 162.902 46.56C163.238 46.952 163.702 47.148 164.294 47.148C164.654 47.148 164.966 47.076 165.23 46.932C165.494 46.78 165.69 46.56 165.818 46.272H166.994C166.794 46.848 166.454 47.3 165.974 47.628C165.502 47.956 164.934 48.12 164.27 48.12ZM171.298 48V41.172C171.298 40.548 171.474 40.072 171.826 39.744C172.178 39.408 172.706 39.24 173.41 39.24C173.57 39.24 173.702 39.248 173.806 39.264C173.91 39.28 174.002 39.304 174.082 39.336V40.296C174.026 40.28 173.95 40.264 173.854 40.248C173.766 40.232 173.666 40.224 173.554 40.224C173.202 40.224 172.946 40.312 172.786 40.488C172.626 40.656 172.546 40.896 172.546 41.208V48H171.298ZM170.122 42.876V41.88H173.95V42.876H170.122ZM177.571 48.12C176.947 48.12 176.399 47.984 175.927 47.712C175.455 47.432 175.087 47.052 174.823 46.572C174.559 46.084 174.427 45.532 174.427 44.916C174.427 44.292 174.559 43.744 174.823 43.272C175.095 42.8 175.463 42.432 175.927 42.168C176.399 41.896 176.947 41.76 177.571 41.76C178.203 41.76 178.755 41.896 179.227 42.168C179.699 42.432 180.063 42.8 180.319 43.272C180.583 43.744 180.715 44.292 180.715 44.916C180.715 45.532 180.583 46.084 180.319 46.572C180.063 47.052 179.699 47.432 179.227 47.712C178.755 47.984 178.203 48.12 177.571 48.12ZM177.571 47.1C177.947 47.1 178.271 47.008 178.543 46.824C178.823 46.64 179.043 46.384 179.203 46.056C179.363 45.728 179.443 45.344 179.443 44.904C179.443 44.248 179.267 43.732 178.915 43.356C178.571 42.972 178.123 42.78 177.571 42.78C177.027 42.78 176.579 42.972 176.227 43.356C175.883 43.74 175.711 44.256 175.711 44.904C175.711 45.344 175.787 45.728 175.939 46.056C176.099 46.384 176.319 46.64 176.599 46.824C176.887 47.008 177.211 47.1 177.571 47.1ZM181.997 48V41.88H183.185V43.404H183.245V48H181.997ZM183.245 44.808L183.089 43.356C183.233 42.836 183.481 42.44 183.833 42.168C184.185 41.896 184.605 41.76 185.093 41.76C185.277 41.76 185.405 41.776 185.477 41.808V42.984C185.437 42.968 185.381 42.96 185.309 42.96C185.237 42.952 185.149 42.948 185.045 42.948C184.445 42.948 183.993 43.104 183.689 43.416C183.393 43.728 183.245 44.192 183.245 44.808ZM189.414 50.46L190.89 47.088L191.142 46.692L193.002 41.88H194.298L190.698 50.46H189.414ZM190.83 48L188.214 41.88H189.57L191.79 47.388L190.83 48ZM197.821 48.12C197.197 48.12 196.649 47.984 196.177 47.712C195.705 47.432 195.337 47.052 195.073 46.572C194.809 46.084 194.677 45.532 194.677 44.916C194.677 44.292 194.809 43.744 195.073 43.272C195.345 42.8 195.713 42.432 196.177 42.168C196.649 41.896 197.197 41.76 197.821 41.76C198.453 41.76 199.005 41.896 199.477 42.168C199.949 42.432 200.313 42.8 200.569 43.272C200.833 43.744 200.965 44.292 200.965 44.916C200.965 45.532 200.833 46.084 200.569 46.572C200.313 47.052 199.949 47.432 199.477 47.712C199.005 47.984 198.453 48.12 197.821 48.12ZM197.821 47.1C198.197 47.1 198.521 47.008 198.793 46.824C199.073 46.64 199.293 46.384 199.453 46.056C199.613 45.728 199.693 45.344 199.693 44.904C199.693 44.248 199.517 43.732 199.165 43.356C198.821 42.972 198.373 42.78 197.821 42.78C197.277 42.78 196.829 42.972 196.477 43.356C196.133 43.74 195.961 44.256 195.961 44.904C195.961 45.344 196.037 45.728 196.189 46.056C196.349 46.384 196.569 46.64 196.849 46.824C197.137 47.008 197.461 47.1 197.821 47.1ZM204.239 48.12C203.831 48.12 203.471 48.036 203.159 47.868C202.847 47.692 202.603 47.452 202.427 47.148C202.259 46.844 202.175 46.496 202.175 46.104V41.88H203.423V45.816C203.423 46.24 203.527 46.556 203.735 46.764C203.943 46.972 204.239 47.076 204.623 47.076C204.967 47.076 205.271 46.996 205.535 46.836C205.807 46.676 206.019 46.456 206.171 46.176C206.331 45.888 206.411 45.556 206.411 45.18L206.567 46.644C206.367 47.092 206.059 47.452 205.643 47.724C205.235 47.988 204.767 48.12 204.239 48.12ZM206.459 48V46.56H206.411V41.88H207.647V48H206.459ZM209.396 48V41.88H210.584V43.404H210.644V48H209.396ZM210.644 44.808L210.488 43.356C210.632 42.836 210.88 42.44 211.232 42.168C211.584 41.896 212.004 41.76 212.492 41.76C212.676 41.76 212.804 41.776 212.876 41.808V42.984C212.836 42.968 212.78 42.96 212.708 42.96C212.636 42.952 212.548 42.948 212.444 42.948C211.844 42.948 211.392 43.104 211.088 43.416C210.792 43.728 210.644 44.192 210.644 44.808ZM219.62 48.108C219.044 48.108 218.564 47.972 218.18 47.7C217.796 47.42 217.544 47.032 217.424 46.536L217.544 46.512V48H216.356V39.36H217.604V43.284L217.472 43.248C217.608 42.784 217.872 42.42 218.264 42.156C218.664 41.892 219.144 41.76 219.704 41.76C220.256 41.76 220.732 41.892 221.132 42.156C221.54 42.42 221.852 42.788 222.068 43.26C222.292 43.732 222.404 44.284 222.404 44.916C222.404 45.556 222.288 46.116 222.056 46.596C221.824 47.076 221.5 47.448 221.084 47.712C220.668 47.976 220.18 48.108 219.62 48.108ZM219.356 47.076C219.9 47.076 220.332 46.884 220.652 46.5C220.972 46.116 221.132 45.588 221.132 44.916C221.132 44.252 220.972 43.736 220.652 43.368C220.332 42.992 219.896 42.804 219.344 42.804C218.8 42.804 218.364 42.996 218.036 43.38C217.716 43.756 217.556 44.28 217.556 44.952C217.556 45.608 217.716 46.128 218.036 46.512C218.364 46.888 218.804 47.076 219.356 47.076ZM223.716 48V41.88H224.904V43.404H224.964V48H223.716ZM224.964 44.808L224.808 43.356C224.952 42.836 225.2 42.44 225.552 42.168C225.904 41.896 226.324 41.76 226.812 41.76C226.996 41.76 227.124 41.776 227.196 41.808V42.984C227.156 42.968 227.1 42.96 227.028 42.96C226.956 42.952 226.868 42.948 226.764 42.948C226.164 42.948 225.712 43.104 225.408 43.416C225.112 43.728 224.964 44.192 224.964 44.808ZM230.938 48.12C230.314 48.12 229.766 47.984 229.294 47.712C228.822 47.432 228.454 47.052 228.19 46.572C227.926 46.084 227.794 45.532 227.794 44.916C227.794 44.292 227.926 43.744 228.19 43.272C228.462 42.8 228.83 42.432 229.294 42.168C229.766 41.896 230.314 41.76 230.938 41.76C231.57 41.76 232.122 41.896 232.594 42.168C233.066 42.432 233.43 42.8 233.686 43.272C233.95 43.744 234.082 44.292 234.082 44.916C234.082 45.532 233.95 46.084 233.686 46.572C233.43 47.052 233.066 47.432 232.594 47.712C232.122 47.984 231.57 48.12 230.938 48.12ZM230.938 47.1C231.314 47.1 231.638 47.008 231.91 46.824C232.19 46.64 232.41 46.384 232.57 46.056C232.73 45.728 232.81 45.344 232.81 44.904C232.81 44.248 232.634 43.732 232.282 43.356C231.938 42.972 231.49 42.78 230.938 42.78C230.394 42.78 229.946 42.972 229.594 43.356C229.25 43.74 229.078 44.256 229.078 44.904C229.078 45.344 229.154 45.728 229.306 46.056C229.466 46.384 229.686 46.64 229.966 46.824C230.254 47.008 230.578 47.1 230.938 47.1ZM235.364 48V39.204H236.612V48H235.364ZM239.336 48L236.324 44.82L239.24 41.88H240.812L237.5 45.096L237.56 44.532L240.932 48H239.336ZM244.168 48.12C243.552 48.12 243.008 47.984 242.536 47.712C242.072 47.44 241.708 47.064 241.444 46.584C241.18 46.104 241.048 45.552 241.048 44.928C241.048 44.296 241.176 43.744 241.432 43.272C241.696 42.792 242.064 42.42 242.536 42.156C243.008 41.892 243.548 41.76 244.156 41.76C244.748 41.76 245.26 41.888 245.692 42.144C246.132 42.392 246.468 42.74 246.7 43.188C246.94 43.636 247.06 44.168 247.06 44.784C247.06 44.88 247.056 44.972 247.048 45.06C247.048 45.14 247.04 45.224 247.024 45.312H241.888V44.376H246.148L245.836 44.748C245.836 44.092 245.688 43.592 245.392 43.248C245.096 42.904 244.684 42.732 244.156 42.732C243.588 42.732 243.136 42.928 242.8 43.32C242.472 43.704 242.308 44.24 242.308 44.928C242.308 45.624 242.472 46.168 242.8 46.56C243.136 46.952 243.6 47.148 244.192 47.148C244.552 47.148 244.864 47.076 245.128 46.932C245.392 46.78 245.588 46.56 245.716 46.272H246.892C246.692 46.848 246.352 47.3 245.872 47.628C245.4 47.956 244.832 48.12 244.168 48.12ZM254.496 48C254.456 47.848 254.428 47.68 254.412 47.496C254.404 47.312 254.4 47.088 254.4 46.824H254.34V43.908C254.34 43.516 254.24 43.224 254.04 43.032C253.848 42.832 253.54 42.732 253.116 42.732C252.708 42.732 252.38 42.812 252.132 42.972C251.892 43.132 251.752 43.36 251.712 43.656H250.524C250.58 43.08 250.84 42.62 251.304 42.276C251.768 41.932 252.388 41.76 253.164 41.76C253.964 41.76 254.564 41.948 254.964 42.324C255.364 42.692 255.564 43.236 255.564 43.956V46.824C255.564 47.008 255.576 47.196 255.6 47.388C255.624 47.58 255.66 47.784 255.708 48H254.496ZM252.384 48.12C251.76 48.12 251.264 47.968 250.896 47.664C250.528 47.352 250.344 46.932 250.344 46.404C250.344 45.86 250.536 45.432 250.92 45.12C251.312 44.8 251.872 44.584 252.6 44.472L254.616 44.148V45.024L252.792 45.312C252.384 45.376 252.076 45.484 251.868 45.636C251.668 45.788 251.568 46.008 251.568 46.296C251.568 46.576 251.66 46.788 251.844 46.932C252.036 47.068 252.312 47.136 252.672 47.136C253.152 47.136 253.548 47.02 253.86 46.788C254.18 46.556 254.34 46.264 254.34 45.912L254.496 46.8C254.352 47.224 254.096 47.552 253.728 47.784C253.36 48.008 252.912 48.12 252.384 48.12ZM259.393 48.12C258.593 48.12 257.957 47.944 257.485 47.592C257.013 47.24 256.745 46.744 256.681 46.104H257.833C257.889 46.456 258.049 46.728 258.313 46.92C258.585 47.104 258.953 47.196 259.417 47.196C259.825 47.196 260.137 47.124 260.353 46.98C260.569 46.836 260.677 46.632 260.677 46.368C260.677 46.176 260.613 46.016 260.485 45.888C260.365 45.752 260.125 45.64 259.765 45.552L258.781 45.324C258.165 45.172 257.705 44.948 257.401 44.652C257.105 44.348 256.957 43.976 256.957 43.536C256.957 42.984 257.161 42.552 257.569 42.24C257.985 41.92 258.553 41.76 259.273 41.76C259.985 41.76 260.557 41.92 260.989 42.24C261.429 42.56 261.677 43.008 261.733 43.584H260.581C260.533 43.296 260.393 43.076 260.161 42.924C259.937 42.764 259.629 42.684 259.237 42.684C258.869 42.684 258.585 42.752 258.385 42.888C258.193 43.016 258.097 43.196 258.097 43.428C258.097 43.62 258.169 43.78 258.313 43.908C258.465 44.036 258.713 44.144 259.057 44.232L260.065 44.484C260.649 44.628 261.089 44.864 261.385 45.192C261.681 45.512 261.829 45.9 261.829 46.356C261.829 46.908 261.613 47.34 261.181 47.652C260.757 47.964 260.161 48.12 259.393 48.12ZM265.299 48.12C264.499 48.12 263.863 47.944 263.391 47.592C262.919 47.24 262.651 46.744 262.587 46.104H263.739C263.795 46.456 263.955 46.728 264.219 46.92C264.491 47.104 264.859 47.196 265.323 47.196C265.731 47.196 266.043 47.124 266.259 46.98C266.475 46.836 266.583 46.632 266.583 46.368C266.583 46.176 266.519 46.016 266.391 45.888C266.271 45.752 266.031 45.64 265.671 45.552L264.687 45.324C264.071 45.172 263.611 44.948 263.307 44.652C263.011 44.348 262.863 43.976 262.863 43.536C262.863 42.984 263.067 42.552 263.475 42.24C263.891 41.92 264.459 41.76 265.179 41.76C265.891 41.76 266.463 41.92 266.895 42.24C267.335 42.56 267.583 43.008 267.639 43.584H266.487C266.439 43.296 266.299 43.076 266.067 42.924C265.843 42.764 265.535 42.684 265.143 42.684C264.775 42.684 264.491 42.752 264.291 42.888C264.099 43.016 264.003 43.196 264.003 43.428C264.003 43.62 264.075 43.78 264.219 43.908C264.371 44.036 264.619 44.144 264.963 44.232L265.971 44.484C266.555 44.628 266.995 44.864 267.291 45.192C267.587 45.512 267.735 45.9 267.735 46.356C267.735 46.908 267.519 47.34 267.087 47.652C266.663 47.964 266.067 48.12 265.299 48.12ZM268.598 48V46.512H270.074V48H268.598ZM45.74 64.12C45.124 64.12 44.56 64.012 44.048 63.796C43.536 63.572 43.092 63.26 42.716 62.86C42.34 62.46 42.044 61.988 41.828 61.444C41.62 60.9 41.516 60.3 41.516 59.644C41.516 58.78 41.696 58.016 42.056 57.352C42.416 56.688 42.912 56.172 43.544 55.804C44.184 55.428 44.912 55.24 45.728 55.24C46.56 55.24 47.292 55.428 47.924 55.804C48.556 56.172 49.052 56.688 49.412 57.352C49.78 58.016 49.964 58.784 49.964 59.656C49.964 60.304 49.856 60.904 49.64 61.456C49.432 62 49.14 62.472 48.764 62.872C48.388 63.264 47.94 63.572 47.42 63.796C46.908 64.012 46.348 64.12 45.74 64.12ZM45.728 63.04C46.304 63.04 46.812 62.896 47.252 62.608C47.692 62.312 48.036 61.908 48.284 61.396C48.54 60.884 48.668 60.296 48.668 59.632C48.668 58.976 48.544 58.4 48.296 57.904C48.048 57.4 47.704 57.012 47.264 56.74C46.824 56.46 46.312 56.32 45.728 56.32C45.144 56.32 44.632 56.46 44.192 56.74C43.76 57.012 43.42 57.396 43.172 57.892C42.932 58.388 42.812 58.968 42.812 59.632C42.812 60.304 42.936 60.896 43.184 61.408C43.432 61.92 43.772 62.32 44.204 62.608C44.644 62.896 45.152 63.04 45.728 63.04ZM51.3565 64V57.88H52.5445V59.404H52.6045V64H51.3565ZM52.6045 60.808L52.4485 59.356C52.5925 58.836 52.8405 58.44 53.1925 58.168C53.5445 57.896 53.9645 57.76 54.4525 57.76C54.6365 57.76 54.7645 57.776 54.8365 57.808V58.984C54.7965 58.968 54.7405 58.96 54.6685 58.96C54.5965 58.952 54.5085 58.948 54.4045 58.948C53.8045 58.948 53.3525 59.104 53.0485 59.416C52.7525 59.728 52.6045 60.192 52.6045 60.808ZM60.2022 64V62.596L60.3222 62.632C60.1942 63.088 59.9302 63.452 59.5302 63.724C59.1302 63.988 58.6502 64.12 58.0902 64.12C57.5382 64.12 57.0542 63.988 56.6382 63.724C56.2302 63.46 55.9102 63.092 55.6782 62.62C55.4542 62.148 55.3422 61.596 55.3422 60.964C55.3422 60.324 55.4582 59.764 55.6902 59.284C55.9222 58.804 56.2462 58.432 56.6622 58.168C57.0782 57.904 57.5662 57.772 58.1262 57.772C58.7102 57.772 59.1902 57.912 59.5662 58.192C59.9502 58.464 60.2022 58.848 60.3222 59.344L60.1542 59.368V55.36H61.3902V64H60.2022ZM58.4022 63.076C58.9542 63.076 59.3902 62.888 59.7102 62.512C60.0302 62.128 60.1902 61.6 60.1902 60.928C60.1902 60.272 60.0262 59.756 59.6982 59.38C59.3782 58.996 58.9422 58.804 58.3902 58.804C57.8462 58.804 57.4142 58.996 57.0942 59.38C56.7822 59.756 56.6262 60.284 56.6262 60.964C56.6262 61.628 56.7822 62.148 57.0942 62.524C57.4142 62.892 57.8502 63.076 58.4022 63.076ZM65.7855 64.12C65.1695 64.12 64.6255 63.984 64.1535 63.712C63.6895 63.44 63.3255 63.064 63.0615 62.584C62.7975 62.104 62.6655 61.552 62.6655 60.928C62.6655 60.296 62.7935 59.744 63.0495 59.272C63.3135 58.792 63.6815 58.42 64.1535 58.156C64.6255 57.892 65.1655 57.76 65.7735 57.76C66.3655 57.76 66.8775 57.888 67.3095 58.144C67.7495 58.392 68.0855 58.74 68.3175 59.188C68.5575 59.636 68.6775 60.168 68.6775 60.784C68.6775 60.88 68.6735 60.972 68.6655 61.06C68.6655 61.14 68.6575 61.224 68.6415 61.312H63.5055V60.376H67.7655L67.4535 60.748C67.4535 60.092 67.3055 59.592 67.0095 59.248C66.7135 58.904 66.3015 58.732 65.7735 58.732C65.2055 58.732 64.7535 58.928 64.4175 59.32C64.0895 59.704 63.9255 60.24 63.9255 60.928C63.9255 61.624 64.0895 62.168 64.4175 62.56C64.7535 62.952 65.2175 63.148 65.8095 63.148C66.1695 63.148 66.4815 63.076 66.7455 62.932C67.0095 62.78 67.2055 62.56 67.3335 62.272H68.5095C68.3095 62.848 67.9695 63.3 67.4895 63.628C67.0175 63.956 66.4495 64.12 65.7855 64.12ZM69.9541 64V57.88H71.1421V59.404H71.2021V64H69.9541ZM71.2021 60.808L71.0461 59.356C71.1901 58.836 71.4381 58.44 71.7901 58.168C72.1421 57.896 72.5621 57.76 73.0501 57.76C73.2341 57.76 73.3621 57.776 73.4341 57.808V58.984C73.3941 58.968 73.3381 58.96 73.2661 58.96C73.1941 58.952 73.1061 58.948 73.0021 58.948C72.4021 58.948 71.9501 59.104 71.6461 59.416C71.3501 59.728 71.2021 60.192 71.2021 60.808ZM74.4424 64V57.88H75.6904V64H74.4424ZM74.3824 56.68V55.276H75.7624V56.68H74.3824ZM77.4424 64V57.88H78.6304V59.32H78.6904V64H77.4424ZM81.7864 64V60.064C81.7864 59.64 81.6784 59.324 81.4624 59.116C81.2544 58.908 80.9424 58.804 80.5264 58.804C80.1664 58.804 79.8464 58.884 79.5664 59.044C79.2944 59.204 79.0784 59.424 78.9184 59.704C78.7664 59.984 78.6904 60.316 78.6904 60.7L78.5344 59.236C78.7344 58.78 79.0424 58.42 79.4584 58.156C79.8744 57.892 80.3584 57.76 80.9104 57.76C81.5664 57.76 82.0824 57.944 82.4584 58.312C82.8344 58.68 83.0224 59.168 83.0224 59.776V64H81.7864ZM87.276 66.58C86.508 66.58 85.872 66.404 85.368 66.052C84.872 65.708 84.572 65.248 84.468 64.672H85.644C85.724 64.936 85.9 65.144 86.172 65.296C86.452 65.448 86.824 65.524 87.288 65.524C87.888 65.524 88.336 65.376 88.632 65.08C88.928 64.784 89.076 64.344 89.076 63.76V62.44L89.184 62.464C89.064 62.928 88.804 63.296 88.404 63.568C88.004 63.832 87.524 63.964 86.964 63.964C86.428 63.964 85.956 63.836 85.548 63.58C85.14 63.324 84.824 62.968 84.6 62.512C84.376 62.048 84.264 61.508 84.264 60.892C84.264 60.268 84.38 59.72 84.612 59.248C84.844 58.776 85.168 58.412 85.584 58.156C86.008 57.9 86.5 57.772 87.06 57.772C87.636 57.772 88.112 57.912 88.488 58.192C88.872 58.464 89.116 58.852 89.22 59.356L89.124 59.368V57.88H90.312V63.748C90.312 64.628 90.04 65.32 89.496 65.824C88.96 66.328 88.22 66.58 87.276 66.58ZM87.336 62.956C87.872 62.956 88.3 62.768 88.62 62.392C88.948 62.016 89.112 61.5 89.112 60.844C89.112 60.204 88.948 59.7 88.62 59.332C88.3 58.964 87.868 58.78 87.324 58.78C86.78 58.78 86.348 58.968 86.028 59.344C85.708 59.712 85.548 60.224 85.548 60.88C85.548 61.52 85.708 62.028 86.028 62.404C86.356 62.772 86.792 62.956 87.336 62.956ZM94.4346 64V57.88H95.6226V59.32H95.6826V64H94.4346ZM98.7786 64V60.064C98.7786 59.64 98.6706 59.324 98.4546 59.116C98.2466 58.908 97.9346 58.804 97.5186 58.804C97.1586 58.804 96.8386 58.884 96.5586 59.044C96.2866 59.204 96.0706 59.424 95.9106 59.704C95.7586 59.984 95.6826 60.316 95.6826 60.7L95.5266 59.236C95.7266 58.78 96.0346 58.42 96.4506 58.156C96.8666 57.892 97.3506 57.76 97.9026 57.76C98.5586 57.76 99.0746 57.944 99.4506 58.312C99.8266 58.68 100.015 59.168 100.015 59.776V64H98.7786ZM104.376 64.12C103.752 64.12 103.204 63.984 102.732 63.712C102.26 63.432 101.892 63.052 101.628 62.572C101.364 62.084 101.232 61.532 101.232 60.916C101.232 60.292 101.364 59.744 101.628 59.272C101.9 58.8 102.268 58.432 102.732 58.168C103.204 57.896 103.752 57.76 104.376 57.76C105.008 57.76 105.56 57.896 106.032 58.168C106.504 58.432 106.868 58.8 107.124 59.272C107.388 59.744 107.52 60.292 107.52 60.916C107.52 61.532 107.388 62.084 107.124 62.572C106.868 63.052 106.504 63.432 106.032 63.712C105.56 63.984 105.008 64.12 104.376 64.12ZM104.376 63.1C104.752 63.1 105.076 63.008 105.348 62.824C105.628 62.64 105.848 62.384 106.008 62.056C106.168 61.728 106.248 61.344 106.248 60.904C106.248 60.248 106.072 59.732 105.72 59.356C105.376 58.972 104.928 58.78 104.376 58.78C103.832 58.78 103.384 58.972 103.032 59.356C102.688 59.74 102.516 60.256 102.516 60.904C102.516 61.344 102.592 61.728 102.744 62.056C102.904 62.384 103.124 62.64 103.404 62.824C103.692 63.008 104.016 63.1 104.376 63.1ZM109.933 64L108.061 57.88H109.345L110.617 62.8H110.437L111.985 57.88H113.065L114.613 62.8H114.445L115.705 57.88H116.929L115.057 64H113.965L112.417 59.164H112.597L111.025 64H109.933ZM117.122 64V62.512H118.598V64H117.122Z" fill="black" fill-opacity="0.72"/>
<rect x="41" y="76" width="187" height="20" rx="10" fill="white" fill-opacity="0.32"/>
<rect x="41" y="76" width="20" height="20" rx="10" fill="white"/>
<rect x="41.5" y="76.5" width="19" height="19" rx="9.5" stroke="white" stroke-opacity="0.1"/>
<path d="M48.84 84.1925C48.899 84.0283 49.0283 83.899 49.1925 83.84L54.2168 82.0356C54.6819 81.8686 55.1315 82.3183 54.9644 82.7833L53.1592 87.8068C53.1002 87.9709 52.971 88.1002 52.8068 88.1591L47.7833 89.9644C47.3182 90.1314 46.8686 89.6818 47.0356 89.2167L48.84 84.1925Z" stroke="black" stroke-width="1.33333" stroke-linecap="round" stroke-linejoin="round"/>
<path d="M71.345 89.61C70.7803 89.61 70.2633 89.511 69.794 89.313C69.3247 89.1077 68.9177 88.8217 68.573 88.455C68.2283 88.0883 67.957 87.6557 67.759 87.157C67.5683 86.6583 67.473 86.1083 67.473 85.507C67.473 84.715 67.638 84.0147 67.968 83.406C68.298 82.7973 68.7527 82.3243 69.332 81.987C69.9187 81.6423 70.586 81.47 71.334 81.47C72.0967 81.47 72.7677 81.6423 73.347 81.987C73.9263 82.3243 74.381 82.7973 74.711 83.406C75.0483 84.0147 75.217 84.7187 75.217 85.518C75.217 86.112 75.118 86.662 74.92 87.168C74.7293 87.6667 74.4617 88.0993 74.117 88.466C73.7723 88.8253 73.3617 89.1077 72.885 89.313C72.4157 89.511 71.9023 89.61 71.345 89.61ZM71.334 88.62C71.862 88.62 72.3277 88.488 72.731 88.224C73.1343 87.9527 73.4497 87.5823 73.677 87.113C73.9117 86.6437 74.029 86.1047 74.029 85.496C74.029 84.8947 73.9153 84.3667 73.688 83.912C73.4607 83.45 73.1453 83.0943 72.742 82.845C72.3387 82.5883 71.8693 82.46 71.334 82.46C70.7987 82.46 70.3293 82.5883 69.926 82.845C69.53 83.0943 69.2183 83.4463 68.991 83.901C68.771 84.3557 68.661 84.8873 68.661 85.496C68.661 86.112 68.7747 86.6547 69.002 87.124C69.2293 87.5933 69.541 87.96 69.937 88.224C70.3403 88.488 70.806 88.62 71.334 88.62ZM76.4934 89.5V83.89H77.5824V85.287H77.6374V89.5H76.4934ZM77.6374 86.574L77.4944 85.243C77.6264 84.7663 77.8538 84.4033 78.1764 84.154C78.4991 83.9047 78.8841 83.78 79.3314 83.78C79.5001 83.78 79.6174 83.7947 79.6834 83.824V84.902C79.6468 84.8873 79.5954 84.88 79.5294 84.88C79.4634 84.8727 79.3828 84.869 79.2874 84.869C78.7374 84.869 78.3231 85.012 78.0444 85.298C77.7731 85.584 77.6374 86.0093 77.6374 86.574ZM84.602 89.5V88.213L84.712 88.246C84.5946 88.664 84.3526 88.9977 83.986 89.247C83.6193 89.489 83.1793 89.61 82.666 89.61C82.16 89.61 81.7163 89.489 81.335 89.247C80.961 89.005 80.6676 88.6677 80.455 88.235C80.2496 87.8023 80.147 87.2963 80.147 86.717C80.147 86.1303 80.2533 85.617 80.466 85.177C80.6786 84.737 80.9756 84.396 81.357 84.154C81.7383 83.912 82.1856 83.791 82.699 83.791C83.2343 83.791 83.6743 83.9193 84.019 84.176C84.371 84.4253 84.602 84.7773 84.712 85.232L84.558 85.254V81.58H85.691V89.5H84.602ZM82.952 88.653C83.458 88.653 83.8576 88.4807 84.151 88.136C84.4443 87.784 84.591 87.3 84.591 86.684C84.591 86.0827 84.4406 85.6097 84.14 85.265C83.8466 84.913 83.447 84.737 82.941 84.737C82.4423 84.737 82.0463 84.913 81.753 85.265C81.467 85.6097 81.324 86.0937 81.324 86.717C81.324 87.3257 81.467 87.8023 81.753 88.147C82.0463 88.4843 82.446 88.653 82.952 88.653ZM89.7201 89.61C89.1554 89.61 88.6567 89.4853 88.2241 89.236C87.7987 88.9867 87.4651 88.642 87.2231 88.202C86.9811 87.762 86.8601 87.256 86.8601 86.684C86.8601 86.1047 86.9774 85.5987 87.2121 85.166C87.4541 84.726 87.7914 84.385 88.2241 84.143C88.6567 83.901 89.1517 83.78 89.7091 83.78C90.2517 83.78 90.7211 83.8973 91.1171 84.132C91.5204 84.3593 91.8284 84.6783 92.0411 85.089C92.2611 85.4997 92.3711 85.9873 92.3711 86.552C92.3711 86.64 92.3674 86.7243 92.3601 86.805C92.3601 86.8783 92.3527 86.9553 92.3381 87.036H87.6301V86.178H91.5351L91.2491 86.519C91.2491 85.9177 91.1134 85.4593 90.8421 85.144C90.5707 84.8287 90.1931 84.671 89.7091 84.671C89.1884 84.671 88.7741 84.8507 88.4661 85.21C88.1654 85.562 88.0151 86.0533 88.0151 86.684C88.0151 87.322 88.1654 87.8207 88.4661 88.18C88.7741 88.5393 89.1994 88.719 89.7421 88.719C90.0721 88.719 90.3581 88.653 90.6001 88.521C90.8421 88.3817 91.0217 88.18 91.1391 87.916H92.2171C92.0337 88.444 91.7221 88.8583 91.2821 89.159C90.8494 89.4597 90.3287 89.61 89.7201 89.61ZM93.5413 89.5V83.89H94.6303V85.287H94.6853V89.5H93.5413ZM94.6853 86.574L94.5423 85.243C94.6743 84.7663 94.9016 84.4033 95.2243 84.154C95.5469 83.9047 95.9319 83.78 96.3793 83.78C96.5479 83.78 96.6653 83.7947 96.7313 83.824V84.902C96.6946 84.8873 96.6433 84.88 96.5773 84.88C96.5113 84.8727 96.4306 84.869 96.3353 84.869C95.7853 84.869 95.3709 85.012 95.0923 85.298C94.8209 85.584 94.6853 86.0093 94.6853 86.574ZM97.6555 89.5V83.89H98.7995V89.5H97.6555ZM97.6005 82.79V81.503H98.8655V82.79H97.6005ZM100.406 89.5V83.89H101.495V85.21H101.55V89.5H100.406ZM104.388 89.5V85.892C104.388 85.5033 104.289 85.2137 104.091 85.023C103.9 84.8323 103.614 84.737 103.233 84.737C102.903 84.737 102.609 84.8103 102.353 84.957C102.103 85.1037 101.905 85.3053 101.759 85.562C101.619 85.8187 101.55 86.123 101.55 86.475L101.407 85.133C101.59 84.715 101.872 84.385 102.254 84.143C102.635 83.901 103.079 83.78 103.585 83.78C104.186 83.78 104.659 83.9487 105.004 84.286C105.348 84.6233 105.521 85.0707 105.521 85.628V89.5H104.388ZM109.42 91.865C108.716 91.865 108.133 91.7037 107.671 91.381C107.216 91.0657 106.941 90.644 106.846 90.116H107.924C107.997 90.358 108.158 90.5487 108.408 90.688C108.664 90.8273 109.005 90.897 109.431 90.897C109.981 90.897 110.391 90.7613 110.663 90.49C110.934 90.2187 111.07 89.8153 111.07 89.28V88.07L111.169 88.092C111.059 88.5173 110.82 88.8547 110.454 89.104C110.087 89.346 109.647 89.467 109.134 89.467C108.642 89.467 108.21 89.3497 107.836 89.115C107.462 88.8803 107.172 88.554 106.967 88.136C106.761 87.7107 106.659 87.2157 106.659 86.651C106.659 86.079 106.765 85.5767 106.978 85.144C107.19 84.7113 107.487 84.3777 107.869 84.143C108.257 83.9083 108.708 83.791 109.222 83.791C109.75 83.791 110.186 83.9193 110.531 84.176C110.883 84.4253 111.106 84.781 111.202 85.243L111.114 85.254V83.89H112.203V89.269C112.203 90.0757 111.953 90.71 111.455 91.172C110.963 91.634 110.285 91.865 109.42 91.865ZM109.475 88.543C109.966 88.543 110.358 88.3707 110.652 88.026C110.952 87.6813 111.103 87.2083 111.103 86.607C111.103 86.0203 110.952 85.5583 110.652 85.221C110.358 84.8837 109.962 84.715 109.464 84.715C108.965 84.715 108.569 84.8873 108.276 85.232C107.982 85.5693 107.836 86.0387 107.836 86.64C107.836 87.2267 107.982 87.6923 108.276 88.037C108.576 88.3743 108.976 88.543 109.475 88.543ZM115.531 89.5L118.512 81.58H119.524L116.675 89.5H115.531ZM121.658 89.5L118.809 81.58H119.876L122.868 89.5H121.658ZM117.038 86.343H121.284V87.311H117.038V86.343ZM127.786 89.5V88.213L127.896 88.246C127.778 88.664 127.536 88.9977 127.17 89.247C126.803 89.489 126.363 89.61 125.85 89.61C125.344 89.61 124.9 89.489 124.519 89.247C124.145 89.005 123.851 88.6677 123.639 88.235C123.433 87.8023 123.331 87.2963 123.331 86.717C123.331 86.1303 123.437 85.617 123.65 85.177C123.862 84.737 124.159 84.396 124.541 84.154C124.922 83.912 125.369 83.791 125.883 83.791C126.418 83.791 126.858 83.9193 127.203 84.176C127.555 84.4253 127.786 84.7773 127.896 85.232L127.742 85.254V81.58H128.875V89.5H127.786ZM126.136 88.653C126.642 88.653 127.041 88.4807 127.335 88.136C127.628 87.784 127.775 87.3 127.775 86.684C127.775 86.0827 127.624 85.6097 127.324 85.265C127.03 84.913 126.631 84.737 126.125 84.737C125.626 84.737 125.23 84.913 124.937 85.265C124.651 85.6097 124.508 86.0937 124.508 86.717C124.508 87.3257 124.651 87.8023 124.937 88.147C125.23 88.4843 125.63 88.653 126.136 88.653ZM132.09 89.5L129.802 83.89H131.023L132.893 88.983H132.354L134.202 83.89H135.379L133.102 89.5H132.09ZM136.231 89.5V83.89H137.375V89.5H136.231ZM136.176 82.79V81.503H137.441V82.79H136.176ZM138.981 89.5V81.58H140.125V89.5H138.981ZM147.377 89.5C147.34 89.3607 147.314 89.2067 147.3 89.038C147.292 88.8693 147.289 88.664 147.289 88.422H147.234V85.749C147.234 85.3897 147.142 85.122 146.959 84.946C146.783 84.7627 146.5 84.671 146.112 84.671C145.738 84.671 145.437 84.7443 145.21 84.891C144.99 85.0377 144.861 85.2467 144.825 85.518H143.736C143.787 84.99 144.025 84.5683 144.451 84.253C144.876 83.9377 145.444 83.78 146.156 83.78C146.889 83.78 147.439 83.9523 147.806 84.297C148.172 84.6343 148.356 85.133 148.356 85.793V88.422C148.356 88.5907 148.367 88.763 148.389 88.939C148.411 89.115 148.444 89.302 148.488 89.5H147.377ZM145.441 89.61C144.869 89.61 144.414 89.4707 144.077 89.192C143.739 88.906 143.571 88.521 143.571 88.037C143.571 87.5383 143.747 87.146 144.099 86.86C144.458 86.5667 144.971 86.3687 145.639 86.266L147.487 85.969V86.772L145.815 87.036C145.441 87.0947 145.158 87.1937 144.968 87.333C144.784 87.4723 144.693 87.674 144.693 87.938C144.693 88.1947 144.777 88.389 144.946 88.521C145.122 88.6457 145.375 88.708 145.705 88.708C146.145 88.708 146.508 88.6017 146.794 88.389C147.087 88.1763 147.234 87.9087 147.234 87.586L147.377 88.4C147.245 88.7887 147.01 89.0893 146.673 89.302C146.335 89.5073 145.925 89.61 145.441 89.61ZM149.906 89.5V83.89H150.995V85.21H151.05V89.5H149.906ZM153.888 89.5V85.892C153.888 85.5033 153.789 85.2137 153.591 85.023C153.4 84.8323 153.114 84.737 152.733 84.737C152.403 84.737 152.109 84.8103 151.853 84.957C151.603 85.1037 151.405 85.3053 151.259 85.562C151.119 85.8187 151.05 86.123 151.05 86.475L150.907 85.133C151.09 84.715 151.372 84.385 151.754 84.143C152.135 83.901 152.579 83.78 153.085 83.78C153.686 83.78 154.159 83.9487 154.504 84.286C154.848 84.6233 155.021 85.0707 155.021 85.628V89.5H153.888ZM160.624 89.5V88.213L160.734 88.246C160.617 88.664 160.375 88.9977 160.008 89.247C159.642 89.489 159.202 89.61 158.688 89.61C158.182 89.61 157.739 89.489 157.357 89.247C156.983 89.005 156.69 88.6677 156.477 88.235C156.272 87.8023 156.169 87.2963 156.169 86.717C156.169 86.1303 156.276 85.617 156.488 85.177C156.701 84.737 156.998 84.396 157.379 84.154C157.761 83.912 158.208 83.791 158.721 83.791C159.257 83.791 159.697 83.9193 160.041 84.176C160.393 84.4253 160.624 84.7773 160.734 85.232L160.58 85.254V81.58H161.713V89.5H160.624ZM158.974 88.653C159.48 88.653 159.88 88.4807 160.173 88.136C160.467 87.784 160.613 87.3 160.613 86.684C160.613 86.0827 160.463 85.6097 160.162 85.265C159.869 84.913 159.469 84.737 158.963 84.737C158.465 84.737 158.069 84.913 157.775 85.265C157.489 85.6097 157.346 86.0937 157.346 86.717C157.346 87.3257 157.489 87.8023 157.775 88.147C158.069 88.4843 158.468 88.653 158.974 88.653ZM169.188 89.61C168.36 89.61 167.645 89.445 167.043 89.115C166.442 88.7777 165.976 88.3083 165.646 87.707C165.324 87.1057 165.162 86.398 165.162 85.584C165.162 84.7773 165.324 84.066 165.646 83.45C165.976 82.8267 166.431 82.3427 167.01 81.998C167.59 81.646 168.257 81.47 169.012 81.47C169.614 81.47 170.156 81.5837 170.64 81.811C171.132 82.031 171.531 82.339 171.839 82.735C172.155 83.131 172.342 83.5893 172.4 84.11H171.234C171.161 83.604 170.926 83.2043 170.53 82.911C170.134 82.6103 169.639 82.46 169.045 82.46C168.503 82.46 168.03 82.5883 167.626 82.845C167.223 83.1017 166.908 83.461 166.68 83.923C166.46 84.385 166.35 84.9313 166.35 85.562C166.35 86.2 166.464 86.75 166.691 87.212C166.919 87.6667 167.249 88.0187 167.681 88.268C168.121 88.51 168.649 88.631 169.265 88.631C169.705 88.631 170.094 88.5687 170.431 88.444C170.769 88.3193 171.062 88.136 171.311 87.894L172.444 88.323C172.034 88.7483 171.561 89.071 171.025 89.291C170.49 89.5037 169.878 89.61 169.188 89.61ZM171.278 88.323V85.892L171.619 86.233H169.254V85.265H172.444V88.323H171.278ZM177.294 89.5C177.257 89.3607 177.231 89.2067 177.217 89.038C177.209 88.8693 177.206 88.664 177.206 88.422H177.151V85.749C177.151 85.3897 177.059 85.122 176.876 84.946C176.7 84.7627 176.417 84.671 176.029 84.671C175.655 84.671 175.354 84.7443 175.127 84.891C174.907 85.0377 174.778 85.2467 174.742 85.518H173.653C173.704 84.99 173.942 84.5683 174.368 84.253C174.793 83.9377 175.361 83.78 176.073 83.78C176.806 83.78 177.356 83.9523 177.723 84.297C178.089 84.6343 178.273 85.133 178.273 85.793V88.422C178.273 88.5907 178.284 88.763 178.306 88.939C178.328 89.115 178.361 89.302 178.405 89.5H177.294ZM175.358 89.61C174.786 89.61 174.331 89.4707 173.994 89.192C173.656 88.906 173.488 88.521 173.488 88.037C173.488 87.5383 173.664 87.146 174.016 86.86C174.375 86.5667 174.888 86.3687 175.556 86.266L177.404 85.969V86.772L175.732 87.036C175.358 87.0947 175.075 87.1937 174.885 87.333C174.701 87.4723 174.61 87.674 174.61 87.938C174.61 88.1947 174.694 88.389 174.863 88.521C175.039 88.6457 175.292 88.708 175.622 88.708C176.062 88.708 176.425 88.6017 176.711 88.389C177.004 88.1763 177.151 87.9087 177.151 87.586L177.294 88.4C177.162 88.7887 176.927 89.0893 176.59 89.302C176.252 89.5073 175.842 89.61 175.358 89.61ZM181.984 89.61C181.331 89.61 180.851 89.4597 180.543 89.159C180.242 88.851 180.092 88.4 180.092 87.806V82.603L181.225 82.174V87.817C181.225 88.1103 181.302 88.3267 181.456 88.466C181.61 88.6053 181.859 88.675 182.204 88.675C182.336 88.675 182.453 88.664 182.556 88.642C182.659 88.62 182.747 88.5943 182.82 88.565V89.489C182.739 89.5257 182.626 89.555 182.479 89.577C182.332 89.599 182.167 89.61 181.984 89.61ZM178.97 84.803V83.89H182.82V84.803H178.97ZM186.196 89.61C185.624 89.61 185.122 89.4853 184.689 89.236C184.257 88.9793 183.919 88.631 183.677 88.191C183.435 87.7437 183.314 87.2377 183.314 86.673C183.314 86.101 183.435 85.5987 183.677 85.166C183.927 84.7333 184.264 84.396 184.689 84.154C185.122 83.9047 185.624 83.78 186.196 83.78C186.776 83.78 187.282 83.9047 187.714 84.154C188.147 84.396 188.481 84.7333 188.715 85.166C188.957 85.5987 189.078 86.101 189.078 86.673C189.078 87.2377 188.957 87.7437 188.715 88.191C188.481 88.631 188.147 88.9793 187.714 89.236C187.282 89.4853 186.776 89.61 186.196 89.61ZM186.196 88.675C186.541 88.675 186.838 88.5907 187.087 88.422C187.344 88.2533 187.546 88.0187 187.692 87.718C187.839 87.4173 187.912 87.0653 187.912 86.662C187.912 86.0607 187.751 85.5877 187.428 85.243C187.113 84.891 186.702 84.715 186.196 84.715C185.698 84.715 185.287 84.891 184.964 85.243C184.649 85.595 184.491 86.068 184.491 86.662C184.491 87.0653 184.561 87.4173 184.7 87.718C184.847 88.0187 185.049 88.2533 185.305 88.422C185.569 88.5907 185.866 88.675 186.196 88.675ZM190.253 89.5V83.89H191.342V85.287H191.397V89.5H190.253ZM191.397 86.574L191.254 85.243C191.386 84.7663 191.614 84.4033 191.936 84.154C192.259 83.9047 192.644 83.78 193.091 83.78C193.26 83.78 193.377 83.7947 193.443 83.824V84.902C193.407 84.8873 193.355 84.88 193.289 84.88C193.223 84.8727 193.143 84.869 193.047 84.869C192.497 84.869 192.083 85.012 191.804 85.298C191.533 85.584 191.397 86.0093 191.397 86.574ZM197.768 89.5C197.732 89.3607 197.706 89.2067 197.691 89.038C197.684 88.8693 197.68 88.664 197.68 88.422H197.625V85.749C197.625 85.3897 197.534 85.122 197.35 84.946C197.174 84.7627 196.892 84.671 196.503 84.671C196.129 84.671 195.829 84.7443 195.601 84.891C195.381 85.0377 195.253 85.2467 195.216 85.518H194.127C194.179 84.99 194.417 84.5683 194.842 84.253C195.268 83.9377 195.836 83.78 196.547 83.78C197.281 83.78 197.831 83.9523 198.197 84.297C198.564 84.6343 198.747 85.133 198.747 85.793V88.422C198.747 88.5907 198.758 88.763 198.78 88.939C198.802 89.115 198.835 89.302 198.879 89.5H197.768ZM195.832 89.61C195.26 89.61 194.806 89.4707 194.468 89.192C194.131 88.906 193.962 88.521 193.962 88.037C193.962 87.5383 194.138 87.146 194.49 86.86C194.85 86.5667 195.363 86.3687 196.03 86.266L197.878 85.969V86.772L196.206 87.036C195.832 87.0947 195.55 87.1937 195.359 87.333C195.176 87.4723 195.084 87.674 195.084 87.938C195.084 88.1947 195.169 88.389 195.337 88.521C195.513 88.6457 195.766 88.708 196.096 88.708C196.536 88.708 196.899 88.6017 197.185 88.389C197.479 88.1763 197.625 87.9087 197.625 87.586L197.768 88.4C197.636 88.7887 197.402 89.0893 197.064 89.302C196.727 89.5073 196.316 89.61 195.832 89.61ZM204.302 89.5V88.213L204.412 88.246C204.295 88.664 204.053 88.9977 203.686 89.247C203.32 89.489 202.88 89.61 202.366 89.61C201.86 89.61 201.417 89.489 201.035 89.247C200.661 89.005 200.368 88.6677 200.155 88.235C199.95 87.8023 199.847 87.2963 199.847 86.717C199.847 86.1303 199.954 85.617 200.166 85.177C200.379 84.737 200.676 84.396 201.057 84.154C201.439 83.912 201.886 83.791 202.399 83.791C202.935 83.791 203.375 83.9193 203.719 84.176C204.071 84.4253 204.302 84.7773 204.412 85.232L204.258 85.254V81.58H205.391V89.5H204.302ZM202.652 88.653C203.158 88.653 203.558 88.4807 203.851 88.136C204.145 87.784 204.291 87.3 204.291 86.684C204.291 86.0827 204.141 85.6097 203.84 85.265C203.547 84.913 203.147 84.737 202.641 84.737C202.143 84.737 201.747 84.913 201.453 85.265C201.167 85.6097 201.024 86.0937 201.024 86.717C201.024 87.3257 201.167 87.8023 201.453 88.147C201.747 88.4843 202.146 88.653 202.652 88.653ZM209.42 89.61C208.856 89.61 208.357 89.4853 207.924 89.236C207.499 88.9867 207.165 88.642 206.923 88.202C206.681 87.762 206.56 87.256 206.56 86.684C206.56 86.1047 206.678 85.5987 206.912 85.166C207.154 84.726 207.492 84.385 207.924 84.143C208.357 83.901 208.852 83.78 209.409 83.78C209.952 83.78 210.421 83.8973 210.817 84.132C211.221 84.3593 211.529 84.6783 211.741 85.089C211.961 85.4997 212.071 85.9873 212.071 86.552C212.071 86.64 212.068 86.7243 212.06 86.805C212.06 86.8783 212.053 86.9553 212.038 87.036H207.33V86.178H211.235L210.949 86.519C210.949 85.9177 210.814 85.4593 210.542 85.144C210.271 84.8287 209.893 84.671 209.409 84.671C208.889 84.671 208.474 84.8507 208.166 85.21C207.866 85.562 207.715 86.0533 207.715 86.684C207.715 87.322 207.866 87.8207 208.166 88.18C208.474 88.5393 208.9 88.719 209.442 88.719C209.772 88.719 210.058 88.653 210.3 88.521C210.542 88.3817 210.722 88.18 210.839 87.916H211.917C211.734 88.444 211.422 88.8583 210.982 89.159C210.55 89.4597 210.029 89.61 209.42 89.61ZM212.768 89.5V88.136H214.121V89.5H212.768ZM215.25 89.5V88.136H216.603V89.5H215.25ZM217.731 89.5V88.136H219.084V89.5H217.731Z" fill="black" fill-opacity="0.72"/>
<path d="M29 93V95H28V93H29ZM29 89V91H28V89H29ZM29 85V87H28V85H29ZM29 81V83H28V81H29ZM29 77V79H28V77H29ZM29 73V75H28V73H29ZM29 69V71H28V69H29ZM29 65V67H28V65H29ZM29 61V63H28V61H29ZM29 57V59H28V57H29ZM29 53V55H28V53H29ZM29 49V51H28V49H29ZM29 45V47H28V45H29ZM29 41V43H28V41H29ZM29 37V39H28V37H29Z" stroke="black" stroke-opacity="0.16" stroke-dasharray="2 2"/>
</svg>
