<svg width="10" height="10" viewBox="0 0 10 10" fill="none" xmlns="http://www.w3.org/2000/svg">
<path d="M4.55615 0.6875C5.2481 0.687454 5.92676 0.881746 6.51318 1.24902C7.0996 1.6163 7.57056 2.1421 7.87256 2.76465C8.17442 3.38706 8.2947 4.0818 8.22021 4.76953C8.14968 5.42041 7.90485 6.03836 7.51611 6.56348L8.97119 8.01758L8.97217 8.01953C9.07124 8.1221 9.12575 8.25975 9.12451 8.40234C9.12321 8.54485 9.06611 8.68145 8.96533 8.78223C8.86453 8.88285 8.72789 8.94017 8.58545 8.94141C8.44301 8.94253 8.30608 8.88705 8.20361 8.78809L8.20166 8.78711L6.74854 7.33398C6.30687 7.66088 5.7977 7.88655 5.25732 7.99121C4.6805 8.10288 4.08486 8.07426 3.521 7.90918C2.9572 7.74404 2.4406 7.44711 2.01514 7.04199C1.58957 6.63676 1.26722 6.13529 1.07471 5.58008C0.882201 5.02486 0.825319 4.43131 0.908691 3.84961C0.992082 3.26807 1.21361 2.71501 1.5542 2.23633C1.89491 1.75753 2.34541 1.36704 2.86768 1.09766C3.38981 0.828361 3.96866 0.687607 4.55615 0.6875ZM4.55615 1.77539C3.86745 1.77549 3.20725 2.04918 2.72021 2.53613C2.23308 3.02327 1.9585 3.68414 1.9585 4.37305C1.95858 5.06185 2.23315 5.7229 2.72021 6.20996C3.20722 6.69672 3.86759 6.97061 4.55615 6.9707C5.2449 6.9707 5.90597 6.69688 6.39307 6.20996C6.88013 5.7229 7.15373 5.06185 7.15381 4.37305C7.15381 3.68414 6.8802 3.02327 6.39307 2.53613C5.90594 2.04902 5.24505 1.77539 4.55615 1.77539Z" fill="#1397F6" stroke="#1397F6" stroke-width="0.25"/>
</svg>
