<svg width="336" height="36" viewBox="0 0 336 36" fill="none" xmlns="http://www.w3.org/2000/svg">
<rect width="336.005" height="36" rx="18" fill="white"/>
<rect x="8" y="8" width="20" height="20" rx="10" fill="#1397F6" fill-opacity="0.2"/>
<path d="M14.1001 18.3L16.493 20.693C16.4969 20.6969 16.5033 20.6969 16.5072 20.693L21.9001 15.3" stroke="#1397F6" stroke-width="1.5" stroke-linecap="round"/>
<path d="M39.99 23V18.758L36.21 12.92H38.408L41.488 18.086H40.508L43.574 12.92H45.59L41.81 18.758V23H39.99ZM48.4848 23.14C47.7288 23.14 47.0615 22.9813 46.4828 22.664C45.9135 22.3467 45.4702 21.908 45.1528 21.348C44.8355 20.7787 44.6768 20.13 44.6768 19.402C44.6768 18.674 44.8355 18.0347 45.1528 17.484C45.4702 16.9333 45.9135 16.504 46.4828 16.196C47.0615 15.8787 47.7288 15.72 48.4848 15.72C49.2502 15.72 49.9175 15.8787 50.4868 16.196C51.0562 16.504 51.4995 16.9333 51.8168 17.484C52.1342 18.0347 52.2928 18.674 52.2928 19.402C52.2928 20.13 52.1295 20.7787 51.8028 21.348C51.4855 21.908 51.0422 22.3467 50.4728 22.664C49.9035 22.9813 49.2408 23.14 48.4848 23.14ZM48.4848 21.726C48.8582 21.726 49.1942 21.6327 49.4928 21.446C49.7915 21.25 50.0248 20.9793 50.1928 20.634C50.3608 20.2793 50.4448 19.864 50.4448 19.388C50.4448 18.688 50.2582 18.1373 49.8848 17.736C49.5208 17.3347 49.0542 17.134 48.4848 17.134C47.9155 17.134 47.4442 17.3347 47.0708 17.736C46.6975 18.1373 46.5108 18.688 46.5108 19.388C46.5108 19.864 46.5948 20.2793 46.7628 20.634C46.9402 20.9793 47.1735 21.25 47.4628 21.446C47.7615 21.6327 48.1022 21.726 48.4848 21.726ZM55.9003 23.14C55.4057 23.14 54.9763 23.0373 54.6123 22.832C54.2577 22.6173 53.9823 22.328 53.7863 21.964C53.5997 21.6 53.5063 21.1893 53.5063 20.732V15.86H55.2703V20.368C55.2703 20.8067 55.3777 21.138 55.5923 21.362C55.8163 21.586 56.129 21.698 56.5303 21.698C56.8943 21.698 57.2117 21.614 57.4823 21.446C57.7623 21.278 57.9817 21.0447 58.1403 20.746C58.3083 20.438 58.3923 20.0927 58.3923 19.71L58.5743 21.418C58.341 21.9407 57.991 22.3607 57.5243 22.678C57.067 22.986 56.5257 23.14 55.9003 23.14ZM58.4483 23V21.32H58.3923V15.86H60.1703V23H58.4483ZM62.0396 23V15.86H63.7616V17.582H63.8036V23H62.0396ZM63.8036 19.276L63.6216 17.582C63.7896 16.9753 64.0742 16.5133 64.4756 16.196C64.8769 15.8787 65.3576 15.72 65.9176 15.72C66.1136 15.72 66.2536 15.7387 66.3376 15.776V17.442C66.2909 17.4233 66.2256 17.414 66.1416 17.414C66.0576 17.4047 65.9549 17.4 65.8336 17.4C65.1522 17.4 64.6436 17.5493 64.3076 17.848C63.9716 18.1467 63.8036 18.6227 63.8036 19.276ZM75.2977 23V21.39L75.4377 21.418C75.3163 21.9407 75.0223 22.3607 74.5557 22.678C74.089 22.986 73.5337 23.14 72.8897 23.14C72.2363 23.14 71.667 22.9907 71.1817 22.692C70.7057 22.384 70.337 21.9547 70.0757 21.404C69.8143 20.8533 69.6837 20.2047 69.6837 19.458C69.6837 18.702 69.819 18.044 70.0897 17.484C70.3603 16.924 70.7383 16.49 71.2237 16.182C71.7183 15.874 72.2923 15.72 72.9457 15.72C73.6177 15.72 74.173 15.8833 74.6117 16.21C75.0503 16.5273 75.321 16.9707 75.4237 17.54L75.2417 17.554V12.92H77.0197V23H75.2977ZM73.4077 21.698C73.977 21.698 74.4297 21.502 74.7657 21.11C75.111 20.7087 75.2837 20.1487 75.2837 19.43C75.2837 18.7113 75.111 18.156 74.7657 17.764C74.4203 17.372 73.963 17.176 73.3937 17.176C72.8337 17.176 72.381 17.3767 72.0357 17.778C71.6903 18.17 71.5177 18.7253 71.5177 19.444C71.5177 20.1627 71.6903 20.718 72.0357 21.11C72.381 21.502 72.8383 21.698 73.4077 21.698ZM83.349 23C83.3023 22.8133 83.265 22.608 83.237 22.384C83.2183 22.16 83.209 21.8893 83.209 21.572H83.153V18.184C83.153 17.8107 83.0457 17.5307 82.831 17.344C82.6257 17.148 82.3083 17.05 81.879 17.05C81.459 17.05 81.123 17.1293 80.871 17.288C80.6283 17.4373 80.479 17.6567 80.423 17.946H78.729C78.8037 17.2833 79.121 16.7467 79.681 16.336C80.241 15.9253 80.9923 15.72 81.935 15.72C82.915 15.72 83.657 15.944 84.161 16.392C84.665 16.8307 84.917 17.4793 84.917 18.338V21.572C84.917 21.796 84.931 22.0247 84.959 22.258C84.9963 22.4913 85.0477 22.7387 85.113 23H83.349ZM80.871 23.14C80.1523 23.14 79.5783 22.9627 79.149 22.608C78.729 22.244 78.519 21.7587 78.519 21.152C78.519 20.4987 78.757 19.9807 79.233 19.598C79.709 19.2153 80.381 18.9587 81.249 18.828L83.475 18.492V19.612L81.543 19.906C81.123 19.9713 80.8057 20.088 80.591 20.256C80.3857 20.424 80.283 20.6573 80.283 20.956C80.283 21.2267 80.381 21.4367 80.577 21.586C80.773 21.726 81.0437 21.796 81.389 21.796C81.893 21.796 82.313 21.67 82.649 21.418C82.985 21.166 83.153 20.858 83.153 20.494L83.349 21.572C83.1623 22.0853 82.8543 22.4773 82.425 22.748C82.005 23.0093 81.487 23.14 80.871 23.14ZM89.5268 23.14C88.6495 23.14 88.0008 22.9347 87.5808 22.524C87.1701 22.104 86.9648 21.4787 86.9648 20.648V14.236L88.7428 13.578V20.69C88.7428 21.0353 88.8361 21.292 89.0228 21.46C89.2095 21.628 89.5035 21.712 89.9048 21.712C90.0635 21.712 90.2035 21.7027 90.3248 21.684C90.4555 21.656 90.5768 21.6233 90.6888 21.586V22.958C90.5768 23.014 90.4181 23.056 90.2128 23.084C90.0075 23.1213 89.7788 23.14 89.5268 23.14ZM85.5928 17.246V15.86H90.6888V17.246H85.5928ZM94.9956 23.14C94.2396 23.14 93.5769 22.9813 93.0076 22.664C92.4476 22.3467 92.0089 21.908 91.6916 21.348C91.3836 20.788 91.2296 20.144 91.2296 19.416C91.2296 18.688 91.3836 18.0487 91.6916 17.498C92.0089 16.938 92.4476 16.504 93.0076 16.196C93.5676 15.8787 94.2209 15.72 94.9676 15.72C95.6769 15.72 96.2929 15.8693 96.8156 16.168C97.3382 16.4573 97.7442 16.868 98.0336 17.4C98.3229 17.932 98.4676 18.5527 98.4676 19.262C98.4676 19.3927 98.4629 19.514 98.4536 19.626C98.4442 19.738 98.4302 19.85 98.4116 19.962H92.3216V18.73H97.0536L96.6896 19.066C96.6896 18.394 96.5356 17.89 96.2276 17.554C95.9196 17.218 95.4902 17.05 94.9396 17.05C94.3422 17.05 93.8662 17.2553 93.5116 17.666C93.1662 18.0767 92.9936 18.6693 92.9936 19.444C92.9936 20.2093 93.1662 20.7973 93.5116 21.208C93.8662 21.6093 94.3656 21.81 95.0096 21.81C95.3829 21.81 95.7096 21.74 95.9896 21.6C96.2696 21.46 96.4749 21.2453 96.6056 20.956H98.2716C98.0382 21.628 97.6416 22.16 97.0816 22.552C96.5309 22.944 95.8356 23.14 94.9956 23.14ZM102.495 23V12.92H104.259V23H102.495ZM107.507 23V18.492C107.507 18.0533 107.395 17.722 107.171 17.498C106.947 17.274 106.62 17.162 106.191 17.162C105.817 17.162 105.481 17.246 105.183 17.414C104.893 17.582 104.665 17.8153 104.497 18.114C104.338 18.4127 104.259 18.758 104.259 19.15L104.077 17.442C104.319 16.9193 104.674 16.504 105.141 16.196C105.607 15.8787 106.167 15.72 106.821 15.72C107.595 15.72 108.197 15.9393 108.627 16.378C109.065 16.8167 109.285 17.4 109.285 18.128V23H107.507ZM115.382 23C115.336 22.8133 115.298 22.608 115.27 22.384C115.252 22.16 115.242 21.8893 115.242 21.572H115.186V18.184C115.186 17.8107 115.079 17.5307 114.864 17.344C114.659 17.148 114.342 17.05 113.912 17.05C113.492 17.05 113.156 17.1293 112.904 17.288C112.662 17.4373 112.512 17.6567 112.456 17.946H110.762C110.837 17.2833 111.154 16.7467 111.714 16.336C112.274 15.9253 113.026 15.72 113.968 15.72C114.948 15.72 115.69 15.944 116.194 16.392C116.698 16.8307 116.95 17.4793 116.95 18.338V21.572C116.95 21.796 116.964 22.0247 116.992 22.258C117.03 22.4913 117.081 22.7387 117.146 23H115.382ZM112.904 23.14C112.186 23.14 111.612 22.9627 111.182 22.608C110.762 22.244 110.552 21.7587 110.552 21.152C110.552 20.4987 110.79 19.9807 111.266 19.598C111.742 19.2153 112.414 18.9587 113.282 18.828L115.508 18.492V19.612L113.576 19.906C113.156 19.9713 112.839 20.088 112.624 20.256C112.419 20.424 112.316 20.6573 112.316 20.956C112.316 21.2267 112.414 21.4367 112.61 21.586C112.806 21.726 113.077 21.796 113.422 21.796C113.926 21.796 114.346 21.67 114.682 21.418C115.018 21.166 115.186 20.858 115.186 20.494L115.382 21.572C115.196 22.0853 114.888 22.4773 114.458 22.748C114.038 23.0093 113.52 23.14 112.904 23.14ZM121.33 23.14C120.341 23.14 119.552 22.9347 118.964 22.524C118.376 22.104 118.054 21.5253 117.998 20.788H119.608C119.655 21.152 119.827 21.4273 120.126 21.614C120.425 21.8007 120.826 21.894 121.33 21.894C121.787 21.894 122.128 21.824 122.352 21.684C122.585 21.5347 122.702 21.3247 122.702 21.054C122.702 20.858 122.637 20.6993 122.506 20.578C122.375 20.4473 122.128 20.34 121.764 20.256L120.616 19.99C119.832 19.822 119.249 19.5607 118.866 19.206C118.493 18.842 118.306 18.3893 118.306 17.848C118.306 17.1853 118.558 16.6673 119.062 16.294C119.575 15.9113 120.28 15.72 121.176 15.72C122.063 15.72 122.772 15.9113 123.304 16.294C123.845 16.6673 124.144 17.1853 124.2 17.848H122.59C122.543 17.5587 122.394 17.3393 122.142 17.19C121.899 17.0407 121.563 16.966 121.134 16.966C120.733 16.966 120.429 17.0313 120.224 17.162C120.019 17.2833 119.916 17.4653 119.916 17.708C119.916 17.8947 119.995 18.0533 120.154 18.184C120.313 18.3053 120.579 18.4127 120.952 18.506L122.184 18.786C122.884 18.9447 123.411 19.22 123.766 19.612C124.13 20.004 124.312 20.466 124.312 20.998C124.312 21.6793 124.051 22.2067 123.528 22.58C123.005 22.9533 122.273 23.14 121.33 23.14ZM132.299 23.14C131.618 23.14 131.058 22.9813 130.619 22.664C130.19 22.3373 129.924 21.8893 129.821 21.32L129.947 21.306V23H128.225V12.92H129.989V17.47L129.863 17.442C129.984 16.91 130.269 16.49 130.717 16.182C131.174 15.874 131.739 15.72 132.411 15.72C133.046 15.72 133.596 15.874 134.063 16.182C134.539 16.4807 134.908 16.9053 135.169 17.456C135.43 18.0067 135.561 18.6553 135.561 19.402C135.561 20.158 135.426 20.816 135.155 21.376C134.884 21.936 134.506 22.37 134.021 22.678C133.536 22.986 132.962 23.14 132.299 23.14ZM131.851 21.684C132.42 21.684 132.873 21.488 133.209 21.096C133.545 20.6947 133.713 20.1347 133.713 19.416C133.713 18.6973 133.54 18.142 133.195 17.75C132.859 17.358 132.406 17.162 131.837 17.162C131.277 17.162 130.824 17.3627 130.479 17.764C130.134 18.156 129.961 18.7113 129.961 19.43C129.961 20.1487 130.134 20.704 130.479 21.096C130.824 21.488 131.282 21.684 131.851 21.684ZM140.222 23.14C139.466 23.14 138.803 22.9813 138.234 22.664C137.674 22.3467 137.235 21.908 136.918 21.348C136.61 20.788 136.456 20.144 136.456 19.416C136.456 18.688 136.61 18.0487 136.918 17.498C137.235 16.938 137.674 16.504 138.234 16.196C138.794 15.8787 139.447 15.72 140.194 15.72C140.903 15.72 141.519 15.8693 142.042 16.168C142.565 16.4573 142.971 16.868 143.26 17.4C143.549 17.932 143.694 18.5527 143.694 19.262C143.694 19.3927 143.689 19.514 143.68 19.626C143.671 19.738 143.657 19.85 143.638 19.962H137.548V18.73H142.28L141.916 19.066C141.916 18.394 141.762 17.89 141.454 17.554C141.146 17.218 140.717 17.05 140.166 17.05C139.569 17.05 139.093 17.2553 138.738 17.666C138.393 18.0767 138.22 18.6693 138.22 19.444C138.22 20.2093 138.393 20.7973 138.738 21.208C139.093 21.6093 139.592 21.81 140.236 21.81C140.609 21.81 140.936 21.74 141.216 21.6C141.496 21.46 141.701 21.2453 141.832 20.956H143.498C143.265 21.628 142.868 22.16 142.308 22.552C141.757 22.944 141.062 23.14 140.222 23.14ZM148.316 23.14C147.56 23.14 146.897 22.9813 146.328 22.664C145.768 22.3467 145.329 21.908 145.012 21.348C144.704 20.788 144.55 20.144 144.55 19.416C144.55 18.688 144.704 18.0487 145.012 17.498C145.329 16.938 145.768 16.504 146.328 16.196C146.888 15.8787 147.541 15.72 148.288 15.72C148.997 15.72 149.613 15.8693 150.136 16.168C150.659 16.4573 151.065 16.868 151.354 17.4C151.643 17.932 151.788 18.5527 151.788 19.262C151.788 19.3927 151.783 19.514 151.774 19.626C151.765 19.738 151.751 19.85 151.732 19.962H145.642V18.73H150.374L150.01 19.066C150.01 18.394 149.856 17.89 149.548 17.554C149.24 17.218 148.811 17.05 148.26 17.05C147.663 17.05 147.187 17.2553 146.832 17.666C146.487 18.0767 146.314 18.6693 146.314 19.444C146.314 20.2093 146.487 20.7973 146.832 21.208C147.187 21.6093 147.686 21.81 148.33 21.81C148.703 21.81 149.03 21.74 149.31 21.6C149.59 21.46 149.795 21.2453 149.926 20.956H151.592C151.359 21.628 150.962 22.16 150.402 22.552C149.851 22.944 149.156 23.14 148.316 23.14ZM153.108 23V15.86H154.83V17.54H154.872V23H153.108ZM158.12 23V18.492C158.12 18.0533 158.008 17.722 157.784 17.498C157.56 17.274 157.233 17.162 156.804 17.162C156.431 17.162 156.095 17.246 155.796 17.414C155.507 17.582 155.278 17.8153 155.11 18.114C154.951 18.4127 154.872 18.758 154.872 19.15L154.69 17.442C154.933 16.9193 155.287 16.504 155.754 16.196C156.221 15.8787 156.781 15.72 157.434 15.72C158.209 15.72 158.811 15.9393 159.24 16.378C159.679 16.8167 159.898 17.4 159.898 18.128V23H158.12ZM167.117 23.14C166.128 23.14 165.339 22.9347 164.751 22.524C164.163 22.104 163.841 21.5253 163.785 20.788H165.395C165.442 21.152 165.615 21.4273 165.913 21.614C166.212 21.8007 166.613 21.894 167.117 21.894C167.575 21.894 167.915 21.824 168.139 21.684C168.373 21.5347 168.489 21.3247 168.489 21.054C168.489 20.858 168.424 20.6993 168.293 20.578C168.163 20.4473 167.915 20.34 167.551 20.256L166.403 19.99C165.619 19.822 165.036 19.5607 164.653 19.206C164.28 18.842 164.093 18.3893 164.093 17.848C164.093 17.1853 164.345 16.6673 164.849 16.294C165.363 15.9113 166.067 15.72 166.963 15.72C167.85 15.72 168.559 15.9113 169.091 16.294C169.633 16.6673 169.931 17.1853 169.987 17.848H168.377C168.331 17.5587 168.181 17.3393 167.929 17.19C167.687 17.0407 167.351 16.966 166.921 16.966C166.52 16.966 166.217 17.0313 166.011 17.162C165.806 17.2833 165.703 17.4653 165.703 17.708C165.703 17.8947 165.783 18.0533 165.941 18.184C166.1 18.3053 166.366 18.4127 166.739 18.506L167.971 18.786C168.671 18.9447 169.199 19.22 169.553 19.612C169.917 20.004 170.099 20.466 170.099 20.998C170.099 21.6793 169.838 22.2067 169.315 22.58C168.793 22.9533 168.06 23.14 167.117 23.14ZM173.67 23.14C173.175 23.14 172.746 23.0373 172.382 22.832C172.027 22.6173 171.752 22.328 171.556 21.964C171.369 21.6 171.276 21.1893 171.276 20.732V15.86H173.04V20.368C173.04 20.8067 173.147 21.138 173.362 21.362C173.586 21.586 173.899 21.698 174.3 21.698C174.664 21.698 174.981 21.614 175.252 21.446C175.532 21.278 175.751 21.0447 175.91 20.746C176.078 20.438 176.162 20.0927 176.162 19.71L176.344 21.418C176.111 21.9407 175.761 22.3607 175.294 22.678C174.837 22.986 174.295 23.14 173.67 23.14ZM176.218 23V21.32H176.162V15.86H177.94V23H176.218ZM182.862 23.14C182.143 23.14 181.509 22.9813 180.958 22.664C180.417 22.3467 179.987 21.908 179.67 21.348C179.362 20.7787 179.208 20.1347 179.208 19.416C179.208 18.6973 179.362 18.0627 179.67 17.512C179.987 16.952 180.417 16.5133 180.958 16.196C181.509 15.8787 182.143 15.72 182.862 15.72C183.45 15.72 183.982 15.832 184.458 16.056C184.934 16.2707 185.326 16.5787 185.634 16.98C185.942 17.372 186.138 17.8293 186.222 18.352H184.528C184.425 17.9693 184.229 17.6707 183.94 17.456C183.651 17.2413 183.301 17.134 182.89 17.134C182.507 17.134 182.176 17.2273 181.896 17.414C181.625 17.6007 181.415 17.8667 181.266 18.212C181.117 18.5573 181.042 18.9587 181.042 19.416C181.042 19.8827 181.117 20.2887 181.266 20.634C181.415 20.9793 181.63 21.25 181.91 21.446C182.19 21.6327 182.517 21.726 182.89 21.726C183.301 21.726 183.651 21.6187 183.94 21.404C184.229 21.1893 184.425 20.8907 184.528 20.508H186.222C186.138 21.0307 185.937 21.4927 185.62 21.894C185.312 22.286 184.92 22.594 184.444 22.818C183.977 23.0327 183.45 23.14 182.862 23.14ZM190.546 23.14C189.827 23.14 189.192 22.9813 188.642 22.664C188.1 22.3467 187.671 21.908 187.354 21.348C187.046 20.7787 186.892 20.1347 186.892 19.416C186.892 18.6973 187.046 18.0627 187.354 17.512C187.671 16.952 188.1 16.5133 188.642 16.196C189.192 15.8787 189.827 15.72 190.546 15.72C191.134 15.72 191.666 15.832 192.142 16.056C192.618 16.2707 193.01 16.5787 193.318 16.98C193.626 17.372 193.822 17.8293 193.906 18.352H192.212C192.109 17.9693 191.913 17.6707 191.624 17.456C191.334 17.2413 190.984 17.134 190.574 17.134C190.191 17.134 189.86 17.2273 189.58 17.414C189.309 17.6007 189.099 17.8667 188.95 18.212C188.8 18.5573 188.726 18.9587 188.726 19.416C188.726 19.8827 188.8 20.2887 188.95 20.634C189.099 20.9793 189.314 21.25 189.594 21.446C189.874 21.6327 190.2 21.726 190.574 21.726C190.984 21.726 191.334 21.6187 191.624 21.404C191.913 21.1893 192.109 20.8907 192.212 20.508H193.906C193.822 21.0307 193.621 21.4927 193.304 21.894C192.996 22.286 192.604 22.594 192.128 22.818C191.661 23.0327 191.134 23.14 190.546 23.14ZM198.341 23.14C197.585 23.14 196.923 22.9813 196.353 22.664C195.793 22.3467 195.355 21.908 195.037 21.348C194.729 20.788 194.575 20.144 194.575 19.416C194.575 18.688 194.729 18.0487 195.037 17.498C195.355 16.938 195.793 16.504 196.353 16.196C196.913 15.8787 197.567 15.72 198.313 15.72C199.023 15.72 199.639 15.8693 200.161 16.168C200.684 16.4573 201.09 16.868 201.379 17.4C201.669 17.932 201.813 18.5527 201.813 19.262C201.813 19.3927 201.809 19.514 201.799 19.626C201.79 19.738 201.776 19.85 201.757 19.962H195.667V18.73H200.399L200.035 19.066C200.035 18.394 199.881 17.89 199.573 17.554C199.265 17.218 198.836 17.05 198.285 17.05C197.688 17.05 197.212 17.2553 196.857 17.666C196.512 18.0767 196.339 18.6693 196.339 19.444C196.339 20.2093 196.512 20.7973 196.857 21.208C197.212 21.6093 197.711 21.81 198.355 21.81C198.729 21.81 199.055 21.74 199.335 21.6C199.615 21.46 199.821 21.2453 199.951 20.956H201.617C201.384 21.628 200.987 22.16 200.427 22.552C199.877 22.944 199.181 23.14 198.341 23.14ZM205.904 23.14C204.915 23.14 204.126 22.9347 203.538 22.524C202.95 22.104 202.628 21.5253 202.572 20.788H204.182C204.229 21.152 204.402 21.4273 204.7 21.614C204.999 21.8007 205.4 21.894 205.904 21.894C206.362 21.894 206.702 21.824 206.926 21.684C207.16 21.5347 207.276 21.3247 207.276 21.054C207.276 20.858 207.211 20.6993 207.08 20.578C206.95 20.4473 206.702 20.34 206.338 20.256L205.19 19.99C204.406 19.822 203.823 19.5607 203.44 19.206C203.067 18.842 202.88 18.3893 202.88 17.848C202.88 17.1853 203.132 16.6673 203.636 16.294C204.15 15.9113 204.854 15.72 205.75 15.72C206.637 15.72 207.346 15.9113 207.878 16.294C208.42 16.6673 208.718 17.1853 208.774 17.848H207.164C207.118 17.5587 206.968 17.3393 206.716 17.19C206.474 17.0407 206.138 16.966 205.708 16.966C205.307 16.966 205.004 17.0313 204.798 17.162C204.593 17.2833 204.49 17.4653 204.49 17.708C204.49 17.8947 204.57 18.0533 204.728 18.184C204.887 18.3053 205.153 18.4127 205.526 18.506L206.758 18.786C207.458 18.9447 207.986 19.22 208.34 19.612C208.704 20.004 208.886 20.466 208.886 20.998C208.886 21.6793 208.625 22.2067 208.102 22.58C207.58 22.9533 206.847 23.14 205.904 23.14ZM212.945 23.14C211.956 23.14 211.167 22.9347 210.579 22.524C209.991 22.104 209.669 21.5253 209.613 20.788H211.223C211.27 21.152 211.443 21.4273 211.741 21.614C212.04 21.8007 212.441 21.894 212.945 21.894C213.403 21.894 213.743 21.824 213.967 21.684C214.201 21.5347 214.317 21.3247 214.317 21.054C214.317 20.858 214.252 20.6993 214.121 20.578C213.991 20.4473 213.743 20.34 213.379 20.256L212.231 19.99C211.447 19.822 210.864 19.5607 210.481 19.206C210.108 18.842 209.921 18.3893 209.921 17.848C209.921 17.1853 210.173 16.6673 210.677 16.294C211.191 15.9113 211.895 15.72 212.791 15.72C213.678 15.72 214.387 15.9113 214.919 16.294C215.461 16.6673 215.759 17.1853 215.815 17.848H214.205C214.159 17.5587 214.009 17.3393 213.757 17.19C213.515 17.0407 213.179 16.966 212.749 16.966C212.348 16.966 212.045 17.0313 211.839 17.162C211.634 17.2833 211.531 17.4653 211.531 17.708C211.531 17.8947 211.611 18.0533 211.769 18.184C211.928 18.3053 212.194 18.4127 212.567 18.506L213.799 18.786C214.499 18.9447 215.027 19.22 215.381 19.612C215.745 20.004 215.927 20.466 215.927 20.998C215.927 21.6793 215.666 22.2067 215.143 22.58C214.621 22.9533 213.888 23.14 212.945 23.14ZM217.693 23V15.202C217.693 14.418 217.908 13.8207 218.337 13.41C218.776 12.99 219.429 12.78 220.297 12.78C220.493 12.78 220.657 12.7893 220.787 12.808C220.918 12.8267 221.044 12.8547 221.165 12.892V14.264C221.1 14.236 221.016 14.2173 220.913 14.208C220.811 14.1893 220.694 14.18 220.563 14.18C220.19 14.18 219.91 14.2733 219.723 14.46C219.546 14.6373 219.457 14.8987 219.457 15.244V23H217.693ZM216.405 17.246V15.86H221.011V17.246H216.405ZM224.475 23.14C223.98 23.14 223.551 23.0373 223.187 22.832C222.832 22.6173 222.557 22.328 222.361 21.964C222.174 21.6 222.081 21.1893 222.081 20.732V15.86H223.845V20.368C223.845 20.8067 223.952 21.138 224.167 21.362C224.391 21.586 224.703 21.698 225.105 21.698C225.469 21.698 225.786 21.614 226.057 21.446C226.337 21.278 226.556 21.0447 226.715 20.746C226.883 20.438 226.967 20.0927 226.967 19.71L227.149 21.418C226.915 21.9407 226.565 22.3607 226.099 22.678C225.641 22.986 225.1 23.14 224.475 23.14ZM227.023 23V21.32H226.967V15.86H228.745V23H227.023ZM230.614 23V12.92H232.378V23H230.614ZM234.251 23V12.92H236.015V23H234.251ZM238.335 25.87L240.183 21.726L240.505 21.194L242.521 15.86H244.397L240.127 25.87H238.335ZM239.917 22.93L237.019 15.86H238.937L241.359 22.272L239.917 22.93ZM250.83 23.14C249.841 23.14 249.052 22.9347 248.464 22.524C247.876 22.104 247.554 21.5253 247.498 20.788H249.108C249.155 21.152 249.327 21.4273 249.626 21.614C249.925 21.8007 250.326 21.894 250.83 21.894C251.287 21.894 251.628 21.824 251.852 21.684C252.085 21.5347 252.202 21.3247 252.202 21.054C252.202 20.858 252.137 20.6993 252.006 20.578C251.875 20.4473 251.628 20.34 251.264 20.256L250.116 19.99C249.332 19.822 248.749 19.5607 248.366 19.206C247.993 18.842 247.806 18.3893 247.806 17.848C247.806 17.1853 248.058 16.6673 248.562 16.294C249.075 15.9113 249.78 15.72 250.676 15.72C251.563 15.72 252.272 15.9113 252.804 16.294C253.345 16.6673 253.644 17.1853 253.7 17.848H252.09C252.043 17.5587 251.894 17.3393 251.642 17.19C251.399 17.0407 251.063 16.966 250.634 16.966C250.233 16.966 249.929 17.0313 249.724 17.162C249.519 17.2833 249.416 17.4653 249.416 17.708C249.416 17.8947 249.495 18.0533 249.654 18.184C249.813 18.3053 250.079 18.4127 250.452 18.506L251.684 18.786C252.384 18.9447 252.911 19.22 253.266 19.612C253.63 20.004 253.812 20.466 253.812 20.998C253.812 21.6793 253.551 22.2067 253.028 22.58C252.505 22.9533 251.773 23.14 250.83 23.14ZM258.345 23.14C257.626 23.14 256.991 22.9813 256.441 22.664C255.899 22.3467 255.47 21.908 255.153 21.348C254.845 20.7787 254.691 20.1347 254.691 19.416C254.691 18.6973 254.845 18.0627 255.153 17.512C255.47 16.952 255.899 16.5133 256.441 16.196C256.991 15.8787 257.626 15.72 258.345 15.72C258.933 15.72 259.465 15.832 259.941 16.056C260.417 16.2707 260.809 16.5787 261.117 16.98C261.425 17.372 261.621 17.8293 261.704 18.352H260.011C259.908 17.9693 259.712 17.6707 259.423 17.456C259.133 17.2413 258.783 17.134 258.373 17.134C257.99 17.134 257.659 17.2273 257.379 17.414C257.108 17.6007 256.898 17.8667 256.749 18.212C256.599 18.5573 256.525 18.9587 256.525 19.416C256.525 19.8827 256.599 20.2887 256.749 20.634C256.898 20.9793 257.113 21.25 257.393 21.446C257.673 21.6327 257.999 21.726 258.373 21.726C258.783 21.726 259.133 21.6187 259.423 21.404C259.712 21.1893 259.908 20.8907 260.011 20.508H261.704C261.621 21.0307 261.42 21.4927 261.103 21.894C260.795 22.286 260.403 22.594 259.927 22.818C259.46 23.0327 258.933 23.14 258.345 23.14ZM262.975 23V12.92H264.739V23H262.975ZM267.987 23V18.492C267.987 18.0533 267.875 17.722 267.651 17.498C267.427 17.274 267.1 17.162 266.671 17.162C266.298 17.162 265.962 17.246 265.663 17.414C265.374 17.582 265.145 17.8153 264.977 18.114C264.818 18.4127 264.739 18.758 264.739 19.15L264.557 17.442C264.8 16.9193 265.154 16.504 265.621 16.196C266.088 15.8787 266.648 15.72 267.301 15.72C268.076 15.72 268.678 15.9393 269.107 16.378C269.546 16.8167 269.765 17.4 269.765 18.128V23H267.987ZM274.753 23.14C273.997 23.14 273.335 22.9813 272.765 22.664C272.205 22.3467 271.767 21.908 271.449 21.348C271.141 20.788 270.987 20.144 270.987 19.416C270.987 18.688 271.141 18.0487 271.449 17.498C271.767 16.938 272.205 16.504 272.765 16.196C273.325 15.8787 273.979 15.72 274.725 15.72C275.435 15.72 276.051 15.8693 276.573 16.168C277.096 16.4573 277.502 16.868 277.791 17.4C278.081 17.932 278.225 18.5527 278.225 19.262C278.225 19.3927 278.221 19.514 278.211 19.626C278.202 19.738 278.188 19.85 278.169 19.962H272.079V18.73H276.811L276.447 19.066C276.447 18.394 276.293 17.89 275.985 17.554C275.677 17.218 275.248 17.05 274.697 17.05C274.1 17.05 273.624 17.2553 273.269 17.666C272.924 18.0767 272.751 18.6693 272.751 19.444C272.751 20.2093 272.924 20.7973 273.269 21.208C273.624 21.6093 274.123 21.81 274.767 21.81C275.141 21.81 275.467 21.74 275.747 21.6C276.027 21.46 276.233 21.2453 276.363 20.956H278.029C277.796 21.628 277.399 22.16 276.839 22.552C276.289 22.944 275.593 23.14 274.753 23.14ZM284.71 23V21.39L284.85 21.418C284.728 21.9407 284.434 22.3607 283.968 22.678C283.501 22.986 282.946 23.14 282.302 23.14C281.648 23.14 281.079 22.9907 280.594 22.692C280.118 22.384 279.749 21.9547 279.488 21.404C279.226 20.8533 279.096 20.2047 279.096 19.458C279.096 18.702 279.231 18.044 279.502 17.484C279.772 16.924 280.15 16.49 280.636 16.182C281.13 15.874 281.704 15.72 282.358 15.72C283.03 15.72 283.585 15.8833 284.024 16.21C284.462 16.5273 284.733 16.9707 284.836 17.54L284.654 17.554V12.92H286.432V23H284.71ZM282.82 21.698C283.389 21.698 283.842 21.502 284.178 21.11C284.523 20.7087 284.696 20.1487 284.696 19.43C284.696 18.7113 284.523 18.156 284.178 17.764C283.832 17.372 283.375 17.176 282.806 17.176C282.246 17.176 281.793 17.3767 281.448 17.778C281.102 18.17 280.93 18.7253 280.93 19.444C280.93 20.1627 281.102 20.718 281.448 21.11C281.793 21.502 282.25 21.698 282.82 21.698ZM290.619 23.14C290.124 23.14 289.695 23.0373 289.331 22.832C288.976 22.6173 288.701 22.328 288.505 21.964C288.318 21.6 288.225 21.1893 288.225 20.732V15.86H289.989V20.368C289.989 20.8067 290.096 21.138 290.311 21.362C290.535 21.586 290.848 21.698 291.249 21.698C291.613 21.698 291.93 21.614 292.201 21.446C292.481 21.278 292.7 21.0447 292.859 20.746C293.027 20.438 293.111 20.0927 293.111 19.71L293.293 21.418C293.06 21.9407 292.71 22.3607 292.243 22.678C291.786 22.986 291.244 23.14 290.619 23.14ZM293.167 23V21.32H293.111V15.86H294.889V23H293.167ZM296.758 23V12.92H298.522V23H296.758ZM303.601 23.14C302.845 23.14 302.182 22.9813 301.613 22.664C301.053 22.3467 300.614 21.908 300.297 21.348C299.989 20.788 299.835 20.144 299.835 19.416C299.835 18.688 299.989 18.0487 300.297 17.498C300.614 16.938 301.053 16.504 301.613 16.196C302.173 15.8787 302.826 15.72 303.573 15.72C304.282 15.72 304.898 15.8693 305.421 16.168C305.944 16.4573 306.35 16.868 306.639 17.4C306.928 17.932 307.073 18.5527 307.073 19.262C307.073 19.3927 307.068 19.514 307.059 19.626C307.05 19.738 307.036 19.85 307.017 19.962H300.927V18.73H305.659L305.295 19.066C305.295 18.394 305.141 17.89 304.833 17.554C304.525 17.218 304.096 17.05 303.545 17.05C302.948 17.05 302.472 17.2553 302.117 17.666C301.772 18.0767 301.599 18.6693 301.599 19.444C301.599 20.2093 301.772 20.7973 302.117 21.208C302.472 21.6093 302.971 21.81 303.615 21.81C303.988 21.81 304.315 21.74 304.595 21.6C304.875 21.46 305.08 21.2453 305.211 20.956H306.877C306.644 21.628 306.247 22.16 305.687 22.552C305.136 22.944 304.441 23.14 303.601 23.14ZM313.557 23V21.39L313.697 21.418C313.576 21.9407 313.282 22.3607 312.815 22.678C312.349 22.986 311.793 23.14 311.149 23.14C310.496 23.14 309.927 22.9907 309.441 22.692C308.965 22.384 308.597 21.9547 308.335 21.404C308.074 20.8533 307.943 20.2047 307.943 19.458C307.943 18.702 308.079 18.044 308.349 17.484C308.62 16.924 308.998 16.49 309.483 16.182C309.978 15.874 310.552 15.72 311.205 15.72C311.877 15.72 312.433 15.8833 312.871 16.21C313.31 16.5273 313.581 16.9707 313.683 17.54L313.501 17.554V12.92H315.279V23H313.557ZM311.667 21.698C312.237 21.698 312.689 21.502 313.025 21.11C313.371 20.7087 313.543 20.1487 313.543 19.43C313.543 18.7113 313.371 18.156 313.025 17.764C312.68 17.372 312.223 17.176 311.653 17.176C311.093 17.176 310.641 17.3767 310.295 17.778C309.95 18.17 309.777 18.7253 309.777 19.444C309.777 20.1627 309.95 20.718 310.295 21.11C310.641 21.502 311.098 21.698 311.667 21.698ZM317.563 19.458L317.311 12.64H319.257L318.991 19.458H317.563ZM317.283 23V20.984H319.299V23H317.283Z" fill="black"/>
</svg>
