<svg width="280" height="235" viewBox="0 0 280 235" fill="none" xmlns="http://www.w3.org/2000/svg">
<path fill-rule="evenodd" clip-rule="evenodd" d="M89.0821 104.406C88.4639 107.465 88.7623 111.137 90.7521 115.451C91.1997 116.421 92.3438 116.849 93.3174 116.4C94.2839 115.95 94.7031 114.802 94.2625 113.825C89.1958 102.808 98.377 97.0967 100.58 95.7277C103.067 94.5725 101.227 90.8645 98.8389 92.2551C96.9985 93.4245 92.9409 95.8061 90.4111 100.634C85.174 100.049 76.476 99.9775 70.3513 101.318C79.5892 64.0754 132.721 62.8122 143.672 99.6424C143.978 100.669 145.051 101.254 146.074 100.947C147.098 100.641 147.68 99.5568 147.375 98.5371C145.442 92.0911 142.024 86.2296 137.362 81.3951C165.466 59.09 209.454 81.1955 208.537 117.048C208.537 118.117 209.404 118.987 210.47 118.987C211.536 118.987 212.403 118.117 212.403 117.048C212.403 111.265 211.344 105.446 209.319 100.02C233.613 108.962 234.276 145.477 210.292 155.276C209.404 149.244 206.611 143.639 202.298 139.318C201.545 138.562 200.315 138.569 199.569 139.325C198.816 140.081 198.823 141.314 199.576 142.063C203.84 146.334 206.37 152.032 206.697 158.071C208.231 176.804 186.637 190.281 170.583 180.968C162.816 176.789 157.756 168.261 157.827 159.411C157.827 158.342 156.96 157.472 155.894 157.472C154.828 157.472 153.961 158.342 153.961 159.411C153.961 164.638 155.418 169.822 158.154 174.278C157.6 212.642 115.333 196.677 114.11 234.675H95.5987C96.2453 228.215 98.6827 208.719 104.908 203.714C111.929 202.052 119.191 199.599 125.63 196.198C126.575 195.699 126.937 194.529 126.44 193.581C125.942 192.633 124.777 192.269 123.832 192.768C120.819 194.358 117.671 195.713 114.494 196.854C93.4741 205.175 63.5507 205.104 63.5507 175.54C63.6573 174.406 64.0837 172.759 62.8899 172.025C30.558 149.791 49.0259 96.9251 89.0821 104.406ZM130.013 140.822C128.777 138.312 123.611 127.887 108.005 128.707C105.511 128.806 105.696 132.735 108.204 132.579C121.564 132.001 125.451 140.415 126.694 142.818C127.902 145.228 131.52 143.054 130.013 140.822ZM174.213 148.401C174.917 150.811 178.669 149.656 177.901 147.268C176.835 143.859 175.03 137.156 169.303 130.917C171.435 113.54 187.232 113.033 191.096 112.905C193.91 113.29 194.365 109.054 191.487 109.019C186.648 109.233 169.821 109.397 165.899 127.843C160.733 123.957 153.428 121.568 143.11 123.358C142.059 123.536 141.355 124.541 141.533 125.597C141.71 126.652 142.712 127.358 143.764 127.18C167.108 123.379 172.494 143.025 174.213 148.401ZM77.6123 161.472C77.6621 161.443 96.0168 150.134 107.274 165.458C118.146 179.762 126.027 186.166 141.632 181.152C144.041 180.411 142.798 176.653 140.438 177.466C135.095 179.22 130.561 179.655 126.056 177.801C121.202 175.762 116.384 171.319 110.387 163.169C105.64 156.709 99.884 154.199 94.4265 153.657C97.3685 143.339 89.1253 138.412 86.6667 136.829C84.5705 135.459 82.4741 138.797 84.606 140.102C86.6242 141.406 93.2825 145.314 90.3691 153.578C82.2184 154.078 75.6168 158.142 75.5813 158.163C73.414 159.447 75.516 162.827 77.6123 161.472Z" fill="url(#paint0_linear_139_345)"/>
<path d="M58.9102 54.0815L104.896 36.4432C127.162 27.9029 151.8 27.9029 174.066 36.4432L220.052 54.0815" stroke="url(#paint1_linear_139_345)" stroke-width="2.89722"/>
<g filter="url(#filter0_d_139_345)">
<rect x="220.303" y="32.8352" width="53.1726" height="53.1726" rx="26.5863" fill="white"/>
<rect x="220.803" y="33.3352" width="52.1726" height="52.1726" rx="26.0863" stroke="#D1E5FF"/>
<path d="M258.853 48.0274V52.5866L262.841 54.8646V63.9784L258.851 66.258L258.853 70.8156L250.877 75.3733L246.889 73.0921L242.901 75.3717L234.925 70.814V66.2564L230.937 63.9799L230.939 54.8631L234.925 52.585V48.029L242.901 43.4713L246.887 45.7509L250.878 43.4697L258.853 48.0274ZM251.252 61.252C251.222 61.1778 251.17 61.1141 251.103 61.0693C251.036 61.0245 250.958 61.0005 250.877 61.0005C250.796 61.0005 250.717 61.0245 250.65 61.0693C250.584 61.1141 250.532 61.1778 250.502 61.252L250.299 61.7335C249.961 62.5506 249.319 63.208 248.505 63.5695L247.932 63.8221C247.859 63.8558 247.798 63.9093 247.755 63.9764C247.712 64.0435 247.689 64.1214 247.689 64.2009C247.689 64.2805 247.712 64.3584 247.755 64.4255C247.798 64.4926 247.859 64.5461 247.932 64.5798L248.538 64.8482C249.326 65.1955 249.958 65.827 250.309 66.6226L250.505 67.0694C250.649 67.3962 251.105 67.3962 251.249 67.0694L251.445 66.6242C251.79 65.8339 252.421 65.2002 253.215 64.8482L253.822 64.5798C253.894 64.5461 253.956 64.4926 253.999 64.4255C254.042 64.3584 254.065 64.2805 254.065 64.2009C254.065 64.1214 254.042 64.0435 253.999 63.9764C253.956 63.9093 253.894 63.8558 253.822 63.8221L253.249 63.5695C252.434 63.2083 251.791 62.5509 251.453 61.7335L251.252 61.252ZM244.356 52.7587C244.303 52.6288 244.212 52.5176 244.095 52.4392C243.978 52.3609 243.84 52.319 243.699 52.319C243.557 52.319 243.419 52.3609 243.302 52.4392C243.185 52.5176 243.094 52.6288 243.041 52.7587L242.687 53.6017C242.095 55.0324 240.971 56.1836 239.546 56.8175L238.546 57.2579C238.418 57.3165 238.309 57.4103 238.232 57.5282C238.156 57.6461 238.115 57.7833 238.115 57.9233C238.115 58.0634 238.156 58.2005 238.232 58.3184C238.309 58.4364 238.418 58.5302 238.546 58.5887L239.607 59.0545C240.995 59.672 242.1 60.7815 242.703 62.1644L243.048 62.9443C243.101 63.0715 243.192 63.1801 243.307 63.2565C243.423 63.3329 243.559 63.3737 243.699 63.3737C243.838 63.3737 243.974 63.3329 244.09 63.2565C244.205 63.1801 244.296 63.0715 244.349 62.9443L244.694 62.1629C245.297 60.7799 246.402 59.6704 247.79 59.0529L248.851 58.5887C248.98 58.5302 249.088 58.4364 249.165 58.3184C249.241 58.2005 249.282 58.0634 249.282 57.9233C249.282 57.7833 249.241 57.6461 249.165 57.5282C249.088 57.4103 248.98 57.3165 248.851 57.2579L247.849 56.8159C246.424 56.1827 245.299 55.0321 244.707 53.6017L244.356 52.7587Z" fill="url(#paint2_linear_139_345)"/>
</g>
<g filter="url(#filter1_d_139_345)">
<rect x="113.049" y="5.79443" width="53.1726" height="53.1726" rx="26.5863" fill="white"/>
<rect x="113.549" y="6.29443" width="52.1726" height="52.1726" rx="26.0863" stroke="#D1E5FF"/>
<g filter="url(#filter2_d_139_345)">
<path d="M128.163 34.1977V38.5249C128.163 39.6491 128.779 40.6963 129.764 41.2353L137.464 45.4393C138.388 45.9475 139.497 45.9475 140.421 45.4393L148.121 41.2353C149.106 40.6963 149.722 39.6491 149.722 38.5249V34.1977L140.421 39.2795C139.497 39.7877 138.388 39.7877 137.464 39.2795L128.163 34.1977ZM137.464 19.3217L124.482 26.4055C123.42 26.9907 123.42 28.5306 124.482 29.1158L137.464 36.1996C138.388 36.7078 139.497 36.7078 140.421 36.1996L152.802 29.4392V38.5403C152.802 39.3873 153.495 40.0803 154.342 40.0803C155.189 40.0803 155.882 39.3873 155.882 38.5403V28.6692C155.882 28.0995 155.574 27.5913 155.081 27.3141L140.421 19.3217C139.966 19.0791 139.458 18.9521 138.943 18.9521C138.427 18.9521 137.919 19.0791 137.464 19.3217Z" fill="url(#paint3_linear_139_345)"/>
</g>
</g>
<g filter="url(#filter3_d_139_345)">
<rect x="5.79445" y="32.8352" width="53.1726" height="53.1726" rx="26.5863" fill="white"/>
<rect x="6.29445" y="33.3352" width="52.1726" height="52.1726" rx="26.0863" stroke="#D1E5FF"/>
<path fill-rule="evenodd" clip-rule="evenodd" d="M18.423 50.7586C18.423 49.6481 18.8641 48.583 19.6494 47.7977C20.4347 47.0125 21.4997 46.5713 22.6103 46.5713H36.5681C37.6786 46.5713 38.7437 47.0125 39.529 47.7977C40.3142 48.583 40.7554 49.6481 40.7554 50.7586V59.1333C40.7554 60.2438 40.3142 61.3089 39.529 62.0942C38.7437 62.8795 37.6786 63.3206 36.5681 63.3206H31.5628L26.3887 68.4948C26.1935 68.6899 25.9448 68.8228 25.6741 68.8766C25.4034 68.9305 25.1228 68.9028 24.8677 68.7972C24.6127 68.6916 24.3948 68.5127 24.2414 68.2833C24.088 68.0538 24.0061 67.784 24.0061 67.508V63.3206H22.6103C21.4997 63.3206 20.4347 62.8795 19.6494 62.0942C18.8641 61.3089 18.423 60.2438 18.423 59.1333V50.7586ZM46.3385 56.3417V64.7164C46.3385 66.1122 45.5011 68.9038 42.1512 68.9038H40.7554V73.0911C40.7554 73.5559 40.4763 74.4869 39.3596 74.4869C39.0763 74.4869 38.846 74.4268 38.6617 74.3291L33.2364 68.9038H28.1934L32.3807 64.7164H36.5681C38.4286 64.7164 42.1512 63.5998 42.1512 59.1333V52.1544C43.547 52.1544 46.3385 52.9919 46.3385 56.3417Z" fill="url(#paint4_linear_139_345)"/>
</g>
<defs>
<filter id="filter0_d_139_345" x="214.508" y="27.0408" width="64.7614" height="64.7614" filterUnits="userSpaceOnUse" color-interpolation-filters="sRGB">
<feFlood flood-opacity="0" result="BackgroundImageFix"/>
<feColorMatrix in="SourceAlpha" type="matrix" values="0 0 0 0 0 0 0 0 0 0 0 0 0 0 0 0 0 0 127 0" result="hardAlpha"/>
<feMorphology radius="5.79445" operator="dilate" in="SourceAlpha" result="effect1_dropShadow_139_345"/>
<feOffset/>
<feComposite in2="hardAlpha" operator="out"/>
<feColorMatrix type="matrix" values="0 0 0 0 0.952941 0 0 0 0 0.968627 0 0 0 0 0.988235 0 0 0 1 0"/>
<feBlend mode="normal" in2="BackgroundImageFix" result="effect1_dropShadow_139_345"/>
<feBlend mode="normal" in="SourceGraphic" in2="effect1_dropShadow_139_345" result="shape"/>
</filter>
<filter id="filter1_d_139_345" x="107.254" y="-1.23978e-05" width="64.7615" height="64.7614" filterUnits="userSpaceOnUse" color-interpolation-filters="sRGB">
<feFlood flood-opacity="0" result="BackgroundImageFix"/>
<feColorMatrix in="SourceAlpha" type="matrix" values="0 0 0 0 0 0 0 0 0 0 0 0 0 0 0 0 0 0 127 0" result="hardAlpha"/>
<feMorphology radius="5.79445" operator="dilate" in="SourceAlpha" result="effect1_dropShadow_139_345"/>
<feOffset/>
<feComposite in2="hardAlpha" operator="out"/>
<feColorMatrix type="matrix" values="0 0 0 0 0.952941 0 0 0 0 0.968627 0 0 0 0 0.988235 0 0 0 1 0"/>
<feBlend mode="normal" in2="BackgroundImageFix" result="effect1_dropShadow_139_345"/>
<feBlend mode="normal" in="SourceGraphic" in2="effect1_dropShadow_139_345" result="shape"/>
</filter>
<filter id="filter2_d_139_345" x="123.685" y="18.9521" width="32.1965" height="29.1782" filterUnits="userSpaceOnUse" color-interpolation-filters="sRGB">
<feFlood flood-opacity="0" result="BackgroundImageFix"/>
<feColorMatrix in="SourceAlpha" type="matrix" values="0 0 0 0 0 0 0 0 0 0 0 0 0 0 0 0 0 0 127 0" result="hardAlpha"/>
<feOffset dy="2.30993"/>
<feComposite in2="hardAlpha" operator="out"/>
<feColorMatrix type="matrix" values="0 0 0 0 1 0 0 0 0 1 0 0 0 0 1 0 0 0 0.25 0"/>
<feBlend mode="normal" in2="BackgroundImageFix" result="effect1_dropShadow_139_345"/>
<feBlend mode="normal" in="SourceGraphic" in2="effect1_dropShadow_139_345" result="shape"/>
</filter>
<filter id="filter3_d_139_345" x="2.86102e-06" y="27.0408" width="64.7615" height="64.7614" filterUnits="userSpaceOnUse" color-interpolation-filters="sRGB">
<feFlood flood-opacity="0" result="BackgroundImageFix"/>
<feColorMatrix in="SourceAlpha" type="matrix" values="0 0 0 0 0 0 0 0 0 0 0 0 0 0 0 0 0 0 127 0" result="hardAlpha"/>
<feMorphology radius="5.79445" operator="dilate" in="SourceAlpha" result="effect1_dropShadow_139_345"/>
<feOffset/>
<feComposite in2="hardAlpha" operator="out"/>
<feColorMatrix type="matrix" values="0 0 0 0 0.952941 0 0 0 0 0.968627 0 0 0 0 0.988235 0 0 0 1 0"/>
<feBlend mode="normal" in2="BackgroundImageFix" result="effect1_dropShadow_139_345"/>
<feBlend mode="normal" in="SourceGraphic" in2="effect1_dropShadow_139_345" result="shape"/>
</filter>
<linearGradient id="paint0_linear_139_345" x1="137.135" y1="72.4305" x2="137.135" y2="234.675" gradientUnits="userSpaceOnUse">
<stop stop-color="#1397F6"/>
<stop offset="1" stop-color="#F3F7FC"/>
</linearGradient>
<linearGradient id="paint1_linear_139_345" x1="139.481" y1="23.1778" x2="139.481" y2="54.0815" gradientUnits="userSpaceOnUse">
<stop stop-color="#1397F6"/>
<stop offset="1" stop-color="#A1D7FF"/>
</linearGradient>
<linearGradient id="paint2_linear_139_345" x1="246.889" y1="43.4697" x2="246.889" y2="75.3733" gradientUnits="userSpaceOnUse">
<stop stop-color="#1397F6"/>
<stop offset="1" stop-color="#A1D7FF"/>
</linearGradient>
<linearGradient id="paint3_linear_139_345" x1="139.784" y1="18.9521" x2="139.784" y2="45.8205" gradientUnits="userSpaceOnUse">
<stop stop-color="#1397F6"/>
<stop offset="1" stop-color="#A1D7FF"/>
</linearGradient>
<linearGradient id="paint4_linear_139_345" x1="32.3807" y1="46.5713" x2="32.3807" y2="74.4869" gradientUnits="userSpaceOnUse">
<stop stop-color="#1397F6"/>
<stop offset="1" stop-color="#A1D7FF"/>
</linearGradient>
</defs>
</svg>
